G04 #@! TF.GenerationSoftware,KiCad,Pcbnew,(5.0.1-3-g963ef8bb5)*
G04 #@! TF.CreationDate,2018-12-20T00:01:49+01:00*
G04 #@! TF.ProjectId,fablab_Arduino,6661626C61625F41726475696E6F2E6B,rev?*
G04 #@! TF.SameCoordinates,Original*
G04 #@! TF.FileFunction,Copper,L1,Top,Signal*
G04 #@! TF.FilePolarity,Positive*
%FSLAX46Y46*%
G04 Gerber Fmt 4.6, Leading zero omitted, Abs format (unit mm)*
G04 Created by KiCad (PCBNEW (5.0.1-3-g963ef8bb5)) date 2018 December 20, Thursday 00:01:49*
%MOMM*%
%LPD*%
G01*
G04 APERTURE LIST*
G04 #@! TA.AperFunction,ComponentPad*
%ADD10R,3.500000X3.500000*%
G04 #@! TD*
G04 #@! TA.AperFunction,Conductor*
%ADD11C,0.100000*%
G04 #@! TD*
G04 #@! TA.AperFunction,ComponentPad*
%ADD12C,3.000000*%
G04 #@! TD*
G04 #@! TA.AperFunction,ComponentPad*
%ADD13C,3.500000*%
G04 #@! TD*
G04 #@! TA.AperFunction,ComponentPad*
%ADD14C,2.000000*%
G04 #@! TD*
G04 #@! TA.AperFunction,ComponentPad*
%ADD15R,1.600000X1.600000*%
G04 #@! TD*
G04 #@! TA.AperFunction,ComponentPad*
%ADD16O,1.600000X1.600000*%
G04 #@! TD*
G04 #@! TA.AperFunction,ComponentPad*
%ADD17R,2.200000X2.200000*%
G04 #@! TD*
G04 #@! TA.AperFunction,ComponentPad*
%ADD18O,2.200000X2.200000*%
G04 #@! TD*
G04 #@! TA.AperFunction,ComponentPad*
%ADD19O,1.050000X1.500000*%
G04 #@! TD*
G04 #@! TA.AperFunction,ComponentPad*
%ADD20R,1.050000X1.500000*%
G04 #@! TD*
G04 #@! TA.AperFunction,ComponentPad*
%ADD21R,1.905000X2.000000*%
G04 #@! TD*
G04 #@! TA.AperFunction,ComponentPad*
%ADD22O,1.905000X2.000000*%
G04 #@! TD*
G04 #@! TA.AperFunction,ComponentPad*
%ADD23C,1.600000*%
G04 #@! TD*
G04 #@! TA.AperFunction,ComponentPad*
%ADD24C,1.400000*%
G04 #@! TD*
G04 #@! TA.AperFunction,ComponentPad*
%ADD25O,1.400000X1.400000*%
G04 #@! TD*
G04 #@! TA.AperFunction,ComponentPad*
%ADD26R,1.700000X1.700000*%
G04 #@! TD*
G04 #@! TA.AperFunction,ComponentPad*
%ADD27O,1.700000X1.700000*%
G04 #@! TD*
G04 #@! TA.AperFunction,ComponentPad*
%ADD28C,1.440000*%
G04 #@! TD*
G04 #@! TA.AperFunction,ViaPad*
%ADD29C,0.800000*%
G04 #@! TD*
G04 #@! TA.AperFunction,Conductor*
%ADD30C,0.250000*%
G04 #@! TD*
G04 #@! TA.AperFunction,Conductor*
%ADD31C,0.254000*%
G04 #@! TD*
G04 APERTURE END LIST*
D10*
G04 #@! TO.P,J1,1*
G04 #@! TO.N,Net-(D1-Pad2)*
X99060000Y-87630000D03*
D11*
G04 #@! TD*
G04 #@! TO.N,GNDD*
G04 #@! TO.C,J1*
G36*
X93883513Y-85883611D02*
X93956318Y-85894411D01*
X94027714Y-85912295D01*
X94097013Y-85937090D01*
X94163548Y-85968559D01*
X94226678Y-86006398D01*
X94285795Y-86050242D01*
X94340330Y-86099670D01*
X94389758Y-86154205D01*
X94433602Y-86213322D01*
X94471441Y-86276452D01*
X94502910Y-86342987D01*
X94527705Y-86412286D01*
X94545589Y-86483682D01*
X94556389Y-86556487D01*
X94560000Y-86630000D01*
X94560000Y-88630000D01*
X94556389Y-88703513D01*
X94545589Y-88776318D01*
X94527705Y-88847714D01*
X94502910Y-88917013D01*
X94471441Y-88983548D01*
X94433602Y-89046678D01*
X94389758Y-89105795D01*
X94340330Y-89160330D01*
X94285795Y-89209758D01*
X94226678Y-89253602D01*
X94163548Y-89291441D01*
X94097013Y-89322910D01*
X94027714Y-89347705D01*
X93956318Y-89365589D01*
X93883513Y-89376389D01*
X93810000Y-89380000D01*
X92310000Y-89380000D01*
X92236487Y-89376389D01*
X92163682Y-89365589D01*
X92092286Y-89347705D01*
X92022987Y-89322910D01*
X91956452Y-89291441D01*
X91893322Y-89253602D01*
X91834205Y-89209758D01*
X91779670Y-89160330D01*
X91730242Y-89105795D01*
X91686398Y-89046678D01*
X91648559Y-88983548D01*
X91617090Y-88917013D01*
X91592295Y-88847714D01*
X91574411Y-88776318D01*
X91563611Y-88703513D01*
X91560000Y-88630000D01*
X91560000Y-86630000D01*
X91563611Y-86556487D01*
X91574411Y-86483682D01*
X91592295Y-86412286D01*
X91617090Y-86342987D01*
X91648559Y-86276452D01*
X91686398Y-86213322D01*
X91730242Y-86154205D01*
X91779670Y-86099670D01*
X91834205Y-86050242D01*
X91893322Y-86006398D01*
X91956452Y-85968559D01*
X92022987Y-85937090D01*
X92092286Y-85912295D01*
X92163682Y-85894411D01*
X92236487Y-85883611D01*
X92310000Y-85880000D01*
X93810000Y-85880000D01*
X93883513Y-85883611D01*
X93883513Y-85883611D01*
G37*
D12*
G04 #@! TO.P,J1,2*
G04 #@! TO.N,GNDD*
X93060000Y-87630000D03*
D11*
G04 #@! TD*
G04 #@! TO.N,GNDD*
G04 #@! TO.C,J1*
G36*
X97020765Y-90584213D02*
X97105704Y-90596813D01*
X97188999Y-90617677D01*
X97269848Y-90646605D01*
X97347472Y-90683319D01*
X97421124Y-90727464D01*
X97490094Y-90778616D01*
X97553718Y-90836282D01*
X97611384Y-90899906D01*
X97662536Y-90968876D01*
X97706681Y-91042528D01*
X97743395Y-91120152D01*
X97772323Y-91201001D01*
X97793187Y-91284296D01*
X97805787Y-91369235D01*
X97810000Y-91455000D01*
X97810000Y-93205000D01*
X97805787Y-93290765D01*
X97793187Y-93375704D01*
X97772323Y-93458999D01*
X97743395Y-93539848D01*
X97706681Y-93617472D01*
X97662536Y-93691124D01*
X97611384Y-93760094D01*
X97553718Y-93823718D01*
X97490094Y-93881384D01*
X97421124Y-93932536D01*
X97347472Y-93976681D01*
X97269848Y-94013395D01*
X97188999Y-94042323D01*
X97105704Y-94063187D01*
X97020765Y-94075787D01*
X96935000Y-94080000D01*
X95185000Y-94080000D01*
X95099235Y-94075787D01*
X95014296Y-94063187D01*
X94931001Y-94042323D01*
X94850152Y-94013395D01*
X94772528Y-93976681D01*
X94698876Y-93932536D01*
X94629906Y-93881384D01*
X94566282Y-93823718D01*
X94508616Y-93760094D01*
X94457464Y-93691124D01*
X94413319Y-93617472D01*
X94376605Y-93539848D01*
X94347677Y-93458999D01*
X94326813Y-93375704D01*
X94314213Y-93290765D01*
X94310000Y-93205000D01*
X94310000Y-91455000D01*
X94314213Y-91369235D01*
X94326813Y-91284296D01*
X94347677Y-91201001D01*
X94376605Y-91120152D01*
X94413319Y-91042528D01*
X94457464Y-90968876D01*
X94508616Y-90899906D01*
X94566282Y-90836282D01*
X94629906Y-90778616D01*
X94698876Y-90727464D01*
X94772528Y-90683319D01*
X94850152Y-90646605D01*
X94931001Y-90617677D01*
X95014296Y-90596813D01*
X95099235Y-90584213D01*
X95185000Y-90580000D01*
X96935000Y-90580000D01*
X97020765Y-90584213D01*
X97020765Y-90584213D01*
G37*
D13*
G04 #@! TO.P,J1,3*
G04 #@! TO.N,GNDD*
X96060000Y-92330000D03*
G04 #@! TD*
D14*
G04 #@! TO.P,SW2,1*
G04 #@! TO.N,GNDD*
X105560000Y-115570000D03*
G04 #@! TO.P,SW2,2*
G04 #@! TO.N,Net-(A1-Pad6)*
X105560000Y-120070000D03*
G04 #@! TO.P,SW2,1*
G04 #@! TO.N,GNDD*
X99060000Y-115570000D03*
G04 #@! TO.P,SW2,2*
G04 #@! TO.N,Net-(A1-Pad6)*
X99060000Y-120070000D03*
G04 #@! TD*
D15*
G04 #@! TO.P,A1,1*
G04 #@! TO.N,Net-(A1-Pad1)*
X116840000Y-80010000D03*
D16*
G04 #@! TO.P,A1,17*
G04 #@! TO.N,Net-(A1-Pad17)*
X132080000Y-113030000D03*
G04 #@! TO.P,A1,2*
G04 #@! TO.N,Net-(A1-Pad2)*
X116840000Y-82550000D03*
G04 #@! TO.P,A1,18*
G04 #@! TO.N,Net-(A1-Pad18)*
X132080000Y-110490000D03*
G04 #@! TO.P,A1,3*
G04 #@! TO.N,Net-(A1-Pad3)*
X116840000Y-85090000D03*
G04 #@! TO.P,A1,19*
G04 #@! TO.N,Net-(A1-Pad19)*
X132080000Y-107950000D03*
G04 #@! TO.P,A1,4*
G04 #@! TO.N,GNDD*
X116840000Y-87630000D03*
G04 #@! TO.P,A1,20*
G04 #@! TO.N,Net-(A1-Pad20)*
X132080000Y-105410000D03*
G04 #@! TO.P,A1,5*
G04 #@! TO.N,Net-(A1-Pad5)*
X116840000Y-90170000D03*
G04 #@! TO.P,A1,21*
G04 #@! TO.N,Net-(A1-Pad21)*
X132080000Y-102870000D03*
G04 #@! TO.P,A1,6*
G04 #@! TO.N,Net-(A1-Pad6)*
X116840000Y-92710000D03*
G04 #@! TO.P,A1,22*
G04 #@! TO.N,Net-(A1-Pad22)*
X132080000Y-100330000D03*
G04 #@! TO.P,A1,7*
G04 #@! TO.N,Net-(A1-Pad7)*
X116840000Y-95250000D03*
G04 #@! TO.P,A1,23*
G04 #@! TO.N,Net-(A1-Pad23)*
X132080000Y-97790000D03*
G04 #@! TO.P,A1,8*
G04 #@! TO.N,Net-(A1-Pad8)*
X116840000Y-97790000D03*
G04 #@! TO.P,A1,24*
G04 #@! TO.N,Net-(A1-Pad24)*
X132080000Y-95250000D03*
G04 #@! TO.P,A1,9*
G04 #@! TO.N,Net-(A1-Pad9)*
X116840000Y-100330000D03*
G04 #@! TO.P,A1,25*
G04 #@! TO.N,Net-(A1-Pad25)*
X132080000Y-92710000D03*
G04 #@! TO.P,A1,10*
G04 #@! TO.N,Net-(A1-Pad10)*
X116840000Y-102870000D03*
G04 #@! TO.P,A1,26*
G04 #@! TO.N,Net-(A1-Pad26)*
X132080000Y-90170000D03*
G04 #@! TO.P,A1,11*
G04 #@! TO.N,Net-(A1-Pad11)*
X116840000Y-105410000D03*
G04 #@! TO.P,A1,27*
G04 #@! TO.N,Net-(A1-Pad18)*
X132080000Y-87630000D03*
G04 #@! TO.P,A1,12*
G04 #@! TO.N,Net-(A1-Pad12)*
X116840000Y-107950000D03*
G04 #@! TO.P,A1,28*
G04 #@! TO.N,Net-(A1-Pad28)*
X132080000Y-85090000D03*
G04 #@! TO.P,A1,13*
G04 #@! TO.N,Net-(A1-Pad13)*
X116840000Y-110490000D03*
G04 #@! TO.P,A1,29*
G04 #@! TO.N,GNDD*
X132080000Y-82550000D03*
G04 #@! TO.P,A1,14*
G04 #@! TO.N,Net-(A1-Pad14)*
X116840000Y-113030000D03*
G04 #@! TO.P,A1,30*
G04 #@! TO.N,/10V*
X132080000Y-80010000D03*
G04 #@! TO.P,A1,15*
G04 #@! TO.N,Net-(A1-Pad15)*
X116840000Y-115570000D03*
G04 #@! TO.P,A1,16*
G04 #@! TO.N,Net-(A1-Pad16)*
X132080000Y-115570000D03*
G04 #@! TD*
D17*
G04 #@! TO.P,D1,1*
G04 #@! TO.N,/10V*
X109220000Y-78740000D03*
D18*
G04 #@! TO.P,D1,2*
G04 #@! TO.N,Net-(D1-Pad2)*
X109220000Y-88900000D03*
G04 #@! TD*
D19*
G04 #@! TO.P,Q1,2*
G04 #@! TO.N,Net-(Q1-Pad2)*
X154940000Y-105410000D03*
G04 #@! TO.P,Q1,3*
G04 #@! TO.N,Net-(Q1-Pad3)*
X156210000Y-105410000D03*
D20*
G04 #@! TO.P,Q1,1*
G04 #@! TO.N,GNDD*
X153670000Y-105410000D03*
G04 #@! TD*
D21*
G04 #@! TO.P,U1,1*
G04 #@! TO.N,/10V*
X99695000Y-100330000D03*
D22*
G04 #@! TO.P,U1,2*
G04 #@! TO.N,GNDD*
X102235000Y-100330000D03*
G04 #@! TO.P,U1,3*
G04 #@! TO.N,+5V*
X104775000Y-100330000D03*
G04 #@! TD*
D15*
G04 #@! TO.P,U2,1*
G04 #@! TO.N,Net-(Q1-Pad3)*
X151130000Y-87630000D03*
D23*
G04 #@! TO.P,U2,2*
G04 #@! TO.N,Net-(R6-Pad1)*
X151130000Y-90170000D03*
G04 #@! TO.P,U2,3*
G04 #@! TO.N,Net-(R7-Pad1)*
X151130000Y-92710000D03*
G04 #@! TO.P,U2,4*
G04 #@! TO.N,Net-(R5-Pad1)*
X151130000Y-95250000D03*
G04 #@! TO.P,U2,5*
G04 #@! TO.N,Net-(R4-Pad1)*
X151130000Y-97790000D03*
G04 #@! TO.P,U2,6*
G04 #@! TO.N,Net-(Q1-Pad3)*
X156210000Y-97790000D03*
G04 #@! TO.P,U2,7*
G04 #@! TO.N,Net-(R8-Pad1)*
X156210000Y-95250000D03*
G04 #@! TO.P,U2,8*
G04 #@! TO.N,Net-(R3-Pad1)*
X156210000Y-92710000D03*
G04 #@! TO.P,U2,9*
G04 #@! TO.N,Net-(R2-Pad1)*
X156210000Y-90170000D03*
G04 #@! TO.P,U2,10*
G04 #@! TO.N,Net-(R1-Pad1)*
X156210000Y-87630000D03*
G04 #@! TD*
D24*
G04 #@! TO.P,R10,1*
G04 #@! TO.N,Net-(A1-Pad18)*
X138430000Y-120650000D03*
D25*
G04 #@! TO.P,R10,2*
G04 #@! TO.N,Net-(A1-Pad7)*
X146050000Y-120650000D03*
G04 #@! TD*
G04 #@! TO.P,R11,2*
G04 #@! TO.N,Net-(A1-Pad6)*
X138430000Y-123190000D03*
D24*
G04 #@! TO.P,R11,1*
G04 #@! TO.N,Net-(A1-Pad18)*
X146050000Y-123190000D03*
G04 #@! TD*
G04 #@! TO.P,R1,1*
G04 #@! TO.N,Net-(R1-Pad1)*
X146050000Y-107950000D03*
D25*
G04 #@! TO.P,R1,2*
G04 #@! TO.N,Net-(A1-Pad19)*
X138430000Y-107950000D03*
G04 #@! TD*
G04 #@! TO.P,R2,2*
G04 #@! TO.N,Net-(A1-Pad20)*
X138430000Y-105410000D03*
D24*
G04 #@! TO.P,R2,1*
G04 #@! TO.N,Net-(R2-Pad1)*
X146050000Y-105410000D03*
G04 #@! TD*
G04 #@! TO.P,R3,1*
G04 #@! TO.N,Net-(R3-Pad1)*
X146050000Y-102870000D03*
D25*
G04 #@! TO.P,R3,2*
G04 #@! TO.N,Net-(A1-Pad21)*
X138430000Y-102870000D03*
G04 #@! TD*
G04 #@! TO.P,R4,2*
G04 #@! TO.N,Net-(A1-Pad22)*
X138430000Y-100330000D03*
D24*
G04 #@! TO.P,R4,1*
G04 #@! TO.N,Net-(R4-Pad1)*
X146050000Y-100330000D03*
G04 #@! TD*
G04 #@! TO.P,R5,1*
G04 #@! TO.N,Net-(R5-Pad1)*
X146050000Y-97790000D03*
D25*
G04 #@! TO.P,R5,2*
G04 #@! TO.N,Net-(A1-Pad23)*
X138430000Y-97790000D03*
G04 #@! TD*
G04 #@! TO.P,R6,2*
G04 #@! TO.N,Net-(A1-Pad24)*
X138430000Y-95250000D03*
D24*
G04 #@! TO.P,R6,1*
G04 #@! TO.N,Net-(R6-Pad1)*
X146050000Y-95250000D03*
G04 #@! TD*
G04 #@! TO.P,R7,1*
G04 #@! TO.N,Net-(R7-Pad1)*
X146050000Y-115570000D03*
D25*
G04 #@! TO.P,R7,2*
G04 #@! TO.N,Net-(A1-Pad11)*
X138430000Y-115570000D03*
G04 #@! TD*
G04 #@! TO.P,R8,2*
G04 #@! TO.N,Net-(A1-Pad10)*
X138430000Y-118110000D03*
D24*
G04 #@! TO.P,R8,1*
G04 #@! TO.N,Net-(R8-Pad1)*
X146050000Y-118110000D03*
G04 #@! TD*
G04 #@! TO.P,R9,1*
G04 #@! TO.N,Net-(Q1-Pad2)*
X146050000Y-113030000D03*
D25*
G04 #@! TO.P,R9,2*
G04 #@! TO.N,Net-(A1-Pad12)*
X138430000Y-113030000D03*
G04 #@! TD*
D14*
G04 #@! TO.P,SW1,2*
G04 #@! TO.N,Net-(A1-Pad7)*
X151130000Y-120070000D03*
G04 #@! TO.P,SW1,1*
G04 #@! TO.N,GNDD*
X151130000Y-115570000D03*
G04 #@! TO.P,SW1,2*
G04 #@! TO.N,Net-(A1-Pad7)*
X157630000Y-120070000D03*
G04 #@! TO.P,SW1,1*
G04 #@! TO.N,GNDD*
X157630000Y-115570000D03*
G04 #@! TD*
D26*
G04 #@! TO.P,J2,1*
G04 #@! TO.N,Net-(A1-Pad14)*
X88900000Y-113030000D03*
D27*
G04 #@! TO.P,J2,2*
G04 #@! TO.N,+5V*
X88900000Y-110490000D03*
G04 #@! TO.P,J2,3*
G04 #@! TO.N,GNDD*
X88900000Y-107950000D03*
G04 #@! TD*
D28*
G04 #@! TO.P,RV1,1*
G04 #@! TO.N,Net-(A1-Pad18)*
X142240000Y-81280000D03*
G04 #@! TO.P,RV1,2*
G04 #@! TO.N,Net-(A1-Pad25)*
X139700000Y-83820000D03*
G04 #@! TO.P,RV1,3*
G04 #@! TO.N,GNDD*
X137160000Y-81280000D03*
G04 #@! TD*
D15*
G04 #@! TO.P,C1,1*
G04 #@! TO.N,/10V*
X90170000Y-99060000D03*
D23*
G04 #@! TO.P,C1,2*
G04 #@! TO.N,GNDD*
X90170000Y-101560000D03*
G04 #@! TD*
D15*
G04 #@! TO.P,C2,1*
G04 #@! TO.N,+5V*
X109220000Y-110490000D03*
D23*
G04 #@! TO.P,C2,2*
G04 #@! TO.N,GNDD*
X109220000Y-108490000D03*
G04 #@! TD*
D24*
G04 #@! TO.P,C3,1*
G04 #@! TO.N,+5V*
X103505000Y-110490000D03*
G04 #@! TO.P,C3,2*
G04 #@! TO.N,GNDD*
X103505000Y-107990000D03*
G04 #@! TD*
G04 #@! TO.P,C4,2*
G04 #@! TO.N,GNDD*
X137200000Y-76835000D03*
G04 #@! TO.P,C4,1*
G04 #@! TO.N,Net-(A1-Pad18)*
X139700000Y-76835000D03*
G04 #@! TD*
D23*
G04 #@! TO.P,C5,2*
G04 #@! TO.N,GNDD*
X96520000Y-108490000D03*
D15*
G04 #@! TO.P,C5,1*
G04 #@! TO.N,+5V*
X96520000Y-110490000D03*
G04 #@! TD*
D29*
G04 #@! TO.N,Net-(A1-Pad12)*
X124460000Y-107950000D03*
G04 #@! TO.N,Net-(A1-Pad6)*
X114300000Y-123190000D03*
G04 #@! TD*
D30*
G04 #@! TO.N,Net-(R8-Pad1)*
X147320000Y-118110000D02*
X146050000Y-118110000D01*
X148590000Y-116840000D02*
X147320000Y-118110000D01*
X149860000Y-113030000D02*
X148590000Y-114300000D01*
X148590000Y-114300000D02*
X148590000Y-116840000D01*
X154940000Y-95250000D02*
X152819999Y-97370001D01*
X152819999Y-101180001D02*
X149860000Y-104140000D01*
X152819999Y-97370001D02*
X152819999Y-101180001D01*
X149860000Y-104140000D02*
X149860000Y-113030000D01*
X156210000Y-95250000D02*
X154940000Y-95250000D01*
G04 #@! TO.N,Net-(A1-Pad12)*
X124460000Y-107950000D02*
X116840000Y-107950000D01*
G04 #@! TO.N,Net-(A1-Pad18)*
X132080000Y-110490000D02*
X130810000Y-110490000D01*
X130810000Y-110490000D02*
X129540000Y-109220000D01*
X129540000Y-109220000D02*
X129540000Y-88900000D01*
X129540000Y-88900000D02*
X130810000Y-87630000D01*
X130810000Y-87630000D02*
X132080000Y-87630000D01*
G04 #@! TO.N,Net-(A1-Pad7)*
X146050000Y-120650000D02*
X144780000Y-119380000D01*
X129540000Y-119380000D02*
X127000000Y-116840000D01*
X127000000Y-116840000D02*
X127000000Y-96520000D01*
X127000000Y-96520000D02*
X125730000Y-95250000D01*
X125730000Y-95250000D02*
X116840000Y-95250000D01*
X144780000Y-119380000D02*
X142240000Y-116840000D01*
X142240000Y-116840000D02*
X142240000Y-111760000D01*
X142240000Y-111760000D02*
X140970000Y-110490000D01*
X140970000Y-110490000D02*
X137160000Y-110490000D01*
X137160000Y-110490000D02*
X135890000Y-111760000D01*
X135890000Y-111760000D02*
X135890000Y-118110000D01*
X135890000Y-118110000D02*
X134620000Y-119380000D01*
X134620000Y-119380000D02*
X129540000Y-119380000D01*
G04 #@! TO.N,Net-(A1-Pad6)*
X116840000Y-92710000D02*
X115570000Y-92710000D01*
X115570000Y-92710000D02*
X114300000Y-93980000D01*
X114300000Y-93980000D02*
X114300000Y-123190000D01*
G04 #@! TO.N,Net-(Q1-Pad3)*
X156210000Y-97790000D02*
X156210000Y-105410000D01*
G04 #@! TD*
D31*
G04 #@! TO.N,GNDD*
G36*
X165608000Y-124968000D02*
X85852000Y-124968000D01*
X85852000Y-121545050D01*
X88285000Y-121545050D01*
X88285000Y-122294950D01*
X88571974Y-122987767D01*
X89102233Y-123518026D01*
X89795050Y-123805000D01*
X90544950Y-123805000D01*
X91237767Y-123518026D01*
X91768026Y-122987767D01*
X91769534Y-122984126D01*
X113265000Y-122984126D01*
X113265000Y-123395874D01*
X113422569Y-123776280D01*
X113713720Y-124067431D01*
X114094126Y-124225000D01*
X114505874Y-124225000D01*
X114886280Y-124067431D01*
X115177431Y-123776280D01*
X115335000Y-123395874D01*
X115335000Y-122984126D01*
X115177431Y-122603720D01*
X115060000Y-122486289D01*
X115060000Y-94294801D01*
X115727238Y-93627564D01*
X115805423Y-93744577D01*
X116157758Y-93980000D01*
X115805423Y-94215423D01*
X115488260Y-94690091D01*
X115376887Y-95250000D01*
X115488260Y-95809909D01*
X115805423Y-96284577D01*
X116157758Y-96520000D01*
X115805423Y-96755423D01*
X115488260Y-97230091D01*
X115376887Y-97790000D01*
X115488260Y-98349909D01*
X115805423Y-98824577D01*
X116157758Y-99060000D01*
X115805423Y-99295423D01*
X115488260Y-99770091D01*
X115376887Y-100330000D01*
X115488260Y-100889909D01*
X115805423Y-101364577D01*
X116157758Y-101600000D01*
X115805423Y-101835423D01*
X115488260Y-102310091D01*
X115376887Y-102870000D01*
X115488260Y-103429909D01*
X115805423Y-103904577D01*
X116157758Y-104140000D01*
X115805423Y-104375423D01*
X115488260Y-104850091D01*
X115376887Y-105410000D01*
X115488260Y-105969909D01*
X115805423Y-106444577D01*
X116157758Y-106680000D01*
X115805423Y-106915423D01*
X115488260Y-107390091D01*
X115376887Y-107950000D01*
X115488260Y-108509909D01*
X115805423Y-108984577D01*
X116157758Y-109220000D01*
X115805423Y-109455423D01*
X115488260Y-109930091D01*
X115376887Y-110490000D01*
X115488260Y-111049909D01*
X115805423Y-111524577D01*
X116157758Y-111760000D01*
X115805423Y-111995423D01*
X115488260Y-112470091D01*
X115376887Y-113030000D01*
X115488260Y-113589909D01*
X115805423Y-114064577D01*
X116157758Y-114300000D01*
X115805423Y-114535423D01*
X115488260Y-115010091D01*
X115376887Y-115570000D01*
X115488260Y-116129909D01*
X115805423Y-116604577D01*
X116280091Y-116921740D01*
X116698667Y-117005000D01*
X116981333Y-117005000D01*
X117399909Y-116921740D01*
X117874577Y-116604577D01*
X118191740Y-116129909D01*
X118303113Y-115570000D01*
X118191740Y-115010091D01*
X117874577Y-114535423D01*
X117522242Y-114300000D01*
X117874577Y-114064577D01*
X118191740Y-113589909D01*
X118303113Y-113030000D01*
X118191740Y-112470091D01*
X117874577Y-111995423D01*
X117522242Y-111760000D01*
X117874577Y-111524577D01*
X118191740Y-111049909D01*
X118303113Y-110490000D01*
X118191740Y-109930091D01*
X117874577Y-109455423D01*
X117522242Y-109220000D01*
X117874577Y-108984577D01*
X118058043Y-108710000D01*
X123756289Y-108710000D01*
X123873720Y-108827431D01*
X124254126Y-108985000D01*
X124665874Y-108985000D01*
X125046280Y-108827431D01*
X125337431Y-108536280D01*
X125495000Y-108155874D01*
X125495000Y-107744126D01*
X125337431Y-107363720D01*
X125046280Y-107072569D01*
X124665874Y-106915000D01*
X124254126Y-106915000D01*
X123873720Y-107072569D01*
X123756289Y-107190000D01*
X118058043Y-107190000D01*
X117874577Y-106915423D01*
X117522242Y-106680000D01*
X117874577Y-106444577D01*
X118191740Y-105969909D01*
X118303113Y-105410000D01*
X118191740Y-104850091D01*
X117874577Y-104375423D01*
X117522242Y-104140000D01*
X117874577Y-103904577D01*
X118191740Y-103429909D01*
X118303113Y-102870000D01*
X118191740Y-102310091D01*
X117874577Y-101835423D01*
X117522242Y-101600000D01*
X117874577Y-101364577D01*
X118191740Y-100889909D01*
X118303113Y-100330000D01*
X118191740Y-99770091D01*
X117874577Y-99295423D01*
X117522242Y-99060000D01*
X117874577Y-98824577D01*
X118191740Y-98349909D01*
X118303113Y-97790000D01*
X118191740Y-97230091D01*
X117874577Y-96755423D01*
X117522242Y-96520000D01*
X117874577Y-96284577D01*
X118058043Y-96010000D01*
X125415199Y-96010000D01*
X126240001Y-96834803D01*
X126240000Y-116765153D01*
X126225112Y-116840000D01*
X126240000Y-116914847D01*
X126240000Y-116914851D01*
X126284096Y-117136536D01*
X126452071Y-117387929D01*
X126515530Y-117430331D01*
X128949673Y-119864476D01*
X128992071Y-119927929D01*
X129055524Y-119970327D01*
X129055526Y-119970329D01*
X129152314Y-120035000D01*
X129243463Y-120095904D01*
X129465148Y-120140000D01*
X129465152Y-120140000D01*
X129539999Y-120154888D01*
X129614846Y-120140000D01*
X134545153Y-120140000D01*
X134620000Y-120154888D01*
X134694847Y-120140000D01*
X134694852Y-120140000D01*
X134916537Y-120095904D01*
X135167929Y-119927929D01*
X135210331Y-119864470D01*
X136374473Y-118700329D01*
X136437929Y-118657929D01*
X136605904Y-118406537D01*
X136650000Y-118184852D01*
X136650000Y-118184848D01*
X136664888Y-118110001D01*
X136650000Y-118035154D01*
X136650000Y-113030000D01*
X137068846Y-113030000D01*
X137172458Y-113550891D01*
X137467519Y-113992481D01*
X137909109Y-114287542D01*
X137971739Y-114300000D01*
X137909109Y-114312458D01*
X137467519Y-114607519D01*
X137172458Y-115049109D01*
X137068846Y-115570000D01*
X137172458Y-116090891D01*
X137467519Y-116532481D01*
X137909109Y-116827542D01*
X137971739Y-116840000D01*
X137909109Y-116852458D01*
X137467519Y-117147519D01*
X137172458Y-117589109D01*
X137068846Y-118110000D01*
X137172458Y-118630891D01*
X137467519Y-119072481D01*
X137909109Y-119367542D01*
X137995918Y-119384809D01*
X137673783Y-119518242D01*
X137298242Y-119893783D01*
X137095000Y-120384452D01*
X137095000Y-120915548D01*
X137298242Y-121406217D01*
X137673783Y-121781758D01*
X137995918Y-121915191D01*
X137909109Y-121932458D01*
X137467519Y-122227519D01*
X137172458Y-122669109D01*
X137068846Y-123190000D01*
X137172458Y-123710891D01*
X137467519Y-124152481D01*
X137909109Y-124447542D01*
X138298515Y-124525000D01*
X138561485Y-124525000D01*
X138950891Y-124447542D01*
X139392481Y-124152481D01*
X139687542Y-123710891D01*
X139791154Y-123190000D01*
X139687542Y-122669109D01*
X139392481Y-122227519D01*
X138950891Y-121932458D01*
X138864082Y-121915191D01*
X139186217Y-121781758D01*
X139561758Y-121406217D01*
X139765000Y-120915548D01*
X139765000Y-120384452D01*
X139561758Y-119893783D01*
X139186217Y-119518242D01*
X138864082Y-119384809D01*
X138950891Y-119367542D01*
X139392481Y-119072481D01*
X139687542Y-118630891D01*
X139791154Y-118110000D01*
X139687542Y-117589109D01*
X139392481Y-117147519D01*
X138950891Y-116852458D01*
X138888261Y-116840000D01*
X138950891Y-116827542D01*
X139392481Y-116532481D01*
X139687542Y-116090891D01*
X139791154Y-115570000D01*
X139687542Y-115049109D01*
X139392481Y-114607519D01*
X138950891Y-114312458D01*
X138888261Y-114300000D01*
X138950891Y-114287542D01*
X139392481Y-113992481D01*
X139687542Y-113550891D01*
X139791154Y-113030000D01*
X139687542Y-112509109D01*
X139392481Y-112067519D01*
X138950891Y-111772458D01*
X138561485Y-111695000D01*
X138298515Y-111695000D01*
X137909109Y-111772458D01*
X137467519Y-112067519D01*
X137172458Y-112509109D01*
X137068846Y-113030000D01*
X136650000Y-113030000D01*
X136650000Y-112074801D01*
X137474802Y-111250000D01*
X140655199Y-111250000D01*
X141480001Y-112074803D01*
X141480000Y-116765153D01*
X141465112Y-116840000D01*
X141480000Y-116914847D01*
X141480000Y-116914851D01*
X141524096Y-117136536D01*
X141692071Y-117387929D01*
X141755530Y-117430331D01*
X144295526Y-119970329D01*
X144295532Y-119970333D01*
X144736355Y-120411156D01*
X144688846Y-120650000D01*
X144792458Y-121170891D01*
X145087519Y-121612481D01*
X145529109Y-121907542D01*
X145615918Y-121924809D01*
X145293783Y-122058242D01*
X144918242Y-122433783D01*
X144715000Y-122924452D01*
X144715000Y-123455548D01*
X144918242Y-123946217D01*
X145293783Y-124321758D01*
X145784452Y-124525000D01*
X146315548Y-124525000D01*
X146806217Y-124321758D01*
X147181758Y-123946217D01*
X147385000Y-123455548D01*
X147385000Y-122924452D01*
X147181758Y-122433783D01*
X146806217Y-122058242D01*
X146484082Y-121924809D01*
X146570891Y-121907542D01*
X147012481Y-121612481D01*
X147307542Y-121170891D01*
X147411154Y-120650000D01*
X147307542Y-120129109D01*
X147050741Y-119744778D01*
X149495000Y-119744778D01*
X149495000Y-120395222D01*
X149743914Y-120996153D01*
X150203847Y-121456086D01*
X150804778Y-121705000D01*
X151455222Y-121705000D01*
X152056153Y-121456086D01*
X152516086Y-120996153D01*
X152765000Y-120395222D01*
X152765000Y-119744778D01*
X155995000Y-119744778D01*
X155995000Y-120395222D01*
X156243914Y-120996153D01*
X156703847Y-121456086D01*
X157304778Y-121705000D01*
X157955222Y-121705000D01*
X158341375Y-121545050D01*
X160675000Y-121545050D01*
X160675000Y-122294950D01*
X160961974Y-122987767D01*
X161492233Y-123518026D01*
X162185050Y-123805000D01*
X162934950Y-123805000D01*
X163627767Y-123518026D01*
X164158026Y-122987767D01*
X164445000Y-122294950D01*
X164445000Y-121545050D01*
X164158026Y-120852233D01*
X163627767Y-120321974D01*
X162934950Y-120035000D01*
X162185050Y-120035000D01*
X161492233Y-120321974D01*
X160961974Y-120852233D01*
X160675000Y-121545050D01*
X158341375Y-121545050D01*
X158556153Y-121456086D01*
X159016086Y-120996153D01*
X159265000Y-120395222D01*
X159265000Y-119744778D01*
X159016086Y-119143847D01*
X158556153Y-118683914D01*
X157955222Y-118435000D01*
X157304778Y-118435000D01*
X156703847Y-118683914D01*
X156243914Y-119143847D01*
X155995000Y-119744778D01*
X152765000Y-119744778D01*
X152516086Y-119143847D01*
X152056153Y-118683914D01*
X151455222Y-118435000D01*
X150804778Y-118435000D01*
X150203847Y-118683914D01*
X149743914Y-119143847D01*
X149495000Y-119744778D01*
X147050741Y-119744778D01*
X147012481Y-119687519D01*
X146570891Y-119392458D01*
X146484082Y-119375191D01*
X146806217Y-119241758D01*
X147177975Y-118870000D01*
X147245153Y-118870000D01*
X147320000Y-118884888D01*
X147394847Y-118870000D01*
X147394852Y-118870000D01*
X147616537Y-118825904D01*
X147867929Y-118657929D01*
X147910331Y-118594470D01*
X149074473Y-117430329D01*
X149137929Y-117387929D01*
X149305904Y-117136537D01*
X149350000Y-116914852D01*
X149350000Y-116914848D01*
X149364888Y-116840001D01*
X149350000Y-116765154D01*
X149350000Y-116722532D01*
X150157073Y-116722532D01*
X150255736Y-116989387D01*
X150865461Y-117215908D01*
X151515460Y-117191856D01*
X152004264Y-116989387D01*
X152102927Y-116722532D01*
X156657073Y-116722532D01*
X156755736Y-116989387D01*
X157365461Y-117215908D01*
X158015460Y-117191856D01*
X158504264Y-116989387D01*
X158602927Y-116722532D01*
X157630000Y-115749605D01*
X156657073Y-116722532D01*
X152102927Y-116722532D01*
X151130000Y-115749605D01*
X150157073Y-116722532D01*
X149350000Y-116722532D01*
X149350000Y-115305461D01*
X149484092Y-115305461D01*
X149508144Y-115955460D01*
X149710613Y-116444264D01*
X149977468Y-116542927D01*
X150950395Y-115570000D01*
X151309605Y-115570000D01*
X152282532Y-116542927D01*
X152549387Y-116444264D01*
X152775908Y-115834539D01*
X152756331Y-115305461D01*
X155984092Y-115305461D01*
X156008144Y-115955460D01*
X156210613Y-116444264D01*
X156477468Y-116542927D01*
X157450395Y-115570000D01*
X157809605Y-115570000D01*
X158782532Y-116542927D01*
X159049387Y-116444264D01*
X159275908Y-115834539D01*
X159251856Y-115184540D01*
X159049387Y-114695736D01*
X158782532Y-114597073D01*
X157809605Y-115570000D01*
X157450395Y-115570000D01*
X156477468Y-114597073D01*
X156210613Y-114695736D01*
X155984092Y-115305461D01*
X152756331Y-115305461D01*
X152751856Y-115184540D01*
X152549387Y-114695736D01*
X152282532Y-114597073D01*
X151309605Y-115570000D01*
X150950395Y-115570000D01*
X149977468Y-114597073D01*
X149710613Y-114695736D01*
X149484092Y-115305461D01*
X149350000Y-115305461D01*
X149350000Y-114614801D01*
X149547333Y-114417468D01*
X150157073Y-114417468D01*
X151130000Y-115390395D01*
X152102927Y-114417468D01*
X156657073Y-114417468D01*
X157630000Y-115390395D01*
X158602927Y-114417468D01*
X158504264Y-114150613D01*
X157894539Y-113924092D01*
X157244540Y-113948144D01*
X156755736Y-114150613D01*
X156657073Y-114417468D01*
X152102927Y-114417468D01*
X152004264Y-114150613D01*
X151394539Y-113924092D01*
X150744540Y-113948144D01*
X150255736Y-114150613D01*
X150157073Y-114417468D01*
X149547333Y-114417468D01*
X150344473Y-113620329D01*
X150407929Y-113577929D01*
X150575904Y-113326537D01*
X150620000Y-113104852D01*
X150620000Y-113104848D01*
X150634888Y-113030001D01*
X150620000Y-112955154D01*
X150620000Y-105695750D01*
X152510000Y-105695750D01*
X152510000Y-106286310D01*
X152606673Y-106519699D01*
X152785302Y-106698327D01*
X153018691Y-106795000D01*
X153384250Y-106795000D01*
X153543000Y-106636250D01*
X153543000Y-105537000D01*
X152668750Y-105537000D01*
X152510000Y-105695750D01*
X150620000Y-105695750D01*
X150620000Y-104533690D01*
X152510000Y-104533690D01*
X152510000Y-105124250D01*
X152668750Y-105283000D01*
X153543000Y-105283000D01*
X153543000Y-104183750D01*
X153384250Y-104025000D01*
X153018691Y-104025000D01*
X152785302Y-104121673D01*
X152606673Y-104300301D01*
X152510000Y-104533690D01*
X150620000Y-104533690D01*
X150620000Y-104454801D01*
X153304472Y-101770330D01*
X153367928Y-101727930D01*
X153445084Y-101612458D01*
X153535903Y-101476539D01*
X153576371Y-101273091D01*
X153579999Y-101254853D01*
X153579999Y-101254849D01*
X153594887Y-101180001D01*
X153579999Y-101105153D01*
X153579999Y-97684802D01*
X155097703Y-96167099D01*
X155397138Y-96466534D01*
X155526216Y-96520000D01*
X155397138Y-96573466D01*
X154993466Y-96977138D01*
X154775000Y-97504561D01*
X154775000Y-98075439D01*
X154993466Y-98602862D01*
X155397138Y-99006534D01*
X155450000Y-99028430D01*
X155450001Y-104130653D01*
X155392608Y-104092305D01*
X154940000Y-104002275D01*
X154487391Y-104092305D01*
X154486016Y-104093224D01*
X154321309Y-104025000D01*
X153955750Y-104025000D01*
X153797000Y-104183750D01*
X153797000Y-104985291D01*
X153780000Y-105070755D01*
X153780000Y-105749246D01*
X153797000Y-105834710D01*
X153797000Y-106636250D01*
X153955750Y-106795000D01*
X154321309Y-106795000D01*
X154486016Y-106726776D01*
X154487392Y-106727695D01*
X154940000Y-106817725D01*
X155392609Y-106727695D01*
X155575000Y-106605825D01*
X155757392Y-106727695D01*
X156210000Y-106817725D01*
X156662609Y-106727695D01*
X157046313Y-106471313D01*
X157302695Y-106087608D01*
X157370000Y-105749245D01*
X157370000Y-105070754D01*
X157302695Y-104732391D01*
X157046313Y-104348687D01*
X156970000Y-104297697D01*
X156970000Y-99028430D01*
X157022862Y-99006534D01*
X157426534Y-98602862D01*
X157645000Y-98075439D01*
X157645000Y-97504561D01*
X157426534Y-96977138D01*
X157022862Y-96573466D01*
X156893784Y-96520000D01*
X157022862Y-96466534D01*
X157426534Y-96062862D01*
X157645000Y-95535439D01*
X157645000Y-94964561D01*
X157426534Y-94437138D01*
X157022862Y-94033466D01*
X156893784Y-93980000D01*
X157022862Y-93926534D01*
X157426534Y-93522862D01*
X157645000Y-92995439D01*
X157645000Y-92424561D01*
X157426534Y-91897138D01*
X157022862Y-91493466D01*
X156893784Y-91440000D01*
X157022862Y-91386534D01*
X157426534Y-90982862D01*
X157645000Y-90455439D01*
X157645000Y-89884561D01*
X157426534Y-89357138D01*
X157022862Y-88953466D01*
X156893784Y-88900000D01*
X157022862Y-88846534D01*
X157426534Y-88442862D01*
X157645000Y-87915439D01*
X157645000Y-87344561D01*
X157426534Y-86817138D01*
X157022862Y-86413466D01*
X156495439Y-86195000D01*
X155924561Y-86195000D01*
X155397138Y-86413466D01*
X154993466Y-86817138D01*
X154775000Y-87344561D01*
X154775000Y-87915439D01*
X154993466Y-88442862D01*
X155397138Y-88846534D01*
X155526216Y-88900000D01*
X155397138Y-88953466D01*
X154993466Y-89357138D01*
X154775000Y-89884561D01*
X154775000Y-90455439D01*
X154993466Y-90982862D01*
X155397138Y-91386534D01*
X155526216Y-91440000D01*
X155397138Y-91493466D01*
X154993466Y-91897138D01*
X154775000Y-92424561D01*
X154775000Y-92995439D01*
X154993466Y-93522862D01*
X155397138Y-93926534D01*
X155526216Y-93980000D01*
X155397138Y-94033466D01*
X154993466Y-94437138D01*
X154974864Y-94482047D01*
X154939999Y-94475112D01*
X154865152Y-94490000D01*
X154865148Y-94490000D01*
X154643463Y-94534096D01*
X154392071Y-94702071D01*
X154349671Y-94765527D01*
X152335529Y-96779670D01*
X152272070Y-96822072D01*
X152239785Y-96870389D01*
X151942862Y-96573466D01*
X151813784Y-96520000D01*
X151942862Y-96466534D01*
X152346534Y-96062862D01*
X152565000Y-95535439D01*
X152565000Y-94964561D01*
X152346534Y-94437138D01*
X151942862Y-94033466D01*
X151813784Y-93980000D01*
X151942862Y-93926534D01*
X152346534Y-93522862D01*
X152565000Y-92995439D01*
X152565000Y-92424561D01*
X152346534Y-91897138D01*
X151942862Y-91493466D01*
X151813784Y-91440000D01*
X151942862Y-91386534D01*
X152346534Y-90982862D01*
X152565000Y-90455439D01*
X152565000Y-89884561D01*
X152346534Y-89357138D01*
X152044134Y-89054738D01*
X152177765Y-89028157D01*
X152387809Y-88887809D01*
X152528157Y-88677765D01*
X152577440Y-88430000D01*
X152577440Y-86830000D01*
X152528157Y-86582235D01*
X152387809Y-86372191D01*
X152177765Y-86231843D01*
X151930000Y-86182560D01*
X150330000Y-86182560D01*
X150082235Y-86231843D01*
X149872191Y-86372191D01*
X149731843Y-86582235D01*
X149682560Y-86830000D01*
X149682560Y-88430000D01*
X149731843Y-88677765D01*
X149872191Y-88887809D01*
X150082235Y-89028157D01*
X150215866Y-89054738D01*
X149913466Y-89357138D01*
X149695000Y-89884561D01*
X149695000Y-90455439D01*
X149913466Y-90982862D01*
X150317138Y-91386534D01*
X150446216Y-91440000D01*
X150317138Y-91493466D01*
X149913466Y-91897138D01*
X149695000Y-92424561D01*
X149695000Y-92995439D01*
X149913466Y-93522862D01*
X150317138Y-93926534D01*
X150446216Y-93980000D01*
X150317138Y-94033466D01*
X149913466Y-94437138D01*
X149695000Y-94964561D01*
X149695000Y-95535439D01*
X149913466Y-96062862D01*
X150317138Y-96466534D01*
X150446216Y-96520000D01*
X150317138Y-96573466D01*
X149913466Y-96977138D01*
X149695000Y-97504561D01*
X149695000Y-98075439D01*
X149913466Y-98602862D01*
X150317138Y-99006534D01*
X150844561Y-99225000D01*
X151415439Y-99225000D01*
X151942862Y-99006534D01*
X152059999Y-98889397D01*
X152060000Y-100865198D01*
X149375530Y-103549669D01*
X149312071Y-103592071D01*
X149144096Y-103843464D01*
X149100000Y-104065149D01*
X149100000Y-104065153D01*
X149085112Y-104140000D01*
X149100000Y-104214847D01*
X149100001Y-112715197D01*
X148105530Y-113709669D01*
X148042071Y-113752071D01*
X147874096Y-114003464D01*
X147830000Y-114225149D01*
X147830000Y-114225153D01*
X147815112Y-114300000D01*
X147830000Y-114374847D01*
X147830001Y-116525197D01*
X147091587Y-117263612D01*
X146806217Y-116978242D01*
X146472472Y-116840000D01*
X146806217Y-116701758D01*
X147181758Y-116326217D01*
X147385000Y-115835548D01*
X147385000Y-115304452D01*
X147181758Y-114813783D01*
X146806217Y-114438242D01*
X146472472Y-114300000D01*
X146806217Y-114161758D01*
X147181758Y-113786217D01*
X147385000Y-113295548D01*
X147385000Y-112764452D01*
X147181758Y-112273783D01*
X146806217Y-111898242D01*
X146315548Y-111695000D01*
X145784452Y-111695000D01*
X145293783Y-111898242D01*
X144918242Y-112273783D01*
X144715000Y-112764452D01*
X144715000Y-113295548D01*
X144918242Y-113786217D01*
X145293783Y-114161758D01*
X145627528Y-114300000D01*
X145293783Y-114438242D01*
X144918242Y-114813783D01*
X144715000Y-115304452D01*
X144715000Y-115835548D01*
X144918242Y-116326217D01*
X145293783Y-116701758D01*
X145627528Y-116840000D01*
X145293783Y-116978242D01*
X144918242Y-117353783D01*
X144715000Y-117844452D01*
X144715000Y-118240197D01*
X143000000Y-116525199D01*
X143000000Y-111834846D01*
X143014888Y-111759999D01*
X143000000Y-111685152D01*
X143000000Y-111685148D01*
X142955904Y-111463463D01*
X142787929Y-111212071D01*
X142724473Y-111169671D01*
X141560331Y-110005530D01*
X141517929Y-109942071D01*
X141266537Y-109774096D01*
X141044852Y-109730000D01*
X141044847Y-109730000D01*
X140970000Y-109715112D01*
X140895153Y-109730000D01*
X137234846Y-109730000D01*
X137159999Y-109715112D01*
X137085152Y-109730000D01*
X137085148Y-109730000D01*
X136863463Y-109774096D01*
X136612071Y-109942071D01*
X136569671Y-110005527D01*
X135405530Y-111169669D01*
X135342071Y-111212071D01*
X135174096Y-111463464D01*
X135130000Y-111685149D01*
X135130000Y-111685153D01*
X135115112Y-111760000D01*
X135130000Y-111834847D01*
X135130001Y-117795197D01*
X134305199Y-118620000D01*
X129854803Y-118620000D01*
X127760000Y-116525199D01*
X127760000Y-96594846D01*
X127774888Y-96519999D01*
X127760000Y-96445152D01*
X127760000Y-96445148D01*
X127715904Y-96223463D01*
X127547929Y-95972071D01*
X127484473Y-95929671D01*
X126320331Y-94765530D01*
X126277929Y-94702071D01*
X126026537Y-94534096D01*
X125804852Y-94490000D01*
X125804847Y-94490000D01*
X125730000Y-94475112D01*
X125655153Y-94490000D01*
X118058043Y-94490000D01*
X117874577Y-94215423D01*
X117522242Y-93980000D01*
X117874577Y-93744577D01*
X118191740Y-93269909D01*
X118303113Y-92710000D01*
X118191740Y-92150091D01*
X117874577Y-91675423D01*
X117522242Y-91440000D01*
X117874577Y-91204577D01*
X118191740Y-90729909D01*
X118303113Y-90170000D01*
X118191740Y-89610091D01*
X117874577Y-89135423D01*
X117522242Y-88900000D01*
X128765112Y-88900000D01*
X128780001Y-88974852D01*
X128780000Y-109145153D01*
X128765112Y-109220000D01*
X128780000Y-109294847D01*
X128780000Y-109294851D01*
X128824096Y-109516536D01*
X128992071Y-109767929D01*
X129055530Y-109810331D01*
X130219670Y-110974472D01*
X130262071Y-111037929D01*
X130513463Y-111205904D01*
X130735148Y-111250000D01*
X130735152Y-111250000D01*
X130809999Y-111264888D01*
X130864642Y-111254019D01*
X131045423Y-111524577D01*
X131397758Y-111760000D01*
X131045423Y-111995423D01*
X130728260Y-112470091D01*
X130616887Y-113030000D01*
X130728260Y-113589909D01*
X131045423Y-114064577D01*
X131397758Y-114300000D01*
X131045423Y-114535423D01*
X130728260Y-115010091D01*
X130616887Y-115570000D01*
X130728260Y-116129909D01*
X131045423Y-116604577D01*
X131520091Y-116921740D01*
X131938667Y-117005000D01*
X132221333Y-117005000D01*
X132639909Y-116921740D01*
X133114577Y-116604577D01*
X133431740Y-116129909D01*
X133543113Y-115570000D01*
X133431740Y-115010091D01*
X133114577Y-114535423D01*
X132762242Y-114300000D01*
X133114577Y-114064577D01*
X133431740Y-113589909D01*
X133543113Y-113030000D01*
X133431740Y-112470091D01*
X133114577Y-111995423D01*
X132762242Y-111760000D01*
X133114577Y-111524577D01*
X133431740Y-111049909D01*
X133543113Y-110490000D01*
X133431740Y-109930091D01*
X133114577Y-109455423D01*
X132762242Y-109220000D01*
X133114577Y-108984577D01*
X133431740Y-108509909D01*
X133543113Y-107950000D01*
X133431740Y-107390091D01*
X133114577Y-106915423D01*
X132762242Y-106680000D01*
X133114577Y-106444577D01*
X133431740Y-105969909D01*
X133543113Y-105410000D01*
X133431740Y-104850091D01*
X133114577Y-104375423D01*
X132762242Y-104140000D01*
X133114577Y-103904577D01*
X133431740Y-103429909D01*
X133543113Y-102870000D01*
X133431740Y-102310091D01*
X133114577Y-101835423D01*
X132762242Y-101600000D01*
X133114577Y-101364577D01*
X133431740Y-100889909D01*
X133543113Y-100330000D01*
X133431740Y-99770091D01*
X133114577Y-99295423D01*
X132762242Y-99060000D01*
X133114577Y-98824577D01*
X133431740Y-98349909D01*
X133543113Y-97790000D01*
X133431740Y-97230091D01*
X133114577Y-96755423D01*
X132762242Y-96520000D01*
X133114577Y-96284577D01*
X133431740Y-95809909D01*
X133543113Y-95250000D01*
X137068846Y-95250000D01*
X137172458Y-95770891D01*
X137467519Y-96212481D01*
X137909109Y-96507542D01*
X137971739Y-96520000D01*
X137909109Y-96532458D01*
X137467519Y-96827519D01*
X137172458Y-97269109D01*
X137068846Y-97790000D01*
X137172458Y-98310891D01*
X137467519Y-98752481D01*
X137909109Y-99047542D01*
X137971739Y-99060000D01*
X137909109Y-99072458D01*
X137467519Y-99367519D01*
X137172458Y-99809109D01*
X137068846Y-100330000D01*
X137172458Y-100850891D01*
X137467519Y-101292481D01*
X137909109Y-101587542D01*
X137971739Y-101600000D01*
X137909109Y-101612458D01*
X137467519Y-101907519D01*
X137172458Y-102349109D01*
X137068846Y-102870000D01*
X137172458Y-103390891D01*
X137467519Y-103832481D01*
X137909109Y-104127542D01*
X137971739Y-104140000D01*
X137909109Y-104152458D01*
X137467519Y-104447519D01*
X137172458Y-104889109D01*
X137068846Y-105410000D01*
X137172458Y-105930891D01*
X137467519Y-106372481D01*
X137909109Y-106667542D01*
X137971739Y-106680000D01*
X137909109Y-106692458D01*
X137467519Y-106987519D01*
X137172458Y-107429109D01*
X137068846Y-107950000D01*
X137172458Y-108470891D01*
X137467519Y-108912481D01*
X137909109Y-109207542D01*
X138298515Y-109285000D01*
X138561485Y-109285000D01*
X138950891Y-109207542D01*
X139392481Y-108912481D01*
X139687542Y-108470891D01*
X139791154Y-107950000D01*
X139687542Y-107429109D01*
X139392481Y-106987519D01*
X138950891Y-106692458D01*
X138888261Y-106680000D01*
X138950891Y-106667542D01*
X139392481Y-106372481D01*
X139687542Y-105930891D01*
X139791154Y-105410000D01*
X139687542Y-104889109D01*
X139392481Y-104447519D01*
X138950891Y-104152458D01*
X138888261Y-104140000D01*
X138950891Y-104127542D01*
X139392481Y-103832481D01*
X139687542Y-103390891D01*
X139791154Y-102870000D01*
X139687542Y-102349109D01*
X139392481Y-101907519D01*
X138950891Y-101612458D01*
X138888261Y-101600000D01*
X138950891Y-101587542D01*
X139392481Y-101292481D01*
X139687542Y-100850891D01*
X139791154Y-100330000D01*
X139687542Y-99809109D01*
X139392481Y-99367519D01*
X138950891Y-99072458D01*
X138888261Y-99060000D01*
X138950891Y-99047542D01*
X139392481Y-98752481D01*
X139687542Y-98310891D01*
X139791154Y-97790000D01*
X139687542Y-97269109D01*
X139392481Y-96827519D01*
X138950891Y-96532458D01*
X138888261Y-96520000D01*
X138950891Y-96507542D01*
X139392481Y-96212481D01*
X139687542Y-95770891D01*
X139791154Y-95250000D01*
X139738334Y-94984452D01*
X144715000Y-94984452D01*
X144715000Y-95515548D01*
X144918242Y-96006217D01*
X145293783Y-96381758D01*
X145627528Y-96520000D01*
X145293783Y-96658242D01*
X144918242Y-97033783D01*
X144715000Y-97524452D01*
X144715000Y-98055548D01*
X144918242Y-98546217D01*
X145293783Y-98921758D01*
X145627528Y-99060000D01*
X145293783Y-99198242D01*
X144918242Y-99573783D01*
X144715000Y-100064452D01*
X144715000Y-100595548D01*
X144918242Y-101086217D01*
X145293783Y-101461758D01*
X145627528Y-101600000D01*
X145293783Y-101738242D01*
X144918242Y-102113783D01*
X144715000Y-102604452D01*
X144715000Y-103135548D01*
X144918242Y-103626217D01*
X145293783Y-104001758D01*
X145627528Y-104140000D01*
X145293783Y-104278242D01*
X144918242Y-104653783D01*
X144715000Y-105144452D01*
X144715000Y-105675548D01*
X144918242Y-106166217D01*
X145293783Y-106541758D01*
X145627528Y-106680000D01*
X145293783Y-106818242D01*
X144918242Y-107193783D01*
X144715000Y-107684452D01*
X144715000Y-108215548D01*
X144918242Y-108706217D01*
X145293783Y-109081758D01*
X145784452Y-109285000D01*
X146315548Y-109285000D01*
X146806217Y-109081758D01*
X147181758Y-108706217D01*
X147385000Y-108215548D01*
X147385000Y-107684452D01*
X147181758Y-107193783D01*
X146806217Y-106818242D01*
X146472472Y-106680000D01*
X146806217Y-106541758D01*
X147181758Y-106166217D01*
X147385000Y-105675548D01*
X147385000Y-105144452D01*
X147181758Y-104653783D01*
X146806217Y-104278242D01*
X146472472Y-104140000D01*
X146806217Y-104001758D01*
X147181758Y-103626217D01*
X147385000Y-103135548D01*
X147385000Y-102604452D01*
X147181758Y-102113783D01*
X146806217Y-101738242D01*
X146472472Y-101600000D01*
X146806217Y-101461758D01*
X147181758Y-101086217D01*
X147385000Y-100595548D01*
X147385000Y-100064452D01*
X147181758Y-99573783D01*
X146806217Y-99198242D01*
X146472472Y-99060000D01*
X146806217Y-98921758D01*
X147181758Y-98546217D01*
X147385000Y-98055548D01*
X147385000Y-97524452D01*
X147181758Y-97033783D01*
X146806217Y-96658242D01*
X146472472Y-96520000D01*
X146806217Y-96381758D01*
X147181758Y-96006217D01*
X147385000Y-95515548D01*
X147385000Y-94984452D01*
X147181758Y-94493783D01*
X146806217Y-94118242D01*
X146315548Y-93915000D01*
X145784452Y-93915000D01*
X145293783Y-94118242D01*
X144918242Y-94493783D01*
X144715000Y-94984452D01*
X139738334Y-94984452D01*
X139687542Y-94729109D01*
X139392481Y-94287519D01*
X138950891Y-93992458D01*
X138561485Y-93915000D01*
X138298515Y-93915000D01*
X137909109Y-93992458D01*
X137467519Y-94287519D01*
X137172458Y-94729109D01*
X137068846Y-95250000D01*
X133543113Y-95250000D01*
X133431740Y-94690091D01*
X133114577Y-94215423D01*
X132762242Y-93980000D01*
X133114577Y-93744577D01*
X133431740Y-93269909D01*
X133543113Y-92710000D01*
X133431740Y-92150091D01*
X133114577Y-91675423D01*
X132762242Y-91440000D01*
X133114577Y-91204577D01*
X133431740Y-90729909D01*
X133543113Y-90170000D01*
X133431740Y-89610091D01*
X133114577Y-89135423D01*
X132762242Y-88900000D01*
X133114577Y-88664577D01*
X133431740Y-88189909D01*
X133543113Y-87630000D01*
X133431740Y-87070091D01*
X133114577Y-86595423D01*
X132762242Y-86360000D01*
X133114577Y-86124577D01*
X133431740Y-85649909D01*
X133543113Y-85090000D01*
X133431740Y-84530091D01*
X133114577Y-84055423D01*
X132730892Y-83799053D01*
X132935134Y-83702389D01*
X133072749Y-83550474D01*
X138345000Y-83550474D01*
X138345000Y-84089526D01*
X138551286Y-84587546D01*
X138932454Y-84968714D01*
X139430474Y-85175000D01*
X139969526Y-85175000D01*
X140467546Y-84968714D01*
X140848714Y-84587546D01*
X141055000Y-84089526D01*
X141055000Y-83550474D01*
X140848714Y-83052454D01*
X140467546Y-82671286D01*
X139969526Y-82465000D01*
X139430474Y-82465000D01*
X138932454Y-82671286D01*
X138551286Y-83052454D01*
X138345000Y-83550474D01*
X133072749Y-83550474D01*
X133311041Y-83287423D01*
X133471904Y-82899039D01*
X133349915Y-82677000D01*
X132207000Y-82677000D01*
X132207000Y-82697000D01*
X131953000Y-82697000D01*
X131953000Y-82677000D01*
X130810085Y-82677000D01*
X130688096Y-82899039D01*
X130848959Y-83287423D01*
X131224866Y-83702389D01*
X131429108Y-83799053D01*
X131045423Y-84055423D01*
X130728260Y-84530091D01*
X130616887Y-85090000D01*
X130728260Y-85649909D01*
X131045423Y-86124577D01*
X131397758Y-86360000D01*
X131045423Y-86595423D01*
X130864642Y-86865981D01*
X130809999Y-86855112D01*
X130735152Y-86870000D01*
X130735148Y-86870000D01*
X130513463Y-86914096D01*
X130262071Y-87082071D01*
X130219671Y-87145527D01*
X129055528Y-88309671D01*
X128992072Y-88352071D01*
X128949672Y-88415527D01*
X128949671Y-88415528D01*
X128824097Y-88603463D01*
X128765112Y-88900000D01*
X117522242Y-88900000D01*
X117490892Y-88879053D01*
X117695134Y-88782389D01*
X118071041Y-88367423D01*
X118231904Y-87979039D01*
X118109915Y-87757000D01*
X116967000Y-87757000D01*
X116967000Y-87777000D01*
X116713000Y-87777000D01*
X116713000Y-87757000D01*
X115570085Y-87757000D01*
X115448096Y-87979039D01*
X115608959Y-88367423D01*
X115984866Y-88782389D01*
X116189108Y-88879053D01*
X115805423Y-89135423D01*
X115488260Y-89610091D01*
X115376887Y-90170000D01*
X115488260Y-90729909D01*
X115805423Y-91204577D01*
X116157758Y-91440000D01*
X115805423Y-91675423D01*
X115624642Y-91945981D01*
X115569999Y-91935112D01*
X115495152Y-91950000D01*
X115495148Y-91950000D01*
X115273463Y-91994096D01*
X115022071Y-92162071D01*
X114979671Y-92225527D01*
X113815530Y-93389669D01*
X113752071Y-93432071D01*
X113584096Y-93683464D01*
X113540000Y-93905149D01*
X113540000Y-93905153D01*
X113525112Y-93980000D01*
X113540000Y-94054847D01*
X113540001Y-122486288D01*
X113422569Y-122603720D01*
X113265000Y-122984126D01*
X91769534Y-122984126D01*
X92055000Y-122294950D01*
X92055000Y-121545050D01*
X91768026Y-120852233D01*
X91237767Y-120321974D01*
X90544950Y-120035000D01*
X89795050Y-120035000D01*
X89102233Y-120321974D01*
X88571974Y-120852233D01*
X88285000Y-121545050D01*
X85852000Y-121545050D01*
X85852000Y-119744778D01*
X97425000Y-119744778D01*
X97425000Y-120395222D01*
X97673914Y-120996153D01*
X98133847Y-121456086D01*
X98734778Y-121705000D01*
X99385222Y-121705000D01*
X99986153Y-121456086D01*
X100446086Y-120996153D01*
X100695000Y-120395222D01*
X100695000Y-119744778D01*
X103925000Y-119744778D01*
X103925000Y-120395222D01*
X104173914Y-120996153D01*
X104633847Y-121456086D01*
X105234778Y-121705000D01*
X105885222Y-121705000D01*
X106486153Y-121456086D01*
X106946086Y-120996153D01*
X107195000Y-120395222D01*
X107195000Y-119744778D01*
X106946086Y-119143847D01*
X106486153Y-118683914D01*
X105885222Y-118435000D01*
X105234778Y-118435000D01*
X104633847Y-118683914D01*
X104173914Y-119143847D01*
X103925000Y-119744778D01*
X100695000Y-119744778D01*
X100446086Y-119143847D01*
X99986153Y-118683914D01*
X99385222Y-118435000D01*
X98734778Y-118435000D01*
X98133847Y-118683914D01*
X97673914Y-119143847D01*
X97425000Y-119744778D01*
X85852000Y-119744778D01*
X85852000Y-116722532D01*
X98087073Y-116722532D01*
X98185736Y-116989387D01*
X98795461Y-117215908D01*
X99445460Y-117191856D01*
X99934264Y-116989387D01*
X100032927Y-116722532D01*
X104587073Y-116722532D01*
X104685736Y-116989387D01*
X105295461Y-117215908D01*
X105945460Y-117191856D01*
X106434264Y-116989387D01*
X106532927Y-116722532D01*
X105560000Y-115749605D01*
X104587073Y-116722532D01*
X100032927Y-116722532D01*
X99060000Y-115749605D01*
X98087073Y-116722532D01*
X85852000Y-116722532D01*
X85852000Y-115305461D01*
X97414092Y-115305461D01*
X97438144Y-115955460D01*
X97640613Y-116444264D01*
X97907468Y-116542927D01*
X98880395Y-115570000D01*
X99239605Y-115570000D01*
X100212532Y-116542927D01*
X100479387Y-116444264D01*
X100705908Y-115834539D01*
X100686331Y-115305461D01*
X103914092Y-115305461D01*
X103938144Y-115955460D01*
X104140613Y-116444264D01*
X104407468Y-116542927D01*
X105380395Y-115570000D01*
X105739605Y-115570000D01*
X106712532Y-116542927D01*
X106979387Y-116444264D01*
X107205908Y-115834539D01*
X107181856Y-115184540D01*
X106979387Y-114695736D01*
X106712532Y-114597073D01*
X105739605Y-115570000D01*
X105380395Y-115570000D01*
X104407468Y-114597073D01*
X104140613Y-114695736D01*
X103914092Y-115305461D01*
X100686331Y-115305461D01*
X100681856Y-115184540D01*
X100479387Y-114695736D01*
X100212532Y-114597073D01*
X99239605Y-115570000D01*
X98880395Y-115570000D01*
X97907468Y-114597073D01*
X97640613Y-114695736D01*
X97414092Y-115305461D01*
X85852000Y-115305461D01*
X85852000Y-110490000D01*
X87385908Y-110490000D01*
X87501161Y-111069418D01*
X87829375Y-111560625D01*
X87847619Y-111572816D01*
X87802235Y-111581843D01*
X87592191Y-111722191D01*
X87451843Y-111932235D01*
X87402560Y-112180000D01*
X87402560Y-113880000D01*
X87451843Y-114127765D01*
X87592191Y-114337809D01*
X87802235Y-114478157D01*
X88050000Y-114527440D01*
X89750000Y-114527440D01*
X89997765Y-114478157D01*
X90088591Y-114417468D01*
X98087073Y-114417468D01*
X99060000Y-115390395D01*
X100032927Y-114417468D01*
X104587073Y-114417468D01*
X105560000Y-115390395D01*
X106532927Y-114417468D01*
X106434264Y-114150613D01*
X105824539Y-113924092D01*
X105174540Y-113948144D01*
X104685736Y-114150613D01*
X104587073Y-114417468D01*
X100032927Y-114417468D01*
X99934264Y-114150613D01*
X99324539Y-113924092D01*
X98674540Y-113948144D01*
X98185736Y-114150613D01*
X98087073Y-114417468D01*
X90088591Y-114417468D01*
X90207809Y-114337809D01*
X90348157Y-114127765D01*
X90397440Y-113880000D01*
X90397440Y-112180000D01*
X90348157Y-111932235D01*
X90207809Y-111722191D01*
X89997765Y-111581843D01*
X89952381Y-111572816D01*
X89970625Y-111560625D01*
X90298839Y-111069418D01*
X90414092Y-110490000D01*
X90298839Y-109910582D01*
X90151451Y-109690000D01*
X95072560Y-109690000D01*
X95072560Y-111290000D01*
X95121843Y-111537765D01*
X95262191Y-111747809D01*
X95472235Y-111888157D01*
X95720000Y-111937440D01*
X97320000Y-111937440D01*
X97567765Y-111888157D01*
X97777809Y-111747809D01*
X97918157Y-111537765D01*
X97967440Y-111290000D01*
X97967440Y-110224452D01*
X102170000Y-110224452D01*
X102170000Y-110755548D01*
X102373242Y-111246217D01*
X102748783Y-111621758D01*
X103239452Y-111825000D01*
X103770548Y-111825000D01*
X104261217Y-111621758D01*
X104636758Y-111246217D01*
X104840000Y-110755548D01*
X104840000Y-110224452D01*
X104636758Y-109733783D01*
X104592975Y-109690000D01*
X107772560Y-109690000D01*
X107772560Y-111290000D01*
X107821843Y-111537765D01*
X107962191Y-111747809D01*
X108172235Y-111888157D01*
X108420000Y-111937440D01*
X110020000Y-111937440D01*
X110267765Y-111888157D01*
X110477809Y-111747809D01*
X110618157Y-111537765D01*
X110667440Y-111290000D01*
X110667440Y-109690000D01*
X110618157Y-109442235D01*
X110478005Y-109232484D01*
X110666965Y-108706777D01*
X110639778Y-108136546D01*
X110473864Y-107735995D01*
X110227745Y-107661861D01*
X109399605Y-108490000D01*
X109413748Y-108504142D01*
X109234143Y-108683748D01*
X109220000Y-108669605D01*
X109205858Y-108683748D01*
X109026252Y-108504142D01*
X109040395Y-108490000D01*
X108212255Y-107661861D01*
X107966136Y-107735995D01*
X107773035Y-108273223D01*
X107800222Y-108843454D01*
X107961605Y-109233067D01*
X107821843Y-109442235D01*
X107772560Y-109690000D01*
X104592975Y-109690000D01*
X104261217Y-109358242D01*
X103991983Y-109246721D01*
X104198831Y-109161042D01*
X104260669Y-108925275D01*
X103505000Y-108169605D01*
X102749331Y-108925275D01*
X102811169Y-109161042D01*
X103034788Y-109239775D01*
X102748783Y-109358242D01*
X102373242Y-109733783D01*
X102170000Y-110224452D01*
X97967440Y-110224452D01*
X97967440Y-109690000D01*
X97918157Y-109442235D01*
X97778005Y-109232484D01*
X97966965Y-108706777D01*
X97939778Y-108136546D01*
X97799184Y-107797122D01*
X102157581Y-107797122D01*
X102186336Y-108327440D01*
X102333958Y-108683831D01*
X102569725Y-108745669D01*
X103325395Y-107990000D01*
X103684605Y-107990000D01*
X104440275Y-108745669D01*
X104676042Y-108683831D01*
X104852419Y-108182878D01*
X104823664Y-107652560D01*
X104753122Y-107482255D01*
X108391861Y-107482255D01*
X109220000Y-108310395D01*
X110048139Y-107482255D01*
X109974005Y-107236136D01*
X109436777Y-107043035D01*
X108866546Y-107070222D01*
X108465995Y-107236136D01*
X108391861Y-107482255D01*
X104753122Y-107482255D01*
X104676042Y-107296169D01*
X104440275Y-107234331D01*
X103684605Y-107990000D01*
X103325395Y-107990000D01*
X102569725Y-107234331D01*
X102333958Y-107296169D01*
X102157581Y-107797122D01*
X97799184Y-107797122D01*
X97773864Y-107735995D01*
X97527745Y-107661861D01*
X96699605Y-108490000D01*
X96713748Y-108504142D01*
X96534143Y-108683748D01*
X96520000Y-108669605D01*
X96505858Y-108683748D01*
X96326252Y-108504142D01*
X96340395Y-108490000D01*
X95512255Y-107661861D01*
X95266136Y-107735995D01*
X95073035Y-108273223D01*
X95100222Y-108843454D01*
X95261605Y-109233067D01*
X95121843Y-109442235D01*
X95072560Y-109690000D01*
X90151451Y-109690000D01*
X89970625Y-109419375D01*
X89651522Y-109206157D01*
X89781358Y-109145183D01*
X90171645Y-108716924D01*
X90341476Y-108306890D01*
X90220155Y-108077000D01*
X89027000Y-108077000D01*
X89027000Y-108097000D01*
X88773000Y-108097000D01*
X88773000Y-108077000D01*
X87579845Y-108077000D01*
X87458524Y-108306890D01*
X87628355Y-108716924D01*
X88018642Y-109145183D01*
X88148478Y-109206157D01*
X87829375Y-109419375D01*
X87501161Y-109910582D01*
X87385908Y-110490000D01*
X85852000Y-110490000D01*
X85852000Y-107593110D01*
X87458524Y-107593110D01*
X87579845Y-107823000D01*
X88773000Y-107823000D01*
X88773000Y-106629181D01*
X89027000Y-106629181D01*
X89027000Y-107823000D01*
X90220155Y-107823000D01*
X90341476Y-107593110D01*
X90295562Y-107482255D01*
X95691861Y-107482255D01*
X96520000Y-108310395D01*
X97348139Y-107482255D01*
X97274005Y-107236136D01*
X96769300Y-107054725D01*
X102749331Y-107054725D01*
X103505000Y-107810395D01*
X104260669Y-107054725D01*
X104198831Y-106818958D01*
X103697878Y-106642581D01*
X103167560Y-106671336D01*
X102811169Y-106818958D01*
X102749331Y-107054725D01*
X96769300Y-107054725D01*
X96736777Y-107043035D01*
X96166546Y-107070222D01*
X95765995Y-107236136D01*
X95691861Y-107482255D01*
X90295562Y-107482255D01*
X90171645Y-107183076D01*
X89781358Y-106754817D01*
X89256892Y-106508514D01*
X89027000Y-106629181D01*
X88773000Y-106629181D01*
X88543108Y-106508514D01*
X88018642Y-106754817D01*
X87628355Y-107183076D01*
X87458524Y-107593110D01*
X85852000Y-107593110D01*
X85852000Y-102567745D01*
X89341861Y-102567745D01*
X89415995Y-102813864D01*
X89953223Y-103006965D01*
X90523454Y-102979778D01*
X90924005Y-102813864D01*
X90998139Y-102567745D01*
X90170000Y-101739605D01*
X89341861Y-102567745D01*
X85852000Y-102567745D01*
X85852000Y-101343223D01*
X88723035Y-101343223D01*
X88750222Y-101913454D01*
X88916136Y-102314005D01*
X89162255Y-102388139D01*
X89990395Y-101560000D01*
X90349605Y-101560000D01*
X91177745Y-102388139D01*
X91423864Y-102314005D01*
X91616965Y-101776777D01*
X91589778Y-101206546D01*
X91423864Y-100805995D01*
X91177745Y-100731861D01*
X90349605Y-101560000D01*
X89990395Y-101560000D01*
X89162255Y-100731861D01*
X88916136Y-100805995D01*
X88723035Y-101343223D01*
X85852000Y-101343223D01*
X85852000Y-98260000D01*
X88722560Y-98260000D01*
X88722560Y-99860000D01*
X88771843Y-100107765D01*
X88912191Y-100317809D01*
X89122235Y-100458157D01*
X89356187Y-100504693D01*
X89341861Y-100552255D01*
X90170000Y-101380395D01*
X90998139Y-100552255D01*
X90983813Y-100504693D01*
X91217765Y-100458157D01*
X91427809Y-100317809D01*
X91568157Y-100107765D01*
X91617440Y-99860000D01*
X91617440Y-99330000D01*
X98095060Y-99330000D01*
X98095060Y-101330000D01*
X98144343Y-101577765D01*
X98284691Y-101787809D01*
X98494735Y-101928157D01*
X98742500Y-101977440D01*
X100647500Y-101977440D01*
X100895265Y-101928157D01*
X101105309Y-101787809D01*
X101242255Y-101582857D01*
X101368076Y-101705973D01*
X101862020Y-101920563D01*
X102108000Y-101800594D01*
X102108000Y-100457000D01*
X102088000Y-100457000D01*
X102088000Y-100203000D01*
X102108000Y-100203000D01*
X102108000Y-98859406D01*
X102362000Y-98859406D01*
X102362000Y-100203000D01*
X102382000Y-100203000D01*
X102382000Y-100457000D01*
X102362000Y-100457000D01*
X102362000Y-101800594D01*
X102607980Y-101920563D01*
X103101924Y-101705973D01*
X103495841Y-101320526D01*
X103630477Y-101522023D01*
X104155590Y-101872891D01*
X104775000Y-101996100D01*
X105394411Y-101872891D01*
X105919523Y-101522023D01*
X106270391Y-100996910D01*
X106362500Y-100533849D01*
X106362500Y-100126150D01*
X106270391Y-99663089D01*
X105919523Y-99137977D01*
X105394410Y-98787109D01*
X104775000Y-98663900D01*
X104155589Y-98787109D01*
X103630477Y-99137977D01*
X103495841Y-99339474D01*
X103101924Y-98954027D01*
X102607980Y-98739437D01*
X102362000Y-98859406D01*
X102108000Y-98859406D01*
X101862020Y-98739437D01*
X101368076Y-98954027D01*
X101242255Y-99077143D01*
X101105309Y-98872191D01*
X100895265Y-98731843D01*
X100647500Y-98682560D01*
X98742500Y-98682560D01*
X98494735Y-98731843D01*
X98284691Y-98872191D01*
X98144343Y-99082235D01*
X98095060Y-99330000D01*
X91617440Y-99330000D01*
X91617440Y-98260000D01*
X91568157Y-98012235D01*
X91427809Y-97802191D01*
X91217765Y-97661843D01*
X90970000Y-97612560D01*
X89370000Y-97612560D01*
X89122235Y-97661843D01*
X88912191Y-97802191D01*
X88771843Y-98012235D01*
X88722560Y-98260000D01*
X85852000Y-98260000D01*
X85852000Y-92615750D01*
X93675000Y-92615750D01*
X93675000Y-94206310D01*
X93771673Y-94439699D01*
X93950302Y-94618327D01*
X94183691Y-94715000D01*
X95774250Y-94715000D01*
X95933000Y-94556250D01*
X95933000Y-92457000D01*
X96187000Y-92457000D01*
X96187000Y-94556250D01*
X96345750Y-94715000D01*
X97936309Y-94715000D01*
X98169698Y-94618327D01*
X98348327Y-94439699D01*
X98445000Y-94206310D01*
X98445000Y-92615750D01*
X98286250Y-92457000D01*
X96187000Y-92457000D01*
X95933000Y-92457000D01*
X93833750Y-92457000D01*
X93675000Y-92615750D01*
X85852000Y-92615750D01*
X85852000Y-87915750D01*
X90925000Y-87915750D01*
X90925000Y-89506310D01*
X91021673Y-89739699D01*
X91200302Y-89918327D01*
X91433691Y-90015000D01*
X92774250Y-90015000D01*
X92933000Y-89856250D01*
X92933000Y-87757000D01*
X93187000Y-87757000D01*
X93187000Y-89856250D01*
X93345750Y-90015000D01*
X94014696Y-90015000D01*
X93950302Y-90041673D01*
X93771673Y-90220301D01*
X93675000Y-90453690D01*
X93675000Y-92044250D01*
X93833750Y-92203000D01*
X95933000Y-92203000D01*
X95933000Y-90103750D01*
X96187000Y-90103750D01*
X96187000Y-92203000D01*
X98286250Y-92203000D01*
X98445000Y-92044250D01*
X98445000Y-90453690D01*
X98348327Y-90220301D01*
X98169698Y-90041673D01*
X98135337Y-90027440D01*
X100810000Y-90027440D01*
X101057765Y-89978157D01*
X101267809Y-89837809D01*
X101408157Y-89627765D01*
X101457440Y-89380000D01*
X101457440Y-88900000D01*
X107451010Y-88900000D01*
X107585666Y-89576963D01*
X107969135Y-90150865D01*
X108543037Y-90534334D01*
X109049120Y-90635000D01*
X109390880Y-90635000D01*
X109896963Y-90534334D01*
X110470865Y-90150865D01*
X110854334Y-89576963D01*
X110988990Y-88900000D01*
X110854334Y-88223037D01*
X110470865Y-87649135D01*
X109896963Y-87265666D01*
X109390880Y-87165000D01*
X109049120Y-87165000D01*
X108543037Y-87265666D01*
X107969135Y-87649135D01*
X107585666Y-88223037D01*
X107451010Y-88900000D01*
X101457440Y-88900000D01*
X101457440Y-85880000D01*
X101408157Y-85632235D01*
X101267809Y-85422191D01*
X101057765Y-85281843D01*
X100810000Y-85232560D01*
X97310000Y-85232560D01*
X97062235Y-85281843D01*
X96852191Y-85422191D01*
X96711843Y-85632235D01*
X96662560Y-85880000D01*
X96662560Y-89380000D01*
X96711843Y-89627765D01*
X96852191Y-89837809D01*
X97012612Y-89945000D01*
X96345750Y-89945000D01*
X96187000Y-90103750D01*
X95933000Y-90103750D01*
X95774250Y-89945000D01*
X94855304Y-89945000D01*
X94919698Y-89918327D01*
X95098327Y-89739699D01*
X95195000Y-89506310D01*
X95195000Y-87915750D01*
X95036250Y-87757000D01*
X93187000Y-87757000D01*
X92933000Y-87757000D01*
X91083750Y-87757000D01*
X90925000Y-87915750D01*
X85852000Y-87915750D01*
X85852000Y-85753690D01*
X90925000Y-85753690D01*
X90925000Y-87344250D01*
X91083750Y-87503000D01*
X92933000Y-87503000D01*
X92933000Y-85403750D01*
X93187000Y-85403750D01*
X93187000Y-87503000D01*
X95036250Y-87503000D01*
X95195000Y-87344250D01*
X95195000Y-85753690D01*
X95098327Y-85520301D01*
X94919698Y-85341673D01*
X94686309Y-85245000D01*
X93345750Y-85245000D01*
X93187000Y-85403750D01*
X92933000Y-85403750D01*
X92774250Y-85245000D01*
X91433691Y-85245000D01*
X91200302Y-85341673D01*
X91021673Y-85520301D01*
X90925000Y-85753690D01*
X85852000Y-85753690D01*
X85852000Y-82550000D01*
X115376887Y-82550000D01*
X115488260Y-83109909D01*
X115805423Y-83584577D01*
X116157758Y-83820000D01*
X115805423Y-84055423D01*
X115488260Y-84530091D01*
X115376887Y-85090000D01*
X115488260Y-85649909D01*
X115805423Y-86124577D01*
X116189108Y-86380947D01*
X115984866Y-86477611D01*
X115608959Y-86892577D01*
X115448096Y-87280961D01*
X115570085Y-87503000D01*
X116713000Y-87503000D01*
X116713000Y-87483000D01*
X116967000Y-87483000D01*
X116967000Y-87503000D01*
X118109915Y-87503000D01*
X118231904Y-87280961D01*
X118071041Y-86892577D01*
X117695134Y-86477611D01*
X117490892Y-86380947D01*
X117874577Y-86124577D01*
X118191740Y-85649909D01*
X118303113Y-85090000D01*
X118191740Y-84530091D01*
X117874577Y-84055423D01*
X117522242Y-83820000D01*
X117874577Y-83584577D01*
X118191740Y-83109909D01*
X118303113Y-82550000D01*
X118191740Y-81990091D01*
X117874577Y-81515423D01*
X117753894Y-81434785D01*
X117887765Y-81408157D01*
X118097809Y-81267809D01*
X118238157Y-81057765D01*
X118287440Y-80810000D01*
X118287440Y-80010000D01*
X130616887Y-80010000D01*
X130728260Y-80569909D01*
X131045423Y-81044577D01*
X131429108Y-81300947D01*
X131224866Y-81397611D01*
X130848959Y-81812577D01*
X130688096Y-82200961D01*
X130810085Y-82423000D01*
X131953000Y-82423000D01*
X131953000Y-82403000D01*
X132207000Y-82403000D01*
X132207000Y-82423000D01*
X133349915Y-82423000D01*
X133456074Y-82229774D01*
X136389831Y-82229774D01*
X136454131Y-82467611D01*
X136962342Y-82647333D01*
X137500644Y-82618892D01*
X137865869Y-82467611D01*
X137930169Y-82229774D01*
X137160000Y-81459605D01*
X136389831Y-82229774D01*
X133456074Y-82229774D01*
X133471904Y-82200961D01*
X133311041Y-81812577D01*
X132935134Y-81397611D01*
X132730892Y-81300947D01*
X133058057Y-81082342D01*
X135792667Y-81082342D01*
X135821108Y-81620644D01*
X135972389Y-81985869D01*
X136210226Y-82050169D01*
X136980395Y-81280000D01*
X137339605Y-81280000D01*
X138109774Y-82050169D01*
X138347611Y-81985869D01*
X138527333Y-81477658D01*
X138502650Y-81010474D01*
X140885000Y-81010474D01*
X140885000Y-81549526D01*
X141091286Y-82047546D01*
X141472454Y-82428714D01*
X141970474Y-82635000D01*
X142509526Y-82635000D01*
X143007546Y-82428714D01*
X143388714Y-82047546D01*
X143595000Y-81549526D01*
X143595000Y-81010474D01*
X143388714Y-80512454D01*
X143007546Y-80131286D01*
X142509526Y-79925000D01*
X141970474Y-79925000D01*
X141472454Y-80131286D01*
X141091286Y-80512454D01*
X140885000Y-81010474D01*
X138502650Y-81010474D01*
X138498892Y-80939356D01*
X138347611Y-80574131D01*
X138109774Y-80509831D01*
X137339605Y-81280000D01*
X136980395Y-81280000D01*
X136210226Y-80509831D01*
X135972389Y-80574131D01*
X135792667Y-81082342D01*
X133058057Y-81082342D01*
X133114577Y-81044577D01*
X133431740Y-80569909D01*
X133479415Y-80330226D01*
X136389831Y-80330226D01*
X137160000Y-81100395D01*
X137930169Y-80330226D01*
X137865869Y-80092389D01*
X137357658Y-79912667D01*
X136819356Y-79941108D01*
X136454131Y-80092389D01*
X136389831Y-80330226D01*
X133479415Y-80330226D01*
X133543113Y-80010000D01*
X133431740Y-79450091D01*
X133114577Y-78975423D01*
X132639909Y-78658260D01*
X132221333Y-78575000D01*
X131938667Y-78575000D01*
X131520091Y-78658260D01*
X131045423Y-78975423D01*
X130728260Y-79450091D01*
X130616887Y-80010000D01*
X118287440Y-80010000D01*
X118287440Y-79210000D01*
X118238157Y-78962235D01*
X118097809Y-78752191D01*
X117887765Y-78611843D01*
X117640000Y-78562560D01*
X116040000Y-78562560D01*
X115792235Y-78611843D01*
X115582191Y-78752191D01*
X115441843Y-78962235D01*
X115392560Y-79210000D01*
X115392560Y-80810000D01*
X115441843Y-81057765D01*
X115582191Y-81267809D01*
X115792235Y-81408157D01*
X115926106Y-81434785D01*
X115805423Y-81515423D01*
X115488260Y-81990091D01*
X115376887Y-82550000D01*
X85852000Y-82550000D01*
X85852000Y-75825050D01*
X88285000Y-75825050D01*
X88285000Y-76574950D01*
X88571974Y-77267767D01*
X89102233Y-77798026D01*
X89795050Y-78085000D01*
X90544950Y-78085000D01*
X91237767Y-77798026D01*
X91395793Y-77640000D01*
X107472560Y-77640000D01*
X107472560Y-79840000D01*
X107521843Y-80087765D01*
X107662191Y-80297809D01*
X107872235Y-80438157D01*
X108120000Y-80487440D01*
X110320000Y-80487440D01*
X110567765Y-80438157D01*
X110777809Y-80297809D01*
X110918157Y-80087765D01*
X110967440Y-79840000D01*
X110967440Y-77770275D01*
X136444331Y-77770275D01*
X136506169Y-78006042D01*
X137007122Y-78182419D01*
X137537440Y-78153664D01*
X137893831Y-78006042D01*
X137955669Y-77770275D01*
X137200000Y-77014605D01*
X136444331Y-77770275D01*
X110967440Y-77770275D01*
X110967440Y-77640000D01*
X110918157Y-77392235D01*
X110777809Y-77182191D01*
X110567765Y-77041843D01*
X110320000Y-76992560D01*
X108120000Y-76992560D01*
X107872235Y-77041843D01*
X107662191Y-77182191D01*
X107521843Y-77392235D01*
X107472560Y-77640000D01*
X91395793Y-77640000D01*
X91768026Y-77267767D01*
X92027176Y-76642122D01*
X135852581Y-76642122D01*
X135881336Y-77172440D01*
X136028958Y-77528831D01*
X136264725Y-77590669D01*
X137020395Y-76835000D01*
X137379605Y-76835000D01*
X138135275Y-77590669D01*
X138371042Y-77528831D01*
X138449775Y-77305212D01*
X138568242Y-77591217D01*
X138943783Y-77966758D01*
X139434452Y-78170000D01*
X139965548Y-78170000D01*
X140456217Y-77966758D01*
X140831758Y-77591217D01*
X141035000Y-77100548D01*
X141035000Y-76569452D01*
X140831758Y-76078783D01*
X140578025Y-75825050D01*
X160675000Y-75825050D01*
X160675000Y-76574950D01*
X160961974Y-77267767D01*
X161492233Y-77798026D01*
X162185050Y-78085000D01*
X162934950Y-78085000D01*
X163627767Y-77798026D01*
X164158026Y-77267767D01*
X164445000Y-76574950D01*
X164445000Y-75825050D01*
X164158026Y-75132233D01*
X163627767Y-74601974D01*
X162934950Y-74315000D01*
X162185050Y-74315000D01*
X161492233Y-74601974D01*
X160961974Y-75132233D01*
X160675000Y-75825050D01*
X140578025Y-75825050D01*
X140456217Y-75703242D01*
X139965548Y-75500000D01*
X139434452Y-75500000D01*
X138943783Y-75703242D01*
X138568242Y-76078783D01*
X138456721Y-76348017D01*
X138371042Y-76141169D01*
X138135275Y-76079331D01*
X137379605Y-76835000D01*
X137020395Y-76835000D01*
X136264725Y-76079331D01*
X136028958Y-76141169D01*
X135852581Y-76642122D01*
X92027176Y-76642122D01*
X92055000Y-76574950D01*
X92055000Y-75899725D01*
X136444331Y-75899725D01*
X137200000Y-76655395D01*
X137955669Y-75899725D01*
X137893831Y-75663958D01*
X137392878Y-75487581D01*
X136862560Y-75516336D01*
X136506169Y-75663958D01*
X136444331Y-75899725D01*
X92055000Y-75899725D01*
X92055000Y-75825050D01*
X91768026Y-75132233D01*
X91237767Y-74601974D01*
X90544950Y-74315000D01*
X89795050Y-74315000D01*
X89102233Y-74601974D01*
X88571974Y-75132233D01*
X88285000Y-75825050D01*
X85852000Y-75825050D01*
X85852000Y-73152000D01*
X165608000Y-73152000D01*
X165608000Y-124968000D01*
X165608000Y-124968000D01*
G37*
X165608000Y-124968000D02*
X85852000Y-124968000D01*
X85852000Y-121545050D01*
X88285000Y-121545050D01*
X88285000Y-122294950D01*
X88571974Y-122987767D01*
X89102233Y-123518026D01*
X89795050Y-123805000D01*
X90544950Y-123805000D01*
X91237767Y-123518026D01*
X91768026Y-122987767D01*
X91769534Y-122984126D01*
X113265000Y-122984126D01*
X113265000Y-123395874D01*
X113422569Y-123776280D01*
X113713720Y-124067431D01*
X114094126Y-124225000D01*
X114505874Y-124225000D01*
X114886280Y-124067431D01*
X115177431Y-123776280D01*
X115335000Y-123395874D01*
X115335000Y-122984126D01*
X115177431Y-122603720D01*
X115060000Y-122486289D01*
X115060000Y-94294801D01*
X115727238Y-93627564D01*
X115805423Y-93744577D01*
X116157758Y-93980000D01*
X115805423Y-94215423D01*
X115488260Y-94690091D01*
X115376887Y-95250000D01*
X115488260Y-95809909D01*
X115805423Y-96284577D01*
X116157758Y-96520000D01*
X115805423Y-96755423D01*
X115488260Y-97230091D01*
X115376887Y-97790000D01*
X115488260Y-98349909D01*
X115805423Y-98824577D01*
X116157758Y-99060000D01*
X115805423Y-99295423D01*
X115488260Y-99770091D01*
X115376887Y-100330000D01*
X115488260Y-100889909D01*
X115805423Y-101364577D01*
X116157758Y-101600000D01*
X115805423Y-101835423D01*
X115488260Y-102310091D01*
X115376887Y-102870000D01*
X115488260Y-103429909D01*
X115805423Y-103904577D01*
X116157758Y-104140000D01*
X115805423Y-104375423D01*
X115488260Y-104850091D01*
X115376887Y-105410000D01*
X115488260Y-105969909D01*
X115805423Y-106444577D01*
X116157758Y-106680000D01*
X115805423Y-106915423D01*
X115488260Y-107390091D01*
X115376887Y-107950000D01*
X115488260Y-108509909D01*
X115805423Y-108984577D01*
X116157758Y-109220000D01*
X115805423Y-109455423D01*
X115488260Y-109930091D01*
X115376887Y-110490000D01*
X115488260Y-111049909D01*
X115805423Y-111524577D01*
X116157758Y-111760000D01*
X115805423Y-111995423D01*
X115488260Y-112470091D01*
X115376887Y-113030000D01*
X115488260Y-113589909D01*
X115805423Y-114064577D01*
X116157758Y-114300000D01*
X115805423Y-114535423D01*
X115488260Y-115010091D01*
X115376887Y-115570000D01*
X115488260Y-116129909D01*
X115805423Y-116604577D01*
X116280091Y-116921740D01*
X116698667Y-117005000D01*
X116981333Y-117005000D01*
X117399909Y-116921740D01*
X117874577Y-116604577D01*
X118191740Y-116129909D01*
X118303113Y-115570000D01*
X118191740Y-115010091D01*
X117874577Y-114535423D01*
X117522242Y-114300000D01*
X117874577Y-114064577D01*
X118191740Y-113589909D01*
X118303113Y-113030000D01*
X118191740Y-112470091D01*
X117874577Y-111995423D01*
X117522242Y-111760000D01*
X117874577Y-111524577D01*
X118191740Y-111049909D01*
X118303113Y-110490000D01*
X118191740Y-109930091D01*
X117874577Y-109455423D01*
X117522242Y-109220000D01*
X117874577Y-108984577D01*
X118058043Y-108710000D01*
X123756289Y-108710000D01*
X123873720Y-108827431D01*
X124254126Y-108985000D01*
X124665874Y-108985000D01*
X125046280Y-108827431D01*
X125337431Y-108536280D01*
X125495000Y-108155874D01*
X125495000Y-107744126D01*
X125337431Y-107363720D01*
X125046280Y-107072569D01*
X124665874Y-106915000D01*
X124254126Y-106915000D01*
X123873720Y-107072569D01*
X123756289Y-107190000D01*
X118058043Y-107190000D01*
X117874577Y-106915423D01*
X117522242Y-106680000D01*
X117874577Y-106444577D01*
X118191740Y-105969909D01*
X118303113Y-105410000D01*
X118191740Y-104850091D01*
X117874577Y-104375423D01*
X117522242Y-104140000D01*
X117874577Y-103904577D01*
X118191740Y-103429909D01*
X118303113Y-102870000D01*
X118191740Y-102310091D01*
X117874577Y-101835423D01*
X117522242Y-101600000D01*
X117874577Y-101364577D01*
X118191740Y-100889909D01*
X118303113Y-100330000D01*
X118191740Y-99770091D01*
X117874577Y-99295423D01*
X117522242Y-99060000D01*
X117874577Y-98824577D01*
X118191740Y-98349909D01*
X118303113Y-97790000D01*
X118191740Y-97230091D01*
X117874577Y-96755423D01*
X117522242Y-96520000D01*
X117874577Y-96284577D01*
X118058043Y-96010000D01*
X125415199Y-96010000D01*
X126240001Y-96834803D01*
X126240000Y-116765153D01*
X126225112Y-116840000D01*
X126240000Y-116914847D01*
X126240000Y-116914851D01*
X126284096Y-117136536D01*
X126452071Y-117387929D01*
X126515530Y-117430331D01*
X128949673Y-119864476D01*
X128992071Y-119927929D01*
X129055524Y-119970327D01*
X129055526Y-119970329D01*
X129152314Y-120035000D01*
X129243463Y-120095904D01*
X129465148Y-120140000D01*
X129465152Y-120140000D01*
X129539999Y-120154888D01*
X129614846Y-120140000D01*
X134545153Y-120140000D01*
X134620000Y-120154888D01*
X134694847Y-120140000D01*
X134694852Y-120140000D01*
X134916537Y-120095904D01*
X135167929Y-119927929D01*
X135210331Y-119864470D01*
X136374473Y-118700329D01*
X136437929Y-118657929D01*
X136605904Y-118406537D01*
X136650000Y-118184852D01*
X136650000Y-118184848D01*
X136664888Y-118110001D01*
X136650000Y-118035154D01*
X136650000Y-113030000D01*
X137068846Y-113030000D01*
X137172458Y-113550891D01*
X137467519Y-113992481D01*
X137909109Y-114287542D01*
X137971739Y-114300000D01*
X137909109Y-114312458D01*
X137467519Y-114607519D01*
X137172458Y-115049109D01*
X137068846Y-115570000D01*
X137172458Y-116090891D01*
X137467519Y-116532481D01*
X137909109Y-116827542D01*
X137971739Y-116840000D01*
X137909109Y-116852458D01*
X137467519Y-117147519D01*
X137172458Y-117589109D01*
X137068846Y-118110000D01*
X137172458Y-118630891D01*
X137467519Y-119072481D01*
X137909109Y-119367542D01*
X137995918Y-119384809D01*
X137673783Y-119518242D01*
X137298242Y-119893783D01*
X137095000Y-120384452D01*
X137095000Y-120915548D01*
X137298242Y-121406217D01*
X137673783Y-121781758D01*
X137995918Y-121915191D01*
X137909109Y-121932458D01*
X137467519Y-122227519D01*
X137172458Y-122669109D01*
X137068846Y-123190000D01*
X137172458Y-123710891D01*
X137467519Y-124152481D01*
X137909109Y-124447542D01*
X138298515Y-124525000D01*
X138561485Y-124525000D01*
X138950891Y-124447542D01*
X139392481Y-124152481D01*
X139687542Y-123710891D01*
X139791154Y-123190000D01*
X139687542Y-122669109D01*
X139392481Y-122227519D01*
X138950891Y-121932458D01*
X138864082Y-121915191D01*
X139186217Y-121781758D01*
X139561758Y-121406217D01*
X139765000Y-120915548D01*
X139765000Y-120384452D01*
X139561758Y-119893783D01*
X139186217Y-119518242D01*
X138864082Y-119384809D01*
X138950891Y-119367542D01*
X139392481Y-119072481D01*
X139687542Y-118630891D01*
X139791154Y-118110000D01*
X139687542Y-117589109D01*
X139392481Y-117147519D01*
X138950891Y-116852458D01*
X138888261Y-116840000D01*
X138950891Y-116827542D01*
X139392481Y-116532481D01*
X139687542Y-116090891D01*
X139791154Y-115570000D01*
X139687542Y-115049109D01*
X139392481Y-114607519D01*
X138950891Y-114312458D01*
X138888261Y-114300000D01*
X138950891Y-114287542D01*
X139392481Y-113992481D01*
X139687542Y-113550891D01*
X139791154Y-113030000D01*
X139687542Y-112509109D01*
X139392481Y-112067519D01*
X138950891Y-111772458D01*
X138561485Y-111695000D01*
X138298515Y-111695000D01*
X137909109Y-111772458D01*
X137467519Y-112067519D01*
X137172458Y-112509109D01*
X137068846Y-113030000D01*
X136650000Y-113030000D01*
X136650000Y-112074801D01*
X137474802Y-111250000D01*
X140655199Y-111250000D01*
X141480001Y-112074803D01*
X141480000Y-116765153D01*
X141465112Y-116840000D01*
X141480000Y-116914847D01*
X141480000Y-116914851D01*
X141524096Y-117136536D01*
X141692071Y-117387929D01*
X141755530Y-117430331D01*
X144295526Y-119970329D01*
X144295532Y-119970333D01*
X144736355Y-120411156D01*
X144688846Y-120650000D01*
X144792458Y-121170891D01*
X145087519Y-121612481D01*
X145529109Y-121907542D01*
X145615918Y-121924809D01*
X145293783Y-122058242D01*
X144918242Y-122433783D01*
X144715000Y-122924452D01*
X144715000Y-123455548D01*
X144918242Y-123946217D01*
X145293783Y-124321758D01*
X145784452Y-124525000D01*
X146315548Y-124525000D01*
X146806217Y-124321758D01*
X147181758Y-123946217D01*
X147385000Y-123455548D01*
X147385000Y-122924452D01*
X147181758Y-122433783D01*
X146806217Y-122058242D01*
X146484082Y-121924809D01*
X146570891Y-121907542D01*
X147012481Y-121612481D01*
X147307542Y-121170891D01*
X147411154Y-120650000D01*
X147307542Y-120129109D01*
X147050741Y-119744778D01*
X149495000Y-119744778D01*
X149495000Y-120395222D01*
X149743914Y-120996153D01*
X150203847Y-121456086D01*
X150804778Y-121705000D01*
X151455222Y-121705000D01*
X152056153Y-121456086D01*
X152516086Y-120996153D01*
X152765000Y-120395222D01*
X152765000Y-119744778D01*
X155995000Y-119744778D01*
X155995000Y-120395222D01*
X156243914Y-120996153D01*
X156703847Y-121456086D01*
X157304778Y-121705000D01*
X157955222Y-121705000D01*
X158341375Y-121545050D01*
X160675000Y-121545050D01*
X160675000Y-122294950D01*
X160961974Y-122987767D01*
X161492233Y-123518026D01*
X162185050Y-123805000D01*
X162934950Y-123805000D01*
X163627767Y-123518026D01*
X164158026Y-122987767D01*
X164445000Y-122294950D01*
X164445000Y-121545050D01*
X164158026Y-120852233D01*
X163627767Y-120321974D01*
X162934950Y-120035000D01*
X162185050Y-120035000D01*
X161492233Y-120321974D01*
X160961974Y-120852233D01*
X160675000Y-121545050D01*
X158341375Y-121545050D01*
X158556153Y-121456086D01*
X159016086Y-120996153D01*
X159265000Y-120395222D01*
X159265000Y-119744778D01*
X159016086Y-119143847D01*
X158556153Y-118683914D01*
X157955222Y-118435000D01*
X157304778Y-118435000D01*
X156703847Y-118683914D01*
X156243914Y-119143847D01*
X155995000Y-119744778D01*
X152765000Y-119744778D01*
X152516086Y-119143847D01*
X152056153Y-118683914D01*
X151455222Y-118435000D01*
X150804778Y-118435000D01*
X150203847Y-118683914D01*
X149743914Y-119143847D01*
X149495000Y-119744778D01*
X147050741Y-119744778D01*
X147012481Y-119687519D01*
X146570891Y-119392458D01*
X146484082Y-119375191D01*
X146806217Y-119241758D01*
X147177975Y-118870000D01*
X147245153Y-118870000D01*
X147320000Y-118884888D01*
X147394847Y-118870000D01*
X147394852Y-118870000D01*
X147616537Y-118825904D01*
X147867929Y-118657929D01*
X147910331Y-118594470D01*
X149074473Y-117430329D01*
X149137929Y-117387929D01*
X149305904Y-117136537D01*
X149350000Y-116914852D01*
X149350000Y-116914848D01*
X149364888Y-116840001D01*
X149350000Y-116765154D01*
X149350000Y-116722532D01*
X150157073Y-116722532D01*
X150255736Y-116989387D01*
X150865461Y-117215908D01*
X151515460Y-117191856D01*
X152004264Y-116989387D01*
X152102927Y-116722532D01*
X156657073Y-116722532D01*
X156755736Y-116989387D01*
X157365461Y-117215908D01*
X158015460Y-117191856D01*
X158504264Y-116989387D01*
X158602927Y-116722532D01*
X157630000Y-115749605D01*
X156657073Y-116722532D01*
X152102927Y-116722532D01*
X151130000Y-115749605D01*
X150157073Y-116722532D01*
X149350000Y-116722532D01*
X149350000Y-115305461D01*
X149484092Y-115305461D01*
X149508144Y-115955460D01*
X149710613Y-116444264D01*
X149977468Y-116542927D01*
X150950395Y-115570000D01*
X151309605Y-115570000D01*
X152282532Y-116542927D01*
X152549387Y-116444264D01*
X152775908Y-115834539D01*
X152756331Y-115305461D01*
X155984092Y-115305461D01*
X156008144Y-115955460D01*
X156210613Y-116444264D01*
X156477468Y-116542927D01*
X157450395Y-115570000D01*
X157809605Y-115570000D01*
X158782532Y-116542927D01*
X159049387Y-116444264D01*
X159275908Y-115834539D01*
X159251856Y-115184540D01*
X159049387Y-114695736D01*
X158782532Y-114597073D01*
X157809605Y-115570000D01*
X157450395Y-115570000D01*
X156477468Y-114597073D01*
X156210613Y-114695736D01*
X155984092Y-115305461D01*
X152756331Y-115305461D01*
X152751856Y-115184540D01*
X152549387Y-114695736D01*
X152282532Y-114597073D01*
X151309605Y-115570000D01*
X150950395Y-115570000D01*
X149977468Y-114597073D01*
X149710613Y-114695736D01*
X149484092Y-115305461D01*
X149350000Y-115305461D01*
X149350000Y-114614801D01*
X149547333Y-114417468D01*
X150157073Y-114417468D01*
X151130000Y-115390395D01*
X152102927Y-114417468D01*
X156657073Y-114417468D01*
X157630000Y-115390395D01*
X158602927Y-114417468D01*
X158504264Y-114150613D01*
X157894539Y-113924092D01*
X157244540Y-113948144D01*
X156755736Y-114150613D01*
X156657073Y-114417468D01*
X152102927Y-114417468D01*
X152004264Y-114150613D01*
X151394539Y-113924092D01*
X150744540Y-113948144D01*
X150255736Y-114150613D01*
X150157073Y-114417468D01*
X149547333Y-114417468D01*
X150344473Y-113620329D01*
X150407929Y-113577929D01*
X150575904Y-113326537D01*
X150620000Y-113104852D01*
X150620000Y-113104848D01*
X150634888Y-113030001D01*
X150620000Y-112955154D01*
X150620000Y-105695750D01*
X152510000Y-105695750D01*
X152510000Y-106286310D01*
X152606673Y-106519699D01*
X152785302Y-106698327D01*
X153018691Y-106795000D01*
X153384250Y-106795000D01*
X153543000Y-106636250D01*
X153543000Y-105537000D01*
X152668750Y-105537000D01*
X152510000Y-105695750D01*
X150620000Y-105695750D01*
X150620000Y-104533690D01*
X152510000Y-104533690D01*
X152510000Y-105124250D01*
X152668750Y-105283000D01*
X153543000Y-105283000D01*
X153543000Y-104183750D01*
X153384250Y-104025000D01*
X153018691Y-104025000D01*
X152785302Y-104121673D01*
X152606673Y-104300301D01*
X152510000Y-104533690D01*
X150620000Y-104533690D01*
X150620000Y-104454801D01*
X153304472Y-101770330D01*
X153367928Y-101727930D01*
X153445084Y-101612458D01*
X153535903Y-101476539D01*
X153576371Y-101273091D01*
X153579999Y-101254853D01*
X153579999Y-101254849D01*
X153594887Y-101180001D01*
X153579999Y-101105153D01*
X153579999Y-97684802D01*
X155097703Y-96167099D01*
X155397138Y-96466534D01*
X155526216Y-96520000D01*
X155397138Y-96573466D01*
X154993466Y-96977138D01*
X154775000Y-97504561D01*
X154775000Y-98075439D01*
X154993466Y-98602862D01*
X155397138Y-99006534D01*
X155450000Y-99028430D01*
X155450001Y-104130653D01*
X155392608Y-104092305D01*
X154940000Y-104002275D01*
X154487391Y-104092305D01*
X154486016Y-104093224D01*
X154321309Y-104025000D01*
X153955750Y-104025000D01*
X153797000Y-104183750D01*
X153797000Y-104985291D01*
X153780000Y-105070755D01*
X153780000Y-105749246D01*
X153797000Y-105834710D01*
X153797000Y-106636250D01*
X153955750Y-106795000D01*
X154321309Y-106795000D01*
X154486016Y-106726776D01*
X154487392Y-106727695D01*
X154940000Y-106817725D01*
X155392609Y-106727695D01*
X155575000Y-106605825D01*
X155757392Y-106727695D01*
X156210000Y-106817725D01*
X156662609Y-106727695D01*
X157046313Y-106471313D01*
X157302695Y-106087608D01*
X157370000Y-105749245D01*
X157370000Y-105070754D01*
X157302695Y-104732391D01*
X157046313Y-104348687D01*
X156970000Y-104297697D01*
X156970000Y-99028430D01*
X157022862Y-99006534D01*
X157426534Y-98602862D01*
X157645000Y-98075439D01*
X157645000Y-97504561D01*
X157426534Y-96977138D01*
X157022862Y-96573466D01*
X156893784Y-96520000D01*
X157022862Y-96466534D01*
X157426534Y-96062862D01*
X157645000Y-95535439D01*
X157645000Y-94964561D01*
X157426534Y-94437138D01*
X157022862Y-94033466D01*
X156893784Y-93980000D01*
X157022862Y-93926534D01*
X157426534Y-93522862D01*
X157645000Y-92995439D01*
X157645000Y-92424561D01*
X157426534Y-91897138D01*
X157022862Y-91493466D01*
X156893784Y-91440000D01*
X157022862Y-91386534D01*
X157426534Y-90982862D01*
X157645000Y-90455439D01*
X157645000Y-89884561D01*
X157426534Y-89357138D01*
X157022862Y-88953466D01*
X156893784Y-88900000D01*
X157022862Y-88846534D01*
X157426534Y-88442862D01*
X157645000Y-87915439D01*
X157645000Y-87344561D01*
X157426534Y-86817138D01*
X157022862Y-86413466D01*
X156495439Y-86195000D01*
X155924561Y-86195000D01*
X155397138Y-86413466D01*
X154993466Y-86817138D01*
X154775000Y-87344561D01*
X154775000Y-87915439D01*
X154993466Y-88442862D01*
X155397138Y-88846534D01*
X155526216Y-88900000D01*
X155397138Y-88953466D01*
X154993466Y-89357138D01*
X154775000Y-89884561D01*
X154775000Y-90455439D01*
X154993466Y-90982862D01*
X155397138Y-91386534D01*
X155526216Y-91440000D01*
X155397138Y-91493466D01*
X154993466Y-91897138D01*
X154775000Y-92424561D01*
X154775000Y-92995439D01*
X154993466Y-93522862D01*
X155397138Y-93926534D01*
X155526216Y-93980000D01*
X155397138Y-94033466D01*
X154993466Y-94437138D01*
X154974864Y-94482047D01*
X154939999Y-94475112D01*
X154865152Y-94490000D01*
X154865148Y-94490000D01*
X154643463Y-94534096D01*
X154392071Y-94702071D01*
X154349671Y-94765527D01*
X152335529Y-96779670D01*
X152272070Y-96822072D01*
X152239785Y-96870389D01*
X151942862Y-96573466D01*
X151813784Y-96520000D01*
X151942862Y-96466534D01*
X152346534Y-96062862D01*
X152565000Y-95535439D01*
X152565000Y-94964561D01*
X152346534Y-94437138D01*
X151942862Y-94033466D01*
X151813784Y-93980000D01*
X151942862Y-93926534D01*
X152346534Y-93522862D01*
X152565000Y-92995439D01*
X152565000Y-92424561D01*
X152346534Y-91897138D01*
X151942862Y-91493466D01*
X151813784Y-91440000D01*
X151942862Y-91386534D01*
X152346534Y-90982862D01*
X152565000Y-90455439D01*
X152565000Y-89884561D01*
X152346534Y-89357138D01*
X152044134Y-89054738D01*
X152177765Y-89028157D01*
X152387809Y-88887809D01*
X152528157Y-88677765D01*
X152577440Y-88430000D01*
X152577440Y-86830000D01*
X152528157Y-86582235D01*
X152387809Y-86372191D01*
X152177765Y-86231843D01*
X151930000Y-86182560D01*
X150330000Y-86182560D01*
X150082235Y-86231843D01*
X149872191Y-86372191D01*
X149731843Y-86582235D01*
X149682560Y-86830000D01*
X149682560Y-88430000D01*
X149731843Y-88677765D01*
X149872191Y-88887809D01*
X150082235Y-89028157D01*
X150215866Y-89054738D01*
X149913466Y-89357138D01*
X149695000Y-89884561D01*
X149695000Y-90455439D01*
X149913466Y-90982862D01*
X150317138Y-91386534D01*
X150446216Y-91440000D01*
X150317138Y-91493466D01*
X149913466Y-91897138D01*
X149695000Y-92424561D01*
X149695000Y-92995439D01*
X149913466Y-93522862D01*
X150317138Y-93926534D01*
X150446216Y-93980000D01*
X150317138Y-94033466D01*
X149913466Y-94437138D01*
X149695000Y-94964561D01*
X149695000Y-95535439D01*
X149913466Y-96062862D01*
X150317138Y-96466534D01*
X150446216Y-96520000D01*
X150317138Y-96573466D01*
X149913466Y-96977138D01*
X149695000Y-97504561D01*
X149695000Y-98075439D01*
X149913466Y-98602862D01*
X150317138Y-99006534D01*
X150844561Y-99225000D01*
X151415439Y-99225000D01*
X151942862Y-99006534D01*
X152059999Y-98889397D01*
X152060000Y-100865198D01*
X149375530Y-103549669D01*
X149312071Y-103592071D01*
X149144096Y-103843464D01*
X149100000Y-104065149D01*
X149100000Y-104065153D01*
X149085112Y-104140000D01*
X149100000Y-104214847D01*
X149100001Y-112715197D01*
X148105530Y-113709669D01*
X148042071Y-113752071D01*
X147874096Y-114003464D01*
X147830000Y-114225149D01*
X147830000Y-114225153D01*
X147815112Y-114300000D01*
X147830000Y-114374847D01*
X147830001Y-116525197D01*
X147091587Y-117263612D01*
X146806217Y-116978242D01*
X146472472Y-116840000D01*
X146806217Y-116701758D01*
X147181758Y-116326217D01*
X147385000Y-115835548D01*
X147385000Y-115304452D01*
X147181758Y-114813783D01*
X146806217Y-114438242D01*
X146472472Y-114300000D01*
X146806217Y-114161758D01*
X147181758Y-113786217D01*
X147385000Y-113295548D01*
X147385000Y-112764452D01*
X147181758Y-112273783D01*
X146806217Y-111898242D01*
X146315548Y-111695000D01*
X145784452Y-111695000D01*
X145293783Y-111898242D01*
X144918242Y-112273783D01*
X144715000Y-112764452D01*
X144715000Y-113295548D01*
X144918242Y-113786217D01*
X145293783Y-114161758D01*
X145627528Y-114300000D01*
X145293783Y-114438242D01*
X144918242Y-114813783D01*
X144715000Y-115304452D01*
X144715000Y-115835548D01*
X144918242Y-116326217D01*
X145293783Y-116701758D01*
X145627528Y-116840000D01*
X145293783Y-116978242D01*
X144918242Y-117353783D01*
X144715000Y-117844452D01*
X144715000Y-118240197D01*
X143000000Y-116525199D01*
X143000000Y-111834846D01*
X143014888Y-111759999D01*
X143000000Y-111685152D01*
X143000000Y-111685148D01*
X142955904Y-111463463D01*
X142787929Y-111212071D01*
X142724473Y-111169671D01*
X141560331Y-110005530D01*
X141517929Y-109942071D01*
X141266537Y-109774096D01*
X141044852Y-109730000D01*
X141044847Y-109730000D01*
X140970000Y-109715112D01*
X140895153Y-109730000D01*
X137234846Y-109730000D01*
X137159999Y-109715112D01*
X137085152Y-109730000D01*
X137085148Y-109730000D01*
X136863463Y-109774096D01*
X136612071Y-109942071D01*
X136569671Y-110005527D01*
X135405530Y-111169669D01*
X135342071Y-111212071D01*
X135174096Y-111463464D01*
X135130000Y-111685149D01*
X135130000Y-111685153D01*
X135115112Y-111760000D01*
X135130000Y-111834847D01*
X135130001Y-117795197D01*
X134305199Y-118620000D01*
X129854803Y-118620000D01*
X127760000Y-116525199D01*
X127760000Y-96594846D01*
X127774888Y-96519999D01*
X127760000Y-96445152D01*
X127760000Y-96445148D01*
X127715904Y-96223463D01*
X127547929Y-95972071D01*
X127484473Y-95929671D01*
X126320331Y-94765530D01*
X126277929Y-94702071D01*
X126026537Y-94534096D01*
X125804852Y-94490000D01*
X125804847Y-94490000D01*
X125730000Y-94475112D01*
X125655153Y-94490000D01*
X118058043Y-94490000D01*
X117874577Y-94215423D01*
X117522242Y-93980000D01*
X117874577Y-93744577D01*
X118191740Y-93269909D01*
X118303113Y-92710000D01*
X118191740Y-92150091D01*
X117874577Y-91675423D01*
X117522242Y-91440000D01*
X117874577Y-91204577D01*
X118191740Y-90729909D01*
X118303113Y-90170000D01*
X118191740Y-89610091D01*
X117874577Y-89135423D01*
X117522242Y-88900000D01*
X128765112Y-88900000D01*
X128780001Y-88974852D01*
X128780000Y-109145153D01*
X128765112Y-109220000D01*
X128780000Y-109294847D01*
X128780000Y-109294851D01*
X128824096Y-109516536D01*
X128992071Y-109767929D01*
X129055530Y-109810331D01*
X130219670Y-110974472D01*
X130262071Y-111037929D01*
X130513463Y-111205904D01*
X130735148Y-111250000D01*
X130735152Y-111250000D01*
X130809999Y-111264888D01*
X130864642Y-111254019D01*
X131045423Y-111524577D01*
X131397758Y-111760000D01*
X131045423Y-111995423D01*
X130728260Y-112470091D01*
X130616887Y-113030000D01*
X130728260Y-113589909D01*
X131045423Y-114064577D01*
X131397758Y-114300000D01*
X131045423Y-114535423D01*
X130728260Y-115010091D01*
X130616887Y-115570000D01*
X130728260Y-116129909D01*
X131045423Y-116604577D01*
X131520091Y-116921740D01*
X131938667Y-117005000D01*
X132221333Y-117005000D01*
X132639909Y-116921740D01*
X133114577Y-116604577D01*
X133431740Y-116129909D01*
X133543113Y-115570000D01*
X133431740Y-115010091D01*
X133114577Y-114535423D01*
X132762242Y-114300000D01*
X133114577Y-114064577D01*
X133431740Y-113589909D01*
X133543113Y-113030000D01*
X133431740Y-112470091D01*
X133114577Y-111995423D01*
X132762242Y-111760000D01*
X133114577Y-111524577D01*
X133431740Y-111049909D01*
X133543113Y-110490000D01*
X133431740Y-109930091D01*
X133114577Y-109455423D01*
X132762242Y-109220000D01*
X133114577Y-108984577D01*
X133431740Y-108509909D01*
X133543113Y-107950000D01*
X133431740Y-107390091D01*
X133114577Y-106915423D01*
X132762242Y-106680000D01*
X133114577Y-106444577D01*
X133431740Y-105969909D01*
X133543113Y-105410000D01*
X133431740Y-104850091D01*
X133114577Y-104375423D01*
X132762242Y-104140000D01*
X133114577Y-103904577D01*
X133431740Y-103429909D01*
X133543113Y-102870000D01*
X133431740Y-102310091D01*
X133114577Y-101835423D01*
X132762242Y-101600000D01*
X133114577Y-101364577D01*
X133431740Y-100889909D01*
X133543113Y-100330000D01*
X133431740Y-99770091D01*
X133114577Y-99295423D01*
X132762242Y-99060000D01*
X133114577Y-98824577D01*
X133431740Y-98349909D01*
X133543113Y-97790000D01*
X133431740Y-97230091D01*
X133114577Y-96755423D01*
X132762242Y-96520000D01*
X133114577Y-96284577D01*
X133431740Y-95809909D01*
X133543113Y-95250000D01*
X137068846Y-95250000D01*
X137172458Y-95770891D01*
X137467519Y-96212481D01*
X137909109Y-96507542D01*
X137971739Y-96520000D01*
X137909109Y-96532458D01*
X137467519Y-96827519D01*
X137172458Y-97269109D01*
X137068846Y-97790000D01*
X137172458Y-98310891D01*
X137467519Y-98752481D01*
X137909109Y-99047542D01*
X137971739Y-99060000D01*
X137909109Y-99072458D01*
X137467519Y-99367519D01*
X137172458Y-99809109D01*
X137068846Y-100330000D01*
X137172458Y-100850891D01*
X137467519Y-101292481D01*
X137909109Y-101587542D01*
X137971739Y-101600000D01*
X137909109Y-101612458D01*
X137467519Y-101907519D01*
X137172458Y-102349109D01*
X137068846Y-102870000D01*
X137172458Y-103390891D01*
X137467519Y-103832481D01*
X137909109Y-104127542D01*
X137971739Y-104140000D01*
X137909109Y-104152458D01*
X137467519Y-104447519D01*
X137172458Y-104889109D01*
X137068846Y-105410000D01*
X137172458Y-105930891D01*
X137467519Y-106372481D01*
X137909109Y-106667542D01*
X137971739Y-106680000D01*
X137909109Y-106692458D01*
X137467519Y-106987519D01*
X137172458Y-107429109D01*
X137068846Y-107950000D01*
X137172458Y-108470891D01*
X137467519Y-108912481D01*
X137909109Y-109207542D01*
X138298515Y-109285000D01*
X138561485Y-109285000D01*
X138950891Y-109207542D01*
X139392481Y-108912481D01*
X139687542Y-108470891D01*
X139791154Y-107950000D01*
X139687542Y-107429109D01*
X139392481Y-106987519D01*
X138950891Y-106692458D01*
X138888261Y-106680000D01*
X138950891Y-106667542D01*
X139392481Y-106372481D01*
X139687542Y-105930891D01*
X139791154Y-105410000D01*
X139687542Y-104889109D01*
X139392481Y-104447519D01*
X138950891Y-104152458D01*
X138888261Y-104140000D01*
X138950891Y-104127542D01*
X139392481Y-103832481D01*
X139687542Y-103390891D01*
X139791154Y-102870000D01*
X139687542Y-102349109D01*
X139392481Y-101907519D01*
X138950891Y-101612458D01*
X138888261Y-101600000D01*
X138950891Y-101587542D01*
X139392481Y-101292481D01*
X139687542Y-100850891D01*
X139791154Y-100330000D01*
X139687542Y-99809109D01*
X139392481Y-99367519D01*
X138950891Y-99072458D01*
X138888261Y-99060000D01*
X138950891Y-99047542D01*
X139392481Y-98752481D01*
X139687542Y-98310891D01*
X139791154Y-97790000D01*
X139687542Y-97269109D01*
X139392481Y-96827519D01*
X138950891Y-96532458D01*
X138888261Y-96520000D01*
X138950891Y-96507542D01*
X139392481Y-96212481D01*
X139687542Y-95770891D01*
X139791154Y-95250000D01*
X139738334Y-94984452D01*
X144715000Y-94984452D01*
X144715000Y-95515548D01*
X144918242Y-96006217D01*
X145293783Y-96381758D01*
X145627528Y-96520000D01*
X145293783Y-96658242D01*
X144918242Y-97033783D01*
X144715000Y-97524452D01*
X144715000Y-98055548D01*
X144918242Y-98546217D01*
X145293783Y-98921758D01*
X145627528Y-99060000D01*
X145293783Y-99198242D01*
X144918242Y-99573783D01*
X144715000Y-100064452D01*
X144715000Y-100595548D01*
X144918242Y-101086217D01*
X145293783Y-101461758D01*
X145627528Y-101600000D01*
X145293783Y-101738242D01*
X144918242Y-102113783D01*
X144715000Y-102604452D01*
X144715000Y-103135548D01*
X144918242Y-103626217D01*
X145293783Y-104001758D01*
X145627528Y-104140000D01*
X145293783Y-104278242D01*
X144918242Y-104653783D01*
X144715000Y-105144452D01*
X144715000Y-105675548D01*
X144918242Y-106166217D01*
X145293783Y-106541758D01*
X145627528Y-106680000D01*
X145293783Y-106818242D01*
X144918242Y-107193783D01*
X144715000Y-107684452D01*
X144715000Y-108215548D01*
X144918242Y-108706217D01*
X145293783Y-109081758D01*
X145784452Y-109285000D01*
X146315548Y-109285000D01*
X146806217Y-109081758D01*
X147181758Y-108706217D01*
X147385000Y-108215548D01*
X147385000Y-107684452D01*
X147181758Y-107193783D01*
X146806217Y-106818242D01*
X146472472Y-106680000D01*
X146806217Y-106541758D01*
X147181758Y-106166217D01*
X147385000Y-105675548D01*
X147385000Y-105144452D01*
X147181758Y-104653783D01*
X146806217Y-104278242D01*
X146472472Y-104140000D01*
X146806217Y-104001758D01*
X147181758Y-103626217D01*
X147385000Y-103135548D01*
X147385000Y-102604452D01*
X147181758Y-102113783D01*
X146806217Y-101738242D01*
X146472472Y-101600000D01*
X146806217Y-101461758D01*
X147181758Y-101086217D01*
X147385000Y-100595548D01*
X147385000Y-100064452D01*
X147181758Y-99573783D01*
X146806217Y-99198242D01*
X146472472Y-99060000D01*
X146806217Y-98921758D01*
X147181758Y-98546217D01*
X147385000Y-98055548D01*
X147385000Y-97524452D01*
X147181758Y-97033783D01*
X146806217Y-96658242D01*
X146472472Y-96520000D01*
X146806217Y-96381758D01*
X147181758Y-96006217D01*
X147385000Y-95515548D01*
X147385000Y-94984452D01*
X147181758Y-94493783D01*
X146806217Y-94118242D01*
X146315548Y-93915000D01*
X145784452Y-93915000D01*
X145293783Y-94118242D01*
X144918242Y-94493783D01*
X144715000Y-94984452D01*
X139738334Y-94984452D01*
X139687542Y-94729109D01*
X139392481Y-94287519D01*
X138950891Y-93992458D01*
X138561485Y-93915000D01*
X138298515Y-93915000D01*
X137909109Y-93992458D01*
X137467519Y-94287519D01*
X137172458Y-94729109D01*
X137068846Y-95250000D01*
X133543113Y-95250000D01*
X133431740Y-94690091D01*
X133114577Y-94215423D01*
X132762242Y-93980000D01*
X133114577Y-93744577D01*
X133431740Y-93269909D01*
X133543113Y-92710000D01*
X133431740Y-92150091D01*
X133114577Y-91675423D01*
X132762242Y-91440000D01*
X133114577Y-91204577D01*
X133431740Y-90729909D01*
X133543113Y-90170000D01*
X133431740Y-89610091D01*
X133114577Y-89135423D01*
X132762242Y-88900000D01*
X133114577Y-88664577D01*
X133431740Y-88189909D01*
X133543113Y-87630000D01*
X133431740Y-87070091D01*
X133114577Y-86595423D01*
X132762242Y-86360000D01*
X133114577Y-86124577D01*
X133431740Y-85649909D01*
X133543113Y-85090000D01*
X133431740Y-84530091D01*
X133114577Y-84055423D01*
X132730892Y-83799053D01*
X132935134Y-83702389D01*
X133072749Y-83550474D01*
X138345000Y-83550474D01*
X138345000Y-84089526D01*
X138551286Y-84587546D01*
X138932454Y-84968714D01*
X139430474Y-85175000D01*
X139969526Y-85175000D01*
X140467546Y-84968714D01*
X140848714Y-84587546D01*
X141055000Y-84089526D01*
X141055000Y-83550474D01*
X140848714Y-83052454D01*
X140467546Y-82671286D01*
X139969526Y-82465000D01*
X139430474Y-82465000D01*
X138932454Y-82671286D01*
X138551286Y-83052454D01*
X138345000Y-83550474D01*
X133072749Y-83550474D01*
X133311041Y-83287423D01*
X133471904Y-82899039D01*
X133349915Y-82677000D01*
X132207000Y-82677000D01*
X132207000Y-82697000D01*
X131953000Y-82697000D01*
X131953000Y-82677000D01*
X130810085Y-82677000D01*
X130688096Y-82899039D01*
X130848959Y-83287423D01*
X131224866Y-83702389D01*
X131429108Y-83799053D01*
X131045423Y-84055423D01*
X130728260Y-84530091D01*
X130616887Y-85090000D01*
X130728260Y-85649909D01*
X131045423Y-86124577D01*
X131397758Y-86360000D01*
X131045423Y-86595423D01*
X130864642Y-86865981D01*
X130809999Y-86855112D01*
X130735152Y-86870000D01*
X130735148Y-86870000D01*
X130513463Y-86914096D01*
X130262071Y-87082071D01*
X130219671Y-87145527D01*
X129055528Y-88309671D01*
X128992072Y-88352071D01*
X128949672Y-88415527D01*
X128949671Y-88415528D01*
X128824097Y-88603463D01*
X128765112Y-88900000D01*
X117522242Y-88900000D01*
X117490892Y-88879053D01*
X117695134Y-88782389D01*
X118071041Y-88367423D01*
X118231904Y-87979039D01*
X118109915Y-87757000D01*
X116967000Y-87757000D01*
X116967000Y-87777000D01*
X116713000Y-87777000D01*
X116713000Y-87757000D01*
X115570085Y-87757000D01*
X115448096Y-87979039D01*
X115608959Y-88367423D01*
X115984866Y-88782389D01*
X116189108Y-88879053D01*
X115805423Y-89135423D01*
X115488260Y-89610091D01*
X115376887Y-90170000D01*
X115488260Y-90729909D01*
X115805423Y-91204577D01*
X116157758Y-91440000D01*
X115805423Y-91675423D01*
X115624642Y-91945981D01*
X115569999Y-91935112D01*
X115495152Y-91950000D01*
X115495148Y-91950000D01*
X115273463Y-91994096D01*
X115022071Y-92162071D01*
X114979671Y-92225527D01*
X113815530Y-93389669D01*
X113752071Y-93432071D01*
X113584096Y-93683464D01*
X113540000Y-93905149D01*
X113540000Y-93905153D01*
X113525112Y-93980000D01*
X113540000Y-94054847D01*
X113540001Y-122486288D01*
X113422569Y-122603720D01*
X113265000Y-122984126D01*
X91769534Y-122984126D01*
X92055000Y-122294950D01*
X92055000Y-121545050D01*
X91768026Y-120852233D01*
X91237767Y-120321974D01*
X90544950Y-120035000D01*
X89795050Y-120035000D01*
X89102233Y-120321974D01*
X88571974Y-120852233D01*
X88285000Y-121545050D01*
X85852000Y-121545050D01*
X85852000Y-119744778D01*
X97425000Y-119744778D01*
X97425000Y-120395222D01*
X97673914Y-120996153D01*
X98133847Y-121456086D01*
X98734778Y-121705000D01*
X99385222Y-121705000D01*
X99986153Y-121456086D01*
X100446086Y-120996153D01*
X100695000Y-120395222D01*
X100695000Y-119744778D01*
X103925000Y-119744778D01*
X103925000Y-120395222D01*
X104173914Y-120996153D01*
X104633847Y-121456086D01*
X105234778Y-121705000D01*
X105885222Y-121705000D01*
X106486153Y-121456086D01*
X106946086Y-120996153D01*
X107195000Y-120395222D01*
X107195000Y-119744778D01*
X106946086Y-119143847D01*
X106486153Y-118683914D01*
X105885222Y-118435000D01*
X105234778Y-118435000D01*
X104633847Y-118683914D01*
X104173914Y-119143847D01*
X103925000Y-119744778D01*
X100695000Y-119744778D01*
X100446086Y-119143847D01*
X99986153Y-118683914D01*
X99385222Y-118435000D01*
X98734778Y-118435000D01*
X98133847Y-118683914D01*
X97673914Y-119143847D01*
X97425000Y-119744778D01*
X85852000Y-119744778D01*
X85852000Y-116722532D01*
X98087073Y-116722532D01*
X98185736Y-116989387D01*
X98795461Y-117215908D01*
X99445460Y-117191856D01*
X99934264Y-116989387D01*
X100032927Y-116722532D01*
X104587073Y-116722532D01*
X104685736Y-116989387D01*
X105295461Y-117215908D01*
X105945460Y-117191856D01*
X106434264Y-116989387D01*
X106532927Y-116722532D01*
X105560000Y-115749605D01*
X104587073Y-116722532D01*
X100032927Y-116722532D01*
X99060000Y-115749605D01*
X98087073Y-116722532D01*
X85852000Y-116722532D01*
X85852000Y-115305461D01*
X97414092Y-115305461D01*
X97438144Y-115955460D01*
X97640613Y-116444264D01*
X97907468Y-116542927D01*
X98880395Y-115570000D01*
X99239605Y-115570000D01*
X100212532Y-116542927D01*
X100479387Y-116444264D01*
X100705908Y-115834539D01*
X100686331Y-115305461D01*
X103914092Y-115305461D01*
X103938144Y-115955460D01*
X104140613Y-116444264D01*
X104407468Y-116542927D01*
X105380395Y-115570000D01*
X105739605Y-115570000D01*
X106712532Y-116542927D01*
X106979387Y-116444264D01*
X107205908Y-115834539D01*
X107181856Y-115184540D01*
X106979387Y-114695736D01*
X106712532Y-114597073D01*
X105739605Y-115570000D01*
X105380395Y-115570000D01*
X104407468Y-114597073D01*
X104140613Y-114695736D01*
X103914092Y-115305461D01*
X100686331Y-115305461D01*
X100681856Y-115184540D01*
X100479387Y-114695736D01*
X100212532Y-114597073D01*
X99239605Y-115570000D01*
X98880395Y-115570000D01*
X97907468Y-114597073D01*
X97640613Y-114695736D01*
X97414092Y-115305461D01*
X85852000Y-115305461D01*
X85852000Y-110490000D01*
X87385908Y-110490000D01*
X87501161Y-111069418D01*
X87829375Y-111560625D01*
X87847619Y-111572816D01*
X87802235Y-111581843D01*
X87592191Y-111722191D01*
X87451843Y-111932235D01*
X87402560Y-112180000D01*
X87402560Y-113880000D01*
X87451843Y-114127765D01*
X87592191Y-114337809D01*
X87802235Y-114478157D01*
X88050000Y-114527440D01*
X89750000Y-114527440D01*
X89997765Y-114478157D01*
X90088591Y-114417468D01*
X98087073Y-114417468D01*
X99060000Y-115390395D01*
X100032927Y-114417468D01*
X104587073Y-114417468D01*
X105560000Y-115390395D01*
X106532927Y-114417468D01*
X106434264Y-114150613D01*
X105824539Y-113924092D01*
X105174540Y-113948144D01*
X104685736Y-114150613D01*
X104587073Y-114417468D01*
X100032927Y-114417468D01*
X99934264Y-114150613D01*
X99324539Y-113924092D01*
X98674540Y-113948144D01*
X98185736Y-114150613D01*
X98087073Y-114417468D01*
X90088591Y-114417468D01*
X90207809Y-114337809D01*
X90348157Y-114127765D01*
X90397440Y-113880000D01*
X90397440Y-112180000D01*
X90348157Y-111932235D01*
X90207809Y-111722191D01*
X89997765Y-111581843D01*
X89952381Y-111572816D01*
X89970625Y-111560625D01*
X90298839Y-111069418D01*
X90414092Y-110490000D01*
X90298839Y-109910582D01*
X90151451Y-109690000D01*
X95072560Y-109690000D01*
X95072560Y-111290000D01*
X95121843Y-111537765D01*
X95262191Y-111747809D01*
X95472235Y-111888157D01*
X95720000Y-111937440D01*
X97320000Y-111937440D01*
X97567765Y-111888157D01*
X97777809Y-111747809D01*
X97918157Y-111537765D01*
X97967440Y-111290000D01*
X97967440Y-110224452D01*
X102170000Y-110224452D01*
X102170000Y-110755548D01*
X102373242Y-111246217D01*
X102748783Y-111621758D01*
X103239452Y-111825000D01*
X103770548Y-111825000D01*
X104261217Y-111621758D01*
X104636758Y-111246217D01*
X104840000Y-110755548D01*
X104840000Y-110224452D01*
X104636758Y-109733783D01*
X104592975Y-109690000D01*
X107772560Y-109690000D01*
X107772560Y-111290000D01*
X107821843Y-111537765D01*
X107962191Y-111747809D01*
X108172235Y-111888157D01*
X108420000Y-111937440D01*
X110020000Y-111937440D01*
X110267765Y-111888157D01*
X110477809Y-111747809D01*
X110618157Y-111537765D01*
X110667440Y-111290000D01*
X110667440Y-109690000D01*
X110618157Y-109442235D01*
X110478005Y-109232484D01*
X110666965Y-108706777D01*
X110639778Y-108136546D01*
X110473864Y-107735995D01*
X110227745Y-107661861D01*
X109399605Y-108490000D01*
X109413748Y-108504142D01*
X109234143Y-108683748D01*
X109220000Y-108669605D01*
X109205858Y-108683748D01*
X109026252Y-108504142D01*
X109040395Y-108490000D01*
X108212255Y-107661861D01*
X107966136Y-107735995D01*
X107773035Y-108273223D01*
X107800222Y-108843454D01*
X107961605Y-109233067D01*
X107821843Y-109442235D01*
X107772560Y-109690000D01*
X104592975Y-109690000D01*
X104261217Y-109358242D01*
X103991983Y-109246721D01*
X104198831Y-109161042D01*
X104260669Y-108925275D01*
X103505000Y-108169605D01*
X102749331Y-108925275D01*
X102811169Y-109161042D01*
X103034788Y-109239775D01*
X102748783Y-109358242D01*
X102373242Y-109733783D01*
X102170000Y-110224452D01*
X97967440Y-110224452D01*
X97967440Y-109690000D01*
X97918157Y-109442235D01*
X97778005Y-109232484D01*
X97966965Y-108706777D01*
X97939778Y-108136546D01*
X97799184Y-107797122D01*
X102157581Y-107797122D01*
X102186336Y-108327440D01*
X102333958Y-108683831D01*
X102569725Y-108745669D01*
X103325395Y-107990000D01*
X103684605Y-107990000D01*
X104440275Y-108745669D01*
X104676042Y-108683831D01*
X104852419Y-108182878D01*
X104823664Y-107652560D01*
X104753122Y-107482255D01*
X108391861Y-107482255D01*
X109220000Y-108310395D01*
X110048139Y-107482255D01*
X109974005Y-107236136D01*
X109436777Y-107043035D01*
X108866546Y-107070222D01*
X108465995Y-107236136D01*
X108391861Y-107482255D01*
X104753122Y-107482255D01*
X104676042Y-107296169D01*
X104440275Y-107234331D01*
X103684605Y-107990000D01*
X103325395Y-107990000D01*
X102569725Y-107234331D01*
X102333958Y-107296169D01*
X102157581Y-107797122D01*
X97799184Y-107797122D01*
X97773864Y-107735995D01*
X97527745Y-107661861D01*
X96699605Y-108490000D01*
X96713748Y-108504142D01*
X96534143Y-108683748D01*
X96520000Y-108669605D01*
X96505858Y-108683748D01*
X96326252Y-108504142D01*
X96340395Y-108490000D01*
X95512255Y-107661861D01*
X95266136Y-107735995D01*
X95073035Y-108273223D01*
X95100222Y-108843454D01*
X95261605Y-109233067D01*
X95121843Y-109442235D01*
X95072560Y-109690000D01*
X90151451Y-109690000D01*
X89970625Y-109419375D01*
X89651522Y-109206157D01*
X89781358Y-109145183D01*
X90171645Y-108716924D01*
X90341476Y-108306890D01*
X90220155Y-108077000D01*
X89027000Y-108077000D01*
X89027000Y-108097000D01*
X88773000Y-108097000D01*
X88773000Y-108077000D01*
X87579845Y-108077000D01*
X87458524Y-108306890D01*
X87628355Y-108716924D01*
X88018642Y-109145183D01*
X88148478Y-109206157D01*
X87829375Y-109419375D01*
X87501161Y-109910582D01*
X87385908Y-110490000D01*
X85852000Y-110490000D01*
X85852000Y-107593110D01*
X87458524Y-107593110D01*
X87579845Y-107823000D01*
X88773000Y-107823000D01*
X88773000Y-106629181D01*
X89027000Y-106629181D01*
X89027000Y-107823000D01*
X90220155Y-107823000D01*
X90341476Y-107593110D01*
X90295562Y-107482255D01*
X95691861Y-107482255D01*
X96520000Y-108310395D01*
X97348139Y-107482255D01*
X97274005Y-107236136D01*
X96769300Y-107054725D01*
X102749331Y-107054725D01*
X103505000Y-107810395D01*
X104260669Y-107054725D01*
X104198831Y-106818958D01*
X103697878Y-106642581D01*
X103167560Y-106671336D01*
X102811169Y-106818958D01*
X102749331Y-107054725D01*
X96769300Y-107054725D01*
X96736777Y-107043035D01*
X96166546Y-107070222D01*
X95765995Y-107236136D01*
X95691861Y-107482255D01*
X90295562Y-107482255D01*
X90171645Y-107183076D01*
X89781358Y-106754817D01*
X89256892Y-106508514D01*
X89027000Y-106629181D01*
X88773000Y-106629181D01*
X88543108Y-106508514D01*
X88018642Y-106754817D01*
X87628355Y-107183076D01*
X87458524Y-107593110D01*
X85852000Y-107593110D01*
X85852000Y-102567745D01*
X89341861Y-102567745D01*
X89415995Y-102813864D01*
X89953223Y-103006965D01*
X90523454Y-102979778D01*
X90924005Y-102813864D01*
X90998139Y-102567745D01*
X90170000Y-101739605D01*
X89341861Y-102567745D01*
X85852000Y-102567745D01*
X85852000Y-101343223D01*
X88723035Y-101343223D01*
X88750222Y-101913454D01*
X88916136Y-102314005D01*
X89162255Y-102388139D01*
X89990395Y-101560000D01*
X90349605Y-101560000D01*
X91177745Y-102388139D01*
X91423864Y-102314005D01*
X91616965Y-101776777D01*
X91589778Y-101206546D01*
X91423864Y-100805995D01*
X91177745Y-100731861D01*
X90349605Y-101560000D01*
X89990395Y-101560000D01*
X89162255Y-100731861D01*
X88916136Y-100805995D01*
X88723035Y-101343223D01*
X85852000Y-101343223D01*
X85852000Y-98260000D01*
X88722560Y-98260000D01*
X88722560Y-99860000D01*
X88771843Y-100107765D01*
X88912191Y-100317809D01*
X89122235Y-100458157D01*
X89356187Y-100504693D01*
X89341861Y-100552255D01*
X90170000Y-101380395D01*
X90998139Y-100552255D01*
X90983813Y-100504693D01*
X91217765Y-100458157D01*
X91427809Y-100317809D01*
X91568157Y-100107765D01*
X91617440Y-99860000D01*
X91617440Y-99330000D01*
X98095060Y-99330000D01*
X98095060Y-101330000D01*
X98144343Y-101577765D01*
X98284691Y-101787809D01*
X98494735Y-101928157D01*
X98742500Y-101977440D01*
X100647500Y-101977440D01*
X100895265Y-101928157D01*
X101105309Y-101787809D01*
X101242255Y-101582857D01*
X101368076Y-101705973D01*
X101862020Y-101920563D01*
X102108000Y-101800594D01*
X102108000Y-100457000D01*
X102088000Y-100457000D01*
X102088000Y-100203000D01*
X102108000Y-100203000D01*
X102108000Y-98859406D01*
X102362000Y-98859406D01*
X102362000Y-100203000D01*
X102382000Y-100203000D01*
X102382000Y-100457000D01*
X102362000Y-100457000D01*
X102362000Y-101800594D01*
X102607980Y-101920563D01*
X103101924Y-101705973D01*
X103495841Y-101320526D01*
X103630477Y-101522023D01*
X104155590Y-101872891D01*
X104775000Y-101996100D01*
X105394411Y-101872891D01*
X105919523Y-101522023D01*
X106270391Y-100996910D01*
X106362500Y-100533849D01*
X106362500Y-100126150D01*
X106270391Y-99663089D01*
X105919523Y-99137977D01*
X105394410Y-98787109D01*
X104775000Y-98663900D01*
X104155589Y-98787109D01*
X103630477Y-99137977D01*
X103495841Y-99339474D01*
X103101924Y-98954027D01*
X102607980Y-98739437D01*
X102362000Y-98859406D01*
X102108000Y-98859406D01*
X101862020Y-98739437D01*
X101368076Y-98954027D01*
X101242255Y-99077143D01*
X101105309Y-98872191D01*
X100895265Y-98731843D01*
X100647500Y-98682560D01*
X98742500Y-98682560D01*
X98494735Y-98731843D01*
X98284691Y-98872191D01*
X98144343Y-99082235D01*
X98095060Y-99330000D01*
X91617440Y-99330000D01*
X91617440Y-98260000D01*
X91568157Y-98012235D01*
X91427809Y-97802191D01*
X91217765Y-97661843D01*
X90970000Y-97612560D01*
X89370000Y-97612560D01*
X89122235Y-97661843D01*
X88912191Y-97802191D01*
X88771843Y-98012235D01*
X88722560Y-98260000D01*
X85852000Y-98260000D01*
X85852000Y-92615750D01*
X93675000Y-92615750D01*
X93675000Y-94206310D01*
X93771673Y-94439699D01*
X93950302Y-94618327D01*
X94183691Y-94715000D01*
X95774250Y-94715000D01*
X95933000Y-94556250D01*
X95933000Y-92457000D01*
X96187000Y-92457000D01*
X96187000Y-94556250D01*
X96345750Y-94715000D01*
X97936309Y-94715000D01*
X98169698Y-94618327D01*
X98348327Y-94439699D01*
X98445000Y-94206310D01*
X98445000Y-92615750D01*
X98286250Y-92457000D01*
X96187000Y-92457000D01*
X95933000Y-92457000D01*
X93833750Y-92457000D01*
X93675000Y-92615750D01*
X85852000Y-92615750D01*
X85852000Y-87915750D01*
X90925000Y-87915750D01*
X90925000Y-89506310D01*
X91021673Y-89739699D01*
X91200302Y-89918327D01*
X91433691Y-90015000D01*
X92774250Y-90015000D01*
X92933000Y-89856250D01*
X92933000Y-87757000D01*
X93187000Y-87757000D01*
X93187000Y-89856250D01*
X93345750Y-90015000D01*
X94014696Y-90015000D01*
X93950302Y-90041673D01*
X93771673Y-90220301D01*
X93675000Y-90453690D01*
X93675000Y-92044250D01*
X93833750Y-92203000D01*
X95933000Y-92203000D01*
X95933000Y-90103750D01*
X96187000Y-90103750D01*
X96187000Y-92203000D01*
X98286250Y-92203000D01*
X98445000Y-92044250D01*
X98445000Y-90453690D01*
X98348327Y-90220301D01*
X98169698Y-90041673D01*
X98135337Y-90027440D01*
X100810000Y-90027440D01*
X101057765Y-89978157D01*
X101267809Y-89837809D01*
X101408157Y-89627765D01*
X101457440Y-89380000D01*
X101457440Y-88900000D01*
X107451010Y-88900000D01*
X107585666Y-89576963D01*
X107969135Y-90150865D01*
X108543037Y-90534334D01*
X109049120Y-90635000D01*
X109390880Y-90635000D01*
X109896963Y-90534334D01*
X110470865Y-90150865D01*
X110854334Y-89576963D01*
X110988990Y-88900000D01*
X110854334Y-88223037D01*
X110470865Y-87649135D01*
X109896963Y-87265666D01*
X109390880Y-87165000D01*
X109049120Y-87165000D01*
X108543037Y-87265666D01*
X107969135Y-87649135D01*
X107585666Y-88223037D01*
X107451010Y-88900000D01*
X101457440Y-88900000D01*
X101457440Y-85880000D01*
X101408157Y-85632235D01*
X101267809Y-85422191D01*
X101057765Y-85281843D01*
X100810000Y-85232560D01*
X97310000Y-85232560D01*
X97062235Y-85281843D01*
X96852191Y-85422191D01*
X96711843Y-85632235D01*
X96662560Y-85880000D01*
X96662560Y-89380000D01*
X96711843Y-89627765D01*
X96852191Y-89837809D01*
X97012612Y-89945000D01*
X96345750Y-89945000D01*
X96187000Y-90103750D01*
X95933000Y-90103750D01*
X95774250Y-89945000D01*
X94855304Y-89945000D01*
X94919698Y-89918327D01*
X95098327Y-89739699D01*
X95195000Y-89506310D01*
X95195000Y-87915750D01*
X95036250Y-87757000D01*
X93187000Y-87757000D01*
X92933000Y-87757000D01*
X91083750Y-87757000D01*
X90925000Y-87915750D01*
X85852000Y-87915750D01*
X85852000Y-85753690D01*
X90925000Y-85753690D01*
X90925000Y-87344250D01*
X91083750Y-87503000D01*
X92933000Y-87503000D01*
X92933000Y-85403750D01*
X93187000Y-85403750D01*
X93187000Y-87503000D01*
X95036250Y-87503000D01*
X95195000Y-87344250D01*
X95195000Y-85753690D01*
X95098327Y-85520301D01*
X94919698Y-85341673D01*
X94686309Y-85245000D01*
X93345750Y-85245000D01*
X93187000Y-85403750D01*
X92933000Y-85403750D01*
X92774250Y-85245000D01*
X91433691Y-85245000D01*
X91200302Y-85341673D01*
X91021673Y-85520301D01*
X90925000Y-85753690D01*
X85852000Y-85753690D01*
X85852000Y-82550000D01*
X115376887Y-82550000D01*
X115488260Y-83109909D01*
X115805423Y-83584577D01*
X116157758Y-83820000D01*
X115805423Y-84055423D01*
X115488260Y-84530091D01*
X115376887Y-85090000D01*
X115488260Y-85649909D01*
X115805423Y-86124577D01*
X116189108Y-86380947D01*
X115984866Y-86477611D01*
X115608959Y-86892577D01*
X115448096Y-87280961D01*
X115570085Y-87503000D01*
X116713000Y-87503000D01*
X116713000Y-87483000D01*
X116967000Y-87483000D01*
X116967000Y-87503000D01*
X118109915Y-87503000D01*
X118231904Y-87280961D01*
X118071041Y-86892577D01*
X117695134Y-86477611D01*
X117490892Y-86380947D01*
X117874577Y-86124577D01*
X118191740Y-85649909D01*
X118303113Y-85090000D01*
X118191740Y-84530091D01*
X117874577Y-84055423D01*
X117522242Y-83820000D01*
X117874577Y-83584577D01*
X118191740Y-83109909D01*
X118303113Y-82550000D01*
X118191740Y-81990091D01*
X117874577Y-81515423D01*
X117753894Y-81434785D01*
X117887765Y-81408157D01*
X118097809Y-81267809D01*
X118238157Y-81057765D01*
X118287440Y-80810000D01*
X118287440Y-80010000D01*
X130616887Y-80010000D01*
X130728260Y-80569909D01*
X131045423Y-81044577D01*
X131429108Y-81300947D01*
X131224866Y-81397611D01*
X130848959Y-81812577D01*
X130688096Y-82200961D01*
X130810085Y-82423000D01*
X131953000Y-82423000D01*
X131953000Y-82403000D01*
X132207000Y-82403000D01*
X132207000Y-82423000D01*
X133349915Y-82423000D01*
X133456074Y-82229774D01*
X136389831Y-82229774D01*
X136454131Y-82467611D01*
X136962342Y-82647333D01*
X137500644Y-82618892D01*
X137865869Y-82467611D01*
X137930169Y-82229774D01*
X137160000Y-81459605D01*
X136389831Y-82229774D01*
X133456074Y-82229774D01*
X133471904Y-82200961D01*
X133311041Y-81812577D01*
X132935134Y-81397611D01*
X132730892Y-81300947D01*
X133058057Y-81082342D01*
X135792667Y-81082342D01*
X135821108Y-81620644D01*
X135972389Y-81985869D01*
X136210226Y-82050169D01*
X136980395Y-81280000D01*
X137339605Y-81280000D01*
X138109774Y-82050169D01*
X138347611Y-81985869D01*
X138527333Y-81477658D01*
X138502650Y-81010474D01*
X140885000Y-81010474D01*
X140885000Y-81549526D01*
X141091286Y-82047546D01*
X141472454Y-82428714D01*
X141970474Y-82635000D01*
X142509526Y-82635000D01*
X143007546Y-82428714D01*
X143388714Y-82047546D01*
X143595000Y-81549526D01*
X143595000Y-81010474D01*
X143388714Y-80512454D01*
X143007546Y-80131286D01*
X142509526Y-79925000D01*
X141970474Y-79925000D01*
X141472454Y-80131286D01*
X141091286Y-80512454D01*
X140885000Y-81010474D01*
X138502650Y-81010474D01*
X138498892Y-80939356D01*
X138347611Y-80574131D01*
X138109774Y-80509831D01*
X137339605Y-81280000D01*
X136980395Y-81280000D01*
X136210226Y-80509831D01*
X135972389Y-80574131D01*
X135792667Y-81082342D01*
X133058057Y-81082342D01*
X133114577Y-81044577D01*
X133431740Y-80569909D01*
X133479415Y-80330226D01*
X136389831Y-80330226D01*
X137160000Y-81100395D01*
X137930169Y-80330226D01*
X137865869Y-80092389D01*
X137357658Y-79912667D01*
X136819356Y-79941108D01*
X136454131Y-80092389D01*
X136389831Y-80330226D01*
X133479415Y-80330226D01*
X133543113Y-80010000D01*
X133431740Y-79450091D01*
X133114577Y-78975423D01*
X132639909Y-78658260D01*
X132221333Y-78575000D01*
X131938667Y-78575000D01*
X131520091Y-78658260D01*
X131045423Y-78975423D01*
X130728260Y-79450091D01*
X130616887Y-80010000D01*
X118287440Y-80010000D01*
X118287440Y-79210000D01*
X118238157Y-78962235D01*
X118097809Y-78752191D01*
X117887765Y-78611843D01*
X117640000Y-78562560D01*
X116040000Y-78562560D01*
X115792235Y-78611843D01*
X115582191Y-78752191D01*
X115441843Y-78962235D01*
X115392560Y-79210000D01*
X115392560Y-80810000D01*
X115441843Y-81057765D01*
X115582191Y-81267809D01*
X115792235Y-81408157D01*
X115926106Y-81434785D01*
X115805423Y-81515423D01*
X115488260Y-81990091D01*
X115376887Y-82550000D01*
X85852000Y-82550000D01*
X85852000Y-75825050D01*
X88285000Y-75825050D01*
X88285000Y-76574950D01*
X88571974Y-77267767D01*
X89102233Y-77798026D01*
X89795050Y-78085000D01*
X90544950Y-78085000D01*
X91237767Y-77798026D01*
X91395793Y-77640000D01*
X107472560Y-77640000D01*
X107472560Y-79840000D01*
X107521843Y-80087765D01*
X107662191Y-80297809D01*
X107872235Y-80438157D01*
X108120000Y-80487440D01*
X110320000Y-80487440D01*
X110567765Y-80438157D01*
X110777809Y-80297809D01*
X110918157Y-80087765D01*
X110967440Y-79840000D01*
X110967440Y-77770275D01*
X136444331Y-77770275D01*
X136506169Y-78006042D01*
X137007122Y-78182419D01*
X137537440Y-78153664D01*
X137893831Y-78006042D01*
X137955669Y-77770275D01*
X137200000Y-77014605D01*
X136444331Y-77770275D01*
X110967440Y-77770275D01*
X110967440Y-77640000D01*
X110918157Y-77392235D01*
X110777809Y-77182191D01*
X110567765Y-77041843D01*
X110320000Y-76992560D01*
X108120000Y-76992560D01*
X107872235Y-77041843D01*
X107662191Y-77182191D01*
X107521843Y-77392235D01*
X107472560Y-77640000D01*
X91395793Y-77640000D01*
X91768026Y-77267767D01*
X92027176Y-76642122D01*
X135852581Y-76642122D01*
X135881336Y-77172440D01*
X136028958Y-77528831D01*
X136264725Y-77590669D01*
X137020395Y-76835000D01*
X137379605Y-76835000D01*
X138135275Y-77590669D01*
X138371042Y-77528831D01*
X138449775Y-77305212D01*
X138568242Y-77591217D01*
X138943783Y-77966758D01*
X139434452Y-78170000D01*
X139965548Y-78170000D01*
X140456217Y-77966758D01*
X140831758Y-77591217D01*
X141035000Y-77100548D01*
X141035000Y-76569452D01*
X140831758Y-76078783D01*
X140578025Y-75825050D01*
X160675000Y-75825050D01*
X160675000Y-76574950D01*
X160961974Y-77267767D01*
X161492233Y-77798026D01*
X162185050Y-78085000D01*
X162934950Y-78085000D01*
X163627767Y-77798026D01*
X164158026Y-77267767D01*
X164445000Y-76574950D01*
X164445000Y-75825050D01*
X164158026Y-75132233D01*
X163627767Y-74601974D01*
X162934950Y-74315000D01*
X162185050Y-74315000D01*
X161492233Y-74601974D01*
X160961974Y-75132233D01*
X160675000Y-75825050D01*
X140578025Y-75825050D01*
X140456217Y-75703242D01*
X139965548Y-75500000D01*
X139434452Y-75500000D01*
X138943783Y-75703242D01*
X138568242Y-76078783D01*
X138456721Y-76348017D01*
X138371042Y-76141169D01*
X138135275Y-76079331D01*
X137379605Y-76835000D01*
X137020395Y-76835000D01*
X136264725Y-76079331D01*
X136028958Y-76141169D01*
X135852581Y-76642122D01*
X92027176Y-76642122D01*
X92055000Y-76574950D01*
X92055000Y-75899725D01*
X136444331Y-75899725D01*
X137200000Y-76655395D01*
X137955669Y-75899725D01*
X137893831Y-75663958D01*
X137392878Y-75487581D01*
X136862560Y-75516336D01*
X136506169Y-75663958D01*
X136444331Y-75899725D01*
X92055000Y-75899725D01*
X92055000Y-75825050D01*
X91768026Y-75132233D01*
X91237767Y-74601974D01*
X90544950Y-74315000D01*
X89795050Y-74315000D01*
X89102233Y-74601974D01*
X88571974Y-75132233D01*
X88285000Y-75825050D01*
X85852000Y-75825050D01*
X85852000Y-73152000D01*
X165608000Y-73152000D01*
X165608000Y-124968000D01*
G04 #@! TD*
M02*
