G04 #@! TF.GenerationSoftware,KiCad,Pcbnew,(5.0.1-3-g963ef8bb5)*
G04 #@! TF.CreationDate,2018-12-20T00:01:49+01:00*
G04 #@! TF.ProjectId,fablab_Arduino,6661626C61625F41726475696E6F2E6B,rev?*
G04 #@! TF.SameCoordinates,Original*
G04 #@! TF.FileFunction,Soldermask,Top*
G04 #@! TF.FilePolarity,Negative*
%FSLAX46Y46*%
G04 Gerber Fmt 4.6, Leading zero omitted, Abs format (unit mm)*
G04 Created by KiCad (PCBNEW (5.0.1-3-g963ef8bb5)) date 2018 December 20, Thursday 00:01:49*
%MOMM*%
%LPD*%
G01*
G04 APERTURE LIST*
%ADD10C,0.100000*%
G04 APERTURE END LIST*
D10*
G36*
X146178600Y-122449867D02*
X146269059Y-122467860D01*
X146405732Y-122524472D01*
X146462715Y-122562547D01*
X146528738Y-122606662D01*
X146633338Y-122711262D01*
X146633340Y-122711265D01*
X146715528Y-122834268D01*
X146772140Y-122970941D01*
X146801000Y-123116033D01*
X146801000Y-123263967D01*
X146772140Y-123409059D01*
X146715528Y-123545732D01*
X146634446Y-123667079D01*
X146633338Y-123668738D01*
X146528738Y-123773338D01*
X146528735Y-123773340D01*
X146405732Y-123855528D01*
X146269059Y-123912140D01*
X146182004Y-123929456D01*
X146123969Y-123941000D01*
X145976031Y-123941000D01*
X145917996Y-123929456D01*
X145830941Y-123912140D01*
X145694268Y-123855528D01*
X145571265Y-123773340D01*
X145571262Y-123773338D01*
X145466662Y-123668738D01*
X145465554Y-123667079D01*
X145384472Y-123545732D01*
X145327860Y-123409059D01*
X145299000Y-123263967D01*
X145299000Y-123116033D01*
X145327860Y-122970941D01*
X145384472Y-122834268D01*
X145466660Y-122711265D01*
X145466662Y-122711262D01*
X145571262Y-122606662D01*
X145637285Y-122562547D01*
X145694268Y-122524472D01*
X145830941Y-122467860D01*
X145921400Y-122449867D01*
X145976031Y-122439000D01*
X146123969Y-122439000D01*
X146178600Y-122449867D01*
X146178600Y-122449867D01*
G37*
G36*
X138503665Y-122442622D02*
X138577222Y-122449867D01*
X138718786Y-122492810D01*
X138849252Y-122562546D01*
X138963606Y-122656394D01*
X139057454Y-122770748D01*
X139127190Y-122901214D01*
X139170133Y-123042778D01*
X139184633Y-123190000D01*
X139170133Y-123337222D01*
X139127190Y-123478786D01*
X139057454Y-123609252D01*
X138963606Y-123723606D01*
X138849252Y-123817454D01*
X138718786Y-123887190D01*
X138577222Y-123930133D01*
X138503665Y-123937378D01*
X138466888Y-123941000D01*
X138393112Y-123941000D01*
X138356335Y-123937378D01*
X138282778Y-123930133D01*
X138141214Y-123887190D01*
X138010748Y-123817454D01*
X137896394Y-123723606D01*
X137802546Y-123609252D01*
X137732810Y-123478786D01*
X137689867Y-123337222D01*
X137675367Y-123190000D01*
X137689867Y-123042778D01*
X137732810Y-122901214D01*
X137802546Y-122770748D01*
X137896394Y-122656394D01*
X138010748Y-122562546D01*
X138141214Y-122492810D01*
X138282778Y-122449867D01*
X138356335Y-122442622D01*
X138393112Y-122439000D01*
X138466888Y-122439000D01*
X138503665Y-122442622D01*
X138503665Y-122442622D01*
G37*
G36*
X162939485Y-120668996D02*
X162939487Y-120668997D01*
X162939488Y-120668997D01*
X163176255Y-120767069D01*
X163389342Y-120909449D01*
X163570551Y-121090658D01*
X163712931Y-121303745D01*
X163811004Y-121540515D01*
X163861000Y-121791861D01*
X163861000Y-122048139D01*
X163811004Y-122299485D01*
X163712931Y-122536255D01*
X163570551Y-122749342D01*
X163389342Y-122930551D01*
X163389339Y-122930553D01*
X163176255Y-123072931D01*
X162939488Y-123171003D01*
X162939487Y-123171003D01*
X162939485Y-123171004D01*
X162688139Y-123221000D01*
X162431861Y-123221000D01*
X162180515Y-123171004D01*
X162180513Y-123171003D01*
X162180512Y-123171003D01*
X161943745Y-123072931D01*
X161730661Y-122930553D01*
X161730658Y-122930551D01*
X161549449Y-122749342D01*
X161407069Y-122536255D01*
X161308996Y-122299485D01*
X161259000Y-122048139D01*
X161259000Y-121791861D01*
X161308996Y-121540515D01*
X161407069Y-121303745D01*
X161549449Y-121090658D01*
X161730658Y-120909449D01*
X161943745Y-120767069D01*
X162180512Y-120668997D01*
X162180513Y-120668997D01*
X162180515Y-120668996D01*
X162431861Y-120619000D01*
X162688139Y-120619000D01*
X162939485Y-120668996D01*
X162939485Y-120668996D01*
G37*
G36*
X90549485Y-120668996D02*
X90549487Y-120668997D01*
X90549488Y-120668997D01*
X90786255Y-120767069D01*
X90999342Y-120909449D01*
X91180551Y-121090658D01*
X91322931Y-121303745D01*
X91421004Y-121540515D01*
X91471000Y-121791861D01*
X91471000Y-122048139D01*
X91421004Y-122299485D01*
X91322931Y-122536255D01*
X91180551Y-122749342D01*
X90999342Y-122930551D01*
X90999339Y-122930553D01*
X90786255Y-123072931D01*
X90549488Y-123171003D01*
X90549487Y-123171003D01*
X90549485Y-123171004D01*
X90298139Y-123221000D01*
X90041861Y-123221000D01*
X89790515Y-123171004D01*
X89790513Y-123171003D01*
X89790512Y-123171003D01*
X89553745Y-123072931D01*
X89340661Y-122930553D01*
X89340658Y-122930551D01*
X89159449Y-122749342D01*
X89017069Y-122536255D01*
X88918996Y-122299485D01*
X88869000Y-122048139D01*
X88869000Y-121791861D01*
X88918996Y-121540515D01*
X89017069Y-121303745D01*
X89159449Y-121090658D01*
X89340658Y-120909449D01*
X89553745Y-120767069D01*
X89790512Y-120668997D01*
X89790513Y-120668997D01*
X89790515Y-120668996D01*
X90041861Y-120619000D01*
X90298139Y-120619000D01*
X90549485Y-120668996D01*
X90549485Y-120668996D01*
G37*
G36*
X146123665Y-119902622D02*
X146197222Y-119909867D01*
X146338786Y-119952810D01*
X146469252Y-120022546D01*
X146583606Y-120116394D01*
X146677454Y-120230748D01*
X146747190Y-120361214D01*
X146790133Y-120502778D01*
X146804633Y-120650000D01*
X146790133Y-120797222D01*
X146747190Y-120938786D01*
X146677454Y-121069252D01*
X146583606Y-121183606D01*
X146469252Y-121277454D01*
X146338786Y-121347190D01*
X146197222Y-121390133D01*
X146123665Y-121397378D01*
X146086888Y-121401000D01*
X146013112Y-121401000D01*
X145976335Y-121397378D01*
X145902778Y-121390133D01*
X145761214Y-121347190D01*
X145630748Y-121277454D01*
X145516394Y-121183606D01*
X145422546Y-121069252D01*
X145352810Y-120938786D01*
X145309867Y-120797222D01*
X145295367Y-120650000D01*
X145309867Y-120502778D01*
X145352810Y-120361214D01*
X145422546Y-120230748D01*
X145516394Y-120116394D01*
X145630748Y-120022546D01*
X145761214Y-119952810D01*
X145902778Y-119909867D01*
X145976335Y-119902622D01*
X146013112Y-119899000D01*
X146086888Y-119899000D01*
X146123665Y-119902622D01*
X146123665Y-119902622D01*
G37*
G36*
X138558600Y-119909867D02*
X138649059Y-119927860D01*
X138785732Y-119984472D01*
X138842715Y-120022547D01*
X138908738Y-120066662D01*
X139013338Y-120171262D01*
X139013340Y-120171265D01*
X139095528Y-120294268D01*
X139152140Y-120430941D01*
X139166429Y-120502778D01*
X139181000Y-120576031D01*
X139181000Y-120723969D01*
X139177816Y-120739976D01*
X139152140Y-120869059D01*
X139095528Y-121005732D01*
X139045496Y-121080610D01*
X139013338Y-121128738D01*
X138908738Y-121233338D01*
X138908735Y-121233340D01*
X138785732Y-121315528D01*
X138649059Y-121372140D01*
X138562004Y-121389456D01*
X138503969Y-121401000D01*
X138356031Y-121401000D01*
X138297996Y-121389456D01*
X138210941Y-121372140D01*
X138074268Y-121315528D01*
X137951265Y-121233340D01*
X137951262Y-121233338D01*
X137846662Y-121128738D01*
X137814504Y-121080610D01*
X137764472Y-121005732D01*
X137707860Y-120869059D01*
X137682184Y-120739976D01*
X137679000Y-120723969D01*
X137679000Y-120576031D01*
X137693571Y-120502778D01*
X137707860Y-120430941D01*
X137764472Y-120294268D01*
X137846660Y-120171265D01*
X137846662Y-120171262D01*
X137951262Y-120066662D01*
X138017285Y-120022547D01*
X138074268Y-119984472D01*
X138210941Y-119927860D01*
X138301400Y-119909867D01*
X138356031Y-119899000D01*
X138503969Y-119899000D01*
X138558600Y-119909867D01*
X138558600Y-119909867D01*
G37*
G36*
X157936565Y-119059389D02*
X158127834Y-119138615D01*
X158299976Y-119253637D01*
X158446363Y-119400024D01*
X158561385Y-119572166D01*
X158640611Y-119763435D01*
X158681000Y-119966484D01*
X158681000Y-120173516D01*
X158640611Y-120376565D01*
X158561385Y-120567834D01*
X158446363Y-120739976D01*
X158299976Y-120886363D01*
X158127834Y-121001385D01*
X157936565Y-121080611D01*
X157733516Y-121121000D01*
X157526484Y-121121000D01*
X157323435Y-121080611D01*
X157132166Y-121001385D01*
X156960024Y-120886363D01*
X156813637Y-120739976D01*
X156698615Y-120567834D01*
X156619389Y-120376565D01*
X156579000Y-120173516D01*
X156579000Y-119966484D01*
X156619389Y-119763435D01*
X156698615Y-119572166D01*
X156813637Y-119400024D01*
X156960024Y-119253637D01*
X157132166Y-119138615D01*
X157323435Y-119059389D01*
X157526484Y-119019000D01*
X157733516Y-119019000D01*
X157936565Y-119059389D01*
X157936565Y-119059389D01*
G37*
G36*
X151436565Y-119059389D02*
X151627834Y-119138615D01*
X151799976Y-119253637D01*
X151946363Y-119400024D01*
X152061385Y-119572166D01*
X152140611Y-119763435D01*
X152181000Y-119966484D01*
X152181000Y-120173516D01*
X152140611Y-120376565D01*
X152061385Y-120567834D01*
X151946363Y-120739976D01*
X151799976Y-120886363D01*
X151627834Y-121001385D01*
X151436565Y-121080611D01*
X151233516Y-121121000D01*
X151026484Y-121121000D01*
X150823435Y-121080611D01*
X150632166Y-121001385D01*
X150460024Y-120886363D01*
X150313637Y-120739976D01*
X150198615Y-120567834D01*
X150119389Y-120376565D01*
X150079000Y-120173516D01*
X150079000Y-119966484D01*
X150119389Y-119763435D01*
X150198615Y-119572166D01*
X150313637Y-119400024D01*
X150460024Y-119253637D01*
X150632166Y-119138615D01*
X150823435Y-119059389D01*
X151026484Y-119019000D01*
X151233516Y-119019000D01*
X151436565Y-119059389D01*
X151436565Y-119059389D01*
G37*
G36*
X105866565Y-119059389D02*
X106057834Y-119138615D01*
X106229976Y-119253637D01*
X106376363Y-119400024D01*
X106491385Y-119572166D01*
X106570611Y-119763435D01*
X106611000Y-119966484D01*
X106611000Y-120173516D01*
X106570611Y-120376565D01*
X106491385Y-120567834D01*
X106376363Y-120739976D01*
X106229976Y-120886363D01*
X106057834Y-121001385D01*
X105866565Y-121080611D01*
X105663516Y-121121000D01*
X105456484Y-121121000D01*
X105253435Y-121080611D01*
X105062166Y-121001385D01*
X104890024Y-120886363D01*
X104743637Y-120739976D01*
X104628615Y-120567834D01*
X104549389Y-120376565D01*
X104509000Y-120173516D01*
X104509000Y-119966484D01*
X104549389Y-119763435D01*
X104628615Y-119572166D01*
X104743637Y-119400024D01*
X104890024Y-119253637D01*
X105062166Y-119138615D01*
X105253435Y-119059389D01*
X105456484Y-119019000D01*
X105663516Y-119019000D01*
X105866565Y-119059389D01*
X105866565Y-119059389D01*
G37*
G36*
X99366565Y-119059389D02*
X99557834Y-119138615D01*
X99729976Y-119253637D01*
X99876363Y-119400024D01*
X99991385Y-119572166D01*
X100070611Y-119763435D01*
X100111000Y-119966484D01*
X100111000Y-120173516D01*
X100070611Y-120376565D01*
X99991385Y-120567834D01*
X99876363Y-120739976D01*
X99729976Y-120886363D01*
X99557834Y-121001385D01*
X99366565Y-121080611D01*
X99163516Y-121121000D01*
X98956484Y-121121000D01*
X98753435Y-121080611D01*
X98562166Y-121001385D01*
X98390024Y-120886363D01*
X98243637Y-120739976D01*
X98128615Y-120567834D01*
X98049389Y-120376565D01*
X98009000Y-120173516D01*
X98009000Y-119966484D01*
X98049389Y-119763435D01*
X98128615Y-119572166D01*
X98243637Y-119400024D01*
X98390024Y-119253637D01*
X98562166Y-119138615D01*
X98753435Y-119059389D01*
X98956484Y-119019000D01*
X99163516Y-119019000D01*
X99366565Y-119059389D01*
X99366565Y-119059389D01*
G37*
G36*
X146178600Y-117369867D02*
X146269059Y-117387860D01*
X146405732Y-117444472D01*
X146462715Y-117482547D01*
X146528738Y-117526662D01*
X146633338Y-117631262D01*
X146633340Y-117631265D01*
X146715528Y-117754268D01*
X146772140Y-117890941D01*
X146801000Y-118036033D01*
X146801000Y-118183967D01*
X146772140Y-118329059D01*
X146715528Y-118465732D01*
X146634446Y-118587079D01*
X146633338Y-118588738D01*
X146528738Y-118693338D01*
X146528735Y-118693340D01*
X146405732Y-118775528D01*
X146269059Y-118832140D01*
X146182004Y-118849456D01*
X146123969Y-118861000D01*
X145976031Y-118861000D01*
X145917996Y-118849456D01*
X145830941Y-118832140D01*
X145694268Y-118775528D01*
X145571265Y-118693340D01*
X145571262Y-118693338D01*
X145466662Y-118588738D01*
X145465554Y-118587079D01*
X145384472Y-118465732D01*
X145327860Y-118329059D01*
X145299000Y-118183967D01*
X145299000Y-118036033D01*
X145327860Y-117890941D01*
X145384472Y-117754268D01*
X145466660Y-117631265D01*
X145466662Y-117631262D01*
X145571262Y-117526662D01*
X145637285Y-117482547D01*
X145694268Y-117444472D01*
X145830941Y-117387860D01*
X145921400Y-117369867D01*
X145976031Y-117359000D01*
X146123969Y-117359000D01*
X146178600Y-117369867D01*
X146178600Y-117369867D01*
G37*
G36*
X138503665Y-117362622D02*
X138577222Y-117369867D01*
X138718786Y-117412810D01*
X138849252Y-117482546D01*
X138963606Y-117576394D01*
X139057454Y-117690748D01*
X139127190Y-117821214D01*
X139170133Y-117962778D01*
X139184633Y-118110000D01*
X139170133Y-118257222D01*
X139127190Y-118398786D01*
X139057454Y-118529252D01*
X138963606Y-118643606D01*
X138849252Y-118737454D01*
X138718786Y-118807190D01*
X138577222Y-118850133D01*
X138503665Y-118857378D01*
X138466888Y-118861000D01*
X138393112Y-118861000D01*
X138356335Y-118857378D01*
X138282778Y-118850133D01*
X138141214Y-118807190D01*
X138010748Y-118737454D01*
X137896394Y-118643606D01*
X137802546Y-118529252D01*
X137732810Y-118398786D01*
X137689867Y-118257222D01*
X137675367Y-118110000D01*
X137689867Y-117962778D01*
X137732810Y-117821214D01*
X137802546Y-117690748D01*
X137896394Y-117576394D01*
X138010748Y-117482546D01*
X138141214Y-117412810D01*
X138282778Y-117369867D01*
X138356335Y-117362622D01*
X138393112Y-117359000D01*
X138466888Y-117359000D01*
X138503665Y-117362622D01*
X138503665Y-117362622D01*
G37*
G36*
X105866565Y-114559389D02*
X106057834Y-114638615D01*
X106229976Y-114753637D01*
X106376363Y-114900024D01*
X106491385Y-115072166D01*
X106570611Y-115263435D01*
X106611000Y-115466484D01*
X106611000Y-115673516D01*
X106570611Y-115876565D01*
X106491385Y-116067834D01*
X106376363Y-116239976D01*
X106229976Y-116386363D01*
X106057834Y-116501385D01*
X105866565Y-116580611D01*
X105663516Y-116621000D01*
X105456484Y-116621000D01*
X105253435Y-116580611D01*
X105062166Y-116501385D01*
X104890024Y-116386363D01*
X104743637Y-116239976D01*
X104628615Y-116067834D01*
X104549389Y-115876565D01*
X104509000Y-115673516D01*
X104509000Y-115466484D01*
X104549389Y-115263435D01*
X104628615Y-115072166D01*
X104743637Y-114900024D01*
X104890024Y-114753637D01*
X105062166Y-114638615D01*
X105253435Y-114559389D01*
X105456484Y-114519000D01*
X105663516Y-114519000D01*
X105866565Y-114559389D01*
X105866565Y-114559389D01*
G37*
G36*
X157936565Y-114559389D02*
X158127834Y-114638615D01*
X158299976Y-114753637D01*
X158446363Y-114900024D01*
X158561385Y-115072166D01*
X158640611Y-115263435D01*
X158681000Y-115466484D01*
X158681000Y-115673516D01*
X158640611Y-115876565D01*
X158561385Y-116067834D01*
X158446363Y-116239976D01*
X158299976Y-116386363D01*
X158127834Y-116501385D01*
X157936565Y-116580611D01*
X157733516Y-116621000D01*
X157526484Y-116621000D01*
X157323435Y-116580611D01*
X157132166Y-116501385D01*
X156960024Y-116386363D01*
X156813637Y-116239976D01*
X156698615Y-116067834D01*
X156619389Y-115876565D01*
X156579000Y-115673516D01*
X156579000Y-115466484D01*
X156619389Y-115263435D01*
X156698615Y-115072166D01*
X156813637Y-114900024D01*
X156960024Y-114753637D01*
X157132166Y-114638615D01*
X157323435Y-114559389D01*
X157526484Y-114519000D01*
X157733516Y-114519000D01*
X157936565Y-114559389D01*
X157936565Y-114559389D01*
G37*
G36*
X151436565Y-114559389D02*
X151627834Y-114638615D01*
X151799976Y-114753637D01*
X151946363Y-114900024D01*
X152061385Y-115072166D01*
X152140611Y-115263435D01*
X152181000Y-115466484D01*
X152181000Y-115673516D01*
X152140611Y-115876565D01*
X152061385Y-116067834D01*
X151946363Y-116239976D01*
X151799976Y-116386363D01*
X151627834Y-116501385D01*
X151436565Y-116580611D01*
X151233516Y-116621000D01*
X151026484Y-116621000D01*
X150823435Y-116580611D01*
X150632166Y-116501385D01*
X150460024Y-116386363D01*
X150313637Y-116239976D01*
X150198615Y-116067834D01*
X150119389Y-115876565D01*
X150079000Y-115673516D01*
X150079000Y-115466484D01*
X150119389Y-115263435D01*
X150198615Y-115072166D01*
X150313637Y-114900024D01*
X150460024Y-114753637D01*
X150632166Y-114638615D01*
X150823435Y-114559389D01*
X151026484Y-114519000D01*
X151233516Y-114519000D01*
X151436565Y-114559389D01*
X151436565Y-114559389D01*
G37*
G36*
X99366565Y-114559389D02*
X99557834Y-114638615D01*
X99729976Y-114753637D01*
X99876363Y-114900024D01*
X99991385Y-115072166D01*
X100070611Y-115263435D01*
X100111000Y-115466484D01*
X100111000Y-115673516D01*
X100070611Y-115876565D01*
X99991385Y-116067834D01*
X99876363Y-116239976D01*
X99729976Y-116386363D01*
X99557834Y-116501385D01*
X99366565Y-116580611D01*
X99163516Y-116621000D01*
X98956484Y-116621000D01*
X98753435Y-116580611D01*
X98562166Y-116501385D01*
X98390024Y-116386363D01*
X98243637Y-116239976D01*
X98128615Y-116067834D01*
X98049389Y-115876565D01*
X98009000Y-115673516D01*
X98009000Y-115466484D01*
X98049389Y-115263435D01*
X98128615Y-115072166D01*
X98243637Y-114900024D01*
X98390024Y-114753637D01*
X98562166Y-114638615D01*
X98753435Y-114559389D01*
X98956484Y-114519000D01*
X99163516Y-114519000D01*
X99366565Y-114559389D01*
X99366565Y-114559389D01*
G37*
G36*
X117006821Y-114731313D02*
X117006824Y-114731314D01*
X117006825Y-114731314D01*
X117167239Y-114779975D01*
X117167241Y-114779976D01*
X117167244Y-114779977D01*
X117315078Y-114858995D01*
X117444659Y-114965341D01*
X117551005Y-115094922D01*
X117630023Y-115242756D01*
X117630024Y-115242759D01*
X117630025Y-115242761D01*
X117662841Y-115350941D01*
X117678687Y-115403179D01*
X117695117Y-115570000D01*
X117678687Y-115736821D01*
X117678686Y-115736824D01*
X117678686Y-115736825D01*
X117641690Y-115858786D01*
X117630023Y-115897244D01*
X117551005Y-116045078D01*
X117444659Y-116174659D01*
X117315078Y-116281005D01*
X117167244Y-116360023D01*
X117167241Y-116360024D01*
X117167239Y-116360025D01*
X117006825Y-116408686D01*
X117006824Y-116408686D01*
X117006821Y-116408687D01*
X116881804Y-116421000D01*
X116798196Y-116421000D01*
X116673179Y-116408687D01*
X116673176Y-116408686D01*
X116673175Y-116408686D01*
X116512761Y-116360025D01*
X116512759Y-116360024D01*
X116512756Y-116360023D01*
X116364922Y-116281005D01*
X116235341Y-116174659D01*
X116128995Y-116045078D01*
X116049977Y-115897244D01*
X116038311Y-115858786D01*
X116001314Y-115736825D01*
X116001314Y-115736824D01*
X116001313Y-115736821D01*
X115984883Y-115570000D01*
X116001313Y-115403179D01*
X116017159Y-115350941D01*
X116049975Y-115242761D01*
X116049976Y-115242759D01*
X116049977Y-115242756D01*
X116128995Y-115094922D01*
X116235341Y-114965341D01*
X116364922Y-114858995D01*
X116512756Y-114779977D01*
X116512759Y-114779976D01*
X116512761Y-114779975D01*
X116673175Y-114731314D01*
X116673176Y-114731314D01*
X116673179Y-114731313D01*
X116798196Y-114719000D01*
X116881804Y-114719000D01*
X117006821Y-114731313D01*
X117006821Y-114731313D01*
G37*
G36*
X132246821Y-114731313D02*
X132246824Y-114731314D01*
X132246825Y-114731314D01*
X132407239Y-114779975D01*
X132407241Y-114779976D01*
X132407244Y-114779977D01*
X132555078Y-114858995D01*
X132684659Y-114965341D01*
X132791005Y-115094922D01*
X132870023Y-115242756D01*
X132870024Y-115242759D01*
X132870025Y-115242761D01*
X132902841Y-115350941D01*
X132918687Y-115403179D01*
X132935117Y-115570000D01*
X132918687Y-115736821D01*
X132918686Y-115736824D01*
X132918686Y-115736825D01*
X132881690Y-115858786D01*
X132870023Y-115897244D01*
X132791005Y-116045078D01*
X132684659Y-116174659D01*
X132555078Y-116281005D01*
X132407244Y-116360023D01*
X132407241Y-116360024D01*
X132407239Y-116360025D01*
X132246825Y-116408686D01*
X132246824Y-116408686D01*
X132246821Y-116408687D01*
X132121804Y-116421000D01*
X132038196Y-116421000D01*
X131913179Y-116408687D01*
X131913176Y-116408686D01*
X131913175Y-116408686D01*
X131752761Y-116360025D01*
X131752759Y-116360024D01*
X131752756Y-116360023D01*
X131604922Y-116281005D01*
X131475341Y-116174659D01*
X131368995Y-116045078D01*
X131289977Y-115897244D01*
X131278311Y-115858786D01*
X131241314Y-115736825D01*
X131241314Y-115736824D01*
X131241313Y-115736821D01*
X131224883Y-115570000D01*
X131241313Y-115403179D01*
X131257159Y-115350941D01*
X131289975Y-115242761D01*
X131289976Y-115242759D01*
X131289977Y-115242756D01*
X131368995Y-115094922D01*
X131475341Y-114965341D01*
X131604922Y-114858995D01*
X131752756Y-114779977D01*
X131752759Y-114779976D01*
X131752761Y-114779975D01*
X131913175Y-114731314D01*
X131913176Y-114731314D01*
X131913179Y-114731313D01*
X132038196Y-114719000D01*
X132121804Y-114719000D01*
X132246821Y-114731313D01*
X132246821Y-114731313D01*
G37*
G36*
X138503665Y-114822622D02*
X138577222Y-114829867D01*
X138718786Y-114872810D01*
X138849252Y-114942546D01*
X138963606Y-115036394D01*
X139057454Y-115150748D01*
X139127190Y-115281214D01*
X139170133Y-115422778D01*
X139184633Y-115570000D01*
X139170133Y-115717222D01*
X139127190Y-115858786D01*
X139057454Y-115989252D01*
X138963606Y-116103606D01*
X138849252Y-116197454D01*
X138718786Y-116267190D01*
X138577222Y-116310133D01*
X138503665Y-116317378D01*
X138466888Y-116321000D01*
X138393112Y-116321000D01*
X138356335Y-116317378D01*
X138282778Y-116310133D01*
X138141214Y-116267190D01*
X138010748Y-116197454D01*
X137896394Y-116103606D01*
X137802546Y-115989252D01*
X137732810Y-115858786D01*
X137689867Y-115717222D01*
X137675367Y-115570000D01*
X137689867Y-115422778D01*
X137732810Y-115281214D01*
X137802546Y-115150748D01*
X137896394Y-115036394D01*
X138010748Y-114942546D01*
X138141214Y-114872810D01*
X138282778Y-114829867D01*
X138356335Y-114822622D01*
X138393112Y-114819000D01*
X138466888Y-114819000D01*
X138503665Y-114822622D01*
X138503665Y-114822622D01*
G37*
G36*
X146178600Y-114829867D02*
X146269059Y-114847860D01*
X146405732Y-114904472D01*
X146462715Y-114942547D01*
X146528738Y-114986662D01*
X146633338Y-115091262D01*
X146633340Y-115091265D01*
X146715528Y-115214268D01*
X146772140Y-115350941D01*
X146786429Y-115422778D01*
X146801000Y-115496031D01*
X146801000Y-115643969D01*
X146789456Y-115702004D01*
X146772140Y-115789059D01*
X146715528Y-115925732D01*
X146635784Y-116045078D01*
X146633338Y-116048738D01*
X146528738Y-116153338D01*
X146528735Y-116153340D01*
X146405732Y-116235528D01*
X146269059Y-116292140D01*
X146182004Y-116309456D01*
X146123969Y-116321000D01*
X145976031Y-116321000D01*
X145917996Y-116309456D01*
X145830941Y-116292140D01*
X145694268Y-116235528D01*
X145571265Y-116153340D01*
X145571262Y-116153338D01*
X145466662Y-116048738D01*
X145464216Y-116045078D01*
X145384472Y-115925732D01*
X145327860Y-115789059D01*
X145310544Y-115702004D01*
X145299000Y-115643969D01*
X145299000Y-115496031D01*
X145313571Y-115422778D01*
X145327860Y-115350941D01*
X145384472Y-115214268D01*
X145466660Y-115091265D01*
X145466662Y-115091262D01*
X145571262Y-114986662D01*
X145637285Y-114942547D01*
X145694268Y-114904472D01*
X145830941Y-114847860D01*
X145921400Y-114829867D01*
X145976031Y-114819000D01*
X146123969Y-114819000D01*
X146178600Y-114829867D01*
X146178600Y-114829867D01*
G37*
G36*
X89801000Y-113931000D02*
X87999000Y-113931000D01*
X87999000Y-112129000D01*
X89801000Y-112129000D01*
X89801000Y-113931000D01*
X89801000Y-113931000D01*
G37*
G36*
X117006821Y-112191313D02*
X117006824Y-112191314D01*
X117006825Y-112191314D01*
X117167239Y-112239975D01*
X117167241Y-112239976D01*
X117167244Y-112239977D01*
X117315078Y-112318995D01*
X117444659Y-112425341D01*
X117551005Y-112554922D01*
X117630023Y-112702756D01*
X117630024Y-112702759D01*
X117630025Y-112702761D01*
X117662841Y-112810941D01*
X117678687Y-112863179D01*
X117695117Y-113030000D01*
X117678687Y-113196821D01*
X117678686Y-113196824D01*
X117678686Y-113196825D01*
X117641690Y-113318786D01*
X117630023Y-113357244D01*
X117551005Y-113505078D01*
X117444659Y-113634659D01*
X117315078Y-113741005D01*
X117167244Y-113820023D01*
X117167241Y-113820024D01*
X117167239Y-113820025D01*
X117006825Y-113868686D01*
X117006824Y-113868686D01*
X117006821Y-113868687D01*
X116881804Y-113881000D01*
X116798196Y-113881000D01*
X116673179Y-113868687D01*
X116673176Y-113868686D01*
X116673175Y-113868686D01*
X116512761Y-113820025D01*
X116512759Y-113820024D01*
X116512756Y-113820023D01*
X116364922Y-113741005D01*
X116235341Y-113634659D01*
X116128995Y-113505078D01*
X116049977Y-113357244D01*
X116038311Y-113318786D01*
X116001314Y-113196825D01*
X116001314Y-113196824D01*
X116001313Y-113196821D01*
X115984883Y-113030000D01*
X116001313Y-112863179D01*
X116017159Y-112810941D01*
X116049975Y-112702761D01*
X116049976Y-112702759D01*
X116049977Y-112702756D01*
X116128995Y-112554922D01*
X116235341Y-112425341D01*
X116364922Y-112318995D01*
X116512756Y-112239977D01*
X116512759Y-112239976D01*
X116512761Y-112239975D01*
X116673175Y-112191314D01*
X116673176Y-112191314D01*
X116673179Y-112191313D01*
X116798196Y-112179000D01*
X116881804Y-112179000D01*
X117006821Y-112191313D01*
X117006821Y-112191313D01*
G37*
G36*
X132246821Y-112191313D02*
X132246824Y-112191314D01*
X132246825Y-112191314D01*
X132407239Y-112239975D01*
X132407241Y-112239976D01*
X132407244Y-112239977D01*
X132555078Y-112318995D01*
X132684659Y-112425341D01*
X132791005Y-112554922D01*
X132870023Y-112702756D01*
X132870024Y-112702759D01*
X132870025Y-112702761D01*
X132902841Y-112810941D01*
X132918687Y-112863179D01*
X132935117Y-113030000D01*
X132918687Y-113196821D01*
X132918686Y-113196824D01*
X132918686Y-113196825D01*
X132881690Y-113318786D01*
X132870023Y-113357244D01*
X132791005Y-113505078D01*
X132684659Y-113634659D01*
X132555078Y-113741005D01*
X132407244Y-113820023D01*
X132407241Y-113820024D01*
X132407239Y-113820025D01*
X132246825Y-113868686D01*
X132246824Y-113868686D01*
X132246821Y-113868687D01*
X132121804Y-113881000D01*
X132038196Y-113881000D01*
X131913179Y-113868687D01*
X131913176Y-113868686D01*
X131913175Y-113868686D01*
X131752761Y-113820025D01*
X131752759Y-113820024D01*
X131752756Y-113820023D01*
X131604922Y-113741005D01*
X131475341Y-113634659D01*
X131368995Y-113505078D01*
X131289977Y-113357244D01*
X131278311Y-113318786D01*
X131241314Y-113196825D01*
X131241314Y-113196824D01*
X131241313Y-113196821D01*
X131224883Y-113030000D01*
X131241313Y-112863179D01*
X131257159Y-112810941D01*
X131289975Y-112702761D01*
X131289976Y-112702759D01*
X131289977Y-112702756D01*
X131368995Y-112554922D01*
X131475341Y-112425341D01*
X131604922Y-112318995D01*
X131752756Y-112239977D01*
X131752759Y-112239976D01*
X131752761Y-112239975D01*
X131913175Y-112191314D01*
X131913176Y-112191314D01*
X131913179Y-112191313D01*
X132038196Y-112179000D01*
X132121804Y-112179000D01*
X132246821Y-112191313D01*
X132246821Y-112191313D01*
G37*
G36*
X138503665Y-112282622D02*
X138577222Y-112289867D01*
X138718786Y-112332810D01*
X138849252Y-112402546D01*
X138963606Y-112496394D01*
X139057454Y-112610748D01*
X139127190Y-112741214D01*
X139170133Y-112882778D01*
X139184633Y-113030000D01*
X139170133Y-113177222D01*
X139127190Y-113318786D01*
X139057454Y-113449252D01*
X138963606Y-113563606D01*
X138849252Y-113657454D01*
X138718786Y-113727190D01*
X138577222Y-113770133D01*
X138503665Y-113777378D01*
X138466888Y-113781000D01*
X138393112Y-113781000D01*
X138356335Y-113777378D01*
X138282778Y-113770133D01*
X138141214Y-113727190D01*
X138010748Y-113657454D01*
X137896394Y-113563606D01*
X137802546Y-113449252D01*
X137732810Y-113318786D01*
X137689867Y-113177222D01*
X137675367Y-113030000D01*
X137689867Y-112882778D01*
X137732810Y-112741214D01*
X137802546Y-112610748D01*
X137896394Y-112496394D01*
X138010748Y-112402546D01*
X138141214Y-112332810D01*
X138282778Y-112289867D01*
X138356335Y-112282622D01*
X138393112Y-112279000D01*
X138466888Y-112279000D01*
X138503665Y-112282622D01*
X138503665Y-112282622D01*
G37*
G36*
X146178600Y-112289867D02*
X146269059Y-112307860D01*
X146405732Y-112364472D01*
X146462715Y-112402547D01*
X146528738Y-112446662D01*
X146633338Y-112551262D01*
X146633340Y-112551265D01*
X146715528Y-112674268D01*
X146772140Y-112810941D01*
X146801000Y-112956033D01*
X146801000Y-113103967D01*
X146772140Y-113249059D01*
X146715528Y-113385732D01*
X146635784Y-113505078D01*
X146633338Y-113508738D01*
X146528738Y-113613338D01*
X146528735Y-113613340D01*
X146405732Y-113695528D01*
X146269059Y-113752140D01*
X146182004Y-113769456D01*
X146123969Y-113781000D01*
X145976031Y-113781000D01*
X145917996Y-113769456D01*
X145830941Y-113752140D01*
X145694268Y-113695528D01*
X145571265Y-113613340D01*
X145571262Y-113613338D01*
X145466662Y-113508738D01*
X145464216Y-113505078D01*
X145384472Y-113385732D01*
X145327860Y-113249059D01*
X145299000Y-113103967D01*
X145299000Y-112956033D01*
X145327860Y-112810941D01*
X145384472Y-112674268D01*
X145466660Y-112551265D01*
X145466662Y-112551262D01*
X145571262Y-112446662D01*
X145637285Y-112402547D01*
X145694268Y-112364472D01*
X145830941Y-112307860D01*
X145921400Y-112289867D01*
X145976031Y-112279000D01*
X146123969Y-112279000D01*
X146178600Y-112289867D01*
X146178600Y-112289867D01*
G37*
G36*
X89010442Y-109595518D02*
X89076627Y-109602037D01*
X89189853Y-109636384D01*
X89246467Y-109653557D01*
X89333311Y-109699977D01*
X89402991Y-109737222D01*
X89405157Y-109739000D01*
X89540186Y-109849814D01*
X89623448Y-109951271D01*
X89652778Y-109987009D01*
X89652779Y-109987011D01*
X89736443Y-110143533D01*
X89753616Y-110200147D01*
X89787963Y-110313373D01*
X89805359Y-110490000D01*
X89787963Y-110666627D01*
X89775092Y-110709056D01*
X89736443Y-110836467D01*
X89731490Y-110845733D01*
X89652778Y-110992991D01*
X89623448Y-111028729D01*
X89540186Y-111130186D01*
X89440323Y-111212140D01*
X89402991Y-111242778D01*
X89402989Y-111242779D01*
X89246467Y-111326443D01*
X89239069Y-111328687D01*
X89076627Y-111377963D01*
X89010443Y-111384481D01*
X88944260Y-111391000D01*
X88855740Y-111391000D01*
X88789557Y-111384481D01*
X88723373Y-111377963D01*
X88560931Y-111328687D01*
X88553533Y-111326443D01*
X88397011Y-111242779D01*
X88397009Y-111242778D01*
X88359677Y-111212140D01*
X88259814Y-111130186D01*
X88176552Y-111028729D01*
X88147222Y-110992991D01*
X88068510Y-110845733D01*
X88063557Y-110836467D01*
X88024908Y-110709056D01*
X88012037Y-110666627D01*
X87994641Y-110490000D01*
X88012037Y-110313373D01*
X88046384Y-110200147D01*
X88063557Y-110143533D01*
X88147221Y-109987011D01*
X88147222Y-109987009D01*
X88176552Y-109951271D01*
X88259814Y-109849814D01*
X88394843Y-109739000D01*
X88397009Y-109737222D01*
X88466689Y-109699977D01*
X88553533Y-109653557D01*
X88610147Y-109636384D01*
X88723373Y-109602037D01*
X88789558Y-109595518D01*
X88855740Y-109589000D01*
X88944260Y-109589000D01*
X89010442Y-109595518D01*
X89010442Y-109595518D01*
G37*
G36*
X97371000Y-111341000D02*
X95669000Y-111341000D01*
X95669000Y-109639000D01*
X97371000Y-109639000D01*
X97371000Y-111341000D01*
X97371000Y-111341000D01*
G37*
G36*
X132246821Y-109651313D02*
X132246824Y-109651314D01*
X132246825Y-109651314D01*
X132407239Y-109699975D01*
X132407241Y-109699976D01*
X132407244Y-109699977D01*
X132555078Y-109778995D01*
X132684659Y-109885341D01*
X132791005Y-110014922D01*
X132870023Y-110162756D01*
X132870024Y-110162759D01*
X132870025Y-110162761D01*
X132915713Y-110313375D01*
X132918687Y-110323179D01*
X132935117Y-110490000D01*
X132918687Y-110656821D01*
X132918686Y-110656824D01*
X132918686Y-110656825D01*
X132915713Y-110666627D01*
X132870023Y-110817244D01*
X132791005Y-110965078D01*
X132684659Y-111094659D01*
X132555078Y-111201005D01*
X132407244Y-111280023D01*
X132407241Y-111280024D01*
X132407239Y-111280025D01*
X132246825Y-111328686D01*
X132246824Y-111328686D01*
X132246821Y-111328687D01*
X132121804Y-111341000D01*
X132038196Y-111341000D01*
X131913179Y-111328687D01*
X131913176Y-111328686D01*
X131913175Y-111328686D01*
X131752761Y-111280025D01*
X131752759Y-111280024D01*
X131752756Y-111280023D01*
X131604922Y-111201005D01*
X131475341Y-111094659D01*
X131368995Y-110965078D01*
X131289977Y-110817244D01*
X131244288Y-110666627D01*
X131241314Y-110656825D01*
X131241314Y-110656824D01*
X131241313Y-110656821D01*
X131224883Y-110490000D01*
X131241313Y-110323179D01*
X131244287Y-110313375D01*
X131289975Y-110162761D01*
X131289976Y-110162759D01*
X131289977Y-110162756D01*
X131368995Y-110014922D01*
X131475341Y-109885341D01*
X131604922Y-109778995D01*
X131752756Y-109699977D01*
X131752759Y-109699976D01*
X131752761Y-109699975D01*
X131913175Y-109651314D01*
X131913176Y-109651314D01*
X131913179Y-109651313D01*
X132038196Y-109639000D01*
X132121804Y-109639000D01*
X132246821Y-109651313D01*
X132246821Y-109651313D01*
G37*
G36*
X110071000Y-111341000D02*
X108369000Y-111341000D01*
X108369000Y-109639000D01*
X110071000Y-109639000D01*
X110071000Y-111341000D01*
X110071000Y-111341000D01*
G37*
G36*
X117006821Y-109651313D02*
X117006824Y-109651314D01*
X117006825Y-109651314D01*
X117167239Y-109699975D01*
X117167241Y-109699976D01*
X117167244Y-109699977D01*
X117315078Y-109778995D01*
X117444659Y-109885341D01*
X117551005Y-110014922D01*
X117630023Y-110162756D01*
X117630024Y-110162759D01*
X117630025Y-110162761D01*
X117675713Y-110313375D01*
X117678687Y-110323179D01*
X117695117Y-110490000D01*
X117678687Y-110656821D01*
X117678686Y-110656824D01*
X117678686Y-110656825D01*
X117675713Y-110666627D01*
X117630023Y-110817244D01*
X117551005Y-110965078D01*
X117444659Y-111094659D01*
X117315078Y-111201005D01*
X117167244Y-111280023D01*
X117167241Y-111280024D01*
X117167239Y-111280025D01*
X117006825Y-111328686D01*
X117006824Y-111328686D01*
X117006821Y-111328687D01*
X116881804Y-111341000D01*
X116798196Y-111341000D01*
X116673179Y-111328687D01*
X116673176Y-111328686D01*
X116673175Y-111328686D01*
X116512761Y-111280025D01*
X116512759Y-111280024D01*
X116512756Y-111280023D01*
X116364922Y-111201005D01*
X116235341Y-111094659D01*
X116128995Y-110965078D01*
X116049977Y-110817244D01*
X116004288Y-110666627D01*
X116001314Y-110656825D01*
X116001314Y-110656824D01*
X116001313Y-110656821D01*
X115984883Y-110490000D01*
X116001313Y-110323179D01*
X116004287Y-110313375D01*
X116049975Y-110162761D01*
X116049976Y-110162759D01*
X116049977Y-110162756D01*
X116128995Y-110014922D01*
X116235341Y-109885341D01*
X116364922Y-109778995D01*
X116512756Y-109699977D01*
X116512759Y-109699976D01*
X116512761Y-109699975D01*
X116673175Y-109651314D01*
X116673176Y-109651314D01*
X116673179Y-109651313D01*
X116798196Y-109639000D01*
X116881804Y-109639000D01*
X117006821Y-109651313D01*
X117006821Y-109651313D01*
G37*
G36*
X103637004Y-109750544D02*
X103724059Y-109767860D01*
X103860732Y-109824472D01*
X103860733Y-109824473D01*
X103983738Y-109906662D01*
X104088338Y-110011262D01*
X104088340Y-110011265D01*
X104170528Y-110134268D01*
X104227140Y-110270941D01*
X104256000Y-110416033D01*
X104256000Y-110563967D01*
X104227140Y-110709059D01*
X104170528Y-110845732D01*
X104170527Y-110845733D01*
X104088338Y-110968738D01*
X103983738Y-111073338D01*
X103983735Y-111073340D01*
X103860732Y-111155528D01*
X103724059Y-111212140D01*
X103637004Y-111229456D01*
X103578969Y-111241000D01*
X103431031Y-111241000D01*
X103372996Y-111229456D01*
X103285941Y-111212140D01*
X103149268Y-111155528D01*
X103026265Y-111073340D01*
X103026262Y-111073338D01*
X102921662Y-110968738D01*
X102839473Y-110845733D01*
X102839472Y-110845732D01*
X102782860Y-110709059D01*
X102754000Y-110563967D01*
X102754000Y-110416033D01*
X102782860Y-110270941D01*
X102839472Y-110134268D01*
X102921660Y-110011265D01*
X102921662Y-110011262D01*
X103026262Y-109906662D01*
X103149267Y-109824473D01*
X103149268Y-109824472D01*
X103285941Y-109767860D01*
X103372996Y-109750544D01*
X103431031Y-109739000D01*
X103578969Y-109739000D01*
X103637004Y-109750544D01*
X103637004Y-109750544D01*
G37*
G36*
X96768228Y-107671703D02*
X96923100Y-107735853D01*
X97062481Y-107828985D01*
X97181015Y-107947519D01*
X97274147Y-108086900D01*
X97338297Y-108241772D01*
X97371000Y-108406184D01*
X97371000Y-108573816D01*
X97338297Y-108738228D01*
X97274147Y-108893100D01*
X97181015Y-109032481D01*
X97062481Y-109151015D01*
X96923100Y-109244147D01*
X96768228Y-109308297D01*
X96603816Y-109341000D01*
X96436184Y-109341000D01*
X96271772Y-109308297D01*
X96116900Y-109244147D01*
X95977519Y-109151015D01*
X95858985Y-109032481D01*
X95765853Y-108893100D01*
X95701703Y-108738228D01*
X95669000Y-108573816D01*
X95669000Y-108406184D01*
X95701703Y-108241772D01*
X95765853Y-108086900D01*
X95858985Y-107947519D01*
X95977519Y-107828985D01*
X96116900Y-107735853D01*
X96271772Y-107671703D01*
X96436184Y-107639000D01*
X96603816Y-107639000D01*
X96768228Y-107671703D01*
X96768228Y-107671703D01*
G37*
G36*
X109468228Y-107671703D02*
X109623100Y-107735853D01*
X109762481Y-107828985D01*
X109881015Y-107947519D01*
X109974147Y-108086900D01*
X110038297Y-108241772D01*
X110071000Y-108406184D01*
X110071000Y-108573816D01*
X110038297Y-108738228D01*
X109974147Y-108893100D01*
X109881015Y-109032481D01*
X109762481Y-109151015D01*
X109623100Y-109244147D01*
X109468228Y-109308297D01*
X109303816Y-109341000D01*
X109136184Y-109341000D01*
X108971772Y-109308297D01*
X108816900Y-109244147D01*
X108677519Y-109151015D01*
X108558985Y-109032481D01*
X108465853Y-108893100D01*
X108401703Y-108738228D01*
X108369000Y-108573816D01*
X108369000Y-108406184D01*
X108401703Y-108241772D01*
X108465853Y-108086900D01*
X108558985Y-107947519D01*
X108677519Y-107828985D01*
X108816900Y-107735853D01*
X108971772Y-107671703D01*
X109136184Y-107639000D01*
X109303816Y-107639000D01*
X109468228Y-107671703D01*
X109468228Y-107671703D01*
G37*
G36*
X89010442Y-107055518D02*
X89076627Y-107062037D01*
X89189853Y-107096384D01*
X89246467Y-107113557D01*
X89333311Y-107159977D01*
X89402991Y-107197222D01*
X89438729Y-107226552D01*
X89540186Y-107309814D01*
X89619664Y-107406660D01*
X89652778Y-107447009D01*
X89652779Y-107447011D01*
X89736443Y-107603533D01*
X89753616Y-107660147D01*
X89787963Y-107773373D01*
X89805359Y-107950000D01*
X89787963Y-108126627D01*
X89753940Y-108238786D01*
X89736443Y-108296467D01*
X89731490Y-108305733D01*
X89652778Y-108452991D01*
X89627653Y-108483606D01*
X89540186Y-108590186D01*
X89440323Y-108672140D01*
X89402991Y-108702778D01*
X89402989Y-108702779D01*
X89246467Y-108786443D01*
X89239069Y-108788687D01*
X89076627Y-108837963D01*
X89010442Y-108844482D01*
X88944260Y-108851000D01*
X88855740Y-108851000D01*
X88789558Y-108844482D01*
X88723373Y-108837963D01*
X88560931Y-108788687D01*
X88553533Y-108786443D01*
X88397011Y-108702779D01*
X88397009Y-108702778D01*
X88359677Y-108672140D01*
X88259814Y-108590186D01*
X88172347Y-108483606D01*
X88147222Y-108452991D01*
X88068510Y-108305733D01*
X88063557Y-108296467D01*
X88046060Y-108238786D01*
X88012037Y-108126627D01*
X87994641Y-107950000D01*
X88012037Y-107773373D01*
X88046384Y-107660147D01*
X88063557Y-107603533D01*
X88147221Y-107447011D01*
X88147222Y-107447009D01*
X88180336Y-107406660D01*
X88259814Y-107309814D01*
X88361271Y-107226552D01*
X88397009Y-107197222D01*
X88466689Y-107159977D01*
X88553533Y-107113557D01*
X88610147Y-107096384D01*
X88723373Y-107062037D01*
X88789558Y-107055518D01*
X88855740Y-107049000D01*
X88944260Y-107049000D01*
X89010442Y-107055518D01*
X89010442Y-107055518D01*
G37*
G36*
X117006821Y-107111313D02*
X117006824Y-107111314D01*
X117006825Y-107111314D01*
X117167239Y-107159975D01*
X117167241Y-107159976D01*
X117167244Y-107159977D01*
X117315078Y-107238995D01*
X117444659Y-107345341D01*
X117551005Y-107474922D01*
X117630023Y-107622756D01*
X117630024Y-107622759D01*
X117630025Y-107622761D01*
X117675713Y-107773375D01*
X117678687Y-107783179D01*
X117695117Y-107950000D01*
X117678687Y-108116821D01*
X117678686Y-108116824D01*
X117678686Y-108116825D01*
X117640784Y-108241772D01*
X117630023Y-108277244D01*
X117551005Y-108425078D01*
X117444659Y-108554659D01*
X117315078Y-108661005D01*
X117167244Y-108740023D01*
X117167241Y-108740024D01*
X117167239Y-108740025D01*
X117006825Y-108788686D01*
X117006824Y-108788686D01*
X117006821Y-108788687D01*
X116881804Y-108801000D01*
X116798196Y-108801000D01*
X116673179Y-108788687D01*
X116673176Y-108788686D01*
X116673175Y-108788686D01*
X116512761Y-108740025D01*
X116512759Y-108740024D01*
X116512756Y-108740023D01*
X116364922Y-108661005D01*
X116235341Y-108554659D01*
X116128995Y-108425078D01*
X116049977Y-108277244D01*
X116039217Y-108241772D01*
X116001314Y-108116825D01*
X116001314Y-108116824D01*
X116001313Y-108116821D01*
X115984883Y-107950000D01*
X116001313Y-107783179D01*
X116004287Y-107773375D01*
X116049975Y-107622761D01*
X116049976Y-107622759D01*
X116049977Y-107622756D01*
X116128995Y-107474922D01*
X116235341Y-107345341D01*
X116364922Y-107238995D01*
X116512756Y-107159977D01*
X116512759Y-107159976D01*
X116512761Y-107159975D01*
X116673175Y-107111314D01*
X116673176Y-107111314D01*
X116673179Y-107111313D01*
X116798196Y-107099000D01*
X116881804Y-107099000D01*
X117006821Y-107111313D01*
X117006821Y-107111313D01*
G37*
G36*
X132246821Y-107111313D02*
X132246824Y-107111314D01*
X132246825Y-107111314D01*
X132407239Y-107159975D01*
X132407241Y-107159976D01*
X132407244Y-107159977D01*
X132555078Y-107238995D01*
X132684659Y-107345341D01*
X132791005Y-107474922D01*
X132870023Y-107622756D01*
X132870024Y-107622759D01*
X132870025Y-107622761D01*
X132915713Y-107773375D01*
X132918687Y-107783179D01*
X132935117Y-107950000D01*
X132918687Y-108116821D01*
X132918686Y-108116824D01*
X132918686Y-108116825D01*
X132880784Y-108241772D01*
X132870023Y-108277244D01*
X132791005Y-108425078D01*
X132684659Y-108554659D01*
X132555078Y-108661005D01*
X132407244Y-108740023D01*
X132407241Y-108740024D01*
X132407239Y-108740025D01*
X132246825Y-108788686D01*
X132246824Y-108788686D01*
X132246821Y-108788687D01*
X132121804Y-108801000D01*
X132038196Y-108801000D01*
X131913179Y-108788687D01*
X131913176Y-108788686D01*
X131913175Y-108788686D01*
X131752761Y-108740025D01*
X131752759Y-108740024D01*
X131752756Y-108740023D01*
X131604922Y-108661005D01*
X131475341Y-108554659D01*
X131368995Y-108425078D01*
X131289977Y-108277244D01*
X131279217Y-108241772D01*
X131241314Y-108116825D01*
X131241314Y-108116824D01*
X131241313Y-108116821D01*
X131224883Y-107950000D01*
X131241313Y-107783179D01*
X131244287Y-107773375D01*
X131289975Y-107622761D01*
X131289976Y-107622759D01*
X131289977Y-107622756D01*
X131368995Y-107474922D01*
X131475341Y-107345341D01*
X131604922Y-107238995D01*
X131752756Y-107159977D01*
X131752759Y-107159976D01*
X131752761Y-107159975D01*
X131913175Y-107111314D01*
X131913176Y-107111314D01*
X131913179Y-107111313D01*
X132038196Y-107099000D01*
X132121804Y-107099000D01*
X132246821Y-107111313D01*
X132246821Y-107111313D01*
G37*
G36*
X103637004Y-107250544D02*
X103724059Y-107267860D01*
X103860732Y-107324472D01*
X103923871Y-107366660D01*
X103983738Y-107406662D01*
X104088338Y-107511262D01*
X104088340Y-107511265D01*
X104170528Y-107634268D01*
X104227140Y-107770941D01*
X104244456Y-107857996D01*
X104256000Y-107916031D01*
X104256000Y-108063969D01*
X104249386Y-108097220D01*
X104227140Y-108209059D01*
X104170528Y-108345732D01*
X104130135Y-108406184D01*
X104088338Y-108468738D01*
X103983738Y-108573338D01*
X103983735Y-108573340D01*
X103860732Y-108655528D01*
X103724059Y-108712140D01*
X103637004Y-108729456D01*
X103578969Y-108741000D01*
X103431031Y-108741000D01*
X103372996Y-108729456D01*
X103285941Y-108712140D01*
X103149268Y-108655528D01*
X103026265Y-108573340D01*
X103026262Y-108573338D01*
X102921662Y-108468738D01*
X102879865Y-108406184D01*
X102839472Y-108345732D01*
X102782860Y-108209059D01*
X102760614Y-108097220D01*
X102754000Y-108063969D01*
X102754000Y-107916031D01*
X102765544Y-107857996D01*
X102782860Y-107770941D01*
X102839472Y-107634268D01*
X102921660Y-107511265D01*
X102921662Y-107511262D01*
X103026262Y-107406662D01*
X103086129Y-107366660D01*
X103149268Y-107324472D01*
X103285941Y-107267860D01*
X103372996Y-107250544D01*
X103431031Y-107239000D01*
X103578969Y-107239000D01*
X103637004Y-107250544D01*
X103637004Y-107250544D01*
G37*
G36*
X146178600Y-107209867D02*
X146269059Y-107227860D01*
X146405732Y-107284472D01*
X146496829Y-107345341D01*
X146528738Y-107366662D01*
X146633338Y-107471262D01*
X146633340Y-107471265D01*
X146715528Y-107594268D01*
X146772140Y-107730941D01*
X146801000Y-107876033D01*
X146801000Y-108023967D01*
X146772140Y-108169059D01*
X146715528Y-108305732D01*
X146648408Y-108406184D01*
X146633338Y-108428738D01*
X146528738Y-108533338D01*
X146528735Y-108533340D01*
X146405732Y-108615528D01*
X146269059Y-108672140D01*
X146182004Y-108689456D01*
X146123969Y-108701000D01*
X145976031Y-108701000D01*
X145917996Y-108689456D01*
X145830941Y-108672140D01*
X145694268Y-108615528D01*
X145571265Y-108533340D01*
X145571262Y-108533338D01*
X145466662Y-108428738D01*
X145451592Y-108406184D01*
X145384472Y-108305732D01*
X145327860Y-108169059D01*
X145299000Y-108023967D01*
X145299000Y-107876033D01*
X145327860Y-107730941D01*
X145384472Y-107594268D01*
X145466660Y-107471265D01*
X145466662Y-107471262D01*
X145571262Y-107366662D01*
X145603171Y-107345341D01*
X145694268Y-107284472D01*
X145830941Y-107227860D01*
X145921400Y-107209867D01*
X145976031Y-107199000D01*
X146123969Y-107199000D01*
X146178600Y-107209867D01*
X146178600Y-107209867D01*
G37*
G36*
X138503665Y-107202622D02*
X138577222Y-107209867D01*
X138718786Y-107252810D01*
X138849252Y-107322546D01*
X138963606Y-107416394D01*
X139057454Y-107530748D01*
X139127190Y-107661214D01*
X139170133Y-107802778D01*
X139184633Y-107950000D01*
X139170133Y-108097222D01*
X139127190Y-108238786D01*
X139057454Y-108369252D01*
X138963606Y-108483606D01*
X138849252Y-108577454D01*
X138718786Y-108647190D01*
X138577222Y-108690133D01*
X138503665Y-108697378D01*
X138466888Y-108701000D01*
X138393112Y-108701000D01*
X138356335Y-108697378D01*
X138282778Y-108690133D01*
X138141214Y-108647190D01*
X138010748Y-108577454D01*
X137896394Y-108483606D01*
X137802546Y-108369252D01*
X137732810Y-108238786D01*
X137689867Y-108097222D01*
X137675367Y-107950000D01*
X137689867Y-107802778D01*
X137732810Y-107661214D01*
X137802546Y-107530748D01*
X137896394Y-107416394D01*
X138010748Y-107322546D01*
X138141214Y-107252810D01*
X138282778Y-107209867D01*
X138356335Y-107202622D01*
X138393112Y-107199000D01*
X138466888Y-107199000D01*
X138503665Y-107202622D01*
X138503665Y-107202622D01*
G37*
G36*
X132246821Y-104571313D02*
X132246824Y-104571314D01*
X132246825Y-104571314D01*
X132407239Y-104619975D01*
X132407241Y-104619976D01*
X132407244Y-104619977D01*
X132555078Y-104698995D01*
X132684659Y-104805341D01*
X132791005Y-104934922D01*
X132870023Y-105082756D01*
X132870024Y-105082759D01*
X132870025Y-105082761D01*
X132892455Y-105156703D01*
X132918687Y-105243179D01*
X132935117Y-105410000D01*
X132918687Y-105576821D01*
X132918686Y-105576824D01*
X132918686Y-105576825D01*
X132881690Y-105698786D01*
X132870023Y-105737244D01*
X132791005Y-105885078D01*
X132684659Y-106014659D01*
X132555078Y-106121005D01*
X132407244Y-106200023D01*
X132407241Y-106200024D01*
X132407239Y-106200025D01*
X132246825Y-106248686D01*
X132246824Y-106248686D01*
X132246821Y-106248687D01*
X132121804Y-106261000D01*
X132038196Y-106261000D01*
X131913179Y-106248687D01*
X131913176Y-106248686D01*
X131913175Y-106248686D01*
X131752761Y-106200025D01*
X131752759Y-106200024D01*
X131752756Y-106200023D01*
X131604922Y-106121005D01*
X131475341Y-106014659D01*
X131368995Y-105885078D01*
X131289977Y-105737244D01*
X131278311Y-105698786D01*
X131241314Y-105576825D01*
X131241314Y-105576824D01*
X131241313Y-105576821D01*
X131224883Y-105410000D01*
X131241313Y-105243179D01*
X131267545Y-105156703D01*
X131289975Y-105082761D01*
X131289976Y-105082759D01*
X131289977Y-105082756D01*
X131368995Y-104934922D01*
X131475341Y-104805341D01*
X131604922Y-104698995D01*
X131752756Y-104619977D01*
X131752759Y-104619976D01*
X131752761Y-104619975D01*
X131913175Y-104571314D01*
X131913176Y-104571314D01*
X131913179Y-104571313D01*
X132038196Y-104559000D01*
X132121804Y-104559000D01*
X132246821Y-104571313D01*
X132246821Y-104571313D01*
G37*
G36*
X117006821Y-104571313D02*
X117006824Y-104571314D01*
X117006825Y-104571314D01*
X117167239Y-104619975D01*
X117167241Y-104619976D01*
X117167244Y-104619977D01*
X117315078Y-104698995D01*
X117444659Y-104805341D01*
X117551005Y-104934922D01*
X117630023Y-105082756D01*
X117630024Y-105082759D01*
X117630025Y-105082761D01*
X117652455Y-105156703D01*
X117678687Y-105243179D01*
X117695117Y-105410000D01*
X117678687Y-105576821D01*
X117678686Y-105576824D01*
X117678686Y-105576825D01*
X117641690Y-105698786D01*
X117630023Y-105737244D01*
X117551005Y-105885078D01*
X117444659Y-106014659D01*
X117315078Y-106121005D01*
X117167244Y-106200023D01*
X117167241Y-106200024D01*
X117167239Y-106200025D01*
X117006825Y-106248686D01*
X117006824Y-106248686D01*
X117006821Y-106248687D01*
X116881804Y-106261000D01*
X116798196Y-106261000D01*
X116673179Y-106248687D01*
X116673176Y-106248686D01*
X116673175Y-106248686D01*
X116512761Y-106200025D01*
X116512759Y-106200024D01*
X116512756Y-106200023D01*
X116364922Y-106121005D01*
X116235341Y-106014659D01*
X116128995Y-105885078D01*
X116049977Y-105737244D01*
X116038311Y-105698786D01*
X116001314Y-105576825D01*
X116001314Y-105576824D01*
X116001313Y-105576821D01*
X115984883Y-105410000D01*
X116001313Y-105243179D01*
X116027545Y-105156703D01*
X116049975Y-105082761D01*
X116049976Y-105082759D01*
X116049977Y-105082756D01*
X116128995Y-104934922D01*
X116235341Y-104805341D01*
X116364922Y-104698995D01*
X116512756Y-104619977D01*
X116512759Y-104619976D01*
X116512761Y-104619975D01*
X116673175Y-104571314D01*
X116673176Y-104571314D01*
X116673179Y-104571313D01*
X116798196Y-104559000D01*
X116881804Y-104559000D01*
X117006821Y-104571313D01*
X117006821Y-104571313D01*
G37*
G36*
X156322915Y-104617334D02*
X156431491Y-104650271D01*
X156531556Y-104703756D01*
X156619264Y-104775736D01*
X156691244Y-104863443D01*
X156744729Y-104963508D01*
X156777666Y-105072084D01*
X156786000Y-105156702D01*
X156786000Y-105663297D01*
X156777666Y-105747916D01*
X156744729Y-105856492D01*
X156691244Y-105956557D01*
X156619264Y-106044264D01*
X156531557Y-106116244D01*
X156431492Y-106169729D01*
X156322916Y-106202666D01*
X156210000Y-106213787D01*
X156097085Y-106202666D01*
X155988509Y-106169729D01*
X155888444Y-106116244D01*
X155838832Y-106075528D01*
X155800739Y-106044266D01*
X155795148Y-106037454D01*
X155728757Y-105956557D01*
X155721835Y-105943606D01*
X155685240Y-105875143D01*
X155671627Y-105854768D01*
X155654299Y-105837441D01*
X155633925Y-105823827D01*
X155611286Y-105814450D01*
X155587253Y-105809669D01*
X155562748Y-105809669D01*
X155538715Y-105814449D01*
X155516076Y-105823827D01*
X155495701Y-105837440D01*
X155478374Y-105854768D01*
X155464760Y-105875143D01*
X155421244Y-105956557D01*
X155349264Y-106044264D01*
X155261557Y-106116244D01*
X155161492Y-106169729D01*
X155052916Y-106202666D01*
X154940000Y-106213787D01*
X154827085Y-106202666D01*
X154718509Y-106169729D01*
X154618444Y-106116244D01*
X154530737Y-106044264D01*
X154525147Y-106037453D01*
X154467626Y-105967364D01*
X154450299Y-105950036D01*
X154429924Y-105936423D01*
X154407285Y-105927045D01*
X154383252Y-105922265D01*
X154358748Y-105922265D01*
X154334714Y-105927046D01*
X154312075Y-105936423D01*
X154291701Y-105950037D01*
X154274373Y-105967364D01*
X154260760Y-105987739D01*
X154251382Y-106010378D01*
X154246000Y-106046663D01*
X154246000Y-106211000D01*
X153094000Y-106211000D01*
X153094000Y-104609000D01*
X154246000Y-104609000D01*
X154246000Y-104773337D01*
X154248402Y-104797723D01*
X154255515Y-104821172D01*
X154267066Y-104842783D01*
X154282612Y-104861725D01*
X154301554Y-104877271D01*
X154323165Y-104888822D01*
X154346614Y-104895935D01*
X154371000Y-104898337D01*
X154395386Y-104895935D01*
X154418835Y-104888822D01*
X154440446Y-104877271D01*
X154467626Y-104852636D01*
X154512692Y-104797723D01*
X154530736Y-104775736D01*
X154618443Y-104703756D01*
X154718508Y-104650271D01*
X154827084Y-104617334D01*
X154940000Y-104606213D01*
X155052915Y-104617334D01*
X155161491Y-104650271D01*
X155261556Y-104703756D01*
X155349264Y-104775736D01*
X155421244Y-104863443D01*
X155464767Y-104944869D01*
X155478373Y-104965232D01*
X155495700Y-104982560D01*
X155516075Y-104996174D01*
X155538713Y-105005551D01*
X155562747Y-105010332D01*
X155587251Y-105010332D01*
X155611285Y-105005552D01*
X155633924Y-104996175D01*
X155654298Y-104982561D01*
X155671626Y-104965234D01*
X155685240Y-104944858D01*
X155728756Y-104863444D01*
X155782692Y-104797723D01*
X155800736Y-104775736D01*
X155888443Y-104703756D01*
X155988508Y-104650271D01*
X156097084Y-104617334D01*
X156210000Y-104606213D01*
X156322915Y-104617334D01*
X156322915Y-104617334D01*
G37*
G36*
X146178600Y-104669867D02*
X146269059Y-104687860D01*
X146405732Y-104744472D01*
X146462715Y-104782547D01*
X146528738Y-104826662D01*
X146633338Y-104931262D01*
X146633340Y-104931265D01*
X146715528Y-105054268D01*
X146772140Y-105190941D01*
X146801000Y-105336033D01*
X146801000Y-105483967D01*
X146772140Y-105629059D01*
X146715528Y-105765732D01*
X146656036Y-105854768D01*
X146633338Y-105888738D01*
X146528738Y-105993338D01*
X146528735Y-105993340D01*
X146405732Y-106075528D01*
X146269059Y-106132140D01*
X146182004Y-106149456D01*
X146123969Y-106161000D01*
X145976031Y-106161000D01*
X145917996Y-106149456D01*
X145830941Y-106132140D01*
X145694268Y-106075528D01*
X145571265Y-105993340D01*
X145571262Y-105993338D01*
X145466662Y-105888738D01*
X145443964Y-105854768D01*
X145384472Y-105765732D01*
X145327860Y-105629059D01*
X145299000Y-105483967D01*
X145299000Y-105336033D01*
X145327860Y-105190941D01*
X145384472Y-105054268D01*
X145466660Y-104931265D01*
X145466662Y-104931262D01*
X145571262Y-104826662D01*
X145637285Y-104782547D01*
X145694268Y-104744472D01*
X145830941Y-104687860D01*
X145921400Y-104669867D01*
X145976031Y-104659000D01*
X146123969Y-104659000D01*
X146178600Y-104669867D01*
X146178600Y-104669867D01*
G37*
G36*
X138503665Y-104662622D02*
X138577222Y-104669867D01*
X138718786Y-104712810D01*
X138849252Y-104782546D01*
X138963606Y-104876394D01*
X139057454Y-104990748D01*
X139127190Y-105121214D01*
X139170133Y-105262778D01*
X139184633Y-105410000D01*
X139170133Y-105557222D01*
X139127190Y-105698786D01*
X139057454Y-105829252D01*
X138963606Y-105943606D01*
X138849252Y-106037454D01*
X138718786Y-106107190D01*
X138577222Y-106150133D01*
X138503665Y-106157378D01*
X138466888Y-106161000D01*
X138393112Y-106161000D01*
X138356335Y-106157378D01*
X138282778Y-106150133D01*
X138141214Y-106107190D01*
X138010748Y-106037454D01*
X137896394Y-105943606D01*
X137802546Y-105829252D01*
X137732810Y-105698786D01*
X137689867Y-105557222D01*
X137675367Y-105410000D01*
X137689867Y-105262778D01*
X137732810Y-105121214D01*
X137802546Y-104990748D01*
X137896394Y-104876394D01*
X138010748Y-104782546D01*
X138141214Y-104712810D01*
X138282778Y-104669867D01*
X138356335Y-104662622D01*
X138393112Y-104659000D01*
X138466888Y-104659000D01*
X138503665Y-104662622D01*
X138503665Y-104662622D01*
G37*
G36*
X132246821Y-102031313D02*
X132246824Y-102031314D01*
X132246825Y-102031314D01*
X132407239Y-102079975D01*
X132407241Y-102079976D01*
X132407244Y-102079977D01*
X132555078Y-102158995D01*
X132684659Y-102265341D01*
X132791005Y-102394922D01*
X132870023Y-102542756D01*
X132870024Y-102542759D01*
X132870025Y-102542761D01*
X132902841Y-102650941D01*
X132918687Y-102703179D01*
X132935117Y-102870000D01*
X132918687Y-103036821D01*
X132918686Y-103036824D01*
X132918686Y-103036825D01*
X132881690Y-103158786D01*
X132870023Y-103197244D01*
X132791005Y-103345078D01*
X132684659Y-103474659D01*
X132555078Y-103581005D01*
X132407244Y-103660023D01*
X132407241Y-103660024D01*
X132407239Y-103660025D01*
X132246825Y-103708686D01*
X132246824Y-103708686D01*
X132246821Y-103708687D01*
X132121804Y-103721000D01*
X132038196Y-103721000D01*
X131913179Y-103708687D01*
X131913176Y-103708686D01*
X131913175Y-103708686D01*
X131752761Y-103660025D01*
X131752759Y-103660024D01*
X131752756Y-103660023D01*
X131604922Y-103581005D01*
X131475341Y-103474659D01*
X131368995Y-103345078D01*
X131289977Y-103197244D01*
X131278311Y-103158786D01*
X131241314Y-103036825D01*
X131241314Y-103036824D01*
X131241313Y-103036821D01*
X131224883Y-102870000D01*
X131241313Y-102703179D01*
X131257159Y-102650941D01*
X131289975Y-102542761D01*
X131289976Y-102542759D01*
X131289977Y-102542756D01*
X131368995Y-102394922D01*
X131475341Y-102265341D01*
X131604922Y-102158995D01*
X131752756Y-102079977D01*
X131752759Y-102079976D01*
X131752761Y-102079975D01*
X131913175Y-102031314D01*
X131913176Y-102031314D01*
X131913179Y-102031313D01*
X132038196Y-102019000D01*
X132121804Y-102019000D01*
X132246821Y-102031313D01*
X132246821Y-102031313D01*
G37*
G36*
X117006821Y-102031313D02*
X117006824Y-102031314D01*
X117006825Y-102031314D01*
X117167239Y-102079975D01*
X117167241Y-102079976D01*
X117167244Y-102079977D01*
X117315078Y-102158995D01*
X117444659Y-102265341D01*
X117551005Y-102394922D01*
X117630023Y-102542756D01*
X117630024Y-102542759D01*
X117630025Y-102542761D01*
X117662841Y-102650941D01*
X117678687Y-102703179D01*
X117695117Y-102870000D01*
X117678687Y-103036821D01*
X117678686Y-103036824D01*
X117678686Y-103036825D01*
X117641690Y-103158786D01*
X117630023Y-103197244D01*
X117551005Y-103345078D01*
X117444659Y-103474659D01*
X117315078Y-103581005D01*
X117167244Y-103660023D01*
X117167241Y-103660024D01*
X117167239Y-103660025D01*
X117006825Y-103708686D01*
X117006824Y-103708686D01*
X117006821Y-103708687D01*
X116881804Y-103721000D01*
X116798196Y-103721000D01*
X116673179Y-103708687D01*
X116673176Y-103708686D01*
X116673175Y-103708686D01*
X116512761Y-103660025D01*
X116512759Y-103660024D01*
X116512756Y-103660023D01*
X116364922Y-103581005D01*
X116235341Y-103474659D01*
X116128995Y-103345078D01*
X116049977Y-103197244D01*
X116038311Y-103158786D01*
X116001314Y-103036825D01*
X116001314Y-103036824D01*
X116001313Y-103036821D01*
X115984883Y-102870000D01*
X116001313Y-102703179D01*
X116017159Y-102650941D01*
X116049975Y-102542761D01*
X116049976Y-102542759D01*
X116049977Y-102542756D01*
X116128995Y-102394922D01*
X116235341Y-102265341D01*
X116364922Y-102158995D01*
X116512756Y-102079977D01*
X116512759Y-102079976D01*
X116512761Y-102079975D01*
X116673175Y-102031314D01*
X116673176Y-102031314D01*
X116673179Y-102031313D01*
X116798196Y-102019000D01*
X116881804Y-102019000D01*
X117006821Y-102031313D01*
X117006821Y-102031313D01*
G37*
G36*
X146178600Y-102129867D02*
X146269059Y-102147860D01*
X146405732Y-102204472D01*
X146462715Y-102242547D01*
X146528738Y-102286662D01*
X146633338Y-102391262D01*
X146633340Y-102391265D01*
X146715528Y-102514268D01*
X146772140Y-102650941D01*
X146801000Y-102796033D01*
X146801000Y-102943967D01*
X146772140Y-103089059D01*
X146715528Y-103225732D01*
X146635784Y-103345078D01*
X146633338Y-103348738D01*
X146528738Y-103453338D01*
X146528735Y-103453340D01*
X146405732Y-103535528D01*
X146269059Y-103592140D01*
X146182004Y-103609456D01*
X146123969Y-103621000D01*
X145976031Y-103621000D01*
X145917996Y-103609456D01*
X145830941Y-103592140D01*
X145694268Y-103535528D01*
X145571265Y-103453340D01*
X145571262Y-103453338D01*
X145466662Y-103348738D01*
X145464216Y-103345078D01*
X145384472Y-103225732D01*
X145327860Y-103089059D01*
X145299000Y-102943967D01*
X145299000Y-102796033D01*
X145327860Y-102650941D01*
X145384472Y-102514268D01*
X145466660Y-102391265D01*
X145466662Y-102391262D01*
X145571262Y-102286662D01*
X145637285Y-102242547D01*
X145694268Y-102204472D01*
X145830941Y-102147860D01*
X145921400Y-102129867D01*
X145976031Y-102119000D01*
X146123969Y-102119000D01*
X146178600Y-102129867D01*
X146178600Y-102129867D01*
G37*
G36*
X138503665Y-102122622D02*
X138577222Y-102129867D01*
X138718786Y-102172810D01*
X138849252Y-102242546D01*
X138963606Y-102336394D01*
X139057454Y-102450748D01*
X139127190Y-102581214D01*
X139170133Y-102722778D01*
X139184633Y-102870000D01*
X139170133Y-103017222D01*
X139127190Y-103158786D01*
X139057454Y-103289252D01*
X138963606Y-103403606D01*
X138849252Y-103497454D01*
X138718786Y-103567190D01*
X138577222Y-103610133D01*
X138503665Y-103617378D01*
X138466888Y-103621000D01*
X138393112Y-103621000D01*
X138356335Y-103617378D01*
X138282778Y-103610133D01*
X138141214Y-103567190D01*
X138010748Y-103497454D01*
X137896394Y-103403606D01*
X137802546Y-103289252D01*
X137732810Y-103158786D01*
X137689867Y-103017222D01*
X137675367Y-102870000D01*
X137689867Y-102722778D01*
X137732810Y-102581214D01*
X137802546Y-102450748D01*
X137896394Y-102336394D01*
X138010748Y-102242546D01*
X138141214Y-102172810D01*
X138282778Y-102129867D01*
X138356335Y-102122622D01*
X138393112Y-102119000D01*
X138466888Y-102119000D01*
X138503665Y-102122622D01*
X138503665Y-102122622D01*
G37*
G36*
X90418228Y-100741703D02*
X90573100Y-100805853D01*
X90712481Y-100898985D01*
X90831015Y-101017519D01*
X90924147Y-101156900D01*
X90988297Y-101311772D01*
X91021000Y-101476184D01*
X91021000Y-101643816D01*
X90988297Y-101808228D01*
X90924147Y-101963100D01*
X90831015Y-102102481D01*
X90712481Y-102221015D01*
X90573100Y-102314147D01*
X90418228Y-102378297D01*
X90253816Y-102411000D01*
X90086184Y-102411000D01*
X89921772Y-102378297D01*
X89766900Y-102314147D01*
X89627519Y-102221015D01*
X89508985Y-102102481D01*
X89415853Y-101963100D01*
X89351703Y-101808228D01*
X89319000Y-101643816D01*
X89319000Y-101476184D01*
X89351703Y-101311772D01*
X89415853Y-101156900D01*
X89508985Y-101017519D01*
X89627519Y-100898985D01*
X89766900Y-100805853D01*
X89921772Y-100741703D01*
X90086184Y-100709000D01*
X90253816Y-100709000D01*
X90418228Y-100741703D01*
X90418228Y-100741703D01*
G37*
G36*
X102431719Y-99293520D02*
X102620880Y-99350901D01*
X102795212Y-99444083D01*
X102948015Y-99569485D01*
X103073417Y-99722288D01*
X103166599Y-99896619D01*
X103223980Y-100085780D01*
X103238500Y-100233206D01*
X103238500Y-100426793D01*
X103223980Y-100574219D01*
X103166599Y-100763380D01*
X103073417Y-100937712D01*
X102948015Y-101090515D01*
X102795212Y-101215917D01*
X102620881Y-101309099D01*
X102431720Y-101366480D01*
X102235000Y-101385855D01*
X102038281Y-101366480D01*
X101849120Y-101309099D01*
X101674788Y-101215917D01*
X101521985Y-101090515D01*
X101396583Y-100937712D01*
X101303401Y-100763381D01*
X101246020Y-100574220D01*
X101231500Y-100426794D01*
X101231500Y-100233207D01*
X101246020Y-100085781D01*
X101303401Y-99896620D01*
X101396583Y-99722288D01*
X101521985Y-99569485D01*
X101674788Y-99444083D01*
X101849119Y-99350901D01*
X102038280Y-99293520D01*
X102235000Y-99274145D01*
X102431719Y-99293520D01*
X102431719Y-99293520D01*
G37*
G36*
X104971719Y-99293520D02*
X105160880Y-99350901D01*
X105335212Y-99444083D01*
X105488015Y-99569485D01*
X105613417Y-99722288D01*
X105706599Y-99896619D01*
X105763980Y-100085780D01*
X105778500Y-100233206D01*
X105778500Y-100426793D01*
X105763980Y-100574219D01*
X105706599Y-100763380D01*
X105613417Y-100937712D01*
X105488015Y-101090515D01*
X105335212Y-101215917D01*
X105160881Y-101309099D01*
X104971720Y-101366480D01*
X104775000Y-101385855D01*
X104578281Y-101366480D01*
X104389120Y-101309099D01*
X104214788Y-101215917D01*
X104061985Y-101090515D01*
X103936583Y-100937712D01*
X103843401Y-100763381D01*
X103786020Y-100574220D01*
X103771500Y-100426794D01*
X103771500Y-100233207D01*
X103786020Y-100085781D01*
X103843401Y-99896620D01*
X103936583Y-99722288D01*
X104061985Y-99569485D01*
X104214788Y-99444083D01*
X104389119Y-99350901D01*
X104578280Y-99293520D01*
X104775000Y-99274145D01*
X104971719Y-99293520D01*
X104971719Y-99293520D01*
G37*
G36*
X100698500Y-101381000D02*
X98691500Y-101381000D01*
X98691500Y-99279000D01*
X100698500Y-99279000D01*
X100698500Y-101381000D01*
X100698500Y-101381000D01*
G37*
G36*
X132246821Y-99491313D02*
X132246824Y-99491314D01*
X132246825Y-99491314D01*
X132407239Y-99539975D01*
X132407241Y-99539976D01*
X132407244Y-99539977D01*
X132555078Y-99618995D01*
X132684659Y-99725341D01*
X132791005Y-99854922D01*
X132870023Y-100002756D01*
X132870024Y-100002759D01*
X132870025Y-100002761D01*
X132902841Y-100110941D01*
X132918687Y-100163179D01*
X132935117Y-100330000D01*
X132918687Y-100496821D01*
X132918686Y-100496824D01*
X132918686Y-100496825D01*
X132881690Y-100618786D01*
X132870023Y-100657244D01*
X132791005Y-100805078D01*
X132684659Y-100934659D01*
X132555078Y-101041005D01*
X132407244Y-101120023D01*
X132407241Y-101120024D01*
X132407239Y-101120025D01*
X132246825Y-101168686D01*
X132246824Y-101168686D01*
X132246821Y-101168687D01*
X132121804Y-101181000D01*
X132038196Y-101181000D01*
X131913179Y-101168687D01*
X131913176Y-101168686D01*
X131913175Y-101168686D01*
X131752761Y-101120025D01*
X131752759Y-101120024D01*
X131752756Y-101120023D01*
X131604922Y-101041005D01*
X131475341Y-100934659D01*
X131368995Y-100805078D01*
X131289977Y-100657244D01*
X131278311Y-100618786D01*
X131241314Y-100496825D01*
X131241314Y-100496824D01*
X131241313Y-100496821D01*
X131224883Y-100330000D01*
X131241313Y-100163179D01*
X131257159Y-100110941D01*
X131289975Y-100002761D01*
X131289976Y-100002759D01*
X131289977Y-100002756D01*
X131368995Y-99854922D01*
X131475341Y-99725341D01*
X131604922Y-99618995D01*
X131752756Y-99539977D01*
X131752759Y-99539976D01*
X131752761Y-99539975D01*
X131913175Y-99491314D01*
X131913176Y-99491314D01*
X131913179Y-99491313D01*
X132038196Y-99479000D01*
X132121804Y-99479000D01*
X132246821Y-99491313D01*
X132246821Y-99491313D01*
G37*
G36*
X117006821Y-99491313D02*
X117006824Y-99491314D01*
X117006825Y-99491314D01*
X117167239Y-99539975D01*
X117167241Y-99539976D01*
X117167244Y-99539977D01*
X117315078Y-99618995D01*
X117444659Y-99725341D01*
X117551005Y-99854922D01*
X117630023Y-100002756D01*
X117630024Y-100002759D01*
X117630025Y-100002761D01*
X117662841Y-100110941D01*
X117678687Y-100163179D01*
X117695117Y-100330000D01*
X117678687Y-100496821D01*
X117678686Y-100496824D01*
X117678686Y-100496825D01*
X117641690Y-100618786D01*
X117630023Y-100657244D01*
X117551005Y-100805078D01*
X117444659Y-100934659D01*
X117315078Y-101041005D01*
X117167244Y-101120023D01*
X117167241Y-101120024D01*
X117167239Y-101120025D01*
X117006825Y-101168686D01*
X117006824Y-101168686D01*
X117006821Y-101168687D01*
X116881804Y-101181000D01*
X116798196Y-101181000D01*
X116673179Y-101168687D01*
X116673176Y-101168686D01*
X116673175Y-101168686D01*
X116512761Y-101120025D01*
X116512759Y-101120024D01*
X116512756Y-101120023D01*
X116364922Y-101041005D01*
X116235341Y-100934659D01*
X116128995Y-100805078D01*
X116049977Y-100657244D01*
X116038311Y-100618786D01*
X116001314Y-100496825D01*
X116001314Y-100496824D01*
X116001313Y-100496821D01*
X115984883Y-100330000D01*
X116001313Y-100163179D01*
X116017159Y-100110941D01*
X116049975Y-100002761D01*
X116049976Y-100002759D01*
X116049977Y-100002756D01*
X116128995Y-99854922D01*
X116235341Y-99725341D01*
X116364922Y-99618995D01*
X116512756Y-99539977D01*
X116512759Y-99539976D01*
X116512761Y-99539975D01*
X116673175Y-99491314D01*
X116673176Y-99491314D01*
X116673179Y-99491313D01*
X116798196Y-99479000D01*
X116881804Y-99479000D01*
X117006821Y-99491313D01*
X117006821Y-99491313D01*
G37*
G36*
X146178600Y-99589867D02*
X146269059Y-99607860D01*
X146405732Y-99664472D01*
X146462715Y-99702547D01*
X146528738Y-99746662D01*
X146633338Y-99851262D01*
X146633340Y-99851265D01*
X146715528Y-99974268D01*
X146772140Y-100110941D01*
X146786429Y-100182778D01*
X146801000Y-100256031D01*
X146801000Y-100403969D01*
X146796459Y-100426796D01*
X146772140Y-100549059D01*
X146715528Y-100685732D01*
X146663643Y-100763383D01*
X146633338Y-100808738D01*
X146528738Y-100913338D01*
X146528735Y-100913340D01*
X146405732Y-100995528D01*
X146269059Y-101052140D01*
X146182004Y-101069456D01*
X146123969Y-101081000D01*
X145976031Y-101081000D01*
X145917996Y-101069456D01*
X145830941Y-101052140D01*
X145694268Y-100995528D01*
X145571265Y-100913340D01*
X145571262Y-100913338D01*
X145466662Y-100808738D01*
X145436357Y-100763383D01*
X145384472Y-100685732D01*
X145327860Y-100549059D01*
X145303541Y-100426796D01*
X145299000Y-100403969D01*
X145299000Y-100256031D01*
X145313571Y-100182778D01*
X145327860Y-100110941D01*
X145384472Y-99974268D01*
X145466660Y-99851265D01*
X145466662Y-99851262D01*
X145571262Y-99746662D01*
X145637285Y-99702547D01*
X145694268Y-99664472D01*
X145830941Y-99607860D01*
X145921400Y-99589867D01*
X145976031Y-99579000D01*
X146123969Y-99579000D01*
X146178600Y-99589867D01*
X146178600Y-99589867D01*
G37*
G36*
X138503665Y-99582622D02*
X138577222Y-99589867D01*
X138718786Y-99632810D01*
X138849252Y-99702546D01*
X138963606Y-99796394D01*
X139057454Y-99910748D01*
X139127190Y-100041214D01*
X139170133Y-100182778D01*
X139184633Y-100330000D01*
X139170133Y-100477222D01*
X139127190Y-100618786D01*
X139057454Y-100749252D01*
X138963606Y-100863606D01*
X138849252Y-100957454D01*
X138718786Y-101027190D01*
X138577222Y-101070133D01*
X138503665Y-101077378D01*
X138466888Y-101081000D01*
X138393112Y-101081000D01*
X138356335Y-101077378D01*
X138282778Y-101070133D01*
X138141214Y-101027190D01*
X138010748Y-100957454D01*
X137896394Y-100863606D01*
X137802546Y-100749252D01*
X137732810Y-100618786D01*
X137689867Y-100477222D01*
X137675367Y-100330000D01*
X137689867Y-100182778D01*
X137732810Y-100041214D01*
X137802546Y-99910748D01*
X137896394Y-99796394D01*
X138010748Y-99702546D01*
X138141214Y-99632810D01*
X138282778Y-99589867D01*
X138356335Y-99582622D01*
X138393112Y-99579000D01*
X138466888Y-99579000D01*
X138503665Y-99582622D01*
X138503665Y-99582622D01*
G37*
G36*
X91021000Y-99911000D02*
X89319000Y-99911000D01*
X89319000Y-98209000D01*
X91021000Y-98209000D01*
X91021000Y-99911000D01*
X91021000Y-99911000D01*
G37*
G36*
X117006821Y-96951313D02*
X117006824Y-96951314D01*
X117006825Y-96951314D01*
X117167239Y-96999975D01*
X117167241Y-96999976D01*
X117167244Y-96999977D01*
X117315078Y-97078995D01*
X117444659Y-97185341D01*
X117551005Y-97314922D01*
X117630023Y-97462756D01*
X117630024Y-97462759D01*
X117630025Y-97462761D01*
X117662841Y-97570941D01*
X117678687Y-97623179D01*
X117695117Y-97790000D01*
X117678687Y-97956821D01*
X117678686Y-97956824D01*
X117678686Y-97956825D01*
X117641690Y-98078786D01*
X117630023Y-98117244D01*
X117551005Y-98265078D01*
X117444659Y-98394659D01*
X117315078Y-98501005D01*
X117167244Y-98580023D01*
X117167241Y-98580024D01*
X117167239Y-98580025D01*
X117006825Y-98628686D01*
X117006824Y-98628686D01*
X117006821Y-98628687D01*
X116881804Y-98641000D01*
X116798196Y-98641000D01*
X116673179Y-98628687D01*
X116673176Y-98628686D01*
X116673175Y-98628686D01*
X116512761Y-98580025D01*
X116512759Y-98580024D01*
X116512756Y-98580023D01*
X116364922Y-98501005D01*
X116235341Y-98394659D01*
X116128995Y-98265078D01*
X116049977Y-98117244D01*
X116038311Y-98078786D01*
X116001314Y-97956825D01*
X116001314Y-97956824D01*
X116001313Y-97956821D01*
X115984883Y-97790000D01*
X116001313Y-97623179D01*
X116017159Y-97570941D01*
X116049975Y-97462761D01*
X116049976Y-97462759D01*
X116049977Y-97462756D01*
X116128995Y-97314922D01*
X116235341Y-97185341D01*
X116364922Y-97078995D01*
X116512756Y-96999977D01*
X116512759Y-96999976D01*
X116512761Y-96999975D01*
X116673175Y-96951314D01*
X116673176Y-96951314D01*
X116673179Y-96951313D01*
X116798196Y-96939000D01*
X116881804Y-96939000D01*
X117006821Y-96951313D01*
X117006821Y-96951313D01*
G37*
G36*
X132246821Y-96951313D02*
X132246824Y-96951314D01*
X132246825Y-96951314D01*
X132407239Y-96999975D01*
X132407241Y-96999976D01*
X132407244Y-96999977D01*
X132555078Y-97078995D01*
X132684659Y-97185341D01*
X132791005Y-97314922D01*
X132870023Y-97462756D01*
X132870024Y-97462759D01*
X132870025Y-97462761D01*
X132902841Y-97570941D01*
X132918687Y-97623179D01*
X132935117Y-97790000D01*
X132918687Y-97956821D01*
X132918686Y-97956824D01*
X132918686Y-97956825D01*
X132881690Y-98078786D01*
X132870023Y-98117244D01*
X132791005Y-98265078D01*
X132684659Y-98394659D01*
X132555078Y-98501005D01*
X132407244Y-98580023D01*
X132407241Y-98580024D01*
X132407239Y-98580025D01*
X132246825Y-98628686D01*
X132246824Y-98628686D01*
X132246821Y-98628687D01*
X132121804Y-98641000D01*
X132038196Y-98641000D01*
X131913179Y-98628687D01*
X131913176Y-98628686D01*
X131913175Y-98628686D01*
X131752761Y-98580025D01*
X131752759Y-98580024D01*
X131752756Y-98580023D01*
X131604922Y-98501005D01*
X131475341Y-98394659D01*
X131368995Y-98265078D01*
X131289977Y-98117244D01*
X131278311Y-98078786D01*
X131241314Y-97956825D01*
X131241314Y-97956824D01*
X131241313Y-97956821D01*
X131224883Y-97790000D01*
X131241313Y-97623179D01*
X131257159Y-97570941D01*
X131289975Y-97462761D01*
X131289976Y-97462759D01*
X131289977Y-97462756D01*
X131368995Y-97314922D01*
X131475341Y-97185341D01*
X131604922Y-97078995D01*
X131752756Y-96999977D01*
X131752759Y-96999976D01*
X131752761Y-96999975D01*
X131913175Y-96951314D01*
X131913176Y-96951314D01*
X131913179Y-96951313D01*
X132038196Y-96939000D01*
X132121804Y-96939000D01*
X132246821Y-96951313D01*
X132246821Y-96951313D01*
G37*
G36*
X156458228Y-96971703D02*
X156613100Y-97035853D01*
X156752481Y-97128985D01*
X156871015Y-97247519D01*
X156964147Y-97386900D01*
X157028297Y-97541772D01*
X157061000Y-97706184D01*
X157061000Y-97873816D01*
X157028297Y-98038228D01*
X156964147Y-98193100D01*
X156871015Y-98332481D01*
X156752481Y-98451015D01*
X156613100Y-98544147D01*
X156458228Y-98608297D01*
X156293816Y-98641000D01*
X156126184Y-98641000D01*
X155961772Y-98608297D01*
X155806900Y-98544147D01*
X155667519Y-98451015D01*
X155548985Y-98332481D01*
X155455853Y-98193100D01*
X155391703Y-98038228D01*
X155359000Y-97873816D01*
X155359000Y-97706184D01*
X155391703Y-97541772D01*
X155455853Y-97386900D01*
X155548985Y-97247519D01*
X155667519Y-97128985D01*
X155806900Y-97035853D01*
X155961772Y-96971703D01*
X156126184Y-96939000D01*
X156293816Y-96939000D01*
X156458228Y-96971703D01*
X156458228Y-96971703D01*
G37*
G36*
X151378228Y-96971703D02*
X151533100Y-97035853D01*
X151672481Y-97128985D01*
X151791015Y-97247519D01*
X151884147Y-97386900D01*
X151948297Y-97541772D01*
X151981000Y-97706184D01*
X151981000Y-97873816D01*
X151948297Y-98038228D01*
X151884147Y-98193100D01*
X151791015Y-98332481D01*
X151672481Y-98451015D01*
X151533100Y-98544147D01*
X151378228Y-98608297D01*
X151213816Y-98641000D01*
X151046184Y-98641000D01*
X150881772Y-98608297D01*
X150726900Y-98544147D01*
X150587519Y-98451015D01*
X150468985Y-98332481D01*
X150375853Y-98193100D01*
X150311703Y-98038228D01*
X150279000Y-97873816D01*
X150279000Y-97706184D01*
X150311703Y-97541772D01*
X150375853Y-97386900D01*
X150468985Y-97247519D01*
X150587519Y-97128985D01*
X150726900Y-97035853D01*
X150881772Y-96971703D01*
X151046184Y-96939000D01*
X151213816Y-96939000D01*
X151378228Y-96971703D01*
X151378228Y-96971703D01*
G37*
G36*
X138503665Y-97042622D02*
X138577222Y-97049867D01*
X138718786Y-97092810D01*
X138849252Y-97162546D01*
X138963606Y-97256394D01*
X139057454Y-97370748D01*
X139127190Y-97501214D01*
X139170133Y-97642778D01*
X139184633Y-97790000D01*
X139170133Y-97937222D01*
X139127190Y-98078786D01*
X139057454Y-98209252D01*
X138963606Y-98323606D01*
X138849252Y-98417454D01*
X138718786Y-98487190D01*
X138577222Y-98530133D01*
X138503665Y-98537378D01*
X138466888Y-98541000D01*
X138393112Y-98541000D01*
X138356335Y-98537378D01*
X138282778Y-98530133D01*
X138141214Y-98487190D01*
X138010748Y-98417454D01*
X137896394Y-98323606D01*
X137802546Y-98209252D01*
X137732810Y-98078786D01*
X137689867Y-97937222D01*
X137675367Y-97790000D01*
X137689867Y-97642778D01*
X137732810Y-97501214D01*
X137802546Y-97370748D01*
X137896394Y-97256394D01*
X138010748Y-97162546D01*
X138141214Y-97092810D01*
X138282778Y-97049867D01*
X138356335Y-97042622D01*
X138393112Y-97039000D01*
X138466888Y-97039000D01*
X138503665Y-97042622D01*
X138503665Y-97042622D01*
G37*
G36*
X146178600Y-97049867D02*
X146269059Y-97067860D01*
X146405732Y-97124472D01*
X146462715Y-97162547D01*
X146528738Y-97206662D01*
X146633338Y-97311262D01*
X146633340Y-97311265D01*
X146715528Y-97434268D01*
X146772140Y-97570941D01*
X146801000Y-97716033D01*
X146801000Y-97863967D01*
X146772140Y-98009059D01*
X146715528Y-98145732D01*
X146635784Y-98265078D01*
X146633338Y-98268738D01*
X146528738Y-98373338D01*
X146528735Y-98373340D01*
X146405732Y-98455528D01*
X146269059Y-98512140D01*
X146182004Y-98529456D01*
X146123969Y-98541000D01*
X145976031Y-98541000D01*
X145917996Y-98529456D01*
X145830941Y-98512140D01*
X145694268Y-98455528D01*
X145571265Y-98373340D01*
X145571262Y-98373338D01*
X145466662Y-98268738D01*
X145464216Y-98265078D01*
X145384472Y-98145732D01*
X145327860Y-98009059D01*
X145299000Y-97863967D01*
X145299000Y-97716033D01*
X145327860Y-97570941D01*
X145384472Y-97434268D01*
X145466660Y-97311265D01*
X145466662Y-97311262D01*
X145571262Y-97206662D01*
X145637285Y-97162547D01*
X145694268Y-97124472D01*
X145830941Y-97067860D01*
X145921400Y-97049867D01*
X145976031Y-97039000D01*
X146123969Y-97039000D01*
X146178600Y-97049867D01*
X146178600Y-97049867D01*
G37*
G36*
X117006821Y-94411313D02*
X117006824Y-94411314D01*
X117006825Y-94411314D01*
X117167239Y-94459975D01*
X117167241Y-94459976D01*
X117167244Y-94459977D01*
X117315078Y-94538995D01*
X117444659Y-94645341D01*
X117551005Y-94774922D01*
X117630023Y-94922756D01*
X117630024Y-94922759D01*
X117630025Y-94922761D01*
X117662841Y-95030941D01*
X117678687Y-95083179D01*
X117695117Y-95250000D01*
X117678687Y-95416821D01*
X117678686Y-95416824D01*
X117678686Y-95416825D01*
X117641690Y-95538786D01*
X117630023Y-95577244D01*
X117551005Y-95725078D01*
X117444659Y-95854659D01*
X117315078Y-95961005D01*
X117167244Y-96040023D01*
X117167241Y-96040024D01*
X117167239Y-96040025D01*
X117006825Y-96088686D01*
X117006824Y-96088686D01*
X117006821Y-96088687D01*
X116881804Y-96101000D01*
X116798196Y-96101000D01*
X116673179Y-96088687D01*
X116673176Y-96088686D01*
X116673175Y-96088686D01*
X116512761Y-96040025D01*
X116512759Y-96040024D01*
X116512756Y-96040023D01*
X116364922Y-95961005D01*
X116235341Y-95854659D01*
X116128995Y-95725078D01*
X116049977Y-95577244D01*
X116038311Y-95538786D01*
X116001314Y-95416825D01*
X116001314Y-95416824D01*
X116001313Y-95416821D01*
X115984883Y-95250000D01*
X116001313Y-95083179D01*
X116017159Y-95030941D01*
X116049975Y-94922761D01*
X116049976Y-94922759D01*
X116049977Y-94922756D01*
X116128995Y-94774922D01*
X116235341Y-94645341D01*
X116364922Y-94538995D01*
X116512756Y-94459977D01*
X116512759Y-94459976D01*
X116512761Y-94459975D01*
X116673175Y-94411314D01*
X116673176Y-94411314D01*
X116673179Y-94411313D01*
X116798196Y-94399000D01*
X116881804Y-94399000D01*
X117006821Y-94411313D01*
X117006821Y-94411313D01*
G37*
G36*
X156458228Y-94431703D02*
X156613100Y-94495853D01*
X156752481Y-94588985D01*
X156871015Y-94707519D01*
X156964147Y-94846900D01*
X157028297Y-95001772D01*
X157061000Y-95166184D01*
X157061000Y-95333816D01*
X157028297Y-95498228D01*
X156964147Y-95653100D01*
X156871015Y-95792481D01*
X156752481Y-95911015D01*
X156613100Y-96004147D01*
X156458228Y-96068297D01*
X156293816Y-96101000D01*
X156126184Y-96101000D01*
X155961772Y-96068297D01*
X155806900Y-96004147D01*
X155667519Y-95911015D01*
X155548985Y-95792481D01*
X155455853Y-95653100D01*
X155391703Y-95498228D01*
X155359000Y-95333816D01*
X155359000Y-95166184D01*
X155391703Y-95001772D01*
X155455853Y-94846900D01*
X155548985Y-94707519D01*
X155667519Y-94588985D01*
X155806900Y-94495853D01*
X155961772Y-94431703D01*
X156126184Y-94399000D01*
X156293816Y-94399000D01*
X156458228Y-94431703D01*
X156458228Y-94431703D01*
G37*
G36*
X132246821Y-94411313D02*
X132246824Y-94411314D01*
X132246825Y-94411314D01*
X132407239Y-94459975D01*
X132407241Y-94459976D01*
X132407244Y-94459977D01*
X132555078Y-94538995D01*
X132684659Y-94645341D01*
X132791005Y-94774922D01*
X132870023Y-94922756D01*
X132870024Y-94922759D01*
X132870025Y-94922761D01*
X132902841Y-95030941D01*
X132918687Y-95083179D01*
X132935117Y-95250000D01*
X132918687Y-95416821D01*
X132918686Y-95416824D01*
X132918686Y-95416825D01*
X132881690Y-95538786D01*
X132870023Y-95577244D01*
X132791005Y-95725078D01*
X132684659Y-95854659D01*
X132555078Y-95961005D01*
X132407244Y-96040023D01*
X132407241Y-96040024D01*
X132407239Y-96040025D01*
X132246825Y-96088686D01*
X132246824Y-96088686D01*
X132246821Y-96088687D01*
X132121804Y-96101000D01*
X132038196Y-96101000D01*
X131913179Y-96088687D01*
X131913176Y-96088686D01*
X131913175Y-96088686D01*
X131752761Y-96040025D01*
X131752759Y-96040024D01*
X131752756Y-96040023D01*
X131604922Y-95961005D01*
X131475341Y-95854659D01*
X131368995Y-95725078D01*
X131289977Y-95577244D01*
X131278311Y-95538786D01*
X131241314Y-95416825D01*
X131241314Y-95416824D01*
X131241313Y-95416821D01*
X131224883Y-95250000D01*
X131241313Y-95083179D01*
X131257159Y-95030941D01*
X131289975Y-94922761D01*
X131289976Y-94922759D01*
X131289977Y-94922756D01*
X131368995Y-94774922D01*
X131475341Y-94645341D01*
X131604922Y-94538995D01*
X131752756Y-94459977D01*
X131752759Y-94459976D01*
X131752761Y-94459975D01*
X131913175Y-94411314D01*
X131913176Y-94411314D01*
X131913179Y-94411313D01*
X132038196Y-94399000D01*
X132121804Y-94399000D01*
X132246821Y-94411313D01*
X132246821Y-94411313D01*
G37*
G36*
X151378228Y-94431703D02*
X151533100Y-94495853D01*
X151672481Y-94588985D01*
X151791015Y-94707519D01*
X151884147Y-94846900D01*
X151948297Y-95001772D01*
X151981000Y-95166184D01*
X151981000Y-95333816D01*
X151948297Y-95498228D01*
X151884147Y-95653100D01*
X151791015Y-95792481D01*
X151672481Y-95911015D01*
X151533100Y-96004147D01*
X151378228Y-96068297D01*
X151213816Y-96101000D01*
X151046184Y-96101000D01*
X150881772Y-96068297D01*
X150726900Y-96004147D01*
X150587519Y-95911015D01*
X150468985Y-95792481D01*
X150375853Y-95653100D01*
X150311703Y-95498228D01*
X150279000Y-95333816D01*
X150279000Y-95166184D01*
X150311703Y-95001772D01*
X150375853Y-94846900D01*
X150468985Y-94707519D01*
X150587519Y-94588985D01*
X150726900Y-94495853D01*
X150881772Y-94431703D01*
X151046184Y-94399000D01*
X151213816Y-94399000D01*
X151378228Y-94431703D01*
X151378228Y-94431703D01*
G37*
G36*
X146178600Y-94509867D02*
X146269059Y-94527860D01*
X146405732Y-94584472D01*
X146462715Y-94622547D01*
X146528738Y-94666662D01*
X146633338Y-94771262D01*
X146633340Y-94771265D01*
X146715528Y-94894268D01*
X146772140Y-95030941D01*
X146801000Y-95176033D01*
X146801000Y-95323967D01*
X146772140Y-95469059D01*
X146715528Y-95605732D01*
X146635784Y-95725078D01*
X146633338Y-95728738D01*
X146528738Y-95833338D01*
X146528735Y-95833340D01*
X146405732Y-95915528D01*
X146269059Y-95972140D01*
X146182004Y-95989456D01*
X146123969Y-96001000D01*
X145976031Y-96001000D01*
X145917996Y-95989456D01*
X145830941Y-95972140D01*
X145694268Y-95915528D01*
X145571265Y-95833340D01*
X145571262Y-95833338D01*
X145466662Y-95728738D01*
X145464216Y-95725078D01*
X145384472Y-95605732D01*
X145327860Y-95469059D01*
X145299000Y-95323967D01*
X145299000Y-95176033D01*
X145327860Y-95030941D01*
X145384472Y-94894268D01*
X145466660Y-94771265D01*
X145466662Y-94771262D01*
X145571262Y-94666662D01*
X145637285Y-94622547D01*
X145694268Y-94584472D01*
X145830941Y-94527860D01*
X145921400Y-94509867D01*
X145976031Y-94499000D01*
X146123969Y-94499000D01*
X146178600Y-94509867D01*
X146178600Y-94509867D01*
G37*
G36*
X138503665Y-94502622D02*
X138577222Y-94509867D01*
X138718786Y-94552810D01*
X138849252Y-94622546D01*
X138963606Y-94716394D01*
X139057454Y-94830748D01*
X139127190Y-94961214D01*
X139170133Y-95102778D01*
X139184633Y-95250000D01*
X139170133Y-95397222D01*
X139127190Y-95538786D01*
X139057454Y-95669252D01*
X138963606Y-95783606D01*
X138849252Y-95877454D01*
X138718786Y-95947190D01*
X138577222Y-95990133D01*
X138503665Y-95997378D01*
X138466888Y-96001000D01*
X138393112Y-96001000D01*
X138356335Y-95997378D01*
X138282778Y-95990133D01*
X138141214Y-95947190D01*
X138010748Y-95877454D01*
X137896394Y-95783606D01*
X137802546Y-95669252D01*
X137732810Y-95538786D01*
X137689867Y-95397222D01*
X137675367Y-95250000D01*
X137689867Y-95102778D01*
X137732810Y-94961214D01*
X137802546Y-94830748D01*
X137896394Y-94716394D01*
X138010748Y-94622546D01*
X138141214Y-94552810D01*
X138282778Y-94509867D01*
X138356335Y-94502622D01*
X138393112Y-94499000D01*
X138466888Y-94499000D01*
X138503665Y-94502622D01*
X138503665Y-94502622D01*
G37*
G36*
X97186366Y-90545695D02*
X97343458Y-90593348D01*
X97488230Y-90670731D01*
X97615128Y-90774872D01*
X97719269Y-90901770D01*
X97796652Y-91046542D01*
X97844305Y-91203634D01*
X97861000Y-91373140D01*
X97861000Y-93286860D01*
X97844305Y-93456366D01*
X97796652Y-93613458D01*
X97719269Y-93758230D01*
X97615128Y-93885128D01*
X97488230Y-93989269D01*
X97343458Y-94066652D01*
X97186366Y-94114305D01*
X97016860Y-94131000D01*
X95103140Y-94131000D01*
X94933634Y-94114305D01*
X94776542Y-94066652D01*
X94631770Y-93989269D01*
X94504872Y-93885128D01*
X94400731Y-93758230D01*
X94323348Y-93613458D01*
X94275695Y-93456366D01*
X94259000Y-93286860D01*
X94259000Y-91373140D01*
X94275695Y-91203634D01*
X94323348Y-91046542D01*
X94400731Y-90901770D01*
X94504872Y-90774872D01*
X94631770Y-90670731D01*
X94776542Y-90593348D01*
X94933634Y-90545695D01*
X95103140Y-90529000D01*
X97016860Y-90529000D01*
X97186366Y-90545695D01*
X97186366Y-90545695D01*
G37*
G36*
X132246821Y-91871313D02*
X132246824Y-91871314D01*
X132246825Y-91871314D01*
X132407239Y-91919975D01*
X132407241Y-91919976D01*
X132407244Y-91919977D01*
X132555078Y-91998995D01*
X132684659Y-92105341D01*
X132791005Y-92234922D01*
X132870023Y-92382756D01*
X132870024Y-92382759D01*
X132870025Y-92382761D01*
X132918686Y-92543175D01*
X132918687Y-92543179D01*
X132935117Y-92710000D01*
X132918687Y-92876821D01*
X132918686Y-92876824D01*
X132918686Y-92876825D01*
X132893993Y-92958228D01*
X132870023Y-93037244D01*
X132791005Y-93185078D01*
X132684659Y-93314659D01*
X132555078Y-93421005D01*
X132407244Y-93500023D01*
X132407241Y-93500024D01*
X132407239Y-93500025D01*
X132246825Y-93548686D01*
X132246824Y-93548686D01*
X132246821Y-93548687D01*
X132121804Y-93561000D01*
X132038196Y-93561000D01*
X131913179Y-93548687D01*
X131913176Y-93548686D01*
X131913175Y-93548686D01*
X131752761Y-93500025D01*
X131752759Y-93500024D01*
X131752756Y-93500023D01*
X131604922Y-93421005D01*
X131475341Y-93314659D01*
X131368995Y-93185078D01*
X131289977Y-93037244D01*
X131266008Y-92958228D01*
X131241314Y-92876825D01*
X131241314Y-92876824D01*
X131241313Y-92876821D01*
X131224883Y-92710000D01*
X131241313Y-92543179D01*
X131241314Y-92543175D01*
X131289975Y-92382761D01*
X131289976Y-92382759D01*
X131289977Y-92382756D01*
X131368995Y-92234922D01*
X131475341Y-92105341D01*
X131604922Y-91998995D01*
X131752756Y-91919977D01*
X131752759Y-91919976D01*
X131752761Y-91919975D01*
X131913175Y-91871314D01*
X131913176Y-91871314D01*
X131913179Y-91871313D01*
X132038196Y-91859000D01*
X132121804Y-91859000D01*
X132246821Y-91871313D01*
X132246821Y-91871313D01*
G37*
G36*
X151378228Y-91891703D02*
X151533100Y-91955853D01*
X151672481Y-92048985D01*
X151791015Y-92167519D01*
X151884147Y-92306900D01*
X151948297Y-92461772D01*
X151981000Y-92626184D01*
X151981000Y-92793816D01*
X151948297Y-92958228D01*
X151884147Y-93113100D01*
X151791015Y-93252481D01*
X151672481Y-93371015D01*
X151533100Y-93464147D01*
X151378228Y-93528297D01*
X151213816Y-93561000D01*
X151046184Y-93561000D01*
X150881772Y-93528297D01*
X150726900Y-93464147D01*
X150587519Y-93371015D01*
X150468985Y-93252481D01*
X150375853Y-93113100D01*
X150311703Y-92958228D01*
X150279000Y-92793816D01*
X150279000Y-92626184D01*
X150311703Y-92461772D01*
X150375853Y-92306900D01*
X150468985Y-92167519D01*
X150587519Y-92048985D01*
X150726900Y-91955853D01*
X150881772Y-91891703D01*
X151046184Y-91859000D01*
X151213816Y-91859000D01*
X151378228Y-91891703D01*
X151378228Y-91891703D01*
G37*
G36*
X117006821Y-91871313D02*
X117006824Y-91871314D01*
X117006825Y-91871314D01*
X117167239Y-91919975D01*
X117167241Y-91919976D01*
X117167244Y-91919977D01*
X117315078Y-91998995D01*
X117444659Y-92105341D01*
X117551005Y-92234922D01*
X117630023Y-92382756D01*
X117630024Y-92382759D01*
X117630025Y-92382761D01*
X117678686Y-92543175D01*
X117678687Y-92543179D01*
X117695117Y-92710000D01*
X117678687Y-92876821D01*
X117678686Y-92876824D01*
X117678686Y-92876825D01*
X117653993Y-92958228D01*
X117630023Y-93037244D01*
X117551005Y-93185078D01*
X117444659Y-93314659D01*
X117315078Y-93421005D01*
X117167244Y-93500023D01*
X117167241Y-93500024D01*
X117167239Y-93500025D01*
X117006825Y-93548686D01*
X117006824Y-93548686D01*
X117006821Y-93548687D01*
X116881804Y-93561000D01*
X116798196Y-93561000D01*
X116673179Y-93548687D01*
X116673176Y-93548686D01*
X116673175Y-93548686D01*
X116512761Y-93500025D01*
X116512759Y-93500024D01*
X116512756Y-93500023D01*
X116364922Y-93421005D01*
X116235341Y-93314659D01*
X116128995Y-93185078D01*
X116049977Y-93037244D01*
X116026008Y-92958228D01*
X116001314Y-92876825D01*
X116001314Y-92876824D01*
X116001313Y-92876821D01*
X115984883Y-92710000D01*
X116001313Y-92543179D01*
X116001314Y-92543175D01*
X116049975Y-92382761D01*
X116049976Y-92382759D01*
X116049977Y-92382756D01*
X116128995Y-92234922D01*
X116235341Y-92105341D01*
X116364922Y-91998995D01*
X116512756Y-91919977D01*
X116512759Y-91919976D01*
X116512761Y-91919975D01*
X116673175Y-91871314D01*
X116673176Y-91871314D01*
X116673179Y-91871313D01*
X116798196Y-91859000D01*
X116881804Y-91859000D01*
X117006821Y-91871313D01*
X117006821Y-91871313D01*
G37*
G36*
X156458228Y-91891703D02*
X156613100Y-91955853D01*
X156752481Y-92048985D01*
X156871015Y-92167519D01*
X156964147Y-92306900D01*
X157028297Y-92461772D01*
X157061000Y-92626184D01*
X157061000Y-92793816D01*
X157028297Y-92958228D01*
X156964147Y-93113100D01*
X156871015Y-93252481D01*
X156752481Y-93371015D01*
X156613100Y-93464147D01*
X156458228Y-93528297D01*
X156293816Y-93561000D01*
X156126184Y-93561000D01*
X155961772Y-93528297D01*
X155806900Y-93464147D01*
X155667519Y-93371015D01*
X155548985Y-93252481D01*
X155455853Y-93113100D01*
X155391703Y-92958228D01*
X155359000Y-92793816D01*
X155359000Y-92626184D01*
X155391703Y-92461772D01*
X155455853Y-92306900D01*
X155548985Y-92167519D01*
X155667519Y-92048985D01*
X155806900Y-91955853D01*
X155961772Y-91891703D01*
X156126184Y-91859000D01*
X156293816Y-91859000D01*
X156458228Y-91891703D01*
X156458228Y-91891703D01*
G37*
G36*
X132246821Y-89331313D02*
X132246824Y-89331314D01*
X132246825Y-89331314D01*
X132407239Y-89379975D01*
X132407241Y-89379976D01*
X132407244Y-89379977D01*
X132555078Y-89458995D01*
X132684659Y-89565341D01*
X132791005Y-89694922D01*
X132870023Y-89842756D01*
X132870024Y-89842759D01*
X132870025Y-89842761D01*
X132918686Y-90003175D01*
X132918687Y-90003179D01*
X132935117Y-90170000D01*
X132918687Y-90336821D01*
X132918686Y-90336824D01*
X132918686Y-90336825D01*
X132893993Y-90418228D01*
X132870023Y-90497244D01*
X132791005Y-90645078D01*
X132684659Y-90774659D01*
X132555078Y-90881005D01*
X132407244Y-90960023D01*
X132407241Y-90960024D01*
X132407239Y-90960025D01*
X132246825Y-91008686D01*
X132246824Y-91008686D01*
X132246821Y-91008687D01*
X132121804Y-91021000D01*
X132038196Y-91021000D01*
X131913179Y-91008687D01*
X131913176Y-91008686D01*
X131913175Y-91008686D01*
X131752761Y-90960025D01*
X131752759Y-90960024D01*
X131752756Y-90960023D01*
X131604922Y-90881005D01*
X131475341Y-90774659D01*
X131368995Y-90645078D01*
X131289977Y-90497244D01*
X131266008Y-90418228D01*
X131241314Y-90336825D01*
X131241314Y-90336824D01*
X131241313Y-90336821D01*
X131224883Y-90170000D01*
X131241313Y-90003179D01*
X131241314Y-90003175D01*
X131289975Y-89842761D01*
X131289976Y-89842759D01*
X131289977Y-89842756D01*
X131368995Y-89694922D01*
X131475341Y-89565341D01*
X131604922Y-89458995D01*
X131752756Y-89379977D01*
X131752759Y-89379976D01*
X131752761Y-89379975D01*
X131913175Y-89331314D01*
X131913176Y-89331314D01*
X131913179Y-89331313D01*
X132038196Y-89319000D01*
X132121804Y-89319000D01*
X132246821Y-89331313D01*
X132246821Y-89331313D01*
G37*
G36*
X151378228Y-89351703D02*
X151533100Y-89415853D01*
X151672481Y-89508985D01*
X151791015Y-89627519D01*
X151884147Y-89766900D01*
X151948297Y-89921772D01*
X151981000Y-90086184D01*
X151981000Y-90253816D01*
X151948297Y-90418228D01*
X151884147Y-90573100D01*
X151791015Y-90712481D01*
X151672481Y-90831015D01*
X151533100Y-90924147D01*
X151378228Y-90988297D01*
X151213816Y-91021000D01*
X151046184Y-91021000D01*
X150881772Y-90988297D01*
X150726900Y-90924147D01*
X150587519Y-90831015D01*
X150468985Y-90712481D01*
X150375853Y-90573100D01*
X150311703Y-90418228D01*
X150279000Y-90253816D01*
X150279000Y-90086184D01*
X150311703Y-89921772D01*
X150375853Y-89766900D01*
X150468985Y-89627519D01*
X150587519Y-89508985D01*
X150726900Y-89415853D01*
X150881772Y-89351703D01*
X151046184Y-89319000D01*
X151213816Y-89319000D01*
X151378228Y-89351703D01*
X151378228Y-89351703D01*
G37*
G36*
X117006821Y-89331313D02*
X117006824Y-89331314D01*
X117006825Y-89331314D01*
X117167239Y-89379975D01*
X117167241Y-89379976D01*
X117167244Y-89379977D01*
X117315078Y-89458995D01*
X117444659Y-89565341D01*
X117551005Y-89694922D01*
X117630023Y-89842756D01*
X117630024Y-89842759D01*
X117630025Y-89842761D01*
X117678686Y-90003175D01*
X117678687Y-90003179D01*
X117695117Y-90170000D01*
X117678687Y-90336821D01*
X117678686Y-90336824D01*
X117678686Y-90336825D01*
X117653993Y-90418228D01*
X117630023Y-90497244D01*
X117551005Y-90645078D01*
X117444659Y-90774659D01*
X117315078Y-90881005D01*
X117167244Y-90960023D01*
X117167241Y-90960024D01*
X117167239Y-90960025D01*
X117006825Y-91008686D01*
X117006824Y-91008686D01*
X117006821Y-91008687D01*
X116881804Y-91021000D01*
X116798196Y-91021000D01*
X116673179Y-91008687D01*
X116673176Y-91008686D01*
X116673175Y-91008686D01*
X116512761Y-90960025D01*
X116512759Y-90960024D01*
X116512756Y-90960023D01*
X116364922Y-90881005D01*
X116235341Y-90774659D01*
X116128995Y-90645078D01*
X116049977Y-90497244D01*
X116026008Y-90418228D01*
X116001314Y-90336825D01*
X116001314Y-90336824D01*
X116001313Y-90336821D01*
X115984883Y-90170000D01*
X116001313Y-90003179D01*
X116001314Y-90003175D01*
X116049975Y-89842761D01*
X116049976Y-89842759D01*
X116049977Y-89842756D01*
X116128995Y-89694922D01*
X116235341Y-89565341D01*
X116364922Y-89458995D01*
X116512756Y-89379977D01*
X116512759Y-89379976D01*
X116512761Y-89379975D01*
X116673175Y-89331314D01*
X116673176Y-89331314D01*
X116673179Y-89331313D01*
X116798196Y-89319000D01*
X116881804Y-89319000D01*
X117006821Y-89331313D01*
X117006821Y-89331313D01*
G37*
G36*
X156458228Y-89351703D02*
X156613100Y-89415853D01*
X156752481Y-89508985D01*
X156871015Y-89627519D01*
X156964147Y-89766900D01*
X157028297Y-89921772D01*
X157061000Y-90086184D01*
X157061000Y-90253816D01*
X157028297Y-90418228D01*
X156964147Y-90573100D01*
X156871015Y-90712481D01*
X156752481Y-90831015D01*
X156613100Y-90924147D01*
X156458228Y-90988297D01*
X156293816Y-91021000D01*
X156126184Y-91021000D01*
X155961772Y-90988297D01*
X155806900Y-90924147D01*
X155667519Y-90831015D01*
X155548985Y-90712481D01*
X155455853Y-90573100D01*
X155391703Y-90418228D01*
X155359000Y-90253816D01*
X155359000Y-90086184D01*
X155391703Y-89921772D01*
X155455853Y-89766900D01*
X155548985Y-89627519D01*
X155667519Y-89508985D01*
X155806900Y-89415853D01*
X155961772Y-89351703D01*
X156126184Y-89319000D01*
X156293816Y-89319000D01*
X156458228Y-89351703D01*
X156458228Y-89351703D01*
G37*
G36*
X109344180Y-87755662D02*
X109445635Y-87765654D01*
X109662600Y-87831470D01*
X109662602Y-87831471D01*
X109662605Y-87831472D01*
X109862556Y-87938347D01*
X110037818Y-88082182D01*
X110181653Y-88257444D01*
X110288528Y-88457395D01*
X110288529Y-88457398D01*
X110288530Y-88457400D01*
X110354346Y-88674365D01*
X110376569Y-88900000D01*
X110354346Y-89125635D01*
X110288530Y-89342600D01*
X110288528Y-89342605D01*
X110181653Y-89542556D01*
X110037818Y-89717818D01*
X109862556Y-89861653D01*
X109662605Y-89968528D01*
X109662602Y-89968529D01*
X109662600Y-89968530D01*
X109445635Y-90034346D01*
X109344180Y-90044338D01*
X109276545Y-90051000D01*
X109163455Y-90051000D01*
X109095820Y-90044338D01*
X108994365Y-90034346D01*
X108777400Y-89968530D01*
X108777398Y-89968529D01*
X108777395Y-89968528D01*
X108577444Y-89861653D01*
X108402182Y-89717818D01*
X108258347Y-89542556D01*
X108151472Y-89342605D01*
X108151470Y-89342600D01*
X108085654Y-89125635D01*
X108063431Y-88900000D01*
X108085654Y-88674365D01*
X108151470Y-88457400D01*
X108151471Y-88457398D01*
X108151472Y-88457395D01*
X108258347Y-88257444D01*
X108402182Y-88082182D01*
X108577444Y-87938347D01*
X108777395Y-87831472D01*
X108777398Y-87831471D01*
X108777400Y-87831470D01*
X108994365Y-87765654D01*
X109095820Y-87755662D01*
X109163455Y-87749000D01*
X109276545Y-87749000D01*
X109344180Y-87755662D01*
X109344180Y-87755662D01*
G37*
G36*
X94036978Y-85843293D02*
X94170627Y-85883835D01*
X94293782Y-85949662D01*
X94401739Y-86038261D01*
X94490338Y-86146218D01*
X94556165Y-86269373D01*
X94596707Y-86403022D01*
X94611000Y-86548140D01*
X94611000Y-88711860D01*
X94596707Y-88856978D01*
X94556165Y-88990627D01*
X94490338Y-89113782D01*
X94401739Y-89221739D01*
X94293782Y-89310338D01*
X94170627Y-89376165D01*
X94036978Y-89416707D01*
X93891860Y-89431000D01*
X92228140Y-89431000D01*
X92083022Y-89416707D01*
X91949373Y-89376165D01*
X91826218Y-89310338D01*
X91718261Y-89221739D01*
X91629662Y-89113782D01*
X91563835Y-88990627D01*
X91523293Y-88856978D01*
X91509000Y-88711860D01*
X91509000Y-86548140D01*
X91523293Y-86403022D01*
X91563835Y-86269373D01*
X91629662Y-86146218D01*
X91718261Y-86038261D01*
X91826218Y-85949662D01*
X91949373Y-85883835D01*
X92083022Y-85843293D01*
X92228140Y-85829000D01*
X93891860Y-85829000D01*
X94036978Y-85843293D01*
X94036978Y-85843293D01*
G37*
G36*
X100861000Y-89431000D02*
X97259000Y-89431000D01*
X97259000Y-85829000D01*
X100861000Y-85829000D01*
X100861000Y-89431000D01*
X100861000Y-89431000D01*
G37*
G36*
X151981000Y-88481000D02*
X150279000Y-88481000D01*
X150279000Y-86779000D01*
X151981000Y-86779000D01*
X151981000Y-88481000D01*
X151981000Y-88481000D01*
G37*
G36*
X156458228Y-86811703D02*
X156613100Y-86875853D01*
X156752481Y-86968985D01*
X156871015Y-87087519D01*
X156964147Y-87226900D01*
X157028297Y-87381772D01*
X157061000Y-87546184D01*
X157061000Y-87713816D01*
X157028297Y-87878228D01*
X156964147Y-88033100D01*
X156871015Y-88172481D01*
X156752481Y-88291015D01*
X156613100Y-88384147D01*
X156458228Y-88448297D01*
X156293816Y-88481000D01*
X156126184Y-88481000D01*
X155961772Y-88448297D01*
X155806900Y-88384147D01*
X155667519Y-88291015D01*
X155548985Y-88172481D01*
X155455853Y-88033100D01*
X155391703Y-87878228D01*
X155359000Y-87713816D01*
X155359000Y-87546184D01*
X155391703Y-87381772D01*
X155455853Y-87226900D01*
X155548985Y-87087519D01*
X155667519Y-86968985D01*
X155806900Y-86875853D01*
X155961772Y-86811703D01*
X156126184Y-86779000D01*
X156293816Y-86779000D01*
X156458228Y-86811703D01*
X156458228Y-86811703D01*
G37*
G36*
X117006821Y-86791313D02*
X117006824Y-86791314D01*
X117006825Y-86791314D01*
X117167239Y-86839975D01*
X117167241Y-86839976D01*
X117167244Y-86839977D01*
X117315078Y-86918995D01*
X117444659Y-87025341D01*
X117551005Y-87154922D01*
X117630023Y-87302756D01*
X117630024Y-87302759D01*
X117630025Y-87302761D01*
X117678686Y-87463175D01*
X117678687Y-87463179D01*
X117695117Y-87630000D01*
X117678687Y-87796821D01*
X117678686Y-87796824D01*
X117678686Y-87796825D01*
X117635756Y-87938348D01*
X117630023Y-87957244D01*
X117551005Y-88105078D01*
X117444659Y-88234659D01*
X117315078Y-88341005D01*
X117167244Y-88420023D01*
X117167241Y-88420024D01*
X117167239Y-88420025D01*
X117006825Y-88468686D01*
X117006824Y-88468686D01*
X117006821Y-88468687D01*
X116881804Y-88481000D01*
X116798196Y-88481000D01*
X116673179Y-88468687D01*
X116673176Y-88468686D01*
X116673175Y-88468686D01*
X116512761Y-88420025D01*
X116512759Y-88420024D01*
X116512756Y-88420023D01*
X116364922Y-88341005D01*
X116235341Y-88234659D01*
X116128995Y-88105078D01*
X116049977Y-87957244D01*
X116044245Y-87938348D01*
X116001314Y-87796825D01*
X116001314Y-87796824D01*
X116001313Y-87796821D01*
X115984883Y-87630000D01*
X116001313Y-87463179D01*
X116001314Y-87463175D01*
X116049975Y-87302761D01*
X116049976Y-87302759D01*
X116049977Y-87302756D01*
X116128995Y-87154922D01*
X116235341Y-87025341D01*
X116364922Y-86918995D01*
X116512756Y-86839977D01*
X116512759Y-86839976D01*
X116512761Y-86839975D01*
X116673175Y-86791314D01*
X116673176Y-86791314D01*
X116673179Y-86791313D01*
X116798196Y-86779000D01*
X116881804Y-86779000D01*
X117006821Y-86791313D01*
X117006821Y-86791313D01*
G37*
G36*
X132246821Y-86791313D02*
X132246824Y-86791314D01*
X132246825Y-86791314D01*
X132407239Y-86839975D01*
X132407241Y-86839976D01*
X132407244Y-86839977D01*
X132555078Y-86918995D01*
X132684659Y-87025341D01*
X132791005Y-87154922D01*
X132870023Y-87302756D01*
X132870024Y-87302759D01*
X132870025Y-87302761D01*
X132918686Y-87463175D01*
X132918687Y-87463179D01*
X132935117Y-87630000D01*
X132918687Y-87796821D01*
X132918686Y-87796824D01*
X132918686Y-87796825D01*
X132875756Y-87938348D01*
X132870023Y-87957244D01*
X132791005Y-88105078D01*
X132684659Y-88234659D01*
X132555078Y-88341005D01*
X132407244Y-88420023D01*
X132407241Y-88420024D01*
X132407239Y-88420025D01*
X132246825Y-88468686D01*
X132246824Y-88468686D01*
X132246821Y-88468687D01*
X132121804Y-88481000D01*
X132038196Y-88481000D01*
X131913179Y-88468687D01*
X131913176Y-88468686D01*
X131913175Y-88468686D01*
X131752761Y-88420025D01*
X131752759Y-88420024D01*
X131752756Y-88420023D01*
X131604922Y-88341005D01*
X131475341Y-88234659D01*
X131368995Y-88105078D01*
X131289977Y-87957244D01*
X131284245Y-87938348D01*
X131241314Y-87796825D01*
X131241314Y-87796824D01*
X131241313Y-87796821D01*
X131224883Y-87630000D01*
X131241313Y-87463179D01*
X131241314Y-87463175D01*
X131289975Y-87302761D01*
X131289976Y-87302759D01*
X131289977Y-87302756D01*
X131368995Y-87154922D01*
X131475341Y-87025341D01*
X131604922Y-86918995D01*
X131752756Y-86839977D01*
X131752759Y-86839976D01*
X131752761Y-86839975D01*
X131913175Y-86791314D01*
X131913176Y-86791314D01*
X131913179Y-86791313D01*
X132038196Y-86779000D01*
X132121804Y-86779000D01*
X132246821Y-86791313D01*
X132246821Y-86791313D01*
G37*
G36*
X117006821Y-84251313D02*
X117006824Y-84251314D01*
X117006825Y-84251314D01*
X117167239Y-84299975D01*
X117167241Y-84299976D01*
X117167244Y-84299977D01*
X117315078Y-84378995D01*
X117444659Y-84485341D01*
X117551005Y-84614922D01*
X117630023Y-84762756D01*
X117678687Y-84923179D01*
X117695117Y-85090000D01*
X117678687Y-85256821D01*
X117630023Y-85417244D01*
X117551005Y-85565078D01*
X117444659Y-85694659D01*
X117315078Y-85801005D01*
X117167244Y-85880023D01*
X117167241Y-85880024D01*
X117167239Y-85880025D01*
X117006825Y-85928686D01*
X117006824Y-85928686D01*
X117006821Y-85928687D01*
X116881804Y-85941000D01*
X116798196Y-85941000D01*
X116673179Y-85928687D01*
X116673176Y-85928686D01*
X116673175Y-85928686D01*
X116512761Y-85880025D01*
X116512759Y-85880024D01*
X116512756Y-85880023D01*
X116364922Y-85801005D01*
X116235341Y-85694659D01*
X116128995Y-85565078D01*
X116049977Y-85417244D01*
X116001313Y-85256821D01*
X115984883Y-85090000D01*
X116001313Y-84923179D01*
X116049977Y-84762756D01*
X116128995Y-84614922D01*
X116235341Y-84485341D01*
X116364922Y-84378995D01*
X116512756Y-84299977D01*
X116512759Y-84299976D01*
X116512761Y-84299975D01*
X116673175Y-84251314D01*
X116673176Y-84251314D01*
X116673179Y-84251313D01*
X116798196Y-84239000D01*
X116881804Y-84239000D01*
X117006821Y-84251313D01*
X117006821Y-84251313D01*
G37*
G36*
X132246821Y-84251313D02*
X132246824Y-84251314D01*
X132246825Y-84251314D01*
X132407239Y-84299975D01*
X132407241Y-84299976D01*
X132407244Y-84299977D01*
X132555078Y-84378995D01*
X132684659Y-84485341D01*
X132791005Y-84614922D01*
X132870023Y-84762756D01*
X132918687Y-84923179D01*
X132935117Y-85090000D01*
X132918687Y-85256821D01*
X132870023Y-85417244D01*
X132791005Y-85565078D01*
X132684659Y-85694659D01*
X132555078Y-85801005D01*
X132407244Y-85880023D01*
X132407241Y-85880024D01*
X132407239Y-85880025D01*
X132246825Y-85928686D01*
X132246824Y-85928686D01*
X132246821Y-85928687D01*
X132121804Y-85941000D01*
X132038196Y-85941000D01*
X131913179Y-85928687D01*
X131913176Y-85928686D01*
X131913175Y-85928686D01*
X131752761Y-85880025D01*
X131752759Y-85880024D01*
X131752756Y-85880023D01*
X131604922Y-85801005D01*
X131475341Y-85694659D01*
X131368995Y-85565078D01*
X131289977Y-85417244D01*
X131241313Y-85256821D01*
X131224883Y-85090000D01*
X131241313Y-84923179D01*
X131289977Y-84762756D01*
X131368995Y-84614922D01*
X131475341Y-84485341D01*
X131604922Y-84378995D01*
X131752756Y-84299977D01*
X131752759Y-84299976D01*
X131752761Y-84299975D01*
X131913175Y-84251314D01*
X131913176Y-84251314D01*
X131913179Y-84251313D01*
X132038196Y-84239000D01*
X132121804Y-84239000D01*
X132246821Y-84251313D01*
X132246821Y-84251313D01*
G37*
G36*
X139825589Y-83058876D02*
X139924893Y-83078629D01*
X140065206Y-83136748D01*
X140191484Y-83221125D01*
X140298875Y-83328516D01*
X140383252Y-83454794D01*
X140441371Y-83595107D01*
X140471000Y-83744063D01*
X140471000Y-83895937D01*
X140441371Y-84044893D01*
X140383252Y-84185206D01*
X140298875Y-84311484D01*
X140191484Y-84418875D01*
X140065206Y-84503252D01*
X139924893Y-84561371D01*
X139825589Y-84581124D01*
X139775938Y-84591000D01*
X139624062Y-84591000D01*
X139574411Y-84581124D01*
X139475107Y-84561371D01*
X139334794Y-84503252D01*
X139208516Y-84418875D01*
X139101125Y-84311484D01*
X139016748Y-84185206D01*
X138958629Y-84044893D01*
X138929000Y-83895937D01*
X138929000Y-83744063D01*
X138958629Y-83595107D01*
X139016748Y-83454794D01*
X139101125Y-83328516D01*
X139208516Y-83221125D01*
X139334794Y-83136748D01*
X139475107Y-83078629D01*
X139574411Y-83058876D01*
X139624062Y-83049000D01*
X139775938Y-83049000D01*
X139825589Y-83058876D01*
X139825589Y-83058876D01*
G37*
G36*
X117006821Y-81711313D02*
X117006824Y-81711314D01*
X117006825Y-81711314D01*
X117167239Y-81759975D01*
X117167241Y-81759976D01*
X117167244Y-81759977D01*
X117315078Y-81838995D01*
X117444659Y-81945341D01*
X117551005Y-82074922D01*
X117630023Y-82222756D01*
X117678687Y-82383179D01*
X117695117Y-82550000D01*
X117678687Y-82716821D01*
X117630023Y-82877244D01*
X117551005Y-83025078D01*
X117444659Y-83154659D01*
X117315078Y-83261005D01*
X117167244Y-83340023D01*
X117167241Y-83340024D01*
X117167239Y-83340025D01*
X117006825Y-83388686D01*
X117006824Y-83388686D01*
X117006821Y-83388687D01*
X116881804Y-83401000D01*
X116798196Y-83401000D01*
X116673179Y-83388687D01*
X116673176Y-83388686D01*
X116673175Y-83388686D01*
X116512761Y-83340025D01*
X116512759Y-83340024D01*
X116512756Y-83340023D01*
X116364922Y-83261005D01*
X116235341Y-83154659D01*
X116128995Y-83025078D01*
X116049977Y-82877244D01*
X116001313Y-82716821D01*
X115984883Y-82550000D01*
X116001313Y-82383179D01*
X116049977Y-82222756D01*
X116128995Y-82074922D01*
X116235341Y-81945341D01*
X116364922Y-81838995D01*
X116512756Y-81759977D01*
X116512759Y-81759976D01*
X116512761Y-81759975D01*
X116673175Y-81711314D01*
X116673176Y-81711314D01*
X116673179Y-81711313D01*
X116798196Y-81699000D01*
X116881804Y-81699000D01*
X117006821Y-81711313D01*
X117006821Y-81711313D01*
G37*
G36*
X132246821Y-81711313D02*
X132246824Y-81711314D01*
X132246825Y-81711314D01*
X132407239Y-81759975D01*
X132407241Y-81759976D01*
X132407244Y-81759977D01*
X132555078Y-81838995D01*
X132684659Y-81945341D01*
X132791005Y-82074922D01*
X132870023Y-82222756D01*
X132918687Y-82383179D01*
X132935117Y-82550000D01*
X132918687Y-82716821D01*
X132870023Y-82877244D01*
X132791005Y-83025078D01*
X132684659Y-83154659D01*
X132555078Y-83261005D01*
X132407244Y-83340023D01*
X132407241Y-83340024D01*
X132407239Y-83340025D01*
X132246825Y-83388686D01*
X132246824Y-83388686D01*
X132246821Y-83388687D01*
X132121804Y-83401000D01*
X132038196Y-83401000D01*
X131913179Y-83388687D01*
X131913176Y-83388686D01*
X131913175Y-83388686D01*
X131752761Y-83340025D01*
X131752759Y-83340024D01*
X131752756Y-83340023D01*
X131604922Y-83261005D01*
X131475341Y-83154659D01*
X131368995Y-83025078D01*
X131289977Y-82877244D01*
X131241313Y-82716821D01*
X131224883Y-82550000D01*
X131241313Y-82383179D01*
X131289977Y-82222756D01*
X131368995Y-82074922D01*
X131475341Y-81945341D01*
X131604922Y-81838995D01*
X131752756Y-81759977D01*
X131752759Y-81759976D01*
X131752761Y-81759975D01*
X131913175Y-81711314D01*
X131913176Y-81711314D01*
X131913179Y-81711313D01*
X132038196Y-81699000D01*
X132121804Y-81699000D01*
X132246821Y-81711313D01*
X132246821Y-81711313D01*
G37*
G36*
X142365589Y-80518876D02*
X142464893Y-80538629D01*
X142605206Y-80596748D01*
X142731484Y-80681125D01*
X142838875Y-80788516D01*
X142923252Y-80914794D01*
X142981371Y-81055107D01*
X143011000Y-81204063D01*
X143011000Y-81355937D01*
X142981371Y-81504893D01*
X142923252Y-81645206D01*
X142838875Y-81771484D01*
X142731484Y-81878875D01*
X142605206Y-81963252D01*
X142464893Y-82021371D01*
X142365589Y-82041124D01*
X142315938Y-82051000D01*
X142164062Y-82051000D01*
X142114411Y-82041124D01*
X142015107Y-82021371D01*
X141874794Y-81963252D01*
X141748516Y-81878875D01*
X141641125Y-81771484D01*
X141556748Y-81645206D01*
X141498629Y-81504893D01*
X141469000Y-81355937D01*
X141469000Y-81204063D01*
X141498629Y-81055107D01*
X141556748Y-80914794D01*
X141641125Y-80788516D01*
X141748516Y-80681125D01*
X141874794Y-80596748D01*
X142015107Y-80538629D01*
X142114411Y-80518876D01*
X142164062Y-80509000D01*
X142315938Y-80509000D01*
X142365589Y-80518876D01*
X142365589Y-80518876D01*
G37*
G36*
X137285589Y-80518876D02*
X137384893Y-80538629D01*
X137525206Y-80596748D01*
X137651484Y-80681125D01*
X137758875Y-80788516D01*
X137843252Y-80914794D01*
X137901371Y-81055107D01*
X137931000Y-81204063D01*
X137931000Y-81355937D01*
X137901371Y-81504893D01*
X137843252Y-81645206D01*
X137758875Y-81771484D01*
X137651484Y-81878875D01*
X137525206Y-81963252D01*
X137384893Y-82021371D01*
X137285589Y-82041124D01*
X137235938Y-82051000D01*
X137084062Y-82051000D01*
X137034411Y-82041124D01*
X136935107Y-82021371D01*
X136794794Y-81963252D01*
X136668516Y-81878875D01*
X136561125Y-81771484D01*
X136476748Y-81645206D01*
X136418629Y-81504893D01*
X136389000Y-81355937D01*
X136389000Y-81204063D01*
X136418629Y-81055107D01*
X136476748Y-80914794D01*
X136561125Y-80788516D01*
X136668516Y-80681125D01*
X136794794Y-80596748D01*
X136935107Y-80538629D01*
X137034411Y-80518876D01*
X137084062Y-80509000D01*
X137235938Y-80509000D01*
X137285589Y-80518876D01*
X137285589Y-80518876D01*
G37*
G36*
X132246821Y-79171313D02*
X132246824Y-79171314D01*
X132246825Y-79171314D01*
X132407239Y-79219975D01*
X132407241Y-79219976D01*
X132407244Y-79219977D01*
X132555078Y-79298995D01*
X132684659Y-79405341D01*
X132791005Y-79534922D01*
X132870023Y-79682756D01*
X132918687Y-79843179D01*
X132935117Y-80010000D01*
X132918687Y-80176821D01*
X132870023Y-80337244D01*
X132791005Y-80485078D01*
X132684659Y-80614659D01*
X132555078Y-80721005D01*
X132407244Y-80800023D01*
X132407241Y-80800024D01*
X132407239Y-80800025D01*
X132246825Y-80848686D01*
X132246824Y-80848686D01*
X132246821Y-80848687D01*
X132121804Y-80861000D01*
X132038196Y-80861000D01*
X131913179Y-80848687D01*
X131913176Y-80848686D01*
X131913175Y-80848686D01*
X131752761Y-80800025D01*
X131752759Y-80800024D01*
X131752756Y-80800023D01*
X131604922Y-80721005D01*
X131475341Y-80614659D01*
X131368995Y-80485078D01*
X131289977Y-80337244D01*
X131241313Y-80176821D01*
X131224883Y-80010000D01*
X131241313Y-79843179D01*
X131289977Y-79682756D01*
X131368995Y-79534922D01*
X131475341Y-79405341D01*
X131604922Y-79298995D01*
X131752756Y-79219977D01*
X131752759Y-79219976D01*
X131752761Y-79219975D01*
X131913175Y-79171314D01*
X131913176Y-79171314D01*
X131913179Y-79171313D01*
X132038196Y-79159000D01*
X132121804Y-79159000D01*
X132246821Y-79171313D01*
X132246821Y-79171313D01*
G37*
G36*
X117691000Y-80861000D02*
X115989000Y-80861000D01*
X115989000Y-79159000D01*
X117691000Y-79159000D01*
X117691000Y-80861000D01*
X117691000Y-80861000D01*
G37*
G36*
X110371000Y-79891000D02*
X108069000Y-79891000D01*
X108069000Y-77589000D01*
X110371000Y-77589000D01*
X110371000Y-79891000D01*
X110371000Y-79891000D01*
G37*
G36*
X139832004Y-76095544D02*
X139919059Y-76112860D01*
X140055732Y-76169472D01*
X140055733Y-76169473D01*
X140178738Y-76251662D01*
X140283338Y-76356262D01*
X140283340Y-76356265D01*
X140365528Y-76479268D01*
X140422140Y-76615941D01*
X140451000Y-76761033D01*
X140451000Y-76908967D01*
X140422140Y-77054059D01*
X140365528Y-77190732D01*
X140365527Y-77190733D01*
X140283338Y-77313738D01*
X140178738Y-77418338D01*
X140178735Y-77418340D01*
X140055732Y-77500528D01*
X139919059Y-77557140D01*
X139832004Y-77574456D01*
X139773969Y-77586000D01*
X139626031Y-77586000D01*
X139567996Y-77574456D01*
X139480941Y-77557140D01*
X139344268Y-77500528D01*
X139221265Y-77418340D01*
X139221262Y-77418338D01*
X139116662Y-77313738D01*
X139034473Y-77190733D01*
X139034472Y-77190732D01*
X138977860Y-77054059D01*
X138949000Y-76908967D01*
X138949000Y-76761033D01*
X138977860Y-76615941D01*
X139034472Y-76479268D01*
X139116660Y-76356265D01*
X139116662Y-76356262D01*
X139221262Y-76251662D01*
X139344267Y-76169473D01*
X139344268Y-76169472D01*
X139480941Y-76112860D01*
X139567996Y-76095544D01*
X139626031Y-76084000D01*
X139773969Y-76084000D01*
X139832004Y-76095544D01*
X139832004Y-76095544D01*
G37*
G36*
X137332004Y-76095544D02*
X137419059Y-76112860D01*
X137555732Y-76169472D01*
X137555733Y-76169473D01*
X137678738Y-76251662D01*
X137783338Y-76356262D01*
X137783340Y-76356265D01*
X137865528Y-76479268D01*
X137922140Y-76615941D01*
X137951000Y-76761033D01*
X137951000Y-76908967D01*
X137922140Y-77054059D01*
X137865528Y-77190732D01*
X137865527Y-77190733D01*
X137783338Y-77313738D01*
X137678738Y-77418338D01*
X137678735Y-77418340D01*
X137555732Y-77500528D01*
X137419059Y-77557140D01*
X137332004Y-77574456D01*
X137273969Y-77586000D01*
X137126031Y-77586000D01*
X137067996Y-77574456D01*
X136980941Y-77557140D01*
X136844268Y-77500528D01*
X136721265Y-77418340D01*
X136721262Y-77418338D01*
X136616662Y-77313738D01*
X136534473Y-77190733D01*
X136534472Y-77190732D01*
X136477860Y-77054059D01*
X136449000Y-76908967D01*
X136449000Y-76761033D01*
X136477860Y-76615941D01*
X136534472Y-76479268D01*
X136616660Y-76356265D01*
X136616662Y-76356262D01*
X136721262Y-76251662D01*
X136844267Y-76169473D01*
X136844268Y-76169472D01*
X136980941Y-76112860D01*
X137067996Y-76095544D01*
X137126031Y-76084000D01*
X137273969Y-76084000D01*
X137332004Y-76095544D01*
X137332004Y-76095544D01*
G37*
G36*
X162939485Y-74948996D02*
X162939487Y-74948997D01*
X162939488Y-74948997D01*
X163176255Y-75047069D01*
X163389342Y-75189449D01*
X163570551Y-75370658D01*
X163712931Y-75583745D01*
X163811004Y-75820515D01*
X163861000Y-76071861D01*
X163861000Y-76328139D01*
X163830939Y-76479267D01*
X163811003Y-76579488D01*
X163735805Y-76761033D01*
X163712931Y-76816255D01*
X163570551Y-77029342D01*
X163389342Y-77210551D01*
X163389339Y-77210553D01*
X163176255Y-77352931D01*
X162939488Y-77451003D01*
X162939487Y-77451003D01*
X162939485Y-77451004D01*
X162688139Y-77501000D01*
X162431861Y-77501000D01*
X162180515Y-77451004D01*
X162180513Y-77451003D01*
X162180512Y-77451003D01*
X161943745Y-77352931D01*
X161730661Y-77210553D01*
X161730658Y-77210551D01*
X161549449Y-77029342D01*
X161407069Y-76816255D01*
X161384195Y-76761033D01*
X161308997Y-76579488D01*
X161289062Y-76479267D01*
X161259000Y-76328139D01*
X161259000Y-76071861D01*
X161308996Y-75820515D01*
X161407069Y-75583745D01*
X161549449Y-75370658D01*
X161730658Y-75189449D01*
X161943745Y-75047069D01*
X162180512Y-74948997D01*
X162180513Y-74948997D01*
X162180515Y-74948996D01*
X162431861Y-74899000D01*
X162688139Y-74899000D01*
X162939485Y-74948996D01*
X162939485Y-74948996D01*
G37*
G36*
X90549485Y-74948996D02*
X90549487Y-74948997D01*
X90549488Y-74948997D01*
X90786255Y-75047069D01*
X90999342Y-75189449D01*
X91180551Y-75370658D01*
X91322931Y-75583745D01*
X91421004Y-75820515D01*
X91471000Y-76071861D01*
X91471000Y-76328139D01*
X91440939Y-76479267D01*
X91421003Y-76579488D01*
X91345805Y-76761033D01*
X91322931Y-76816255D01*
X91180551Y-77029342D01*
X90999342Y-77210551D01*
X90999339Y-77210553D01*
X90786255Y-77352931D01*
X90549488Y-77451003D01*
X90549487Y-77451003D01*
X90549485Y-77451004D01*
X90298139Y-77501000D01*
X90041861Y-77501000D01*
X89790515Y-77451004D01*
X89790513Y-77451003D01*
X89790512Y-77451003D01*
X89553745Y-77352931D01*
X89340661Y-77210553D01*
X89340658Y-77210551D01*
X89159449Y-77029342D01*
X89017069Y-76816255D01*
X88994195Y-76761033D01*
X88918997Y-76579488D01*
X88899062Y-76479267D01*
X88869000Y-76328139D01*
X88869000Y-76071861D01*
X88918996Y-75820515D01*
X89017069Y-75583745D01*
X89159449Y-75370658D01*
X89340658Y-75189449D01*
X89553745Y-75047069D01*
X89790512Y-74948997D01*
X89790513Y-74948997D01*
X89790515Y-74948996D01*
X90041861Y-74899000D01*
X90298139Y-74899000D01*
X90549485Y-74948996D01*
X90549485Y-74948996D01*
G37*
M02*
