G04 #@! TF.GenerationSoftware,KiCad,Pcbnew,(5.0.1-3-g963ef8bb5)*
G04 #@! TF.CreationDate,2018-12-20T00:01:49+01:00*
G04 #@! TF.ProjectId,fablab_Arduino,6661626C61625F41726475696E6F2E6B,rev?*
G04 #@! TF.SameCoordinates,Original*
G04 #@! TF.FileFunction,Copper,L2,Bot,Signal*
G04 #@! TF.FilePolarity,Positive*
%FSLAX46Y46*%
G04 Gerber Fmt 4.6, Leading zero omitted, Abs format (unit mm)*
G04 Created by KiCad (PCBNEW (5.0.1-3-g963ef8bb5)) date 2018 December 20, Thursday 00:01:49*
%MOMM*%
%LPD*%
G01*
G04 APERTURE LIST*
G04 #@! TA.AperFunction,ComponentPad*
%ADD10R,3.500000X3.500000*%
G04 #@! TD*
G04 #@! TA.AperFunction,Conductor*
%ADD11C,0.100000*%
G04 #@! TD*
G04 #@! TA.AperFunction,ComponentPad*
%ADD12C,3.000000*%
G04 #@! TD*
G04 #@! TA.AperFunction,ComponentPad*
%ADD13C,3.500000*%
G04 #@! TD*
G04 #@! TA.AperFunction,ComponentPad*
%ADD14C,2.000000*%
G04 #@! TD*
G04 #@! TA.AperFunction,ComponentPad*
%ADD15R,1.600000X1.600000*%
G04 #@! TD*
G04 #@! TA.AperFunction,ComponentPad*
%ADD16O,1.600000X1.600000*%
G04 #@! TD*
G04 #@! TA.AperFunction,ComponentPad*
%ADD17R,2.200000X2.200000*%
G04 #@! TD*
G04 #@! TA.AperFunction,ComponentPad*
%ADD18O,2.200000X2.200000*%
G04 #@! TD*
G04 #@! TA.AperFunction,ComponentPad*
%ADD19O,1.050000X1.500000*%
G04 #@! TD*
G04 #@! TA.AperFunction,ComponentPad*
%ADD20R,1.050000X1.500000*%
G04 #@! TD*
G04 #@! TA.AperFunction,ComponentPad*
%ADD21R,1.905000X2.000000*%
G04 #@! TD*
G04 #@! TA.AperFunction,ComponentPad*
%ADD22O,1.905000X2.000000*%
G04 #@! TD*
G04 #@! TA.AperFunction,ComponentPad*
%ADD23C,1.600000*%
G04 #@! TD*
G04 #@! TA.AperFunction,ComponentPad*
%ADD24C,1.400000*%
G04 #@! TD*
G04 #@! TA.AperFunction,ComponentPad*
%ADD25O,1.400000X1.400000*%
G04 #@! TD*
G04 #@! TA.AperFunction,ComponentPad*
%ADD26R,1.700000X1.700000*%
G04 #@! TD*
G04 #@! TA.AperFunction,ComponentPad*
%ADD27O,1.700000X1.700000*%
G04 #@! TD*
G04 #@! TA.AperFunction,ComponentPad*
%ADD28C,1.440000*%
G04 #@! TD*
G04 #@! TA.AperFunction,ViaPad*
%ADD29C,0.800000*%
G04 #@! TD*
G04 #@! TA.AperFunction,Conductor*
%ADD30C,0.250000*%
G04 #@! TD*
G04 #@! TA.AperFunction,Conductor*
%ADD31C,0.400000*%
G04 #@! TD*
G04 #@! TA.AperFunction,Conductor*
%ADD32C,0.500000*%
G04 #@! TD*
G04 #@! TA.AperFunction,Conductor*
%ADD33C,0.254000*%
G04 #@! TD*
G04 APERTURE END LIST*
D10*
G04 #@! TO.P,J1,1*
G04 #@! TO.N,Net-(D1-Pad2)*
X99060000Y-87630000D03*
D11*
G04 #@! TD*
G04 #@! TO.N,GNDD*
G04 #@! TO.C,J1*
G36*
X93883513Y-85883611D02*
X93956318Y-85894411D01*
X94027714Y-85912295D01*
X94097013Y-85937090D01*
X94163548Y-85968559D01*
X94226678Y-86006398D01*
X94285795Y-86050242D01*
X94340330Y-86099670D01*
X94389758Y-86154205D01*
X94433602Y-86213322D01*
X94471441Y-86276452D01*
X94502910Y-86342987D01*
X94527705Y-86412286D01*
X94545589Y-86483682D01*
X94556389Y-86556487D01*
X94560000Y-86630000D01*
X94560000Y-88630000D01*
X94556389Y-88703513D01*
X94545589Y-88776318D01*
X94527705Y-88847714D01*
X94502910Y-88917013D01*
X94471441Y-88983548D01*
X94433602Y-89046678D01*
X94389758Y-89105795D01*
X94340330Y-89160330D01*
X94285795Y-89209758D01*
X94226678Y-89253602D01*
X94163548Y-89291441D01*
X94097013Y-89322910D01*
X94027714Y-89347705D01*
X93956318Y-89365589D01*
X93883513Y-89376389D01*
X93810000Y-89380000D01*
X92310000Y-89380000D01*
X92236487Y-89376389D01*
X92163682Y-89365589D01*
X92092286Y-89347705D01*
X92022987Y-89322910D01*
X91956452Y-89291441D01*
X91893322Y-89253602D01*
X91834205Y-89209758D01*
X91779670Y-89160330D01*
X91730242Y-89105795D01*
X91686398Y-89046678D01*
X91648559Y-88983548D01*
X91617090Y-88917013D01*
X91592295Y-88847714D01*
X91574411Y-88776318D01*
X91563611Y-88703513D01*
X91560000Y-88630000D01*
X91560000Y-86630000D01*
X91563611Y-86556487D01*
X91574411Y-86483682D01*
X91592295Y-86412286D01*
X91617090Y-86342987D01*
X91648559Y-86276452D01*
X91686398Y-86213322D01*
X91730242Y-86154205D01*
X91779670Y-86099670D01*
X91834205Y-86050242D01*
X91893322Y-86006398D01*
X91956452Y-85968559D01*
X92022987Y-85937090D01*
X92092286Y-85912295D01*
X92163682Y-85894411D01*
X92236487Y-85883611D01*
X92310000Y-85880000D01*
X93810000Y-85880000D01*
X93883513Y-85883611D01*
X93883513Y-85883611D01*
G37*
D12*
G04 #@! TO.P,J1,2*
G04 #@! TO.N,GNDD*
X93060000Y-87630000D03*
D11*
G04 #@! TD*
G04 #@! TO.N,GNDD*
G04 #@! TO.C,J1*
G36*
X97020765Y-90584213D02*
X97105704Y-90596813D01*
X97188999Y-90617677D01*
X97269848Y-90646605D01*
X97347472Y-90683319D01*
X97421124Y-90727464D01*
X97490094Y-90778616D01*
X97553718Y-90836282D01*
X97611384Y-90899906D01*
X97662536Y-90968876D01*
X97706681Y-91042528D01*
X97743395Y-91120152D01*
X97772323Y-91201001D01*
X97793187Y-91284296D01*
X97805787Y-91369235D01*
X97810000Y-91455000D01*
X97810000Y-93205000D01*
X97805787Y-93290765D01*
X97793187Y-93375704D01*
X97772323Y-93458999D01*
X97743395Y-93539848D01*
X97706681Y-93617472D01*
X97662536Y-93691124D01*
X97611384Y-93760094D01*
X97553718Y-93823718D01*
X97490094Y-93881384D01*
X97421124Y-93932536D01*
X97347472Y-93976681D01*
X97269848Y-94013395D01*
X97188999Y-94042323D01*
X97105704Y-94063187D01*
X97020765Y-94075787D01*
X96935000Y-94080000D01*
X95185000Y-94080000D01*
X95099235Y-94075787D01*
X95014296Y-94063187D01*
X94931001Y-94042323D01*
X94850152Y-94013395D01*
X94772528Y-93976681D01*
X94698876Y-93932536D01*
X94629906Y-93881384D01*
X94566282Y-93823718D01*
X94508616Y-93760094D01*
X94457464Y-93691124D01*
X94413319Y-93617472D01*
X94376605Y-93539848D01*
X94347677Y-93458999D01*
X94326813Y-93375704D01*
X94314213Y-93290765D01*
X94310000Y-93205000D01*
X94310000Y-91455000D01*
X94314213Y-91369235D01*
X94326813Y-91284296D01*
X94347677Y-91201001D01*
X94376605Y-91120152D01*
X94413319Y-91042528D01*
X94457464Y-90968876D01*
X94508616Y-90899906D01*
X94566282Y-90836282D01*
X94629906Y-90778616D01*
X94698876Y-90727464D01*
X94772528Y-90683319D01*
X94850152Y-90646605D01*
X94931001Y-90617677D01*
X95014296Y-90596813D01*
X95099235Y-90584213D01*
X95185000Y-90580000D01*
X96935000Y-90580000D01*
X97020765Y-90584213D01*
X97020765Y-90584213D01*
G37*
D13*
G04 #@! TO.P,J1,3*
G04 #@! TO.N,GNDD*
X96060000Y-92330000D03*
G04 #@! TD*
D14*
G04 #@! TO.P,SW2,1*
G04 #@! TO.N,GNDD*
X105560000Y-115570000D03*
G04 #@! TO.P,SW2,2*
G04 #@! TO.N,Net-(A1-Pad6)*
X105560000Y-120070000D03*
G04 #@! TO.P,SW2,1*
G04 #@! TO.N,GNDD*
X99060000Y-115570000D03*
G04 #@! TO.P,SW2,2*
G04 #@! TO.N,Net-(A1-Pad6)*
X99060000Y-120070000D03*
G04 #@! TD*
D15*
G04 #@! TO.P,A1,1*
G04 #@! TO.N,Net-(A1-Pad1)*
X116840000Y-80010000D03*
D16*
G04 #@! TO.P,A1,17*
G04 #@! TO.N,Net-(A1-Pad17)*
X132080000Y-113030000D03*
G04 #@! TO.P,A1,2*
G04 #@! TO.N,Net-(A1-Pad2)*
X116840000Y-82550000D03*
G04 #@! TO.P,A1,18*
G04 #@! TO.N,Net-(A1-Pad18)*
X132080000Y-110490000D03*
G04 #@! TO.P,A1,3*
G04 #@! TO.N,Net-(A1-Pad3)*
X116840000Y-85090000D03*
G04 #@! TO.P,A1,19*
G04 #@! TO.N,Net-(A1-Pad19)*
X132080000Y-107950000D03*
G04 #@! TO.P,A1,4*
G04 #@! TO.N,GNDD*
X116840000Y-87630000D03*
G04 #@! TO.P,A1,20*
G04 #@! TO.N,Net-(A1-Pad20)*
X132080000Y-105410000D03*
G04 #@! TO.P,A1,5*
G04 #@! TO.N,Net-(A1-Pad5)*
X116840000Y-90170000D03*
G04 #@! TO.P,A1,21*
G04 #@! TO.N,Net-(A1-Pad21)*
X132080000Y-102870000D03*
G04 #@! TO.P,A1,6*
G04 #@! TO.N,Net-(A1-Pad6)*
X116840000Y-92710000D03*
G04 #@! TO.P,A1,22*
G04 #@! TO.N,Net-(A1-Pad22)*
X132080000Y-100330000D03*
G04 #@! TO.P,A1,7*
G04 #@! TO.N,Net-(A1-Pad7)*
X116840000Y-95250000D03*
G04 #@! TO.P,A1,23*
G04 #@! TO.N,Net-(A1-Pad23)*
X132080000Y-97790000D03*
G04 #@! TO.P,A1,8*
G04 #@! TO.N,Net-(A1-Pad8)*
X116840000Y-97790000D03*
G04 #@! TO.P,A1,24*
G04 #@! TO.N,Net-(A1-Pad24)*
X132080000Y-95250000D03*
G04 #@! TO.P,A1,9*
G04 #@! TO.N,Net-(A1-Pad9)*
X116840000Y-100330000D03*
G04 #@! TO.P,A1,25*
G04 #@! TO.N,Net-(A1-Pad25)*
X132080000Y-92710000D03*
G04 #@! TO.P,A1,10*
G04 #@! TO.N,Net-(A1-Pad10)*
X116840000Y-102870000D03*
G04 #@! TO.P,A1,26*
G04 #@! TO.N,Net-(A1-Pad26)*
X132080000Y-90170000D03*
G04 #@! TO.P,A1,11*
G04 #@! TO.N,Net-(A1-Pad11)*
X116840000Y-105410000D03*
G04 #@! TO.P,A1,27*
G04 #@! TO.N,Net-(A1-Pad18)*
X132080000Y-87630000D03*
G04 #@! TO.P,A1,12*
G04 #@! TO.N,Net-(A1-Pad12)*
X116840000Y-107950000D03*
G04 #@! TO.P,A1,28*
G04 #@! TO.N,Net-(A1-Pad28)*
X132080000Y-85090000D03*
G04 #@! TO.P,A1,13*
G04 #@! TO.N,Net-(A1-Pad13)*
X116840000Y-110490000D03*
G04 #@! TO.P,A1,29*
G04 #@! TO.N,GNDD*
X132080000Y-82550000D03*
G04 #@! TO.P,A1,14*
G04 #@! TO.N,Net-(A1-Pad14)*
X116840000Y-113030000D03*
G04 #@! TO.P,A1,30*
G04 #@! TO.N,/10V*
X132080000Y-80010000D03*
G04 #@! TO.P,A1,15*
G04 #@! TO.N,Net-(A1-Pad15)*
X116840000Y-115570000D03*
G04 #@! TO.P,A1,16*
G04 #@! TO.N,Net-(A1-Pad16)*
X132080000Y-115570000D03*
G04 #@! TD*
D17*
G04 #@! TO.P,D1,1*
G04 #@! TO.N,/10V*
X109220000Y-78740000D03*
D18*
G04 #@! TO.P,D1,2*
G04 #@! TO.N,Net-(D1-Pad2)*
X109220000Y-88900000D03*
G04 #@! TD*
D19*
G04 #@! TO.P,Q1,2*
G04 #@! TO.N,Net-(Q1-Pad2)*
X154940000Y-105410000D03*
G04 #@! TO.P,Q1,3*
G04 #@! TO.N,Net-(Q1-Pad3)*
X156210000Y-105410000D03*
D20*
G04 #@! TO.P,Q1,1*
G04 #@! TO.N,GNDD*
X153670000Y-105410000D03*
G04 #@! TD*
D21*
G04 #@! TO.P,U1,1*
G04 #@! TO.N,/10V*
X99695000Y-100330000D03*
D22*
G04 #@! TO.P,U1,2*
G04 #@! TO.N,GNDD*
X102235000Y-100330000D03*
G04 #@! TO.P,U1,3*
G04 #@! TO.N,+5V*
X104775000Y-100330000D03*
G04 #@! TD*
D15*
G04 #@! TO.P,U2,1*
G04 #@! TO.N,Net-(Q1-Pad3)*
X151130000Y-87630000D03*
D23*
G04 #@! TO.P,U2,2*
G04 #@! TO.N,Net-(R6-Pad1)*
X151130000Y-90170000D03*
G04 #@! TO.P,U2,3*
G04 #@! TO.N,Net-(R7-Pad1)*
X151130000Y-92710000D03*
G04 #@! TO.P,U2,4*
G04 #@! TO.N,Net-(R5-Pad1)*
X151130000Y-95250000D03*
G04 #@! TO.P,U2,5*
G04 #@! TO.N,Net-(R4-Pad1)*
X151130000Y-97790000D03*
G04 #@! TO.P,U2,6*
G04 #@! TO.N,Net-(Q1-Pad3)*
X156210000Y-97790000D03*
G04 #@! TO.P,U2,7*
G04 #@! TO.N,Net-(R8-Pad1)*
X156210000Y-95250000D03*
G04 #@! TO.P,U2,8*
G04 #@! TO.N,Net-(R3-Pad1)*
X156210000Y-92710000D03*
G04 #@! TO.P,U2,9*
G04 #@! TO.N,Net-(R2-Pad1)*
X156210000Y-90170000D03*
G04 #@! TO.P,U2,10*
G04 #@! TO.N,Net-(R1-Pad1)*
X156210000Y-87630000D03*
G04 #@! TD*
D24*
G04 #@! TO.P,R10,1*
G04 #@! TO.N,Net-(A1-Pad18)*
X138430000Y-120650000D03*
D25*
G04 #@! TO.P,R10,2*
G04 #@! TO.N,Net-(A1-Pad7)*
X146050000Y-120650000D03*
G04 #@! TD*
G04 #@! TO.P,R11,2*
G04 #@! TO.N,Net-(A1-Pad6)*
X138430000Y-123190000D03*
D24*
G04 #@! TO.P,R11,1*
G04 #@! TO.N,Net-(A1-Pad18)*
X146050000Y-123190000D03*
G04 #@! TD*
G04 #@! TO.P,R1,1*
G04 #@! TO.N,Net-(R1-Pad1)*
X146050000Y-107950000D03*
D25*
G04 #@! TO.P,R1,2*
G04 #@! TO.N,Net-(A1-Pad19)*
X138430000Y-107950000D03*
G04 #@! TD*
G04 #@! TO.P,R2,2*
G04 #@! TO.N,Net-(A1-Pad20)*
X138430000Y-105410000D03*
D24*
G04 #@! TO.P,R2,1*
G04 #@! TO.N,Net-(R2-Pad1)*
X146050000Y-105410000D03*
G04 #@! TD*
G04 #@! TO.P,R3,1*
G04 #@! TO.N,Net-(R3-Pad1)*
X146050000Y-102870000D03*
D25*
G04 #@! TO.P,R3,2*
G04 #@! TO.N,Net-(A1-Pad21)*
X138430000Y-102870000D03*
G04 #@! TD*
G04 #@! TO.P,R4,2*
G04 #@! TO.N,Net-(A1-Pad22)*
X138430000Y-100330000D03*
D24*
G04 #@! TO.P,R4,1*
G04 #@! TO.N,Net-(R4-Pad1)*
X146050000Y-100330000D03*
G04 #@! TD*
G04 #@! TO.P,R5,1*
G04 #@! TO.N,Net-(R5-Pad1)*
X146050000Y-97790000D03*
D25*
G04 #@! TO.P,R5,2*
G04 #@! TO.N,Net-(A1-Pad23)*
X138430000Y-97790000D03*
G04 #@! TD*
G04 #@! TO.P,R6,2*
G04 #@! TO.N,Net-(A1-Pad24)*
X138430000Y-95250000D03*
D24*
G04 #@! TO.P,R6,1*
G04 #@! TO.N,Net-(R6-Pad1)*
X146050000Y-95250000D03*
G04 #@! TD*
G04 #@! TO.P,R7,1*
G04 #@! TO.N,Net-(R7-Pad1)*
X146050000Y-115570000D03*
D25*
G04 #@! TO.P,R7,2*
G04 #@! TO.N,Net-(A1-Pad11)*
X138430000Y-115570000D03*
G04 #@! TD*
G04 #@! TO.P,R8,2*
G04 #@! TO.N,Net-(A1-Pad10)*
X138430000Y-118110000D03*
D24*
G04 #@! TO.P,R8,1*
G04 #@! TO.N,Net-(R8-Pad1)*
X146050000Y-118110000D03*
G04 #@! TD*
G04 #@! TO.P,R9,1*
G04 #@! TO.N,Net-(Q1-Pad2)*
X146050000Y-113030000D03*
D25*
G04 #@! TO.P,R9,2*
G04 #@! TO.N,Net-(A1-Pad12)*
X138430000Y-113030000D03*
G04 #@! TD*
D14*
G04 #@! TO.P,SW1,2*
G04 #@! TO.N,Net-(A1-Pad7)*
X151130000Y-120070000D03*
G04 #@! TO.P,SW1,1*
G04 #@! TO.N,GNDD*
X151130000Y-115570000D03*
G04 #@! TO.P,SW1,2*
G04 #@! TO.N,Net-(A1-Pad7)*
X157630000Y-120070000D03*
G04 #@! TO.P,SW1,1*
G04 #@! TO.N,GNDD*
X157630000Y-115570000D03*
G04 #@! TD*
D26*
G04 #@! TO.P,J2,1*
G04 #@! TO.N,Net-(A1-Pad14)*
X88900000Y-113030000D03*
D27*
G04 #@! TO.P,J2,2*
G04 #@! TO.N,+5V*
X88900000Y-110490000D03*
G04 #@! TO.P,J2,3*
G04 #@! TO.N,GNDD*
X88900000Y-107950000D03*
G04 #@! TD*
D28*
G04 #@! TO.P,RV1,1*
G04 #@! TO.N,Net-(A1-Pad18)*
X142240000Y-81280000D03*
G04 #@! TO.P,RV1,2*
G04 #@! TO.N,Net-(A1-Pad25)*
X139700000Y-83820000D03*
G04 #@! TO.P,RV1,3*
G04 #@! TO.N,GNDD*
X137160000Y-81280000D03*
G04 #@! TD*
D15*
G04 #@! TO.P,C1,1*
G04 #@! TO.N,/10V*
X90170000Y-99060000D03*
D23*
G04 #@! TO.P,C1,2*
G04 #@! TO.N,GNDD*
X90170000Y-101560000D03*
G04 #@! TD*
D15*
G04 #@! TO.P,C2,1*
G04 #@! TO.N,+5V*
X109220000Y-110490000D03*
D23*
G04 #@! TO.P,C2,2*
G04 #@! TO.N,GNDD*
X109220000Y-108490000D03*
G04 #@! TD*
D24*
G04 #@! TO.P,C3,1*
G04 #@! TO.N,+5V*
X103505000Y-110490000D03*
G04 #@! TO.P,C3,2*
G04 #@! TO.N,GNDD*
X103505000Y-107990000D03*
G04 #@! TD*
G04 #@! TO.P,C4,2*
G04 #@! TO.N,GNDD*
X137200000Y-76835000D03*
G04 #@! TO.P,C4,1*
G04 #@! TO.N,Net-(A1-Pad18)*
X139700000Y-76835000D03*
G04 #@! TD*
D23*
G04 #@! TO.P,C5,2*
G04 #@! TO.N,GNDD*
X96520000Y-108490000D03*
D15*
G04 #@! TO.P,C5,1*
G04 #@! TO.N,+5V*
X96520000Y-110490000D03*
G04 #@! TD*
D29*
G04 #@! TO.N,Net-(A1-Pad12)*
X124460000Y-107950000D03*
G04 #@! TO.N,Net-(A1-Pad6)*
X114300000Y-123190000D03*
G04 #@! TD*
D30*
G04 #@! TO.N,GNDD*
X96060000Y-90330000D02*
X96060000Y-92330000D01*
X96060000Y-92330000D02*
X98060000Y-92330000D01*
X116840000Y-87630000D02*
X120650000Y-87630000D01*
X125730000Y-82550000D02*
X132080000Y-82550000D01*
X120650000Y-87630000D02*
X125730000Y-82550000D01*
D31*
G04 #@! TO.N,Net-(D1-Pad2)*
X107950000Y-87630000D02*
X109220000Y-88900000D01*
X99060000Y-87630000D02*
X107950000Y-87630000D01*
D30*
G04 #@! TO.N,Net-(A1-Pad14)*
X114300000Y-113030000D02*
X116840000Y-113030000D01*
X114300000Y-113030000D02*
X88900000Y-113030000D01*
G04 #@! TO.N,Net-(A1-Pad19)*
X132080000Y-107950000D02*
X138430000Y-107950000D01*
G04 #@! TO.N,Net-(R1-Pad1)*
X146050000Y-107950000D02*
X148590000Y-107950000D01*
X148590000Y-107950000D02*
X153670000Y-102870000D01*
X153670000Y-102870000D02*
X160020000Y-102870000D01*
X160020000Y-102870000D02*
X161290000Y-101600000D01*
X161290000Y-101600000D02*
X161290000Y-88900000D01*
X161290000Y-88900000D02*
X160020000Y-87630000D01*
X160020000Y-87630000D02*
X156210000Y-87630000D01*
G04 #@! TO.N,Net-(R2-Pad1)*
X146050000Y-105410000D02*
X148590000Y-105410000D01*
X148590000Y-105410000D02*
X152400000Y-101600000D01*
X152400000Y-101600000D02*
X158750000Y-101600000D01*
X158750000Y-101600000D02*
X160020000Y-100330000D01*
X160020000Y-100330000D02*
X160020000Y-91440000D01*
X160020000Y-91440000D02*
X158750000Y-90170000D01*
X158750000Y-90170000D02*
X156210000Y-90170000D01*
G04 #@! TO.N,Net-(A1-Pad20)*
X132080000Y-105410000D02*
X138430000Y-105410000D01*
G04 #@! TO.N,Net-(A1-Pad21)*
X132080000Y-102870000D02*
X138430000Y-102870000D01*
G04 #@! TO.N,Net-(R3-Pad1)*
X157480000Y-92710000D02*
X156210000Y-92710000D01*
X158750000Y-93980000D02*
X157480000Y-92710000D01*
X157480000Y-100330000D02*
X158750000Y-99060000D01*
X151130000Y-100330000D02*
X157480000Y-100330000D01*
X148590000Y-102870000D02*
X151130000Y-100330000D01*
X158750000Y-99060000D02*
X158750000Y-93980000D01*
X146050000Y-102870000D02*
X148590000Y-102870000D01*
G04 #@! TO.N,Net-(R4-Pad1)*
X146050000Y-100330000D02*
X148590000Y-100330000D01*
X148590000Y-100330000D02*
X149860000Y-99060000D01*
X149860000Y-99060000D02*
X151130000Y-97790000D01*
G04 #@! TO.N,Net-(A1-Pad22)*
X132080000Y-100330000D02*
X138430000Y-100330000D01*
G04 #@! TO.N,Net-(A1-Pad23)*
X132080000Y-97790000D02*
X138430000Y-97790000D01*
G04 #@! TO.N,Net-(R5-Pad1)*
X146050000Y-97790000D02*
X148590000Y-97790000D01*
X148590000Y-97790000D02*
X151130000Y-95250000D01*
G04 #@! TO.N,Net-(R6-Pad1)*
X151130000Y-90170000D02*
X147320000Y-90170000D01*
X146050000Y-91440000D02*
X146050000Y-95250000D01*
X147320000Y-90170000D02*
X146050000Y-91440000D01*
G04 #@! TO.N,Net-(A1-Pad24)*
X132080000Y-95250000D02*
X138430000Y-95250000D01*
G04 #@! TO.N,Net-(A1-Pad11)*
X120650000Y-115570000D02*
X120650000Y-106680000D01*
X124460000Y-119380000D02*
X120650000Y-115570000D01*
X120650000Y-106680000D02*
X119380000Y-105410000D01*
X119380000Y-105410000D02*
X116840000Y-105410000D01*
X139065000Y-119380000D02*
X139700000Y-118745000D01*
X139065000Y-119380000D02*
X124460000Y-119380000D01*
X139700000Y-118745000D02*
X139700000Y-116840000D01*
X139700000Y-116840000D02*
X138430000Y-115570000D01*
G04 #@! TO.N,Net-(R7-Pad1)*
X151130000Y-92710000D02*
X149860000Y-92710000D01*
X149860000Y-92710000D02*
X148590000Y-93980000D01*
X148590000Y-93980000D02*
X148590000Y-95250000D01*
X148590000Y-95250000D02*
X147320000Y-96520000D01*
X147320000Y-96520000D02*
X144780000Y-96520000D01*
X144780000Y-96520000D02*
X143510000Y-97790000D01*
X143510000Y-97790000D02*
X143510000Y-114300000D01*
X144780000Y-115570000D02*
X146050000Y-115570000D01*
X143510000Y-114300000D02*
X144780000Y-115570000D01*
G04 #@! TO.N,Net-(A1-Pad10)*
X120650000Y-102870000D02*
X116840000Y-102870000D01*
X121920000Y-104140000D02*
X120650000Y-102870000D01*
X125095000Y-118745000D02*
X121920000Y-115570000D01*
X121920000Y-115570000D02*
X121920000Y-104140000D01*
X137795000Y-118745000D02*
X125095000Y-118745000D01*
X138430000Y-118110000D02*
X137795000Y-118745000D01*
G04 #@! TO.N,Net-(A1-Pad12)*
X138430000Y-113030000D02*
X137160000Y-113030000D01*
X124460000Y-114300000D02*
X124460000Y-107950000D01*
X136525000Y-113665000D02*
X136525000Y-117475000D01*
X137160000Y-113030000D02*
X136525000Y-113665000D01*
X136525000Y-117475000D02*
X135890000Y-118110000D01*
X135890000Y-118110000D02*
X125730000Y-118110000D01*
X125730000Y-118110000D02*
X124460000Y-116840000D01*
X124460000Y-116840000D02*
X124460000Y-114300000D01*
G04 #@! TO.N,Net-(Q1-Pad2)*
X154940000Y-105410000D02*
X154940000Y-109220000D01*
X154940000Y-109220000D02*
X153670000Y-110490000D01*
X153670000Y-110490000D02*
X147320000Y-110490000D01*
X147320000Y-110490000D02*
X146050000Y-111760000D01*
X146050000Y-111760000D02*
X146050000Y-113030000D01*
G04 #@! TO.N,Net-(A1-Pad18)*
X142240000Y-120650000D02*
X144780000Y-123190000D01*
X144780000Y-123190000D02*
X146050000Y-123190000D01*
X133350000Y-87630000D02*
X132080000Y-87630000D01*
X134620000Y-86360000D02*
X133350000Y-87630000D01*
X142240000Y-81280000D02*
X139065000Y-81280000D01*
X135256410Y-82550000D02*
X134620000Y-83186410D01*
X134620000Y-83186410D02*
X134620000Y-86360000D01*
X137795000Y-82550000D02*
X135256410Y-82550000D01*
X139065000Y-81280000D02*
X137795000Y-82550000D01*
X142240000Y-120650000D02*
X138430000Y-120650000D01*
X140970000Y-115570000D02*
X142240000Y-116840000D01*
X140970000Y-111760000D02*
X140970000Y-115570000D01*
X142240000Y-116840000D02*
X142240000Y-120650000D01*
X139700000Y-110490000D02*
X140970000Y-111760000D01*
X132080000Y-110490000D02*
X139700000Y-110490000D01*
X139700000Y-76835000D02*
X141605000Y-76835000D01*
X141605000Y-76835000D02*
X142240000Y-77470000D01*
X142240000Y-77470000D02*
X142240000Y-81280000D01*
G04 #@! TO.N,Net-(A1-Pad25)*
X139700000Y-91440000D02*
X139700000Y-83820000D01*
X132080000Y-92710000D02*
X138430000Y-92710000D01*
X138430000Y-92710000D02*
X139700000Y-91440000D01*
G04 #@! TO.N,Net-(A1-Pad7)*
X151130000Y-120070000D02*
X157630000Y-120070000D01*
X151130000Y-120070000D02*
X149170000Y-120070000D01*
X148590000Y-120650000D02*
X146050000Y-120650000D01*
X149170000Y-120070000D02*
X148590000Y-120650000D01*
G04 #@! TO.N,Net-(A1-Pad6)*
X99060000Y-120070000D02*
X105560000Y-120070000D01*
X105560000Y-120070000D02*
X111180000Y-120070000D01*
X114300000Y-123190000D02*
X138430000Y-123190000D01*
X111180000Y-120070000D02*
X114300000Y-123190000D01*
G04 #@! TO.N,Net-(Q1-Pad3)*
X152180000Y-87630000D02*
X153670000Y-89120000D01*
X151130000Y-87630000D02*
X152180000Y-87630000D01*
X153670000Y-89120000D02*
X153670000Y-96520000D01*
X153670000Y-96520000D02*
X154940000Y-97790000D01*
X154940000Y-97790000D02*
X156210000Y-97790000D01*
G04 #@! TO.N,/10V*
X100330000Y-99080000D02*
X100330000Y-100330000D01*
D32*
X132080000Y-78878630D02*
X130671370Y-77470000D01*
X132080000Y-80010000D02*
X132080000Y-78878630D01*
X130671370Y-77470000D02*
X113665000Y-77470000D01*
X113665000Y-77470000D02*
X112395000Y-78740000D01*
X112395000Y-78740000D02*
X109220000Y-78740000D01*
X109220000Y-78740000D02*
X97790000Y-78740000D01*
X97790000Y-78740000D02*
X94615000Y-81915000D01*
X94615000Y-81915000D02*
X92075000Y-81915000D01*
X90170000Y-83820000D02*
X90170000Y-99060000D01*
X92075000Y-81915000D02*
X90170000Y-83820000D01*
X98425000Y-99060000D02*
X99695000Y-100330000D01*
X90170000Y-99060000D02*
X98425000Y-99060000D01*
G04 #@! TO.N,+5V*
X111760000Y-109250000D02*
X110520000Y-110490000D01*
X111760000Y-102235000D02*
X111760000Y-109250000D01*
X110520000Y-110490000D02*
X109220000Y-110490000D01*
X109855000Y-100330000D02*
X111760000Y-102235000D01*
X104775000Y-100330000D02*
X109855000Y-100330000D01*
X109220000Y-110490000D02*
X103505000Y-110490000D01*
X103505000Y-110490000D02*
X96520000Y-110490000D01*
X95220000Y-110490000D02*
X88900000Y-110490000D01*
X96520000Y-110490000D02*
X95220000Y-110490000D01*
G04 #@! TD*
D33*
G04 #@! TO.N,GNDD*
G36*
X165608000Y-124968000D02*
X85852000Y-124968000D01*
X85852000Y-121545050D01*
X88285000Y-121545050D01*
X88285000Y-122294950D01*
X88571974Y-122987767D01*
X89102233Y-123518026D01*
X89795050Y-123805000D01*
X90544950Y-123805000D01*
X91237767Y-123518026D01*
X91768026Y-122987767D01*
X92055000Y-122294950D01*
X92055000Y-121545050D01*
X91768026Y-120852233D01*
X91237767Y-120321974D01*
X90544950Y-120035000D01*
X89795050Y-120035000D01*
X89102233Y-120321974D01*
X88571974Y-120852233D01*
X88285000Y-121545050D01*
X85852000Y-121545050D01*
X85852000Y-116722532D01*
X98087073Y-116722532D01*
X98185736Y-116989387D01*
X98795461Y-117215908D01*
X99445460Y-117191856D01*
X99934264Y-116989387D01*
X100032927Y-116722532D01*
X104587073Y-116722532D01*
X104685736Y-116989387D01*
X105295461Y-117215908D01*
X105945460Y-117191856D01*
X106434264Y-116989387D01*
X106532927Y-116722532D01*
X105560000Y-115749605D01*
X104587073Y-116722532D01*
X100032927Y-116722532D01*
X99060000Y-115749605D01*
X98087073Y-116722532D01*
X85852000Y-116722532D01*
X85852000Y-115305461D01*
X97414092Y-115305461D01*
X97438144Y-115955460D01*
X97640613Y-116444264D01*
X97907468Y-116542927D01*
X98880395Y-115570000D01*
X99239605Y-115570000D01*
X100212532Y-116542927D01*
X100479387Y-116444264D01*
X100705908Y-115834539D01*
X100686331Y-115305461D01*
X103914092Y-115305461D01*
X103938144Y-115955460D01*
X104140613Y-116444264D01*
X104407468Y-116542927D01*
X105380395Y-115570000D01*
X105739605Y-115570000D01*
X106712532Y-116542927D01*
X106979387Y-116444264D01*
X107205908Y-115834539D01*
X107181856Y-115184540D01*
X106979387Y-114695736D01*
X106712532Y-114597073D01*
X105739605Y-115570000D01*
X105380395Y-115570000D01*
X104407468Y-114597073D01*
X104140613Y-114695736D01*
X103914092Y-115305461D01*
X100686331Y-115305461D01*
X100681856Y-115184540D01*
X100479387Y-114695736D01*
X100212532Y-114597073D01*
X99239605Y-115570000D01*
X98880395Y-115570000D01*
X97907468Y-114597073D01*
X97640613Y-114695736D01*
X97414092Y-115305461D01*
X85852000Y-115305461D01*
X85852000Y-110490000D01*
X87385908Y-110490000D01*
X87501161Y-111069418D01*
X87829375Y-111560625D01*
X87847619Y-111572816D01*
X87802235Y-111581843D01*
X87592191Y-111722191D01*
X87451843Y-111932235D01*
X87402560Y-112180000D01*
X87402560Y-113880000D01*
X87451843Y-114127765D01*
X87592191Y-114337809D01*
X87802235Y-114478157D01*
X88050000Y-114527440D01*
X89750000Y-114527440D01*
X89997765Y-114478157D01*
X90088591Y-114417468D01*
X98087073Y-114417468D01*
X99060000Y-115390395D01*
X100032927Y-114417468D01*
X104587073Y-114417468D01*
X105560000Y-115390395D01*
X106532927Y-114417468D01*
X106434264Y-114150613D01*
X105824539Y-113924092D01*
X105174540Y-113948144D01*
X104685736Y-114150613D01*
X104587073Y-114417468D01*
X100032927Y-114417468D01*
X99934264Y-114150613D01*
X99324539Y-113924092D01*
X98674540Y-113948144D01*
X98185736Y-114150613D01*
X98087073Y-114417468D01*
X90088591Y-114417468D01*
X90207809Y-114337809D01*
X90348157Y-114127765D01*
X90397440Y-113880000D01*
X90397440Y-113790000D01*
X115621957Y-113790000D01*
X115805423Y-114064577D01*
X116157758Y-114300000D01*
X115805423Y-114535423D01*
X115488260Y-115010091D01*
X115376887Y-115570000D01*
X115488260Y-116129909D01*
X115805423Y-116604577D01*
X116280091Y-116921740D01*
X116698667Y-117005000D01*
X116981333Y-117005000D01*
X117399909Y-116921740D01*
X117874577Y-116604577D01*
X118191740Y-116129909D01*
X118303113Y-115570000D01*
X118191740Y-115010091D01*
X117874577Y-114535423D01*
X117522242Y-114300000D01*
X117874577Y-114064577D01*
X118191740Y-113589909D01*
X118303113Y-113030000D01*
X118191740Y-112470091D01*
X117874577Y-111995423D01*
X117522242Y-111760000D01*
X117874577Y-111524577D01*
X118191740Y-111049909D01*
X118303113Y-110490000D01*
X118191740Y-109930091D01*
X117874577Y-109455423D01*
X117522242Y-109220000D01*
X117874577Y-108984577D01*
X118191740Y-108509909D01*
X118303113Y-107950000D01*
X118191740Y-107390091D01*
X117874577Y-106915423D01*
X117522242Y-106680000D01*
X117874577Y-106444577D01*
X118058043Y-106170000D01*
X119065199Y-106170000D01*
X119890001Y-106994803D01*
X119890000Y-115495153D01*
X119875112Y-115570000D01*
X119890000Y-115644847D01*
X119890000Y-115644851D01*
X119934096Y-115866536D01*
X120102071Y-116117929D01*
X120165530Y-116160331D01*
X123869671Y-119864473D01*
X123912071Y-119927929D01*
X123975527Y-119970329D01*
X124163462Y-120095904D01*
X124211605Y-120105480D01*
X124385148Y-120140000D01*
X124385152Y-120140000D01*
X124460000Y-120154888D01*
X124534848Y-120140000D01*
X137196255Y-120140000D01*
X137095000Y-120384452D01*
X137095000Y-120915548D01*
X137298242Y-121406217D01*
X137673783Y-121781758D01*
X137995918Y-121915191D01*
X137909109Y-121932458D01*
X137467519Y-122227519D01*
X137332226Y-122430000D01*
X115003711Y-122430000D01*
X114886280Y-122312569D01*
X114505874Y-122155000D01*
X114339803Y-122155000D01*
X111770331Y-119585530D01*
X111727929Y-119522071D01*
X111476537Y-119354096D01*
X111254852Y-119310000D01*
X111254847Y-119310000D01*
X111180000Y-119295112D01*
X111105153Y-119310000D01*
X107014909Y-119310000D01*
X106946086Y-119143847D01*
X106486153Y-118683914D01*
X105885222Y-118435000D01*
X105234778Y-118435000D01*
X104633847Y-118683914D01*
X104173914Y-119143847D01*
X104105091Y-119310000D01*
X100514909Y-119310000D01*
X100446086Y-119143847D01*
X99986153Y-118683914D01*
X99385222Y-118435000D01*
X98734778Y-118435000D01*
X98133847Y-118683914D01*
X97673914Y-119143847D01*
X97425000Y-119744778D01*
X97425000Y-120395222D01*
X97673914Y-120996153D01*
X98133847Y-121456086D01*
X98734778Y-121705000D01*
X99385222Y-121705000D01*
X99986153Y-121456086D01*
X100446086Y-120996153D01*
X100514909Y-120830000D01*
X104105091Y-120830000D01*
X104173914Y-120996153D01*
X104633847Y-121456086D01*
X105234778Y-121705000D01*
X105885222Y-121705000D01*
X106486153Y-121456086D01*
X106946086Y-120996153D01*
X107014909Y-120830000D01*
X110865199Y-120830000D01*
X113265000Y-123229803D01*
X113265000Y-123395874D01*
X113422569Y-123776280D01*
X113713720Y-124067431D01*
X114094126Y-124225000D01*
X114505874Y-124225000D01*
X114886280Y-124067431D01*
X115003711Y-123950000D01*
X137332226Y-123950000D01*
X137467519Y-124152481D01*
X137909109Y-124447542D01*
X138298515Y-124525000D01*
X138561485Y-124525000D01*
X138950891Y-124447542D01*
X139392481Y-124152481D01*
X139687542Y-123710891D01*
X139791154Y-123190000D01*
X139687542Y-122669109D01*
X139392481Y-122227519D01*
X138950891Y-121932458D01*
X138864082Y-121915191D01*
X139186217Y-121781758D01*
X139557975Y-121410000D01*
X141925199Y-121410000D01*
X144189673Y-123674476D01*
X144232071Y-123737929D01*
X144295524Y-123780327D01*
X144295526Y-123780329D01*
X144420902Y-123864102D01*
X144483463Y-123905904D01*
X144705148Y-123950000D01*
X144705152Y-123950000D01*
X144779999Y-123964888D01*
X144854846Y-123950000D01*
X144922025Y-123950000D01*
X145293783Y-124321758D01*
X145784452Y-124525000D01*
X146315548Y-124525000D01*
X146806217Y-124321758D01*
X147181758Y-123946217D01*
X147385000Y-123455548D01*
X147385000Y-122924452D01*
X147181758Y-122433783D01*
X146806217Y-122058242D01*
X146484082Y-121924809D01*
X146570891Y-121907542D01*
X147012481Y-121612481D01*
X147147774Y-121410000D01*
X148515153Y-121410000D01*
X148590000Y-121424888D01*
X148664847Y-121410000D01*
X148664852Y-121410000D01*
X148886537Y-121365904D01*
X149137929Y-121197929D01*
X149180331Y-121134470D01*
X149484802Y-120830000D01*
X149675091Y-120830000D01*
X149743914Y-120996153D01*
X150203847Y-121456086D01*
X150804778Y-121705000D01*
X151455222Y-121705000D01*
X152056153Y-121456086D01*
X152516086Y-120996153D01*
X152584909Y-120830000D01*
X156175091Y-120830000D01*
X156243914Y-120996153D01*
X156703847Y-121456086D01*
X157304778Y-121705000D01*
X157955222Y-121705000D01*
X158341375Y-121545050D01*
X160675000Y-121545050D01*
X160675000Y-122294950D01*
X160961974Y-122987767D01*
X161492233Y-123518026D01*
X162185050Y-123805000D01*
X162934950Y-123805000D01*
X163627767Y-123518026D01*
X164158026Y-122987767D01*
X164445000Y-122294950D01*
X164445000Y-121545050D01*
X164158026Y-120852233D01*
X163627767Y-120321974D01*
X162934950Y-120035000D01*
X162185050Y-120035000D01*
X161492233Y-120321974D01*
X160961974Y-120852233D01*
X160675000Y-121545050D01*
X158341375Y-121545050D01*
X158556153Y-121456086D01*
X159016086Y-120996153D01*
X159265000Y-120395222D01*
X159265000Y-119744778D01*
X159016086Y-119143847D01*
X158556153Y-118683914D01*
X157955222Y-118435000D01*
X157304778Y-118435000D01*
X156703847Y-118683914D01*
X156243914Y-119143847D01*
X156175091Y-119310000D01*
X152584909Y-119310000D01*
X152516086Y-119143847D01*
X152056153Y-118683914D01*
X151455222Y-118435000D01*
X150804778Y-118435000D01*
X150203847Y-118683914D01*
X149743914Y-119143847D01*
X149675091Y-119310000D01*
X149244847Y-119310000D01*
X149170000Y-119295112D01*
X149095153Y-119310000D01*
X149095148Y-119310000D01*
X148873463Y-119354096D01*
X148622071Y-119522071D01*
X148579671Y-119585527D01*
X148275199Y-119890000D01*
X147147774Y-119890000D01*
X147012481Y-119687519D01*
X146570891Y-119392458D01*
X146484082Y-119375191D01*
X146806217Y-119241758D01*
X147181758Y-118866217D01*
X147385000Y-118375548D01*
X147385000Y-117844452D01*
X147181758Y-117353783D01*
X146806217Y-116978242D01*
X146472472Y-116840000D01*
X146756064Y-116722532D01*
X150157073Y-116722532D01*
X150255736Y-116989387D01*
X150865461Y-117215908D01*
X151515460Y-117191856D01*
X152004264Y-116989387D01*
X152102927Y-116722532D01*
X156657073Y-116722532D01*
X156755736Y-116989387D01*
X157365461Y-117215908D01*
X158015460Y-117191856D01*
X158504264Y-116989387D01*
X158602927Y-116722532D01*
X157630000Y-115749605D01*
X156657073Y-116722532D01*
X152102927Y-116722532D01*
X151130000Y-115749605D01*
X150157073Y-116722532D01*
X146756064Y-116722532D01*
X146806217Y-116701758D01*
X147181758Y-116326217D01*
X147385000Y-115835548D01*
X147385000Y-115305461D01*
X149484092Y-115305461D01*
X149508144Y-115955460D01*
X149710613Y-116444264D01*
X149977468Y-116542927D01*
X150950395Y-115570000D01*
X151309605Y-115570000D01*
X152282532Y-116542927D01*
X152549387Y-116444264D01*
X152775908Y-115834539D01*
X152756331Y-115305461D01*
X155984092Y-115305461D01*
X156008144Y-115955460D01*
X156210613Y-116444264D01*
X156477468Y-116542927D01*
X157450395Y-115570000D01*
X157809605Y-115570000D01*
X158782532Y-116542927D01*
X159049387Y-116444264D01*
X159275908Y-115834539D01*
X159251856Y-115184540D01*
X159049387Y-114695736D01*
X158782532Y-114597073D01*
X157809605Y-115570000D01*
X157450395Y-115570000D01*
X156477468Y-114597073D01*
X156210613Y-114695736D01*
X155984092Y-115305461D01*
X152756331Y-115305461D01*
X152751856Y-115184540D01*
X152549387Y-114695736D01*
X152282532Y-114597073D01*
X151309605Y-115570000D01*
X150950395Y-115570000D01*
X149977468Y-114597073D01*
X149710613Y-114695736D01*
X149484092Y-115305461D01*
X147385000Y-115305461D01*
X147385000Y-115304452D01*
X147181758Y-114813783D01*
X146806217Y-114438242D01*
X146756065Y-114417468D01*
X150157073Y-114417468D01*
X151130000Y-115390395D01*
X152102927Y-114417468D01*
X156657073Y-114417468D01*
X157630000Y-115390395D01*
X158602927Y-114417468D01*
X158504264Y-114150613D01*
X157894539Y-113924092D01*
X157244540Y-113948144D01*
X156755736Y-114150613D01*
X156657073Y-114417468D01*
X152102927Y-114417468D01*
X152004264Y-114150613D01*
X151394539Y-113924092D01*
X150744540Y-113948144D01*
X150255736Y-114150613D01*
X150157073Y-114417468D01*
X146756065Y-114417468D01*
X146472472Y-114300000D01*
X146806217Y-114161758D01*
X147181758Y-113786217D01*
X147385000Y-113295548D01*
X147385000Y-112764452D01*
X147181758Y-112273783D01*
X146896388Y-111988413D01*
X147634802Y-111250000D01*
X153595153Y-111250000D01*
X153670000Y-111264888D01*
X153744847Y-111250000D01*
X153744852Y-111250000D01*
X153966537Y-111205904D01*
X154217929Y-111037929D01*
X154260331Y-110974470D01*
X155424473Y-109810329D01*
X155487929Y-109767929D01*
X155655904Y-109516537D01*
X155700000Y-109294852D01*
X155700000Y-109294848D01*
X155714888Y-109220001D01*
X155700000Y-109145154D01*
X155700000Y-106689347D01*
X155757392Y-106727695D01*
X156210000Y-106817725D01*
X156662609Y-106727695D01*
X157046313Y-106471313D01*
X157302695Y-106087608D01*
X157370000Y-105749245D01*
X157370000Y-105070754D01*
X157302695Y-104732391D01*
X157046313Y-104348687D01*
X156662608Y-104092305D01*
X156210000Y-104002275D01*
X155757391Y-104092305D01*
X155575000Y-104214175D01*
X155392608Y-104092305D01*
X154940000Y-104002275D01*
X154487391Y-104092305D01*
X154486016Y-104093224D01*
X154321309Y-104025000D01*
X153955750Y-104025000D01*
X153797000Y-104183750D01*
X153797000Y-104985291D01*
X153780000Y-105070755D01*
X153780000Y-105749246D01*
X153797000Y-105834710D01*
X153797000Y-106636250D01*
X153955750Y-106795000D01*
X154180000Y-106795000D01*
X154180001Y-108905197D01*
X153355199Y-109730000D01*
X147394846Y-109730000D01*
X147319999Y-109715112D01*
X147245152Y-109730000D01*
X147245148Y-109730000D01*
X147023463Y-109774096D01*
X146772071Y-109942071D01*
X146729671Y-110005527D01*
X145565530Y-111169669D01*
X145502071Y-111212071D01*
X145334096Y-111463464D01*
X145290000Y-111685149D01*
X145290000Y-111685153D01*
X145275112Y-111760000D01*
X145290000Y-111834847D01*
X145290000Y-111902025D01*
X144918242Y-112273783D01*
X144715000Y-112764452D01*
X144715000Y-113295548D01*
X144918242Y-113786217D01*
X145293783Y-114161758D01*
X145627528Y-114300000D01*
X145293783Y-114438242D01*
X145008413Y-114723612D01*
X144270000Y-113985199D01*
X144270000Y-98104801D01*
X144715000Y-97659802D01*
X144715000Y-98055548D01*
X144918242Y-98546217D01*
X145293783Y-98921758D01*
X145627528Y-99060000D01*
X145293783Y-99198242D01*
X144918242Y-99573783D01*
X144715000Y-100064452D01*
X144715000Y-100595548D01*
X144918242Y-101086217D01*
X145293783Y-101461758D01*
X145627528Y-101600000D01*
X145293783Y-101738242D01*
X144918242Y-102113783D01*
X144715000Y-102604452D01*
X144715000Y-103135548D01*
X144918242Y-103626217D01*
X145293783Y-104001758D01*
X145627528Y-104140000D01*
X145293783Y-104278242D01*
X144918242Y-104653783D01*
X144715000Y-105144452D01*
X144715000Y-105675548D01*
X144918242Y-106166217D01*
X145293783Y-106541758D01*
X145627528Y-106680000D01*
X145293783Y-106818242D01*
X144918242Y-107193783D01*
X144715000Y-107684452D01*
X144715000Y-108215548D01*
X144918242Y-108706217D01*
X145293783Y-109081758D01*
X145784452Y-109285000D01*
X146315548Y-109285000D01*
X146806217Y-109081758D01*
X147177975Y-108710000D01*
X148515153Y-108710000D01*
X148590000Y-108724888D01*
X148664847Y-108710000D01*
X148664852Y-108710000D01*
X148886537Y-108665904D01*
X149137929Y-108497929D01*
X149180331Y-108434470D01*
X151919051Y-105695750D01*
X152510000Y-105695750D01*
X152510000Y-106286310D01*
X152606673Y-106519699D01*
X152785302Y-106698327D01*
X153018691Y-106795000D01*
X153384250Y-106795000D01*
X153543000Y-106636250D01*
X153543000Y-105537000D01*
X152668750Y-105537000D01*
X152510000Y-105695750D01*
X151919051Y-105695750D01*
X152510000Y-105104802D01*
X152510000Y-105124250D01*
X152668750Y-105283000D01*
X153543000Y-105283000D01*
X153543000Y-104183750D01*
X153487026Y-104127776D01*
X153984802Y-103630000D01*
X159945153Y-103630000D01*
X160020000Y-103644888D01*
X160094847Y-103630000D01*
X160094852Y-103630000D01*
X160316537Y-103585904D01*
X160567929Y-103417929D01*
X160610331Y-103354470D01*
X161774473Y-102190329D01*
X161837929Y-102147929D01*
X162005904Y-101896537D01*
X162050000Y-101674852D01*
X162050000Y-101674848D01*
X162064888Y-101600001D01*
X162050000Y-101525154D01*
X162050000Y-88974846D01*
X162064888Y-88899999D01*
X162050000Y-88825152D01*
X162050000Y-88825148D01*
X162005904Y-88603463D01*
X161837929Y-88352071D01*
X161774473Y-88309671D01*
X160610331Y-87145530D01*
X160567929Y-87082071D01*
X160316537Y-86914096D01*
X160094852Y-86870000D01*
X160094847Y-86870000D01*
X160020000Y-86855112D01*
X159945153Y-86870000D01*
X157448430Y-86870000D01*
X157426534Y-86817138D01*
X157022862Y-86413466D01*
X156495439Y-86195000D01*
X155924561Y-86195000D01*
X155397138Y-86413466D01*
X154993466Y-86817138D01*
X154775000Y-87344561D01*
X154775000Y-87915439D01*
X154993466Y-88442862D01*
X155397138Y-88846534D01*
X155526216Y-88900000D01*
X155397138Y-88953466D01*
X154993466Y-89357138D01*
X154775000Y-89884561D01*
X154775000Y-90455439D01*
X154993466Y-90982862D01*
X155397138Y-91386534D01*
X155526216Y-91440000D01*
X155397138Y-91493466D01*
X154993466Y-91897138D01*
X154775000Y-92424561D01*
X154775000Y-92995439D01*
X154993466Y-93522862D01*
X155397138Y-93926534D01*
X155526216Y-93980000D01*
X155397138Y-94033466D01*
X154993466Y-94437138D01*
X154775000Y-94964561D01*
X154775000Y-95535439D01*
X154993466Y-96062862D01*
X155397138Y-96466534D01*
X155526216Y-96520000D01*
X155397138Y-96573466D01*
X155097703Y-96872901D01*
X154430000Y-96205199D01*
X154430000Y-89194846D01*
X154444888Y-89119999D01*
X154430000Y-89045152D01*
X154430000Y-89045148D01*
X154385904Y-88823463D01*
X154217929Y-88572071D01*
X154154473Y-88529671D01*
X152770331Y-87145530D01*
X152727929Y-87082071D01*
X152577440Y-86981517D01*
X152577440Y-86830000D01*
X152528157Y-86582235D01*
X152387809Y-86372191D01*
X152177765Y-86231843D01*
X151930000Y-86182560D01*
X150330000Y-86182560D01*
X150082235Y-86231843D01*
X149872191Y-86372191D01*
X149731843Y-86582235D01*
X149682560Y-86830000D01*
X149682560Y-88430000D01*
X149731843Y-88677765D01*
X149872191Y-88887809D01*
X150082235Y-89028157D01*
X150215866Y-89054738D01*
X149913466Y-89357138D01*
X149891570Y-89410000D01*
X147394846Y-89410000D01*
X147319999Y-89395112D01*
X147245152Y-89410000D01*
X147245148Y-89410000D01*
X147023463Y-89454096D01*
X146772071Y-89622071D01*
X146729671Y-89685527D01*
X145565530Y-90849669D01*
X145502071Y-90892071D01*
X145334096Y-91143464D01*
X145290000Y-91365149D01*
X145290000Y-91365153D01*
X145275112Y-91440000D01*
X145290000Y-91514847D01*
X145290001Y-94122024D01*
X144918242Y-94493783D01*
X144715000Y-94984452D01*
X144715000Y-95515548D01*
X144812790Y-95751635D01*
X144779999Y-95745112D01*
X144705152Y-95760000D01*
X144705148Y-95760000D01*
X144483463Y-95804096D01*
X144232071Y-95972071D01*
X144189671Y-96035527D01*
X143025530Y-97199669D01*
X142962071Y-97242071D01*
X142794096Y-97493464D01*
X142750000Y-97715149D01*
X142750000Y-97715153D01*
X142735112Y-97790000D01*
X142750000Y-97864847D01*
X142750001Y-114225148D01*
X142735112Y-114300000D01*
X142750001Y-114374851D01*
X142750001Y-114374852D01*
X142794097Y-114596537D01*
X142962072Y-114847929D01*
X143025528Y-114890329D01*
X144189670Y-116054472D01*
X144232071Y-116117929D01*
X144483463Y-116285904D01*
X144705148Y-116330000D01*
X144705152Y-116330000D01*
X144779999Y-116344888D01*
X144854846Y-116330000D01*
X144922025Y-116330000D01*
X145293783Y-116701758D01*
X145627528Y-116840000D01*
X145293783Y-116978242D01*
X144918242Y-117353783D01*
X144715000Y-117844452D01*
X144715000Y-118375548D01*
X144918242Y-118866217D01*
X145293783Y-119241758D01*
X145615918Y-119375191D01*
X145529109Y-119392458D01*
X145087519Y-119687519D01*
X144792458Y-120129109D01*
X144688846Y-120650000D01*
X144792458Y-121170891D01*
X145087519Y-121612481D01*
X145529109Y-121907542D01*
X145615918Y-121924809D01*
X145293783Y-122058242D01*
X145008414Y-122343611D01*
X143000000Y-120335199D01*
X143000000Y-116914846D01*
X143014888Y-116839999D01*
X143000000Y-116765152D01*
X143000000Y-116765148D01*
X142955904Y-116543463D01*
X142787929Y-116292071D01*
X142724473Y-116249671D01*
X141730000Y-115255199D01*
X141730000Y-111834846D01*
X141744888Y-111759999D01*
X141730000Y-111685152D01*
X141730000Y-111685148D01*
X141685904Y-111463463D01*
X141517929Y-111212071D01*
X141454473Y-111169671D01*
X140290331Y-110005530D01*
X140247929Y-109942071D01*
X139996537Y-109774096D01*
X139774852Y-109730000D01*
X139774847Y-109730000D01*
X139700000Y-109715112D01*
X139625153Y-109730000D01*
X133298043Y-109730000D01*
X133114577Y-109455423D01*
X132762242Y-109220000D01*
X133114577Y-108984577D01*
X133298043Y-108710000D01*
X137332226Y-108710000D01*
X137467519Y-108912481D01*
X137909109Y-109207542D01*
X138298515Y-109285000D01*
X138561485Y-109285000D01*
X138950891Y-109207542D01*
X139392481Y-108912481D01*
X139687542Y-108470891D01*
X139791154Y-107950000D01*
X139687542Y-107429109D01*
X139392481Y-106987519D01*
X138950891Y-106692458D01*
X138888261Y-106680000D01*
X138950891Y-106667542D01*
X139392481Y-106372481D01*
X139687542Y-105930891D01*
X139791154Y-105410000D01*
X139687542Y-104889109D01*
X139392481Y-104447519D01*
X138950891Y-104152458D01*
X138888261Y-104140000D01*
X138950891Y-104127542D01*
X139392481Y-103832481D01*
X139687542Y-103390891D01*
X139791154Y-102870000D01*
X139687542Y-102349109D01*
X139392481Y-101907519D01*
X138950891Y-101612458D01*
X138888261Y-101600000D01*
X138950891Y-101587542D01*
X139392481Y-101292481D01*
X139687542Y-100850891D01*
X139791154Y-100330000D01*
X139687542Y-99809109D01*
X139392481Y-99367519D01*
X138950891Y-99072458D01*
X138888261Y-99060000D01*
X138950891Y-99047542D01*
X139392481Y-98752481D01*
X139687542Y-98310891D01*
X139791154Y-97790000D01*
X139687542Y-97269109D01*
X139392481Y-96827519D01*
X138950891Y-96532458D01*
X138888261Y-96520000D01*
X138950891Y-96507542D01*
X139392481Y-96212481D01*
X139687542Y-95770891D01*
X139791154Y-95250000D01*
X139687542Y-94729109D01*
X139392481Y-94287519D01*
X138950891Y-93992458D01*
X138561485Y-93915000D01*
X138298515Y-93915000D01*
X137909109Y-93992458D01*
X137467519Y-94287519D01*
X137332226Y-94490000D01*
X133298043Y-94490000D01*
X133114577Y-94215423D01*
X132762242Y-93980000D01*
X133114577Y-93744577D01*
X133298043Y-93470000D01*
X138355153Y-93470000D01*
X138430000Y-93484888D01*
X138504847Y-93470000D01*
X138504852Y-93470000D01*
X138726537Y-93425904D01*
X138977929Y-93257929D01*
X139020331Y-93194470D01*
X140184473Y-92030329D01*
X140247929Y-91987929D01*
X140415904Y-91736537D01*
X140460000Y-91514852D01*
X140460000Y-91514848D01*
X140474888Y-91440001D01*
X140460000Y-91365154D01*
X140460000Y-84971840D01*
X140467546Y-84968714D01*
X140848714Y-84587546D01*
X141055000Y-84089526D01*
X141055000Y-83550474D01*
X140848714Y-83052454D01*
X140467546Y-82671286D01*
X139969526Y-82465000D01*
X139430474Y-82465000D01*
X138932454Y-82671286D01*
X138551286Y-83052454D01*
X138345000Y-83550474D01*
X138345000Y-84089526D01*
X138551286Y-84587546D01*
X138932454Y-84968714D01*
X138940001Y-84971840D01*
X138940000Y-91125198D01*
X138115199Y-91950000D01*
X133298043Y-91950000D01*
X133114577Y-91675423D01*
X132762242Y-91440000D01*
X133114577Y-91204577D01*
X133431740Y-90729909D01*
X133543113Y-90170000D01*
X133431740Y-89610091D01*
X133114577Y-89135423D01*
X132762242Y-88900000D01*
X133114577Y-88664577D01*
X133295358Y-88394019D01*
X133350000Y-88404888D01*
X133424847Y-88390000D01*
X133424852Y-88390000D01*
X133646537Y-88345904D01*
X133897929Y-88177929D01*
X133940331Y-88114470D01*
X135104473Y-86950329D01*
X135167929Y-86907929D01*
X135335904Y-86656537D01*
X135380000Y-86434852D01*
X135380000Y-86434848D01*
X135394888Y-86360001D01*
X135380000Y-86285154D01*
X135380000Y-83501211D01*
X135571212Y-83310000D01*
X137720153Y-83310000D01*
X137795000Y-83324888D01*
X137869847Y-83310000D01*
X137869852Y-83310000D01*
X138091537Y-83265904D01*
X138342929Y-83097929D01*
X138385331Y-83034470D01*
X139379802Y-82040000D01*
X141088160Y-82040000D01*
X141091286Y-82047546D01*
X141472454Y-82428714D01*
X141970474Y-82635000D01*
X142509526Y-82635000D01*
X143007546Y-82428714D01*
X143388714Y-82047546D01*
X143595000Y-81549526D01*
X143595000Y-81010474D01*
X143388714Y-80512454D01*
X143007546Y-80131286D01*
X143000000Y-80128160D01*
X143000000Y-77544848D01*
X143014888Y-77470000D01*
X143000000Y-77395152D01*
X143000000Y-77395148D01*
X142955904Y-77173463D01*
X142787929Y-76922071D01*
X142724473Y-76879671D01*
X142195331Y-76350530D01*
X142152929Y-76287071D01*
X141901537Y-76119096D01*
X141679852Y-76075000D01*
X141679847Y-76075000D01*
X141605000Y-76060112D01*
X141530153Y-76075000D01*
X140827975Y-76075000D01*
X140578025Y-75825050D01*
X160675000Y-75825050D01*
X160675000Y-76574950D01*
X160961974Y-77267767D01*
X161492233Y-77798026D01*
X162185050Y-78085000D01*
X162934950Y-78085000D01*
X163627767Y-77798026D01*
X164158026Y-77267767D01*
X164445000Y-76574950D01*
X164445000Y-75825050D01*
X164158026Y-75132233D01*
X163627767Y-74601974D01*
X162934950Y-74315000D01*
X162185050Y-74315000D01*
X161492233Y-74601974D01*
X160961974Y-75132233D01*
X160675000Y-75825050D01*
X140578025Y-75825050D01*
X140456217Y-75703242D01*
X139965548Y-75500000D01*
X139434452Y-75500000D01*
X138943783Y-75703242D01*
X138568242Y-76078783D01*
X138456721Y-76348017D01*
X138371042Y-76141169D01*
X138135275Y-76079331D01*
X137379605Y-76835000D01*
X138135275Y-77590669D01*
X138371042Y-77528831D01*
X138449775Y-77305212D01*
X138568242Y-77591217D01*
X138943783Y-77966758D01*
X139434452Y-78170000D01*
X139965548Y-78170000D01*
X140456217Y-77966758D01*
X140827975Y-77595000D01*
X141290199Y-77595000D01*
X141480000Y-77784802D01*
X141480001Y-80128160D01*
X141472454Y-80131286D01*
X141091286Y-80512454D01*
X141088160Y-80520000D01*
X139139846Y-80520000D01*
X139064999Y-80505112D01*
X138990152Y-80520000D01*
X138990148Y-80520000D01*
X138768463Y-80564096D01*
X138517071Y-80732071D01*
X138474671Y-80795527D01*
X138449671Y-80820527D01*
X138347611Y-80574131D01*
X138109774Y-80509831D01*
X137339605Y-81280000D01*
X137353748Y-81294143D01*
X137174143Y-81473748D01*
X137160000Y-81459605D01*
X137145858Y-81473748D01*
X136966253Y-81294143D01*
X136980395Y-81280000D01*
X136210226Y-80509831D01*
X135972389Y-80574131D01*
X135792667Y-81082342D01*
X135821108Y-81620644D01*
X135891257Y-81790000D01*
X135331258Y-81790000D01*
X135256410Y-81775112D01*
X135181562Y-81790000D01*
X135181558Y-81790000D01*
X135008015Y-81824520D01*
X134959872Y-81834096D01*
X134772828Y-81959076D01*
X134708481Y-82002071D01*
X134666081Y-82065527D01*
X134135530Y-82596079D01*
X134072071Y-82638481D01*
X133904096Y-82889874D01*
X133860000Y-83111559D01*
X133860000Y-83111563D01*
X133845112Y-83186410D01*
X133860000Y-83261257D01*
X133860001Y-86045197D01*
X133192763Y-86712436D01*
X133114577Y-86595423D01*
X132762242Y-86360000D01*
X133114577Y-86124577D01*
X133431740Y-85649909D01*
X133543113Y-85090000D01*
X133431740Y-84530091D01*
X133114577Y-84055423D01*
X132730892Y-83799053D01*
X132935134Y-83702389D01*
X133311041Y-83287423D01*
X133471904Y-82899039D01*
X133349915Y-82677000D01*
X132207000Y-82677000D01*
X132207000Y-82697000D01*
X131953000Y-82697000D01*
X131953000Y-82677000D01*
X130810085Y-82677000D01*
X130688096Y-82899039D01*
X130848959Y-83287423D01*
X131224866Y-83702389D01*
X131429108Y-83799053D01*
X131045423Y-84055423D01*
X130728260Y-84530091D01*
X130616887Y-85090000D01*
X130728260Y-85649909D01*
X131045423Y-86124577D01*
X131397758Y-86360000D01*
X131045423Y-86595423D01*
X130728260Y-87070091D01*
X130616887Y-87630000D01*
X130728260Y-88189909D01*
X131045423Y-88664577D01*
X131397758Y-88900000D01*
X131045423Y-89135423D01*
X130728260Y-89610091D01*
X130616887Y-90170000D01*
X130728260Y-90729909D01*
X131045423Y-91204577D01*
X131397758Y-91440000D01*
X131045423Y-91675423D01*
X130728260Y-92150091D01*
X130616887Y-92710000D01*
X130728260Y-93269909D01*
X131045423Y-93744577D01*
X131397758Y-93980000D01*
X131045423Y-94215423D01*
X130728260Y-94690091D01*
X130616887Y-95250000D01*
X130728260Y-95809909D01*
X131045423Y-96284577D01*
X131397758Y-96520000D01*
X131045423Y-96755423D01*
X130728260Y-97230091D01*
X130616887Y-97790000D01*
X130728260Y-98349909D01*
X131045423Y-98824577D01*
X131397758Y-99060000D01*
X131045423Y-99295423D01*
X130728260Y-99770091D01*
X130616887Y-100330000D01*
X130728260Y-100889909D01*
X131045423Y-101364577D01*
X131397758Y-101600000D01*
X131045423Y-101835423D01*
X130728260Y-102310091D01*
X130616887Y-102870000D01*
X130728260Y-103429909D01*
X131045423Y-103904577D01*
X131397758Y-104140000D01*
X131045423Y-104375423D01*
X130728260Y-104850091D01*
X130616887Y-105410000D01*
X130728260Y-105969909D01*
X131045423Y-106444577D01*
X131397758Y-106680000D01*
X131045423Y-106915423D01*
X130728260Y-107390091D01*
X130616887Y-107950000D01*
X130728260Y-108509909D01*
X131045423Y-108984577D01*
X131397758Y-109220000D01*
X131045423Y-109455423D01*
X130728260Y-109930091D01*
X130616887Y-110490000D01*
X130728260Y-111049909D01*
X131045423Y-111524577D01*
X131397758Y-111760000D01*
X131045423Y-111995423D01*
X130728260Y-112470091D01*
X130616887Y-113030000D01*
X130728260Y-113589909D01*
X131045423Y-114064577D01*
X131397758Y-114300000D01*
X131045423Y-114535423D01*
X130728260Y-115010091D01*
X130616887Y-115570000D01*
X130728260Y-116129909D01*
X131045423Y-116604577D01*
X131520091Y-116921740D01*
X131938667Y-117005000D01*
X132221333Y-117005000D01*
X132639909Y-116921740D01*
X133114577Y-116604577D01*
X133431740Y-116129909D01*
X133543113Y-115570000D01*
X133431740Y-115010091D01*
X133114577Y-114535423D01*
X132762242Y-114300000D01*
X133114577Y-114064577D01*
X133431740Y-113589909D01*
X133543113Y-113030000D01*
X133431740Y-112470091D01*
X133114577Y-111995423D01*
X132762242Y-111760000D01*
X133114577Y-111524577D01*
X133298043Y-111250000D01*
X139385199Y-111250000D01*
X140210000Y-112074802D01*
X140210001Y-115495148D01*
X140195112Y-115570000D01*
X140254097Y-115866537D01*
X140313514Y-115955460D01*
X140422072Y-116117929D01*
X140485528Y-116160329D01*
X141480000Y-117154802D01*
X141480001Y-119890000D01*
X139638272Y-119890000D01*
X139655331Y-119864470D01*
X140184473Y-119335329D01*
X140247929Y-119292929D01*
X140415904Y-119041537D01*
X140460000Y-118819852D01*
X140460000Y-118819848D01*
X140474888Y-118745000D01*
X140460000Y-118670152D01*
X140460000Y-116914846D01*
X140474888Y-116839999D01*
X140460000Y-116765152D01*
X140460000Y-116765148D01*
X140415904Y-116543463D01*
X140247929Y-116292071D01*
X140184473Y-116249671D01*
X139743645Y-115808843D01*
X139791154Y-115570000D01*
X139687542Y-115049109D01*
X139392481Y-114607519D01*
X138950891Y-114312458D01*
X138888261Y-114300000D01*
X138950891Y-114287542D01*
X139392481Y-113992481D01*
X139687542Y-113550891D01*
X139791154Y-113030000D01*
X139687542Y-112509109D01*
X139392481Y-112067519D01*
X138950891Y-111772458D01*
X138561485Y-111695000D01*
X138298515Y-111695000D01*
X137909109Y-111772458D01*
X137467519Y-112067519D01*
X137332226Y-112270000D01*
X137234848Y-112270000D01*
X137160000Y-112255112D01*
X137085152Y-112270000D01*
X137085148Y-112270000D01*
X136863463Y-112314096D01*
X136612071Y-112482071D01*
X136569671Y-112545527D01*
X136040530Y-113074669D01*
X135977071Y-113117071D01*
X135809096Y-113368464D01*
X135765000Y-113590149D01*
X135765000Y-113590153D01*
X135750112Y-113665000D01*
X135765000Y-113739847D01*
X135765001Y-117160197D01*
X135575199Y-117350000D01*
X126044802Y-117350000D01*
X125220000Y-116525199D01*
X125220000Y-108653711D01*
X125337431Y-108536280D01*
X125495000Y-108155874D01*
X125495000Y-107744126D01*
X125337431Y-107363720D01*
X125046280Y-107072569D01*
X124665874Y-106915000D01*
X124254126Y-106915000D01*
X123873720Y-107072569D01*
X123582569Y-107363720D01*
X123425000Y-107744126D01*
X123425000Y-108155874D01*
X123582569Y-108536280D01*
X123700001Y-108653712D01*
X123700000Y-114374851D01*
X123700001Y-114374856D01*
X123700000Y-116275199D01*
X122680000Y-115255199D01*
X122680000Y-104214846D01*
X122694888Y-104139999D01*
X122680000Y-104065152D01*
X122680000Y-104065148D01*
X122635904Y-103843463D01*
X122467929Y-103592071D01*
X122404473Y-103549671D01*
X121240331Y-102385530D01*
X121197929Y-102322071D01*
X120946537Y-102154096D01*
X120724852Y-102110000D01*
X120724847Y-102110000D01*
X120650000Y-102095112D01*
X120575153Y-102110000D01*
X118058043Y-102110000D01*
X117874577Y-101835423D01*
X117522242Y-101600000D01*
X117874577Y-101364577D01*
X118191740Y-100889909D01*
X118303113Y-100330000D01*
X118191740Y-99770091D01*
X117874577Y-99295423D01*
X117522242Y-99060000D01*
X117874577Y-98824577D01*
X118191740Y-98349909D01*
X118303113Y-97790000D01*
X118191740Y-97230091D01*
X117874577Y-96755423D01*
X117522242Y-96520000D01*
X117874577Y-96284577D01*
X118191740Y-95809909D01*
X118303113Y-95250000D01*
X118191740Y-94690091D01*
X117874577Y-94215423D01*
X117522242Y-93980000D01*
X117874577Y-93744577D01*
X118191740Y-93269909D01*
X118303113Y-92710000D01*
X118191740Y-92150091D01*
X117874577Y-91675423D01*
X117522242Y-91440000D01*
X117874577Y-91204577D01*
X118191740Y-90729909D01*
X118303113Y-90170000D01*
X118191740Y-89610091D01*
X117874577Y-89135423D01*
X117490892Y-88879053D01*
X117695134Y-88782389D01*
X118071041Y-88367423D01*
X118231904Y-87979039D01*
X118109915Y-87757000D01*
X116967000Y-87757000D01*
X116967000Y-87777000D01*
X116713000Y-87777000D01*
X116713000Y-87757000D01*
X115570085Y-87757000D01*
X115448096Y-87979039D01*
X115608959Y-88367423D01*
X115984866Y-88782389D01*
X116189108Y-88879053D01*
X115805423Y-89135423D01*
X115488260Y-89610091D01*
X115376887Y-90170000D01*
X115488260Y-90729909D01*
X115805423Y-91204577D01*
X116157758Y-91440000D01*
X115805423Y-91675423D01*
X115488260Y-92150091D01*
X115376887Y-92710000D01*
X115488260Y-93269909D01*
X115805423Y-93744577D01*
X116157758Y-93980000D01*
X115805423Y-94215423D01*
X115488260Y-94690091D01*
X115376887Y-95250000D01*
X115488260Y-95809909D01*
X115805423Y-96284577D01*
X116157758Y-96520000D01*
X115805423Y-96755423D01*
X115488260Y-97230091D01*
X115376887Y-97790000D01*
X115488260Y-98349909D01*
X115805423Y-98824577D01*
X116157758Y-99060000D01*
X115805423Y-99295423D01*
X115488260Y-99770091D01*
X115376887Y-100330000D01*
X115488260Y-100889909D01*
X115805423Y-101364577D01*
X116157758Y-101600000D01*
X115805423Y-101835423D01*
X115488260Y-102310091D01*
X115376887Y-102870000D01*
X115488260Y-103429909D01*
X115805423Y-103904577D01*
X116157758Y-104140000D01*
X115805423Y-104375423D01*
X115488260Y-104850091D01*
X115376887Y-105410000D01*
X115488260Y-105969909D01*
X115805423Y-106444577D01*
X116157758Y-106680000D01*
X115805423Y-106915423D01*
X115488260Y-107390091D01*
X115376887Y-107950000D01*
X115488260Y-108509909D01*
X115805423Y-108984577D01*
X116157758Y-109220000D01*
X115805423Y-109455423D01*
X115488260Y-109930091D01*
X115376887Y-110490000D01*
X115488260Y-111049909D01*
X115805423Y-111524577D01*
X116157758Y-111760000D01*
X115805423Y-111995423D01*
X115621957Y-112270000D01*
X90397440Y-112270000D01*
X90397440Y-112180000D01*
X90348157Y-111932235D01*
X90207809Y-111722191D01*
X89997765Y-111581843D01*
X89952381Y-111572816D01*
X89970625Y-111560625D01*
X90094656Y-111375000D01*
X95089467Y-111375000D01*
X95121843Y-111537765D01*
X95262191Y-111747809D01*
X95472235Y-111888157D01*
X95720000Y-111937440D01*
X97320000Y-111937440D01*
X97567765Y-111888157D01*
X97777809Y-111747809D01*
X97918157Y-111537765D01*
X97950533Y-111375000D01*
X102502025Y-111375000D01*
X102748783Y-111621758D01*
X103239452Y-111825000D01*
X103770548Y-111825000D01*
X104261217Y-111621758D01*
X104507975Y-111375000D01*
X107789467Y-111375000D01*
X107821843Y-111537765D01*
X107962191Y-111747809D01*
X108172235Y-111888157D01*
X108420000Y-111937440D01*
X110020000Y-111937440D01*
X110267765Y-111888157D01*
X110477809Y-111747809D01*
X110618157Y-111537765D01*
X110652319Y-111366018D01*
X110865310Y-111323652D01*
X111158049Y-111128049D01*
X111207425Y-111054153D01*
X112324156Y-109937423D01*
X112398049Y-109888049D01*
X112474191Y-109774096D01*
X112593652Y-109595310D01*
X112645000Y-109337165D01*
X112645000Y-109337161D01*
X112662337Y-109250000D01*
X112645000Y-109162839D01*
X112645000Y-102322161D01*
X112662337Y-102235000D01*
X112645000Y-102147839D01*
X112645000Y-102147835D01*
X112593652Y-101889690D01*
X112518206Y-101776777D01*
X112447424Y-101670845D01*
X112447423Y-101670844D01*
X112398049Y-101596951D01*
X112324156Y-101547577D01*
X110542425Y-99765847D01*
X110493049Y-99691951D01*
X110200310Y-99496348D01*
X109942165Y-99445000D01*
X109942161Y-99445000D01*
X109855000Y-99427663D01*
X109767839Y-99445000D01*
X106124669Y-99445000D01*
X105919523Y-99137977D01*
X105394410Y-98787109D01*
X104775000Y-98663900D01*
X104155589Y-98787109D01*
X103630477Y-99137977D01*
X103495841Y-99339474D01*
X103101924Y-98954027D01*
X102607980Y-98739437D01*
X102362000Y-98859406D01*
X102362000Y-100203000D01*
X102382000Y-100203000D01*
X102382000Y-100457000D01*
X102362000Y-100457000D01*
X102362000Y-101800594D01*
X102607980Y-101920563D01*
X103101924Y-101705973D01*
X103495841Y-101320526D01*
X103630477Y-101522023D01*
X104155590Y-101872891D01*
X104775000Y-101996100D01*
X105394411Y-101872891D01*
X105919523Y-101522023D01*
X106124668Y-101215000D01*
X109488422Y-101215000D01*
X110875000Y-102601579D01*
X110875001Y-108883420D01*
X110497204Y-109261217D01*
X110478005Y-109232484D01*
X110666965Y-108706777D01*
X110639778Y-108136546D01*
X110473864Y-107735995D01*
X110227745Y-107661861D01*
X109399605Y-108490000D01*
X109413748Y-108504142D01*
X109234143Y-108683748D01*
X109220000Y-108669605D01*
X109205858Y-108683748D01*
X109026252Y-108504142D01*
X109040395Y-108490000D01*
X108212255Y-107661861D01*
X107966136Y-107735995D01*
X107773035Y-108273223D01*
X107800222Y-108843454D01*
X107961605Y-109233067D01*
X107821843Y-109442235D01*
X107789467Y-109605000D01*
X104507975Y-109605000D01*
X104261217Y-109358242D01*
X103991983Y-109246721D01*
X104198831Y-109161042D01*
X104260669Y-108925275D01*
X103505000Y-108169605D01*
X102749331Y-108925275D01*
X102811169Y-109161042D01*
X103034788Y-109239775D01*
X102748783Y-109358242D01*
X102502025Y-109605000D01*
X97950533Y-109605000D01*
X97918157Y-109442235D01*
X97778005Y-109232484D01*
X97966965Y-108706777D01*
X97939778Y-108136546D01*
X97799184Y-107797122D01*
X102157581Y-107797122D01*
X102186336Y-108327440D01*
X102333958Y-108683831D01*
X102569725Y-108745669D01*
X103325395Y-107990000D01*
X103684605Y-107990000D01*
X104440275Y-108745669D01*
X104676042Y-108683831D01*
X104852419Y-108182878D01*
X104823664Y-107652560D01*
X104753122Y-107482255D01*
X108391861Y-107482255D01*
X109220000Y-108310395D01*
X110048139Y-107482255D01*
X109974005Y-107236136D01*
X109436777Y-107043035D01*
X108866546Y-107070222D01*
X108465995Y-107236136D01*
X108391861Y-107482255D01*
X104753122Y-107482255D01*
X104676042Y-107296169D01*
X104440275Y-107234331D01*
X103684605Y-107990000D01*
X103325395Y-107990000D01*
X102569725Y-107234331D01*
X102333958Y-107296169D01*
X102157581Y-107797122D01*
X97799184Y-107797122D01*
X97773864Y-107735995D01*
X97527745Y-107661861D01*
X96699605Y-108490000D01*
X96713748Y-108504142D01*
X96534143Y-108683748D01*
X96520000Y-108669605D01*
X96505858Y-108683748D01*
X96326252Y-108504142D01*
X96340395Y-108490000D01*
X95512255Y-107661861D01*
X95266136Y-107735995D01*
X95073035Y-108273223D01*
X95100222Y-108843454D01*
X95261605Y-109233067D01*
X95121843Y-109442235D01*
X95089467Y-109605000D01*
X90094656Y-109605000D01*
X89970625Y-109419375D01*
X89651522Y-109206157D01*
X89781358Y-109145183D01*
X90171645Y-108716924D01*
X90341476Y-108306890D01*
X90220155Y-108077000D01*
X89027000Y-108077000D01*
X89027000Y-108097000D01*
X88773000Y-108097000D01*
X88773000Y-108077000D01*
X87579845Y-108077000D01*
X87458524Y-108306890D01*
X87628355Y-108716924D01*
X88018642Y-109145183D01*
X88148478Y-109206157D01*
X87829375Y-109419375D01*
X87501161Y-109910582D01*
X87385908Y-110490000D01*
X85852000Y-110490000D01*
X85852000Y-107593110D01*
X87458524Y-107593110D01*
X87579845Y-107823000D01*
X88773000Y-107823000D01*
X88773000Y-106629181D01*
X89027000Y-106629181D01*
X89027000Y-107823000D01*
X90220155Y-107823000D01*
X90341476Y-107593110D01*
X90295562Y-107482255D01*
X95691861Y-107482255D01*
X96520000Y-108310395D01*
X97348139Y-107482255D01*
X97274005Y-107236136D01*
X96769300Y-107054725D01*
X102749331Y-107054725D01*
X103505000Y-107810395D01*
X104260669Y-107054725D01*
X104198831Y-106818958D01*
X103697878Y-106642581D01*
X103167560Y-106671336D01*
X102811169Y-106818958D01*
X102749331Y-107054725D01*
X96769300Y-107054725D01*
X96736777Y-107043035D01*
X96166546Y-107070222D01*
X95765995Y-107236136D01*
X95691861Y-107482255D01*
X90295562Y-107482255D01*
X90171645Y-107183076D01*
X89781358Y-106754817D01*
X89256892Y-106508514D01*
X89027000Y-106629181D01*
X88773000Y-106629181D01*
X88543108Y-106508514D01*
X88018642Y-106754817D01*
X87628355Y-107183076D01*
X87458524Y-107593110D01*
X85852000Y-107593110D01*
X85852000Y-102567745D01*
X89341861Y-102567745D01*
X89415995Y-102813864D01*
X89953223Y-103006965D01*
X90523454Y-102979778D01*
X90924005Y-102813864D01*
X90998139Y-102567745D01*
X90170000Y-101739605D01*
X89341861Y-102567745D01*
X85852000Y-102567745D01*
X85852000Y-101343223D01*
X88723035Y-101343223D01*
X88750222Y-101913454D01*
X88916136Y-102314005D01*
X89162255Y-102388139D01*
X89990395Y-101560000D01*
X90349605Y-101560000D01*
X91177745Y-102388139D01*
X91423864Y-102314005D01*
X91616965Y-101776777D01*
X91589778Y-101206546D01*
X91423864Y-100805995D01*
X91177745Y-100731861D01*
X90349605Y-101560000D01*
X89990395Y-101560000D01*
X89162255Y-100731861D01*
X88916136Y-100805995D01*
X88723035Y-101343223D01*
X85852000Y-101343223D01*
X85852000Y-98260000D01*
X88722560Y-98260000D01*
X88722560Y-99860000D01*
X88771843Y-100107765D01*
X88912191Y-100317809D01*
X89122235Y-100458157D01*
X89356187Y-100504693D01*
X89341861Y-100552255D01*
X90170000Y-101380395D01*
X90998139Y-100552255D01*
X90983813Y-100504693D01*
X91217765Y-100458157D01*
X91427809Y-100317809D01*
X91568157Y-100107765D01*
X91600533Y-99945000D01*
X98058422Y-99945000D01*
X98095060Y-99981638D01*
X98095060Y-101330000D01*
X98144343Y-101577765D01*
X98284691Y-101787809D01*
X98494735Y-101928157D01*
X98742500Y-101977440D01*
X100647500Y-101977440D01*
X100895265Y-101928157D01*
X101105309Y-101787809D01*
X101242255Y-101582857D01*
X101368076Y-101705973D01*
X101862020Y-101920563D01*
X102108000Y-101800594D01*
X102108000Y-100457000D01*
X102088000Y-100457000D01*
X102088000Y-100203000D01*
X102108000Y-100203000D01*
X102108000Y-98859406D01*
X101862020Y-98739437D01*
X101368076Y-98954027D01*
X101242255Y-99077143D01*
X101105309Y-98872191D01*
X101057153Y-98840014D01*
X101045904Y-98783463D01*
X100877929Y-98532071D01*
X100626536Y-98364096D01*
X100330000Y-98305111D01*
X100033463Y-98364096D01*
X99782071Y-98532071D01*
X99681518Y-98682560D01*
X99299138Y-98682560D01*
X99112425Y-98495847D01*
X99063049Y-98421951D01*
X98770310Y-98226348D01*
X98512165Y-98175000D01*
X98512161Y-98175000D01*
X98425000Y-98157663D01*
X98337839Y-98175000D01*
X91600533Y-98175000D01*
X91568157Y-98012235D01*
X91427809Y-97802191D01*
X91217765Y-97661843D01*
X91055000Y-97629467D01*
X91055000Y-92615750D01*
X93675000Y-92615750D01*
X93675000Y-94206310D01*
X93771673Y-94439699D01*
X93950302Y-94618327D01*
X94183691Y-94715000D01*
X95774250Y-94715000D01*
X95933000Y-94556250D01*
X95933000Y-92457000D01*
X96187000Y-92457000D01*
X96187000Y-94556250D01*
X96345750Y-94715000D01*
X97936309Y-94715000D01*
X98169698Y-94618327D01*
X98348327Y-94439699D01*
X98445000Y-94206310D01*
X98445000Y-92615750D01*
X98286250Y-92457000D01*
X96187000Y-92457000D01*
X95933000Y-92457000D01*
X93833750Y-92457000D01*
X93675000Y-92615750D01*
X91055000Y-92615750D01*
X91055000Y-89773026D01*
X91200302Y-89918327D01*
X91433691Y-90015000D01*
X92774250Y-90015000D01*
X92933000Y-89856250D01*
X92933000Y-87757000D01*
X93187000Y-87757000D01*
X93187000Y-89856250D01*
X93345750Y-90015000D01*
X94014696Y-90015000D01*
X93950302Y-90041673D01*
X93771673Y-90220301D01*
X93675000Y-90453690D01*
X93675000Y-92044250D01*
X93833750Y-92203000D01*
X95933000Y-92203000D01*
X95933000Y-90103750D01*
X96187000Y-90103750D01*
X96187000Y-92203000D01*
X98286250Y-92203000D01*
X98445000Y-92044250D01*
X98445000Y-90453690D01*
X98348327Y-90220301D01*
X98169698Y-90041673D01*
X98135337Y-90027440D01*
X100810000Y-90027440D01*
X101057765Y-89978157D01*
X101267809Y-89837809D01*
X101408157Y-89627765D01*
X101457440Y-89380000D01*
X101457440Y-88465000D01*
X107537537Y-88465000D01*
X107451010Y-88900000D01*
X107585666Y-89576963D01*
X107969135Y-90150865D01*
X108543037Y-90534334D01*
X109049120Y-90635000D01*
X109390880Y-90635000D01*
X109896963Y-90534334D01*
X110470865Y-90150865D01*
X110854334Y-89576963D01*
X110988990Y-88900000D01*
X110854334Y-88223037D01*
X110470865Y-87649135D01*
X109896963Y-87265666D01*
X109390880Y-87165000D01*
X109049120Y-87165000D01*
X108729453Y-87228586D01*
X108598587Y-87097720D01*
X108552001Y-87027999D01*
X108275801Y-86843448D01*
X108032237Y-86795000D01*
X108032233Y-86795000D01*
X107950000Y-86778643D01*
X107867767Y-86795000D01*
X101457440Y-86795000D01*
X101457440Y-85880000D01*
X101408157Y-85632235D01*
X101267809Y-85422191D01*
X101057765Y-85281843D01*
X100810000Y-85232560D01*
X97310000Y-85232560D01*
X97062235Y-85281843D01*
X96852191Y-85422191D01*
X96711843Y-85632235D01*
X96662560Y-85880000D01*
X96662560Y-89380000D01*
X96711843Y-89627765D01*
X96852191Y-89837809D01*
X97012612Y-89945000D01*
X96345750Y-89945000D01*
X96187000Y-90103750D01*
X95933000Y-90103750D01*
X95774250Y-89945000D01*
X94855304Y-89945000D01*
X94919698Y-89918327D01*
X95098327Y-89739699D01*
X95195000Y-89506310D01*
X95195000Y-87915750D01*
X95036250Y-87757000D01*
X93187000Y-87757000D01*
X92933000Y-87757000D01*
X92913000Y-87757000D01*
X92913000Y-87503000D01*
X92933000Y-87503000D01*
X92933000Y-85403750D01*
X93187000Y-85403750D01*
X93187000Y-87503000D01*
X95036250Y-87503000D01*
X95195000Y-87344250D01*
X95195000Y-85753690D01*
X95098327Y-85520301D01*
X94919698Y-85341673D01*
X94686309Y-85245000D01*
X93345750Y-85245000D01*
X93187000Y-85403750D01*
X92933000Y-85403750D01*
X92774250Y-85245000D01*
X91433691Y-85245000D01*
X91200302Y-85341673D01*
X91055000Y-85486974D01*
X91055000Y-84186578D01*
X92441579Y-82800000D01*
X94527839Y-82800000D01*
X94615000Y-82817337D01*
X94702161Y-82800000D01*
X94702165Y-82800000D01*
X94960310Y-82748652D01*
X95253049Y-82553049D01*
X95255086Y-82550000D01*
X115376887Y-82550000D01*
X115488260Y-83109909D01*
X115805423Y-83584577D01*
X116157758Y-83820000D01*
X115805423Y-84055423D01*
X115488260Y-84530091D01*
X115376887Y-85090000D01*
X115488260Y-85649909D01*
X115805423Y-86124577D01*
X116189108Y-86380947D01*
X115984866Y-86477611D01*
X115608959Y-86892577D01*
X115448096Y-87280961D01*
X115570085Y-87503000D01*
X116713000Y-87503000D01*
X116713000Y-87483000D01*
X116967000Y-87483000D01*
X116967000Y-87503000D01*
X118109915Y-87503000D01*
X118231904Y-87280961D01*
X118071041Y-86892577D01*
X117695134Y-86477611D01*
X117490892Y-86380947D01*
X117874577Y-86124577D01*
X118191740Y-85649909D01*
X118303113Y-85090000D01*
X118191740Y-84530091D01*
X117874577Y-84055423D01*
X117522242Y-83820000D01*
X117874577Y-83584577D01*
X118191740Y-83109909D01*
X118303113Y-82550000D01*
X118191740Y-81990091D01*
X117874577Y-81515423D01*
X117753894Y-81434785D01*
X117887765Y-81408157D01*
X118097809Y-81267809D01*
X118238157Y-81057765D01*
X118287440Y-80810000D01*
X118287440Y-79210000D01*
X118238157Y-78962235D01*
X118097809Y-78752191D01*
X117887765Y-78611843D01*
X117640000Y-78562560D01*
X116040000Y-78562560D01*
X115792235Y-78611843D01*
X115582191Y-78752191D01*
X115441843Y-78962235D01*
X115392560Y-79210000D01*
X115392560Y-80810000D01*
X115441843Y-81057765D01*
X115582191Y-81267809D01*
X115792235Y-81408157D01*
X115926106Y-81434785D01*
X115805423Y-81515423D01*
X115488260Y-81990091D01*
X115376887Y-82550000D01*
X95255086Y-82550000D01*
X95302425Y-82479153D01*
X98156579Y-79625000D01*
X107472560Y-79625000D01*
X107472560Y-79840000D01*
X107521843Y-80087765D01*
X107662191Y-80297809D01*
X107872235Y-80438157D01*
X108120000Y-80487440D01*
X110320000Y-80487440D01*
X110567765Y-80438157D01*
X110777809Y-80297809D01*
X110918157Y-80087765D01*
X110967440Y-79840000D01*
X110967440Y-79625000D01*
X112307839Y-79625000D01*
X112395000Y-79642337D01*
X112482161Y-79625000D01*
X112482165Y-79625000D01*
X112740310Y-79573652D01*
X113033049Y-79378049D01*
X113082425Y-79304153D01*
X114031579Y-78355000D01*
X130304792Y-78355000D01*
X130997274Y-79047483D01*
X130728260Y-79450091D01*
X130616887Y-80010000D01*
X130728260Y-80569909D01*
X131045423Y-81044577D01*
X131429108Y-81300947D01*
X131224866Y-81397611D01*
X130848959Y-81812577D01*
X130688096Y-82200961D01*
X130810085Y-82423000D01*
X131953000Y-82423000D01*
X131953000Y-82403000D01*
X132207000Y-82403000D01*
X132207000Y-82423000D01*
X133349915Y-82423000D01*
X133471904Y-82200961D01*
X133311041Y-81812577D01*
X132935134Y-81397611D01*
X132730892Y-81300947D01*
X133114577Y-81044577D01*
X133431740Y-80569909D01*
X133479415Y-80330226D01*
X136389831Y-80330226D01*
X137160000Y-81100395D01*
X137930169Y-80330226D01*
X137865869Y-80092389D01*
X137357658Y-79912667D01*
X136819356Y-79941108D01*
X136454131Y-80092389D01*
X136389831Y-80330226D01*
X133479415Y-80330226D01*
X133543113Y-80010000D01*
X133431740Y-79450091D01*
X133114577Y-78975423D01*
X132980856Y-78886074D01*
X132982337Y-78878630D01*
X132965000Y-78791469D01*
X132965000Y-78791465D01*
X132913652Y-78533320D01*
X132718049Y-78240581D01*
X132644156Y-78191207D01*
X132223224Y-77770275D01*
X136444331Y-77770275D01*
X136506169Y-78006042D01*
X137007122Y-78182419D01*
X137537440Y-78153664D01*
X137893831Y-78006042D01*
X137955669Y-77770275D01*
X137200000Y-77014605D01*
X136444331Y-77770275D01*
X132223224Y-77770275D01*
X131358795Y-76905847D01*
X131309419Y-76831951D01*
X131025322Y-76642122D01*
X135852581Y-76642122D01*
X135881336Y-77172440D01*
X136028958Y-77528831D01*
X136264725Y-77590669D01*
X137020395Y-76835000D01*
X136264725Y-76079331D01*
X136028958Y-76141169D01*
X135852581Y-76642122D01*
X131025322Y-76642122D01*
X131016680Y-76636348D01*
X130758535Y-76585000D01*
X130758531Y-76585000D01*
X130671370Y-76567663D01*
X130584209Y-76585000D01*
X113752159Y-76585000D01*
X113664999Y-76567663D01*
X113577839Y-76585000D01*
X113577835Y-76585000D01*
X113319690Y-76636348D01*
X113211880Y-76708385D01*
X113100845Y-76782576D01*
X113100844Y-76782577D01*
X113026951Y-76831951D01*
X112977577Y-76905844D01*
X112028422Y-77855000D01*
X110967440Y-77855000D01*
X110967440Y-77640000D01*
X110918157Y-77392235D01*
X110777809Y-77182191D01*
X110567765Y-77041843D01*
X110320000Y-76992560D01*
X108120000Y-76992560D01*
X107872235Y-77041843D01*
X107662191Y-77182191D01*
X107521843Y-77392235D01*
X107472560Y-77640000D01*
X107472560Y-77855000D01*
X97877159Y-77855000D01*
X97789999Y-77837663D01*
X97702840Y-77855000D01*
X97702835Y-77855000D01*
X97444690Y-77906348D01*
X97295488Y-78006042D01*
X97225845Y-78052576D01*
X97225844Y-78052577D01*
X97151951Y-78101951D01*
X97102577Y-78175844D01*
X94248422Y-81030000D01*
X92162161Y-81030000D01*
X92075000Y-81012663D01*
X91987839Y-81030000D01*
X91987835Y-81030000D01*
X91729690Y-81081348D01*
X91510845Y-81227576D01*
X91510844Y-81227577D01*
X91436951Y-81276951D01*
X91387577Y-81350844D01*
X89605847Y-83132575D01*
X89531951Y-83181951D01*
X89336348Y-83474691D01*
X89285000Y-83732836D01*
X89285000Y-83732839D01*
X89267663Y-83820000D01*
X89285000Y-83907161D01*
X89285001Y-97629467D01*
X89122235Y-97661843D01*
X88912191Y-97802191D01*
X88771843Y-98012235D01*
X88722560Y-98260000D01*
X85852000Y-98260000D01*
X85852000Y-75825050D01*
X88285000Y-75825050D01*
X88285000Y-76574950D01*
X88571974Y-77267767D01*
X89102233Y-77798026D01*
X89795050Y-78085000D01*
X90544950Y-78085000D01*
X91237767Y-77798026D01*
X91768026Y-77267767D01*
X92055000Y-76574950D01*
X92055000Y-75899725D01*
X136444331Y-75899725D01*
X137200000Y-76655395D01*
X137955669Y-75899725D01*
X137893831Y-75663958D01*
X137392878Y-75487581D01*
X136862560Y-75516336D01*
X136506169Y-75663958D01*
X136444331Y-75899725D01*
X92055000Y-75899725D01*
X92055000Y-75825050D01*
X91768026Y-75132233D01*
X91237767Y-74601974D01*
X90544950Y-74315000D01*
X89795050Y-74315000D01*
X89102233Y-74601974D01*
X88571974Y-75132233D01*
X88285000Y-75825050D01*
X85852000Y-75825050D01*
X85852000Y-73152000D01*
X165608000Y-73152000D01*
X165608000Y-124968000D01*
X165608000Y-124968000D01*
G37*
X165608000Y-124968000D02*
X85852000Y-124968000D01*
X85852000Y-121545050D01*
X88285000Y-121545050D01*
X88285000Y-122294950D01*
X88571974Y-122987767D01*
X89102233Y-123518026D01*
X89795050Y-123805000D01*
X90544950Y-123805000D01*
X91237767Y-123518026D01*
X91768026Y-122987767D01*
X92055000Y-122294950D01*
X92055000Y-121545050D01*
X91768026Y-120852233D01*
X91237767Y-120321974D01*
X90544950Y-120035000D01*
X89795050Y-120035000D01*
X89102233Y-120321974D01*
X88571974Y-120852233D01*
X88285000Y-121545050D01*
X85852000Y-121545050D01*
X85852000Y-116722532D01*
X98087073Y-116722532D01*
X98185736Y-116989387D01*
X98795461Y-117215908D01*
X99445460Y-117191856D01*
X99934264Y-116989387D01*
X100032927Y-116722532D01*
X104587073Y-116722532D01*
X104685736Y-116989387D01*
X105295461Y-117215908D01*
X105945460Y-117191856D01*
X106434264Y-116989387D01*
X106532927Y-116722532D01*
X105560000Y-115749605D01*
X104587073Y-116722532D01*
X100032927Y-116722532D01*
X99060000Y-115749605D01*
X98087073Y-116722532D01*
X85852000Y-116722532D01*
X85852000Y-115305461D01*
X97414092Y-115305461D01*
X97438144Y-115955460D01*
X97640613Y-116444264D01*
X97907468Y-116542927D01*
X98880395Y-115570000D01*
X99239605Y-115570000D01*
X100212532Y-116542927D01*
X100479387Y-116444264D01*
X100705908Y-115834539D01*
X100686331Y-115305461D01*
X103914092Y-115305461D01*
X103938144Y-115955460D01*
X104140613Y-116444264D01*
X104407468Y-116542927D01*
X105380395Y-115570000D01*
X105739605Y-115570000D01*
X106712532Y-116542927D01*
X106979387Y-116444264D01*
X107205908Y-115834539D01*
X107181856Y-115184540D01*
X106979387Y-114695736D01*
X106712532Y-114597073D01*
X105739605Y-115570000D01*
X105380395Y-115570000D01*
X104407468Y-114597073D01*
X104140613Y-114695736D01*
X103914092Y-115305461D01*
X100686331Y-115305461D01*
X100681856Y-115184540D01*
X100479387Y-114695736D01*
X100212532Y-114597073D01*
X99239605Y-115570000D01*
X98880395Y-115570000D01*
X97907468Y-114597073D01*
X97640613Y-114695736D01*
X97414092Y-115305461D01*
X85852000Y-115305461D01*
X85852000Y-110490000D01*
X87385908Y-110490000D01*
X87501161Y-111069418D01*
X87829375Y-111560625D01*
X87847619Y-111572816D01*
X87802235Y-111581843D01*
X87592191Y-111722191D01*
X87451843Y-111932235D01*
X87402560Y-112180000D01*
X87402560Y-113880000D01*
X87451843Y-114127765D01*
X87592191Y-114337809D01*
X87802235Y-114478157D01*
X88050000Y-114527440D01*
X89750000Y-114527440D01*
X89997765Y-114478157D01*
X90088591Y-114417468D01*
X98087073Y-114417468D01*
X99060000Y-115390395D01*
X100032927Y-114417468D01*
X104587073Y-114417468D01*
X105560000Y-115390395D01*
X106532927Y-114417468D01*
X106434264Y-114150613D01*
X105824539Y-113924092D01*
X105174540Y-113948144D01*
X104685736Y-114150613D01*
X104587073Y-114417468D01*
X100032927Y-114417468D01*
X99934264Y-114150613D01*
X99324539Y-113924092D01*
X98674540Y-113948144D01*
X98185736Y-114150613D01*
X98087073Y-114417468D01*
X90088591Y-114417468D01*
X90207809Y-114337809D01*
X90348157Y-114127765D01*
X90397440Y-113880000D01*
X90397440Y-113790000D01*
X115621957Y-113790000D01*
X115805423Y-114064577D01*
X116157758Y-114300000D01*
X115805423Y-114535423D01*
X115488260Y-115010091D01*
X115376887Y-115570000D01*
X115488260Y-116129909D01*
X115805423Y-116604577D01*
X116280091Y-116921740D01*
X116698667Y-117005000D01*
X116981333Y-117005000D01*
X117399909Y-116921740D01*
X117874577Y-116604577D01*
X118191740Y-116129909D01*
X118303113Y-115570000D01*
X118191740Y-115010091D01*
X117874577Y-114535423D01*
X117522242Y-114300000D01*
X117874577Y-114064577D01*
X118191740Y-113589909D01*
X118303113Y-113030000D01*
X118191740Y-112470091D01*
X117874577Y-111995423D01*
X117522242Y-111760000D01*
X117874577Y-111524577D01*
X118191740Y-111049909D01*
X118303113Y-110490000D01*
X118191740Y-109930091D01*
X117874577Y-109455423D01*
X117522242Y-109220000D01*
X117874577Y-108984577D01*
X118191740Y-108509909D01*
X118303113Y-107950000D01*
X118191740Y-107390091D01*
X117874577Y-106915423D01*
X117522242Y-106680000D01*
X117874577Y-106444577D01*
X118058043Y-106170000D01*
X119065199Y-106170000D01*
X119890001Y-106994803D01*
X119890000Y-115495153D01*
X119875112Y-115570000D01*
X119890000Y-115644847D01*
X119890000Y-115644851D01*
X119934096Y-115866536D01*
X120102071Y-116117929D01*
X120165530Y-116160331D01*
X123869671Y-119864473D01*
X123912071Y-119927929D01*
X123975527Y-119970329D01*
X124163462Y-120095904D01*
X124211605Y-120105480D01*
X124385148Y-120140000D01*
X124385152Y-120140000D01*
X124460000Y-120154888D01*
X124534848Y-120140000D01*
X137196255Y-120140000D01*
X137095000Y-120384452D01*
X137095000Y-120915548D01*
X137298242Y-121406217D01*
X137673783Y-121781758D01*
X137995918Y-121915191D01*
X137909109Y-121932458D01*
X137467519Y-122227519D01*
X137332226Y-122430000D01*
X115003711Y-122430000D01*
X114886280Y-122312569D01*
X114505874Y-122155000D01*
X114339803Y-122155000D01*
X111770331Y-119585530D01*
X111727929Y-119522071D01*
X111476537Y-119354096D01*
X111254852Y-119310000D01*
X111254847Y-119310000D01*
X111180000Y-119295112D01*
X111105153Y-119310000D01*
X107014909Y-119310000D01*
X106946086Y-119143847D01*
X106486153Y-118683914D01*
X105885222Y-118435000D01*
X105234778Y-118435000D01*
X104633847Y-118683914D01*
X104173914Y-119143847D01*
X104105091Y-119310000D01*
X100514909Y-119310000D01*
X100446086Y-119143847D01*
X99986153Y-118683914D01*
X99385222Y-118435000D01*
X98734778Y-118435000D01*
X98133847Y-118683914D01*
X97673914Y-119143847D01*
X97425000Y-119744778D01*
X97425000Y-120395222D01*
X97673914Y-120996153D01*
X98133847Y-121456086D01*
X98734778Y-121705000D01*
X99385222Y-121705000D01*
X99986153Y-121456086D01*
X100446086Y-120996153D01*
X100514909Y-120830000D01*
X104105091Y-120830000D01*
X104173914Y-120996153D01*
X104633847Y-121456086D01*
X105234778Y-121705000D01*
X105885222Y-121705000D01*
X106486153Y-121456086D01*
X106946086Y-120996153D01*
X107014909Y-120830000D01*
X110865199Y-120830000D01*
X113265000Y-123229803D01*
X113265000Y-123395874D01*
X113422569Y-123776280D01*
X113713720Y-124067431D01*
X114094126Y-124225000D01*
X114505874Y-124225000D01*
X114886280Y-124067431D01*
X115003711Y-123950000D01*
X137332226Y-123950000D01*
X137467519Y-124152481D01*
X137909109Y-124447542D01*
X138298515Y-124525000D01*
X138561485Y-124525000D01*
X138950891Y-124447542D01*
X139392481Y-124152481D01*
X139687542Y-123710891D01*
X139791154Y-123190000D01*
X139687542Y-122669109D01*
X139392481Y-122227519D01*
X138950891Y-121932458D01*
X138864082Y-121915191D01*
X139186217Y-121781758D01*
X139557975Y-121410000D01*
X141925199Y-121410000D01*
X144189673Y-123674476D01*
X144232071Y-123737929D01*
X144295524Y-123780327D01*
X144295526Y-123780329D01*
X144420902Y-123864102D01*
X144483463Y-123905904D01*
X144705148Y-123950000D01*
X144705152Y-123950000D01*
X144779999Y-123964888D01*
X144854846Y-123950000D01*
X144922025Y-123950000D01*
X145293783Y-124321758D01*
X145784452Y-124525000D01*
X146315548Y-124525000D01*
X146806217Y-124321758D01*
X147181758Y-123946217D01*
X147385000Y-123455548D01*
X147385000Y-122924452D01*
X147181758Y-122433783D01*
X146806217Y-122058242D01*
X146484082Y-121924809D01*
X146570891Y-121907542D01*
X147012481Y-121612481D01*
X147147774Y-121410000D01*
X148515153Y-121410000D01*
X148590000Y-121424888D01*
X148664847Y-121410000D01*
X148664852Y-121410000D01*
X148886537Y-121365904D01*
X149137929Y-121197929D01*
X149180331Y-121134470D01*
X149484802Y-120830000D01*
X149675091Y-120830000D01*
X149743914Y-120996153D01*
X150203847Y-121456086D01*
X150804778Y-121705000D01*
X151455222Y-121705000D01*
X152056153Y-121456086D01*
X152516086Y-120996153D01*
X152584909Y-120830000D01*
X156175091Y-120830000D01*
X156243914Y-120996153D01*
X156703847Y-121456086D01*
X157304778Y-121705000D01*
X157955222Y-121705000D01*
X158341375Y-121545050D01*
X160675000Y-121545050D01*
X160675000Y-122294950D01*
X160961974Y-122987767D01*
X161492233Y-123518026D01*
X162185050Y-123805000D01*
X162934950Y-123805000D01*
X163627767Y-123518026D01*
X164158026Y-122987767D01*
X164445000Y-122294950D01*
X164445000Y-121545050D01*
X164158026Y-120852233D01*
X163627767Y-120321974D01*
X162934950Y-120035000D01*
X162185050Y-120035000D01*
X161492233Y-120321974D01*
X160961974Y-120852233D01*
X160675000Y-121545050D01*
X158341375Y-121545050D01*
X158556153Y-121456086D01*
X159016086Y-120996153D01*
X159265000Y-120395222D01*
X159265000Y-119744778D01*
X159016086Y-119143847D01*
X158556153Y-118683914D01*
X157955222Y-118435000D01*
X157304778Y-118435000D01*
X156703847Y-118683914D01*
X156243914Y-119143847D01*
X156175091Y-119310000D01*
X152584909Y-119310000D01*
X152516086Y-119143847D01*
X152056153Y-118683914D01*
X151455222Y-118435000D01*
X150804778Y-118435000D01*
X150203847Y-118683914D01*
X149743914Y-119143847D01*
X149675091Y-119310000D01*
X149244847Y-119310000D01*
X149170000Y-119295112D01*
X149095153Y-119310000D01*
X149095148Y-119310000D01*
X148873463Y-119354096D01*
X148622071Y-119522071D01*
X148579671Y-119585527D01*
X148275199Y-119890000D01*
X147147774Y-119890000D01*
X147012481Y-119687519D01*
X146570891Y-119392458D01*
X146484082Y-119375191D01*
X146806217Y-119241758D01*
X147181758Y-118866217D01*
X147385000Y-118375548D01*
X147385000Y-117844452D01*
X147181758Y-117353783D01*
X146806217Y-116978242D01*
X146472472Y-116840000D01*
X146756064Y-116722532D01*
X150157073Y-116722532D01*
X150255736Y-116989387D01*
X150865461Y-117215908D01*
X151515460Y-117191856D01*
X152004264Y-116989387D01*
X152102927Y-116722532D01*
X156657073Y-116722532D01*
X156755736Y-116989387D01*
X157365461Y-117215908D01*
X158015460Y-117191856D01*
X158504264Y-116989387D01*
X158602927Y-116722532D01*
X157630000Y-115749605D01*
X156657073Y-116722532D01*
X152102927Y-116722532D01*
X151130000Y-115749605D01*
X150157073Y-116722532D01*
X146756064Y-116722532D01*
X146806217Y-116701758D01*
X147181758Y-116326217D01*
X147385000Y-115835548D01*
X147385000Y-115305461D01*
X149484092Y-115305461D01*
X149508144Y-115955460D01*
X149710613Y-116444264D01*
X149977468Y-116542927D01*
X150950395Y-115570000D01*
X151309605Y-115570000D01*
X152282532Y-116542927D01*
X152549387Y-116444264D01*
X152775908Y-115834539D01*
X152756331Y-115305461D01*
X155984092Y-115305461D01*
X156008144Y-115955460D01*
X156210613Y-116444264D01*
X156477468Y-116542927D01*
X157450395Y-115570000D01*
X157809605Y-115570000D01*
X158782532Y-116542927D01*
X159049387Y-116444264D01*
X159275908Y-115834539D01*
X159251856Y-115184540D01*
X159049387Y-114695736D01*
X158782532Y-114597073D01*
X157809605Y-115570000D01*
X157450395Y-115570000D01*
X156477468Y-114597073D01*
X156210613Y-114695736D01*
X155984092Y-115305461D01*
X152756331Y-115305461D01*
X152751856Y-115184540D01*
X152549387Y-114695736D01*
X152282532Y-114597073D01*
X151309605Y-115570000D01*
X150950395Y-115570000D01*
X149977468Y-114597073D01*
X149710613Y-114695736D01*
X149484092Y-115305461D01*
X147385000Y-115305461D01*
X147385000Y-115304452D01*
X147181758Y-114813783D01*
X146806217Y-114438242D01*
X146756065Y-114417468D01*
X150157073Y-114417468D01*
X151130000Y-115390395D01*
X152102927Y-114417468D01*
X156657073Y-114417468D01*
X157630000Y-115390395D01*
X158602927Y-114417468D01*
X158504264Y-114150613D01*
X157894539Y-113924092D01*
X157244540Y-113948144D01*
X156755736Y-114150613D01*
X156657073Y-114417468D01*
X152102927Y-114417468D01*
X152004264Y-114150613D01*
X151394539Y-113924092D01*
X150744540Y-113948144D01*
X150255736Y-114150613D01*
X150157073Y-114417468D01*
X146756065Y-114417468D01*
X146472472Y-114300000D01*
X146806217Y-114161758D01*
X147181758Y-113786217D01*
X147385000Y-113295548D01*
X147385000Y-112764452D01*
X147181758Y-112273783D01*
X146896388Y-111988413D01*
X147634802Y-111250000D01*
X153595153Y-111250000D01*
X153670000Y-111264888D01*
X153744847Y-111250000D01*
X153744852Y-111250000D01*
X153966537Y-111205904D01*
X154217929Y-111037929D01*
X154260331Y-110974470D01*
X155424473Y-109810329D01*
X155487929Y-109767929D01*
X155655904Y-109516537D01*
X155700000Y-109294852D01*
X155700000Y-109294848D01*
X155714888Y-109220001D01*
X155700000Y-109145154D01*
X155700000Y-106689347D01*
X155757392Y-106727695D01*
X156210000Y-106817725D01*
X156662609Y-106727695D01*
X157046313Y-106471313D01*
X157302695Y-106087608D01*
X157370000Y-105749245D01*
X157370000Y-105070754D01*
X157302695Y-104732391D01*
X157046313Y-104348687D01*
X156662608Y-104092305D01*
X156210000Y-104002275D01*
X155757391Y-104092305D01*
X155575000Y-104214175D01*
X155392608Y-104092305D01*
X154940000Y-104002275D01*
X154487391Y-104092305D01*
X154486016Y-104093224D01*
X154321309Y-104025000D01*
X153955750Y-104025000D01*
X153797000Y-104183750D01*
X153797000Y-104985291D01*
X153780000Y-105070755D01*
X153780000Y-105749246D01*
X153797000Y-105834710D01*
X153797000Y-106636250D01*
X153955750Y-106795000D01*
X154180000Y-106795000D01*
X154180001Y-108905197D01*
X153355199Y-109730000D01*
X147394846Y-109730000D01*
X147319999Y-109715112D01*
X147245152Y-109730000D01*
X147245148Y-109730000D01*
X147023463Y-109774096D01*
X146772071Y-109942071D01*
X146729671Y-110005527D01*
X145565530Y-111169669D01*
X145502071Y-111212071D01*
X145334096Y-111463464D01*
X145290000Y-111685149D01*
X145290000Y-111685153D01*
X145275112Y-111760000D01*
X145290000Y-111834847D01*
X145290000Y-111902025D01*
X144918242Y-112273783D01*
X144715000Y-112764452D01*
X144715000Y-113295548D01*
X144918242Y-113786217D01*
X145293783Y-114161758D01*
X145627528Y-114300000D01*
X145293783Y-114438242D01*
X145008413Y-114723612D01*
X144270000Y-113985199D01*
X144270000Y-98104801D01*
X144715000Y-97659802D01*
X144715000Y-98055548D01*
X144918242Y-98546217D01*
X145293783Y-98921758D01*
X145627528Y-99060000D01*
X145293783Y-99198242D01*
X144918242Y-99573783D01*
X144715000Y-100064452D01*
X144715000Y-100595548D01*
X144918242Y-101086217D01*
X145293783Y-101461758D01*
X145627528Y-101600000D01*
X145293783Y-101738242D01*
X144918242Y-102113783D01*
X144715000Y-102604452D01*
X144715000Y-103135548D01*
X144918242Y-103626217D01*
X145293783Y-104001758D01*
X145627528Y-104140000D01*
X145293783Y-104278242D01*
X144918242Y-104653783D01*
X144715000Y-105144452D01*
X144715000Y-105675548D01*
X144918242Y-106166217D01*
X145293783Y-106541758D01*
X145627528Y-106680000D01*
X145293783Y-106818242D01*
X144918242Y-107193783D01*
X144715000Y-107684452D01*
X144715000Y-108215548D01*
X144918242Y-108706217D01*
X145293783Y-109081758D01*
X145784452Y-109285000D01*
X146315548Y-109285000D01*
X146806217Y-109081758D01*
X147177975Y-108710000D01*
X148515153Y-108710000D01*
X148590000Y-108724888D01*
X148664847Y-108710000D01*
X148664852Y-108710000D01*
X148886537Y-108665904D01*
X149137929Y-108497929D01*
X149180331Y-108434470D01*
X151919051Y-105695750D01*
X152510000Y-105695750D01*
X152510000Y-106286310D01*
X152606673Y-106519699D01*
X152785302Y-106698327D01*
X153018691Y-106795000D01*
X153384250Y-106795000D01*
X153543000Y-106636250D01*
X153543000Y-105537000D01*
X152668750Y-105537000D01*
X152510000Y-105695750D01*
X151919051Y-105695750D01*
X152510000Y-105104802D01*
X152510000Y-105124250D01*
X152668750Y-105283000D01*
X153543000Y-105283000D01*
X153543000Y-104183750D01*
X153487026Y-104127776D01*
X153984802Y-103630000D01*
X159945153Y-103630000D01*
X160020000Y-103644888D01*
X160094847Y-103630000D01*
X160094852Y-103630000D01*
X160316537Y-103585904D01*
X160567929Y-103417929D01*
X160610331Y-103354470D01*
X161774473Y-102190329D01*
X161837929Y-102147929D01*
X162005904Y-101896537D01*
X162050000Y-101674852D01*
X162050000Y-101674848D01*
X162064888Y-101600001D01*
X162050000Y-101525154D01*
X162050000Y-88974846D01*
X162064888Y-88899999D01*
X162050000Y-88825152D01*
X162050000Y-88825148D01*
X162005904Y-88603463D01*
X161837929Y-88352071D01*
X161774473Y-88309671D01*
X160610331Y-87145530D01*
X160567929Y-87082071D01*
X160316537Y-86914096D01*
X160094852Y-86870000D01*
X160094847Y-86870000D01*
X160020000Y-86855112D01*
X159945153Y-86870000D01*
X157448430Y-86870000D01*
X157426534Y-86817138D01*
X157022862Y-86413466D01*
X156495439Y-86195000D01*
X155924561Y-86195000D01*
X155397138Y-86413466D01*
X154993466Y-86817138D01*
X154775000Y-87344561D01*
X154775000Y-87915439D01*
X154993466Y-88442862D01*
X155397138Y-88846534D01*
X155526216Y-88900000D01*
X155397138Y-88953466D01*
X154993466Y-89357138D01*
X154775000Y-89884561D01*
X154775000Y-90455439D01*
X154993466Y-90982862D01*
X155397138Y-91386534D01*
X155526216Y-91440000D01*
X155397138Y-91493466D01*
X154993466Y-91897138D01*
X154775000Y-92424561D01*
X154775000Y-92995439D01*
X154993466Y-93522862D01*
X155397138Y-93926534D01*
X155526216Y-93980000D01*
X155397138Y-94033466D01*
X154993466Y-94437138D01*
X154775000Y-94964561D01*
X154775000Y-95535439D01*
X154993466Y-96062862D01*
X155397138Y-96466534D01*
X155526216Y-96520000D01*
X155397138Y-96573466D01*
X155097703Y-96872901D01*
X154430000Y-96205199D01*
X154430000Y-89194846D01*
X154444888Y-89119999D01*
X154430000Y-89045152D01*
X154430000Y-89045148D01*
X154385904Y-88823463D01*
X154217929Y-88572071D01*
X154154473Y-88529671D01*
X152770331Y-87145530D01*
X152727929Y-87082071D01*
X152577440Y-86981517D01*
X152577440Y-86830000D01*
X152528157Y-86582235D01*
X152387809Y-86372191D01*
X152177765Y-86231843D01*
X151930000Y-86182560D01*
X150330000Y-86182560D01*
X150082235Y-86231843D01*
X149872191Y-86372191D01*
X149731843Y-86582235D01*
X149682560Y-86830000D01*
X149682560Y-88430000D01*
X149731843Y-88677765D01*
X149872191Y-88887809D01*
X150082235Y-89028157D01*
X150215866Y-89054738D01*
X149913466Y-89357138D01*
X149891570Y-89410000D01*
X147394846Y-89410000D01*
X147319999Y-89395112D01*
X147245152Y-89410000D01*
X147245148Y-89410000D01*
X147023463Y-89454096D01*
X146772071Y-89622071D01*
X146729671Y-89685527D01*
X145565530Y-90849669D01*
X145502071Y-90892071D01*
X145334096Y-91143464D01*
X145290000Y-91365149D01*
X145290000Y-91365153D01*
X145275112Y-91440000D01*
X145290000Y-91514847D01*
X145290001Y-94122024D01*
X144918242Y-94493783D01*
X144715000Y-94984452D01*
X144715000Y-95515548D01*
X144812790Y-95751635D01*
X144779999Y-95745112D01*
X144705152Y-95760000D01*
X144705148Y-95760000D01*
X144483463Y-95804096D01*
X144232071Y-95972071D01*
X144189671Y-96035527D01*
X143025530Y-97199669D01*
X142962071Y-97242071D01*
X142794096Y-97493464D01*
X142750000Y-97715149D01*
X142750000Y-97715153D01*
X142735112Y-97790000D01*
X142750000Y-97864847D01*
X142750001Y-114225148D01*
X142735112Y-114300000D01*
X142750001Y-114374851D01*
X142750001Y-114374852D01*
X142794097Y-114596537D01*
X142962072Y-114847929D01*
X143025528Y-114890329D01*
X144189670Y-116054472D01*
X144232071Y-116117929D01*
X144483463Y-116285904D01*
X144705148Y-116330000D01*
X144705152Y-116330000D01*
X144779999Y-116344888D01*
X144854846Y-116330000D01*
X144922025Y-116330000D01*
X145293783Y-116701758D01*
X145627528Y-116840000D01*
X145293783Y-116978242D01*
X144918242Y-117353783D01*
X144715000Y-117844452D01*
X144715000Y-118375548D01*
X144918242Y-118866217D01*
X145293783Y-119241758D01*
X145615918Y-119375191D01*
X145529109Y-119392458D01*
X145087519Y-119687519D01*
X144792458Y-120129109D01*
X144688846Y-120650000D01*
X144792458Y-121170891D01*
X145087519Y-121612481D01*
X145529109Y-121907542D01*
X145615918Y-121924809D01*
X145293783Y-122058242D01*
X145008414Y-122343611D01*
X143000000Y-120335199D01*
X143000000Y-116914846D01*
X143014888Y-116839999D01*
X143000000Y-116765152D01*
X143000000Y-116765148D01*
X142955904Y-116543463D01*
X142787929Y-116292071D01*
X142724473Y-116249671D01*
X141730000Y-115255199D01*
X141730000Y-111834846D01*
X141744888Y-111759999D01*
X141730000Y-111685152D01*
X141730000Y-111685148D01*
X141685904Y-111463463D01*
X141517929Y-111212071D01*
X141454473Y-111169671D01*
X140290331Y-110005530D01*
X140247929Y-109942071D01*
X139996537Y-109774096D01*
X139774852Y-109730000D01*
X139774847Y-109730000D01*
X139700000Y-109715112D01*
X139625153Y-109730000D01*
X133298043Y-109730000D01*
X133114577Y-109455423D01*
X132762242Y-109220000D01*
X133114577Y-108984577D01*
X133298043Y-108710000D01*
X137332226Y-108710000D01*
X137467519Y-108912481D01*
X137909109Y-109207542D01*
X138298515Y-109285000D01*
X138561485Y-109285000D01*
X138950891Y-109207542D01*
X139392481Y-108912481D01*
X139687542Y-108470891D01*
X139791154Y-107950000D01*
X139687542Y-107429109D01*
X139392481Y-106987519D01*
X138950891Y-106692458D01*
X138888261Y-106680000D01*
X138950891Y-106667542D01*
X139392481Y-106372481D01*
X139687542Y-105930891D01*
X139791154Y-105410000D01*
X139687542Y-104889109D01*
X139392481Y-104447519D01*
X138950891Y-104152458D01*
X138888261Y-104140000D01*
X138950891Y-104127542D01*
X139392481Y-103832481D01*
X139687542Y-103390891D01*
X139791154Y-102870000D01*
X139687542Y-102349109D01*
X139392481Y-101907519D01*
X138950891Y-101612458D01*
X138888261Y-101600000D01*
X138950891Y-101587542D01*
X139392481Y-101292481D01*
X139687542Y-100850891D01*
X139791154Y-100330000D01*
X139687542Y-99809109D01*
X139392481Y-99367519D01*
X138950891Y-99072458D01*
X138888261Y-99060000D01*
X138950891Y-99047542D01*
X139392481Y-98752481D01*
X139687542Y-98310891D01*
X139791154Y-97790000D01*
X139687542Y-97269109D01*
X139392481Y-96827519D01*
X138950891Y-96532458D01*
X138888261Y-96520000D01*
X138950891Y-96507542D01*
X139392481Y-96212481D01*
X139687542Y-95770891D01*
X139791154Y-95250000D01*
X139687542Y-94729109D01*
X139392481Y-94287519D01*
X138950891Y-93992458D01*
X138561485Y-93915000D01*
X138298515Y-93915000D01*
X137909109Y-93992458D01*
X137467519Y-94287519D01*
X137332226Y-94490000D01*
X133298043Y-94490000D01*
X133114577Y-94215423D01*
X132762242Y-93980000D01*
X133114577Y-93744577D01*
X133298043Y-93470000D01*
X138355153Y-93470000D01*
X138430000Y-93484888D01*
X138504847Y-93470000D01*
X138504852Y-93470000D01*
X138726537Y-93425904D01*
X138977929Y-93257929D01*
X139020331Y-93194470D01*
X140184473Y-92030329D01*
X140247929Y-91987929D01*
X140415904Y-91736537D01*
X140460000Y-91514852D01*
X140460000Y-91514848D01*
X140474888Y-91440001D01*
X140460000Y-91365154D01*
X140460000Y-84971840D01*
X140467546Y-84968714D01*
X140848714Y-84587546D01*
X141055000Y-84089526D01*
X141055000Y-83550474D01*
X140848714Y-83052454D01*
X140467546Y-82671286D01*
X139969526Y-82465000D01*
X139430474Y-82465000D01*
X138932454Y-82671286D01*
X138551286Y-83052454D01*
X138345000Y-83550474D01*
X138345000Y-84089526D01*
X138551286Y-84587546D01*
X138932454Y-84968714D01*
X138940001Y-84971840D01*
X138940000Y-91125198D01*
X138115199Y-91950000D01*
X133298043Y-91950000D01*
X133114577Y-91675423D01*
X132762242Y-91440000D01*
X133114577Y-91204577D01*
X133431740Y-90729909D01*
X133543113Y-90170000D01*
X133431740Y-89610091D01*
X133114577Y-89135423D01*
X132762242Y-88900000D01*
X133114577Y-88664577D01*
X133295358Y-88394019D01*
X133350000Y-88404888D01*
X133424847Y-88390000D01*
X133424852Y-88390000D01*
X133646537Y-88345904D01*
X133897929Y-88177929D01*
X133940331Y-88114470D01*
X135104473Y-86950329D01*
X135167929Y-86907929D01*
X135335904Y-86656537D01*
X135380000Y-86434852D01*
X135380000Y-86434848D01*
X135394888Y-86360001D01*
X135380000Y-86285154D01*
X135380000Y-83501211D01*
X135571212Y-83310000D01*
X137720153Y-83310000D01*
X137795000Y-83324888D01*
X137869847Y-83310000D01*
X137869852Y-83310000D01*
X138091537Y-83265904D01*
X138342929Y-83097929D01*
X138385331Y-83034470D01*
X139379802Y-82040000D01*
X141088160Y-82040000D01*
X141091286Y-82047546D01*
X141472454Y-82428714D01*
X141970474Y-82635000D01*
X142509526Y-82635000D01*
X143007546Y-82428714D01*
X143388714Y-82047546D01*
X143595000Y-81549526D01*
X143595000Y-81010474D01*
X143388714Y-80512454D01*
X143007546Y-80131286D01*
X143000000Y-80128160D01*
X143000000Y-77544848D01*
X143014888Y-77470000D01*
X143000000Y-77395152D01*
X143000000Y-77395148D01*
X142955904Y-77173463D01*
X142787929Y-76922071D01*
X142724473Y-76879671D01*
X142195331Y-76350530D01*
X142152929Y-76287071D01*
X141901537Y-76119096D01*
X141679852Y-76075000D01*
X141679847Y-76075000D01*
X141605000Y-76060112D01*
X141530153Y-76075000D01*
X140827975Y-76075000D01*
X140578025Y-75825050D01*
X160675000Y-75825050D01*
X160675000Y-76574950D01*
X160961974Y-77267767D01*
X161492233Y-77798026D01*
X162185050Y-78085000D01*
X162934950Y-78085000D01*
X163627767Y-77798026D01*
X164158026Y-77267767D01*
X164445000Y-76574950D01*
X164445000Y-75825050D01*
X164158026Y-75132233D01*
X163627767Y-74601974D01*
X162934950Y-74315000D01*
X162185050Y-74315000D01*
X161492233Y-74601974D01*
X160961974Y-75132233D01*
X160675000Y-75825050D01*
X140578025Y-75825050D01*
X140456217Y-75703242D01*
X139965548Y-75500000D01*
X139434452Y-75500000D01*
X138943783Y-75703242D01*
X138568242Y-76078783D01*
X138456721Y-76348017D01*
X138371042Y-76141169D01*
X138135275Y-76079331D01*
X137379605Y-76835000D01*
X138135275Y-77590669D01*
X138371042Y-77528831D01*
X138449775Y-77305212D01*
X138568242Y-77591217D01*
X138943783Y-77966758D01*
X139434452Y-78170000D01*
X139965548Y-78170000D01*
X140456217Y-77966758D01*
X140827975Y-77595000D01*
X141290199Y-77595000D01*
X141480000Y-77784802D01*
X141480001Y-80128160D01*
X141472454Y-80131286D01*
X141091286Y-80512454D01*
X141088160Y-80520000D01*
X139139846Y-80520000D01*
X139064999Y-80505112D01*
X138990152Y-80520000D01*
X138990148Y-80520000D01*
X138768463Y-80564096D01*
X138517071Y-80732071D01*
X138474671Y-80795527D01*
X138449671Y-80820527D01*
X138347611Y-80574131D01*
X138109774Y-80509831D01*
X137339605Y-81280000D01*
X137353748Y-81294143D01*
X137174143Y-81473748D01*
X137160000Y-81459605D01*
X137145858Y-81473748D01*
X136966253Y-81294143D01*
X136980395Y-81280000D01*
X136210226Y-80509831D01*
X135972389Y-80574131D01*
X135792667Y-81082342D01*
X135821108Y-81620644D01*
X135891257Y-81790000D01*
X135331258Y-81790000D01*
X135256410Y-81775112D01*
X135181562Y-81790000D01*
X135181558Y-81790000D01*
X135008015Y-81824520D01*
X134959872Y-81834096D01*
X134772828Y-81959076D01*
X134708481Y-82002071D01*
X134666081Y-82065527D01*
X134135530Y-82596079D01*
X134072071Y-82638481D01*
X133904096Y-82889874D01*
X133860000Y-83111559D01*
X133860000Y-83111563D01*
X133845112Y-83186410D01*
X133860000Y-83261257D01*
X133860001Y-86045197D01*
X133192763Y-86712436D01*
X133114577Y-86595423D01*
X132762242Y-86360000D01*
X133114577Y-86124577D01*
X133431740Y-85649909D01*
X133543113Y-85090000D01*
X133431740Y-84530091D01*
X133114577Y-84055423D01*
X132730892Y-83799053D01*
X132935134Y-83702389D01*
X133311041Y-83287423D01*
X133471904Y-82899039D01*
X133349915Y-82677000D01*
X132207000Y-82677000D01*
X132207000Y-82697000D01*
X131953000Y-82697000D01*
X131953000Y-82677000D01*
X130810085Y-82677000D01*
X130688096Y-82899039D01*
X130848959Y-83287423D01*
X131224866Y-83702389D01*
X131429108Y-83799053D01*
X131045423Y-84055423D01*
X130728260Y-84530091D01*
X130616887Y-85090000D01*
X130728260Y-85649909D01*
X131045423Y-86124577D01*
X131397758Y-86360000D01*
X131045423Y-86595423D01*
X130728260Y-87070091D01*
X130616887Y-87630000D01*
X130728260Y-88189909D01*
X131045423Y-88664577D01*
X131397758Y-88900000D01*
X131045423Y-89135423D01*
X130728260Y-89610091D01*
X130616887Y-90170000D01*
X130728260Y-90729909D01*
X131045423Y-91204577D01*
X131397758Y-91440000D01*
X131045423Y-91675423D01*
X130728260Y-92150091D01*
X130616887Y-92710000D01*
X130728260Y-93269909D01*
X131045423Y-93744577D01*
X131397758Y-93980000D01*
X131045423Y-94215423D01*
X130728260Y-94690091D01*
X130616887Y-95250000D01*
X130728260Y-95809909D01*
X131045423Y-96284577D01*
X131397758Y-96520000D01*
X131045423Y-96755423D01*
X130728260Y-97230091D01*
X130616887Y-97790000D01*
X130728260Y-98349909D01*
X131045423Y-98824577D01*
X131397758Y-99060000D01*
X131045423Y-99295423D01*
X130728260Y-99770091D01*
X130616887Y-100330000D01*
X130728260Y-100889909D01*
X131045423Y-101364577D01*
X131397758Y-101600000D01*
X131045423Y-101835423D01*
X130728260Y-102310091D01*
X130616887Y-102870000D01*
X130728260Y-103429909D01*
X131045423Y-103904577D01*
X131397758Y-104140000D01*
X131045423Y-104375423D01*
X130728260Y-104850091D01*
X130616887Y-105410000D01*
X130728260Y-105969909D01*
X131045423Y-106444577D01*
X131397758Y-106680000D01*
X131045423Y-106915423D01*
X130728260Y-107390091D01*
X130616887Y-107950000D01*
X130728260Y-108509909D01*
X131045423Y-108984577D01*
X131397758Y-109220000D01*
X131045423Y-109455423D01*
X130728260Y-109930091D01*
X130616887Y-110490000D01*
X130728260Y-111049909D01*
X131045423Y-111524577D01*
X131397758Y-111760000D01*
X131045423Y-111995423D01*
X130728260Y-112470091D01*
X130616887Y-113030000D01*
X130728260Y-113589909D01*
X131045423Y-114064577D01*
X131397758Y-114300000D01*
X131045423Y-114535423D01*
X130728260Y-115010091D01*
X130616887Y-115570000D01*
X130728260Y-116129909D01*
X131045423Y-116604577D01*
X131520091Y-116921740D01*
X131938667Y-117005000D01*
X132221333Y-117005000D01*
X132639909Y-116921740D01*
X133114577Y-116604577D01*
X133431740Y-116129909D01*
X133543113Y-115570000D01*
X133431740Y-115010091D01*
X133114577Y-114535423D01*
X132762242Y-114300000D01*
X133114577Y-114064577D01*
X133431740Y-113589909D01*
X133543113Y-113030000D01*
X133431740Y-112470091D01*
X133114577Y-111995423D01*
X132762242Y-111760000D01*
X133114577Y-111524577D01*
X133298043Y-111250000D01*
X139385199Y-111250000D01*
X140210000Y-112074802D01*
X140210001Y-115495148D01*
X140195112Y-115570000D01*
X140254097Y-115866537D01*
X140313514Y-115955460D01*
X140422072Y-116117929D01*
X140485528Y-116160329D01*
X141480000Y-117154802D01*
X141480001Y-119890000D01*
X139638272Y-119890000D01*
X139655331Y-119864470D01*
X140184473Y-119335329D01*
X140247929Y-119292929D01*
X140415904Y-119041537D01*
X140460000Y-118819852D01*
X140460000Y-118819848D01*
X140474888Y-118745000D01*
X140460000Y-118670152D01*
X140460000Y-116914846D01*
X140474888Y-116839999D01*
X140460000Y-116765152D01*
X140460000Y-116765148D01*
X140415904Y-116543463D01*
X140247929Y-116292071D01*
X140184473Y-116249671D01*
X139743645Y-115808843D01*
X139791154Y-115570000D01*
X139687542Y-115049109D01*
X139392481Y-114607519D01*
X138950891Y-114312458D01*
X138888261Y-114300000D01*
X138950891Y-114287542D01*
X139392481Y-113992481D01*
X139687542Y-113550891D01*
X139791154Y-113030000D01*
X139687542Y-112509109D01*
X139392481Y-112067519D01*
X138950891Y-111772458D01*
X138561485Y-111695000D01*
X138298515Y-111695000D01*
X137909109Y-111772458D01*
X137467519Y-112067519D01*
X137332226Y-112270000D01*
X137234848Y-112270000D01*
X137160000Y-112255112D01*
X137085152Y-112270000D01*
X137085148Y-112270000D01*
X136863463Y-112314096D01*
X136612071Y-112482071D01*
X136569671Y-112545527D01*
X136040530Y-113074669D01*
X135977071Y-113117071D01*
X135809096Y-113368464D01*
X135765000Y-113590149D01*
X135765000Y-113590153D01*
X135750112Y-113665000D01*
X135765000Y-113739847D01*
X135765001Y-117160197D01*
X135575199Y-117350000D01*
X126044802Y-117350000D01*
X125220000Y-116525199D01*
X125220000Y-108653711D01*
X125337431Y-108536280D01*
X125495000Y-108155874D01*
X125495000Y-107744126D01*
X125337431Y-107363720D01*
X125046280Y-107072569D01*
X124665874Y-106915000D01*
X124254126Y-106915000D01*
X123873720Y-107072569D01*
X123582569Y-107363720D01*
X123425000Y-107744126D01*
X123425000Y-108155874D01*
X123582569Y-108536280D01*
X123700001Y-108653712D01*
X123700000Y-114374851D01*
X123700001Y-114374856D01*
X123700000Y-116275199D01*
X122680000Y-115255199D01*
X122680000Y-104214846D01*
X122694888Y-104139999D01*
X122680000Y-104065152D01*
X122680000Y-104065148D01*
X122635904Y-103843463D01*
X122467929Y-103592071D01*
X122404473Y-103549671D01*
X121240331Y-102385530D01*
X121197929Y-102322071D01*
X120946537Y-102154096D01*
X120724852Y-102110000D01*
X120724847Y-102110000D01*
X120650000Y-102095112D01*
X120575153Y-102110000D01*
X118058043Y-102110000D01*
X117874577Y-101835423D01*
X117522242Y-101600000D01*
X117874577Y-101364577D01*
X118191740Y-100889909D01*
X118303113Y-100330000D01*
X118191740Y-99770091D01*
X117874577Y-99295423D01*
X117522242Y-99060000D01*
X117874577Y-98824577D01*
X118191740Y-98349909D01*
X118303113Y-97790000D01*
X118191740Y-97230091D01*
X117874577Y-96755423D01*
X117522242Y-96520000D01*
X117874577Y-96284577D01*
X118191740Y-95809909D01*
X118303113Y-95250000D01*
X118191740Y-94690091D01*
X117874577Y-94215423D01*
X117522242Y-93980000D01*
X117874577Y-93744577D01*
X118191740Y-93269909D01*
X118303113Y-92710000D01*
X118191740Y-92150091D01*
X117874577Y-91675423D01*
X117522242Y-91440000D01*
X117874577Y-91204577D01*
X118191740Y-90729909D01*
X118303113Y-90170000D01*
X118191740Y-89610091D01*
X117874577Y-89135423D01*
X117490892Y-88879053D01*
X117695134Y-88782389D01*
X118071041Y-88367423D01*
X118231904Y-87979039D01*
X118109915Y-87757000D01*
X116967000Y-87757000D01*
X116967000Y-87777000D01*
X116713000Y-87777000D01*
X116713000Y-87757000D01*
X115570085Y-87757000D01*
X115448096Y-87979039D01*
X115608959Y-88367423D01*
X115984866Y-88782389D01*
X116189108Y-88879053D01*
X115805423Y-89135423D01*
X115488260Y-89610091D01*
X115376887Y-90170000D01*
X115488260Y-90729909D01*
X115805423Y-91204577D01*
X116157758Y-91440000D01*
X115805423Y-91675423D01*
X115488260Y-92150091D01*
X115376887Y-92710000D01*
X115488260Y-93269909D01*
X115805423Y-93744577D01*
X116157758Y-93980000D01*
X115805423Y-94215423D01*
X115488260Y-94690091D01*
X115376887Y-95250000D01*
X115488260Y-95809909D01*
X115805423Y-96284577D01*
X116157758Y-96520000D01*
X115805423Y-96755423D01*
X115488260Y-97230091D01*
X115376887Y-97790000D01*
X115488260Y-98349909D01*
X115805423Y-98824577D01*
X116157758Y-99060000D01*
X115805423Y-99295423D01*
X115488260Y-99770091D01*
X115376887Y-100330000D01*
X115488260Y-100889909D01*
X115805423Y-101364577D01*
X116157758Y-101600000D01*
X115805423Y-101835423D01*
X115488260Y-102310091D01*
X115376887Y-102870000D01*
X115488260Y-103429909D01*
X115805423Y-103904577D01*
X116157758Y-104140000D01*
X115805423Y-104375423D01*
X115488260Y-104850091D01*
X115376887Y-105410000D01*
X115488260Y-105969909D01*
X115805423Y-106444577D01*
X116157758Y-106680000D01*
X115805423Y-106915423D01*
X115488260Y-107390091D01*
X115376887Y-107950000D01*
X115488260Y-108509909D01*
X115805423Y-108984577D01*
X116157758Y-109220000D01*
X115805423Y-109455423D01*
X115488260Y-109930091D01*
X115376887Y-110490000D01*
X115488260Y-111049909D01*
X115805423Y-111524577D01*
X116157758Y-111760000D01*
X115805423Y-111995423D01*
X115621957Y-112270000D01*
X90397440Y-112270000D01*
X90397440Y-112180000D01*
X90348157Y-111932235D01*
X90207809Y-111722191D01*
X89997765Y-111581843D01*
X89952381Y-111572816D01*
X89970625Y-111560625D01*
X90094656Y-111375000D01*
X95089467Y-111375000D01*
X95121843Y-111537765D01*
X95262191Y-111747809D01*
X95472235Y-111888157D01*
X95720000Y-111937440D01*
X97320000Y-111937440D01*
X97567765Y-111888157D01*
X97777809Y-111747809D01*
X97918157Y-111537765D01*
X97950533Y-111375000D01*
X102502025Y-111375000D01*
X102748783Y-111621758D01*
X103239452Y-111825000D01*
X103770548Y-111825000D01*
X104261217Y-111621758D01*
X104507975Y-111375000D01*
X107789467Y-111375000D01*
X107821843Y-111537765D01*
X107962191Y-111747809D01*
X108172235Y-111888157D01*
X108420000Y-111937440D01*
X110020000Y-111937440D01*
X110267765Y-111888157D01*
X110477809Y-111747809D01*
X110618157Y-111537765D01*
X110652319Y-111366018D01*
X110865310Y-111323652D01*
X111158049Y-111128049D01*
X111207425Y-111054153D01*
X112324156Y-109937423D01*
X112398049Y-109888049D01*
X112474191Y-109774096D01*
X112593652Y-109595310D01*
X112645000Y-109337165D01*
X112645000Y-109337161D01*
X112662337Y-109250000D01*
X112645000Y-109162839D01*
X112645000Y-102322161D01*
X112662337Y-102235000D01*
X112645000Y-102147839D01*
X112645000Y-102147835D01*
X112593652Y-101889690D01*
X112518206Y-101776777D01*
X112447424Y-101670845D01*
X112447423Y-101670844D01*
X112398049Y-101596951D01*
X112324156Y-101547577D01*
X110542425Y-99765847D01*
X110493049Y-99691951D01*
X110200310Y-99496348D01*
X109942165Y-99445000D01*
X109942161Y-99445000D01*
X109855000Y-99427663D01*
X109767839Y-99445000D01*
X106124669Y-99445000D01*
X105919523Y-99137977D01*
X105394410Y-98787109D01*
X104775000Y-98663900D01*
X104155589Y-98787109D01*
X103630477Y-99137977D01*
X103495841Y-99339474D01*
X103101924Y-98954027D01*
X102607980Y-98739437D01*
X102362000Y-98859406D01*
X102362000Y-100203000D01*
X102382000Y-100203000D01*
X102382000Y-100457000D01*
X102362000Y-100457000D01*
X102362000Y-101800594D01*
X102607980Y-101920563D01*
X103101924Y-101705973D01*
X103495841Y-101320526D01*
X103630477Y-101522023D01*
X104155590Y-101872891D01*
X104775000Y-101996100D01*
X105394411Y-101872891D01*
X105919523Y-101522023D01*
X106124668Y-101215000D01*
X109488422Y-101215000D01*
X110875000Y-102601579D01*
X110875001Y-108883420D01*
X110497204Y-109261217D01*
X110478005Y-109232484D01*
X110666965Y-108706777D01*
X110639778Y-108136546D01*
X110473864Y-107735995D01*
X110227745Y-107661861D01*
X109399605Y-108490000D01*
X109413748Y-108504142D01*
X109234143Y-108683748D01*
X109220000Y-108669605D01*
X109205858Y-108683748D01*
X109026252Y-108504142D01*
X109040395Y-108490000D01*
X108212255Y-107661861D01*
X107966136Y-107735995D01*
X107773035Y-108273223D01*
X107800222Y-108843454D01*
X107961605Y-109233067D01*
X107821843Y-109442235D01*
X107789467Y-109605000D01*
X104507975Y-109605000D01*
X104261217Y-109358242D01*
X103991983Y-109246721D01*
X104198831Y-109161042D01*
X104260669Y-108925275D01*
X103505000Y-108169605D01*
X102749331Y-108925275D01*
X102811169Y-109161042D01*
X103034788Y-109239775D01*
X102748783Y-109358242D01*
X102502025Y-109605000D01*
X97950533Y-109605000D01*
X97918157Y-109442235D01*
X97778005Y-109232484D01*
X97966965Y-108706777D01*
X97939778Y-108136546D01*
X97799184Y-107797122D01*
X102157581Y-107797122D01*
X102186336Y-108327440D01*
X102333958Y-108683831D01*
X102569725Y-108745669D01*
X103325395Y-107990000D01*
X103684605Y-107990000D01*
X104440275Y-108745669D01*
X104676042Y-108683831D01*
X104852419Y-108182878D01*
X104823664Y-107652560D01*
X104753122Y-107482255D01*
X108391861Y-107482255D01*
X109220000Y-108310395D01*
X110048139Y-107482255D01*
X109974005Y-107236136D01*
X109436777Y-107043035D01*
X108866546Y-107070222D01*
X108465995Y-107236136D01*
X108391861Y-107482255D01*
X104753122Y-107482255D01*
X104676042Y-107296169D01*
X104440275Y-107234331D01*
X103684605Y-107990000D01*
X103325395Y-107990000D01*
X102569725Y-107234331D01*
X102333958Y-107296169D01*
X102157581Y-107797122D01*
X97799184Y-107797122D01*
X97773864Y-107735995D01*
X97527745Y-107661861D01*
X96699605Y-108490000D01*
X96713748Y-108504142D01*
X96534143Y-108683748D01*
X96520000Y-108669605D01*
X96505858Y-108683748D01*
X96326252Y-108504142D01*
X96340395Y-108490000D01*
X95512255Y-107661861D01*
X95266136Y-107735995D01*
X95073035Y-108273223D01*
X95100222Y-108843454D01*
X95261605Y-109233067D01*
X95121843Y-109442235D01*
X95089467Y-109605000D01*
X90094656Y-109605000D01*
X89970625Y-109419375D01*
X89651522Y-109206157D01*
X89781358Y-109145183D01*
X90171645Y-108716924D01*
X90341476Y-108306890D01*
X90220155Y-108077000D01*
X89027000Y-108077000D01*
X89027000Y-108097000D01*
X88773000Y-108097000D01*
X88773000Y-108077000D01*
X87579845Y-108077000D01*
X87458524Y-108306890D01*
X87628355Y-108716924D01*
X88018642Y-109145183D01*
X88148478Y-109206157D01*
X87829375Y-109419375D01*
X87501161Y-109910582D01*
X87385908Y-110490000D01*
X85852000Y-110490000D01*
X85852000Y-107593110D01*
X87458524Y-107593110D01*
X87579845Y-107823000D01*
X88773000Y-107823000D01*
X88773000Y-106629181D01*
X89027000Y-106629181D01*
X89027000Y-107823000D01*
X90220155Y-107823000D01*
X90341476Y-107593110D01*
X90295562Y-107482255D01*
X95691861Y-107482255D01*
X96520000Y-108310395D01*
X97348139Y-107482255D01*
X97274005Y-107236136D01*
X96769300Y-107054725D01*
X102749331Y-107054725D01*
X103505000Y-107810395D01*
X104260669Y-107054725D01*
X104198831Y-106818958D01*
X103697878Y-106642581D01*
X103167560Y-106671336D01*
X102811169Y-106818958D01*
X102749331Y-107054725D01*
X96769300Y-107054725D01*
X96736777Y-107043035D01*
X96166546Y-107070222D01*
X95765995Y-107236136D01*
X95691861Y-107482255D01*
X90295562Y-107482255D01*
X90171645Y-107183076D01*
X89781358Y-106754817D01*
X89256892Y-106508514D01*
X89027000Y-106629181D01*
X88773000Y-106629181D01*
X88543108Y-106508514D01*
X88018642Y-106754817D01*
X87628355Y-107183076D01*
X87458524Y-107593110D01*
X85852000Y-107593110D01*
X85852000Y-102567745D01*
X89341861Y-102567745D01*
X89415995Y-102813864D01*
X89953223Y-103006965D01*
X90523454Y-102979778D01*
X90924005Y-102813864D01*
X90998139Y-102567745D01*
X90170000Y-101739605D01*
X89341861Y-102567745D01*
X85852000Y-102567745D01*
X85852000Y-101343223D01*
X88723035Y-101343223D01*
X88750222Y-101913454D01*
X88916136Y-102314005D01*
X89162255Y-102388139D01*
X89990395Y-101560000D01*
X90349605Y-101560000D01*
X91177745Y-102388139D01*
X91423864Y-102314005D01*
X91616965Y-101776777D01*
X91589778Y-101206546D01*
X91423864Y-100805995D01*
X91177745Y-100731861D01*
X90349605Y-101560000D01*
X89990395Y-101560000D01*
X89162255Y-100731861D01*
X88916136Y-100805995D01*
X88723035Y-101343223D01*
X85852000Y-101343223D01*
X85852000Y-98260000D01*
X88722560Y-98260000D01*
X88722560Y-99860000D01*
X88771843Y-100107765D01*
X88912191Y-100317809D01*
X89122235Y-100458157D01*
X89356187Y-100504693D01*
X89341861Y-100552255D01*
X90170000Y-101380395D01*
X90998139Y-100552255D01*
X90983813Y-100504693D01*
X91217765Y-100458157D01*
X91427809Y-100317809D01*
X91568157Y-100107765D01*
X91600533Y-99945000D01*
X98058422Y-99945000D01*
X98095060Y-99981638D01*
X98095060Y-101330000D01*
X98144343Y-101577765D01*
X98284691Y-101787809D01*
X98494735Y-101928157D01*
X98742500Y-101977440D01*
X100647500Y-101977440D01*
X100895265Y-101928157D01*
X101105309Y-101787809D01*
X101242255Y-101582857D01*
X101368076Y-101705973D01*
X101862020Y-101920563D01*
X102108000Y-101800594D01*
X102108000Y-100457000D01*
X102088000Y-100457000D01*
X102088000Y-100203000D01*
X102108000Y-100203000D01*
X102108000Y-98859406D01*
X101862020Y-98739437D01*
X101368076Y-98954027D01*
X101242255Y-99077143D01*
X101105309Y-98872191D01*
X101057153Y-98840014D01*
X101045904Y-98783463D01*
X100877929Y-98532071D01*
X100626536Y-98364096D01*
X100330000Y-98305111D01*
X100033463Y-98364096D01*
X99782071Y-98532071D01*
X99681518Y-98682560D01*
X99299138Y-98682560D01*
X99112425Y-98495847D01*
X99063049Y-98421951D01*
X98770310Y-98226348D01*
X98512165Y-98175000D01*
X98512161Y-98175000D01*
X98425000Y-98157663D01*
X98337839Y-98175000D01*
X91600533Y-98175000D01*
X91568157Y-98012235D01*
X91427809Y-97802191D01*
X91217765Y-97661843D01*
X91055000Y-97629467D01*
X91055000Y-92615750D01*
X93675000Y-92615750D01*
X93675000Y-94206310D01*
X93771673Y-94439699D01*
X93950302Y-94618327D01*
X94183691Y-94715000D01*
X95774250Y-94715000D01*
X95933000Y-94556250D01*
X95933000Y-92457000D01*
X96187000Y-92457000D01*
X96187000Y-94556250D01*
X96345750Y-94715000D01*
X97936309Y-94715000D01*
X98169698Y-94618327D01*
X98348327Y-94439699D01*
X98445000Y-94206310D01*
X98445000Y-92615750D01*
X98286250Y-92457000D01*
X96187000Y-92457000D01*
X95933000Y-92457000D01*
X93833750Y-92457000D01*
X93675000Y-92615750D01*
X91055000Y-92615750D01*
X91055000Y-89773026D01*
X91200302Y-89918327D01*
X91433691Y-90015000D01*
X92774250Y-90015000D01*
X92933000Y-89856250D01*
X92933000Y-87757000D01*
X93187000Y-87757000D01*
X93187000Y-89856250D01*
X93345750Y-90015000D01*
X94014696Y-90015000D01*
X93950302Y-90041673D01*
X93771673Y-90220301D01*
X93675000Y-90453690D01*
X93675000Y-92044250D01*
X93833750Y-92203000D01*
X95933000Y-92203000D01*
X95933000Y-90103750D01*
X96187000Y-90103750D01*
X96187000Y-92203000D01*
X98286250Y-92203000D01*
X98445000Y-92044250D01*
X98445000Y-90453690D01*
X98348327Y-90220301D01*
X98169698Y-90041673D01*
X98135337Y-90027440D01*
X100810000Y-90027440D01*
X101057765Y-89978157D01*
X101267809Y-89837809D01*
X101408157Y-89627765D01*
X101457440Y-89380000D01*
X101457440Y-88465000D01*
X107537537Y-88465000D01*
X107451010Y-88900000D01*
X107585666Y-89576963D01*
X107969135Y-90150865D01*
X108543037Y-90534334D01*
X109049120Y-90635000D01*
X109390880Y-90635000D01*
X109896963Y-90534334D01*
X110470865Y-90150865D01*
X110854334Y-89576963D01*
X110988990Y-88900000D01*
X110854334Y-88223037D01*
X110470865Y-87649135D01*
X109896963Y-87265666D01*
X109390880Y-87165000D01*
X109049120Y-87165000D01*
X108729453Y-87228586D01*
X108598587Y-87097720D01*
X108552001Y-87027999D01*
X108275801Y-86843448D01*
X108032237Y-86795000D01*
X108032233Y-86795000D01*
X107950000Y-86778643D01*
X107867767Y-86795000D01*
X101457440Y-86795000D01*
X101457440Y-85880000D01*
X101408157Y-85632235D01*
X101267809Y-85422191D01*
X101057765Y-85281843D01*
X100810000Y-85232560D01*
X97310000Y-85232560D01*
X97062235Y-85281843D01*
X96852191Y-85422191D01*
X96711843Y-85632235D01*
X96662560Y-85880000D01*
X96662560Y-89380000D01*
X96711843Y-89627765D01*
X96852191Y-89837809D01*
X97012612Y-89945000D01*
X96345750Y-89945000D01*
X96187000Y-90103750D01*
X95933000Y-90103750D01*
X95774250Y-89945000D01*
X94855304Y-89945000D01*
X94919698Y-89918327D01*
X95098327Y-89739699D01*
X95195000Y-89506310D01*
X95195000Y-87915750D01*
X95036250Y-87757000D01*
X93187000Y-87757000D01*
X92933000Y-87757000D01*
X92913000Y-87757000D01*
X92913000Y-87503000D01*
X92933000Y-87503000D01*
X92933000Y-85403750D01*
X93187000Y-85403750D01*
X93187000Y-87503000D01*
X95036250Y-87503000D01*
X95195000Y-87344250D01*
X95195000Y-85753690D01*
X95098327Y-85520301D01*
X94919698Y-85341673D01*
X94686309Y-85245000D01*
X93345750Y-85245000D01*
X93187000Y-85403750D01*
X92933000Y-85403750D01*
X92774250Y-85245000D01*
X91433691Y-85245000D01*
X91200302Y-85341673D01*
X91055000Y-85486974D01*
X91055000Y-84186578D01*
X92441579Y-82800000D01*
X94527839Y-82800000D01*
X94615000Y-82817337D01*
X94702161Y-82800000D01*
X94702165Y-82800000D01*
X94960310Y-82748652D01*
X95253049Y-82553049D01*
X95255086Y-82550000D01*
X115376887Y-82550000D01*
X115488260Y-83109909D01*
X115805423Y-83584577D01*
X116157758Y-83820000D01*
X115805423Y-84055423D01*
X115488260Y-84530091D01*
X115376887Y-85090000D01*
X115488260Y-85649909D01*
X115805423Y-86124577D01*
X116189108Y-86380947D01*
X115984866Y-86477611D01*
X115608959Y-86892577D01*
X115448096Y-87280961D01*
X115570085Y-87503000D01*
X116713000Y-87503000D01*
X116713000Y-87483000D01*
X116967000Y-87483000D01*
X116967000Y-87503000D01*
X118109915Y-87503000D01*
X118231904Y-87280961D01*
X118071041Y-86892577D01*
X117695134Y-86477611D01*
X117490892Y-86380947D01*
X117874577Y-86124577D01*
X118191740Y-85649909D01*
X118303113Y-85090000D01*
X118191740Y-84530091D01*
X117874577Y-84055423D01*
X117522242Y-83820000D01*
X117874577Y-83584577D01*
X118191740Y-83109909D01*
X118303113Y-82550000D01*
X118191740Y-81990091D01*
X117874577Y-81515423D01*
X117753894Y-81434785D01*
X117887765Y-81408157D01*
X118097809Y-81267809D01*
X118238157Y-81057765D01*
X118287440Y-80810000D01*
X118287440Y-79210000D01*
X118238157Y-78962235D01*
X118097809Y-78752191D01*
X117887765Y-78611843D01*
X117640000Y-78562560D01*
X116040000Y-78562560D01*
X115792235Y-78611843D01*
X115582191Y-78752191D01*
X115441843Y-78962235D01*
X115392560Y-79210000D01*
X115392560Y-80810000D01*
X115441843Y-81057765D01*
X115582191Y-81267809D01*
X115792235Y-81408157D01*
X115926106Y-81434785D01*
X115805423Y-81515423D01*
X115488260Y-81990091D01*
X115376887Y-82550000D01*
X95255086Y-82550000D01*
X95302425Y-82479153D01*
X98156579Y-79625000D01*
X107472560Y-79625000D01*
X107472560Y-79840000D01*
X107521843Y-80087765D01*
X107662191Y-80297809D01*
X107872235Y-80438157D01*
X108120000Y-80487440D01*
X110320000Y-80487440D01*
X110567765Y-80438157D01*
X110777809Y-80297809D01*
X110918157Y-80087765D01*
X110967440Y-79840000D01*
X110967440Y-79625000D01*
X112307839Y-79625000D01*
X112395000Y-79642337D01*
X112482161Y-79625000D01*
X112482165Y-79625000D01*
X112740310Y-79573652D01*
X113033049Y-79378049D01*
X113082425Y-79304153D01*
X114031579Y-78355000D01*
X130304792Y-78355000D01*
X130997274Y-79047483D01*
X130728260Y-79450091D01*
X130616887Y-80010000D01*
X130728260Y-80569909D01*
X131045423Y-81044577D01*
X131429108Y-81300947D01*
X131224866Y-81397611D01*
X130848959Y-81812577D01*
X130688096Y-82200961D01*
X130810085Y-82423000D01*
X131953000Y-82423000D01*
X131953000Y-82403000D01*
X132207000Y-82403000D01*
X132207000Y-82423000D01*
X133349915Y-82423000D01*
X133471904Y-82200961D01*
X133311041Y-81812577D01*
X132935134Y-81397611D01*
X132730892Y-81300947D01*
X133114577Y-81044577D01*
X133431740Y-80569909D01*
X133479415Y-80330226D01*
X136389831Y-80330226D01*
X137160000Y-81100395D01*
X137930169Y-80330226D01*
X137865869Y-80092389D01*
X137357658Y-79912667D01*
X136819356Y-79941108D01*
X136454131Y-80092389D01*
X136389831Y-80330226D01*
X133479415Y-80330226D01*
X133543113Y-80010000D01*
X133431740Y-79450091D01*
X133114577Y-78975423D01*
X132980856Y-78886074D01*
X132982337Y-78878630D01*
X132965000Y-78791469D01*
X132965000Y-78791465D01*
X132913652Y-78533320D01*
X132718049Y-78240581D01*
X132644156Y-78191207D01*
X132223224Y-77770275D01*
X136444331Y-77770275D01*
X136506169Y-78006042D01*
X137007122Y-78182419D01*
X137537440Y-78153664D01*
X137893831Y-78006042D01*
X137955669Y-77770275D01*
X137200000Y-77014605D01*
X136444331Y-77770275D01*
X132223224Y-77770275D01*
X131358795Y-76905847D01*
X131309419Y-76831951D01*
X131025322Y-76642122D01*
X135852581Y-76642122D01*
X135881336Y-77172440D01*
X136028958Y-77528831D01*
X136264725Y-77590669D01*
X137020395Y-76835000D01*
X136264725Y-76079331D01*
X136028958Y-76141169D01*
X135852581Y-76642122D01*
X131025322Y-76642122D01*
X131016680Y-76636348D01*
X130758535Y-76585000D01*
X130758531Y-76585000D01*
X130671370Y-76567663D01*
X130584209Y-76585000D01*
X113752159Y-76585000D01*
X113664999Y-76567663D01*
X113577839Y-76585000D01*
X113577835Y-76585000D01*
X113319690Y-76636348D01*
X113211880Y-76708385D01*
X113100845Y-76782576D01*
X113100844Y-76782577D01*
X113026951Y-76831951D01*
X112977577Y-76905844D01*
X112028422Y-77855000D01*
X110967440Y-77855000D01*
X110967440Y-77640000D01*
X110918157Y-77392235D01*
X110777809Y-77182191D01*
X110567765Y-77041843D01*
X110320000Y-76992560D01*
X108120000Y-76992560D01*
X107872235Y-77041843D01*
X107662191Y-77182191D01*
X107521843Y-77392235D01*
X107472560Y-77640000D01*
X107472560Y-77855000D01*
X97877159Y-77855000D01*
X97789999Y-77837663D01*
X97702840Y-77855000D01*
X97702835Y-77855000D01*
X97444690Y-77906348D01*
X97295488Y-78006042D01*
X97225845Y-78052576D01*
X97225844Y-78052577D01*
X97151951Y-78101951D01*
X97102577Y-78175844D01*
X94248422Y-81030000D01*
X92162161Y-81030000D01*
X92075000Y-81012663D01*
X91987839Y-81030000D01*
X91987835Y-81030000D01*
X91729690Y-81081348D01*
X91510845Y-81227576D01*
X91510844Y-81227577D01*
X91436951Y-81276951D01*
X91387577Y-81350844D01*
X89605847Y-83132575D01*
X89531951Y-83181951D01*
X89336348Y-83474691D01*
X89285000Y-83732836D01*
X89285000Y-83732839D01*
X89267663Y-83820000D01*
X89285000Y-83907161D01*
X89285001Y-97629467D01*
X89122235Y-97661843D01*
X88912191Y-97802191D01*
X88771843Y-98012235D01*
X88722560Y-98260000D01*
X85852000Y-98260000D01*
X85852000Y-75825050D01*
X88285000Y-75825050D01*
X88285000Y-76574950D01*
X88571974Y-77267767D01*
X89102233Y-77798026D01*
X89795050Y-78085000D01*
X90544950Y-78085000D01*
X91237767Y-77798026D01*
X91768026Y-77267767D01*
X92055000Y-76574950D01*
X92055000Y-75899725D01*
X136444331Y-75899725D01*
X137200000Y-76655395D01*
X137955669Y-75899725D01*
X137893831Y-75663958D01*
X137392878Y-75487581D01*
X136862560Y-75516336D01*
X136506169Y-75663958D01*
X136444331Y-75899725D01*
X92055000Y-75899725D01*
X92055000Y-75825050D01*
X91768026Y-75132233D01*
X91237767Y-74601974D01*
X90544950Y-74315000D01*
X89795050Y-74315000D01*
X89102233Y-74601974D01*
X88571974Y-75132233D01*
X88285000Y-75825050D01*
X85852000Y-75825050D01*
X85852000Y-73152000D01*
X165608000Y-73152000D01*
X165608000Y-124968000D01*
G04 #@! TD*
M02*
